<svg id="Layer_1" data-name="Layer 1" xmlns="http://www.w3.org/2000/svg" viewBox="0 0 600 380"><defs><style>.cls-1{fill:#fff;}.cls-2{fill:#e6e7e8;}.cls-3{fill:#c90000;}</style></defs><title>CALS-social-profilealumni-18-19</title><path class="cls-1" d="M217.67,259.44h8.49v4.21h-8.49v9.93h8.49V278H203.39v-4.42h9.24v-9.93H187.24v-2a5.28,5.28,0,0,1,1.18-3.52l18.76-26.08c1.18-1.66,2-2.35,3.66-2.35h6.83Zm-5-25.53h-1.17L193,259.44h19.59Z"/><path class="cls-1" d="M263.69,259.44h8.49v4.21h-8.49v9.93h8.49V278H249.41v-4.42h9.25v-9.93H233.27v-2a5.27,5.27,0,0,1,1.17-3.52l18.77-26.08c1.17-1.66,2-2.35,3.65-2.35h6.83Zm-5-25.53h-1.18l-18.42,25.53h19.6Z"/><path class="cls-1" d="M287,270.75v7a5.48,5.48,0,0,1-1.52,4.28l-5.73,6.76-1.93-1.51,4.69-6.77a2.87,2.87,0,0,0,.49-1.93V278h-2.83v-7.25Z"/><path class="cls-1" d="M327.66,232.05c1.93,1.93,2.89,4.41,2.89,10.21,0,7-2.41,9.38-6.21,10.62V253c4.63,1,6.77,4.07,6.77,11.73,0,6.28-1.11,9-3,10.9-1.72,1.73-4.14,2.42-7.66,2.42h-13.8c-3.52,0-5.93-.69-7.66-2.42-1.93-1.93-3-4.62-3-10.9,0-7.66,2.14-10.69,6.76-11.73v-.07c-3.8-1.24-6.21-3.65-6.21-10.62,0-5.8,1-8.28,2.9-10.21,1.72-1.73,4.07-2.35,7.59-2.35h13.11C323.59,229.7,325.93,230.32,327.66,232.05Zm-26.15,32.43c0,5.38.75,6.83,1.58,7.65s1.87,1.25,4.35,1.25h12.14c2.49,0,3.52-.42,4.35-1.25s1.59-2.27,1.59-7.65c0-5.11-.69-7-1.73-8s-1.93-1.38-4.62-1.38H307.78c-2.62,0-3.65.48-4.55,1.38S301.51,259.37,301.51,264.48ZM302,242.4c0,4.55.76,6.14,1.65,7s2,1.38,4.63,1.38h10.49c2.62,0,3.79-.49,4.62-1.38s1.66-2.42,1.66-7-.76-5.94-1.66-6.84c-.69-.75-1.8-1.24-4.28-1.24H307.92c-2.48,0-3.59.49-4.28,1.24C302.75,236.46,302,237.77,302,242.4Z"/><path class="cls-1" d="M369.88,259.44h8.49v4.21h-8.49v9.93h8.49V278H355.6v-4.42h9.25v-9.93H339.46v-2a5.27,5.27,0,0,1,1.17-3.52l18.77-26.08c1.17-1.66,2-2.35,3.65-2.35h6.83Zm-5-25.53h-1.18l-18.42,25.53h19.6Z"/><path class="cls-1" d="M415.29,235.63c-.9-.89-2.07-1.17-4.21-1.17h-10.7c-3,0-3.86.62-4.62,1.38-1.38,1.31-2.28,4-2.28,18v.21c4.14-3.11,5.66-3.87,8.83-3.87h10.28c4.28,0,6.42.76,7.94,2.28,1.86,1.86,2.76,4.21,2.76,11.45,0,6.7-1,9.53-3.11,11.6-1.65,1.72-4.14,2.48-7.86,2.48h-12.9c-4.14,0-6.21-.83-7.8-2.42-2.55-2.62-3.66-6.07-3.66-21.73,0-15,1.31-19,3.87-21.6,1.79-1.79,4.07-2.55,8.76-2.55H412c3.66,0,5.8.62,7.25,2.07,1.93,1.93,2.62,4.21,2.76,11.32h-5.38C416.53,237.91,416.18,236.53,415.29,235.63Zm-21.81,21.53c.07,11.32.76,13.46,2.07,14.7.9.9,2,1.38,4.76,1.38h11.53c2.2,0,3.45-.35,4.41-1.31s1.59-2.69,1.59-7.94c0-5.52-.48-6.83-1.45-7.86-.83-.76-1.93-1.25-4.83-1.25H400.8C398.31,254.88,396.31,255.57,393.48,257.16Z"/><path class="cls-2" d="M156,86.51,309.24,39,454,82.25l-59.6,14.2-26.25,6.38,14.19,29.8v15.61s-5.67-1.42-17.74,3.55L327,166s-19.16,7.8-36.89,0L248.22,156s-7.09-2.83-20.57-2.83l-.71-18.45,14.19-30.51Z"/><path class="cls-3" d="M386.59,62.1s7.33-3.85,8.27,2.48V96.45l.23,12.06s5,3.54,0,9.22v6.39s3.55,0,4.26,7.09v83s-5,2.84-12.77,0-2.13-1.42-2.13-1.42V131.21s.71-5.68,4.26-6.38v-6.39s-5-7.1,2.13-10.64l-1.51-44.88Z"/><path class="cls-2" d="M242.37,338.42l-3-7H227.35l-3,7H219l14.06-30.91h.75l14,30.91Zm-9-21.3-4.33,10.19h8.66Z"/><path class="cls-2" d="M252.11,338.42v-30.5h5.2v25.76H270.7v4.74Z"/><path class="cls-2" d="M286.35,338.92c-7.62,0-12.11-4.29-12.11-12.19V307.92h5.2v18.43c0,5.24,2.58,7.82,7,7.82s7-2.62,7-7.82V307.92h5.2v18.81C298.62,334.51,293.84,338.92,286.35,338.92Z"/><path class="cls-2" d="M331.32,338.42l-.41-18.26-9.61,14.55h-.63L311,320.11l-.33,18.31h-5.12l1.29-30.87.79-.08,13.52,20.22,13.19-20.22.83.08,1.29,30.87Z"/><path class="cls-2" d="M368,339l-19.09-20.13v19.55h-5.2V307.51l.83-.17,18.84,19.85V307.92h5.2v30.95Z"/><path class="cls-2" d="M376.52,338.42v-30.5h5.2v30.5Z"/></svg>