<svg id="Layer_1" data-name="Layer 1" xmlns="http://www.w3.org/2000/svg" viewBox="0 0 600 380"><defs><style>.cls-1{fill:#e6e7e8;}.cls-2{fill:#c8c8c8;}</style></defs><title>CALS-social-profiledept-majors-programs-18-19</title><path class="cls-1" d="M180.25,331.35V351H166V331.35H131.68v-7.92l41.18-51.09h7.39V319.2h11.49v12.15ZM166,299.14,149.89,319.2H166Z"/><path class="cls-1" d="M211.93,354.31l-6.2-11.22c14.12-7.12,24.42-14.91,30.62-23.62a20.35,20.35,0,0,1-11.48,3.3c-14.79,0-23.76-10.7-23.76-23.9,0-13.46,10-26.4,27.06-26.4s27.19,11.88,27.19,28.25C255.36,319.07,244,338.47,211.93,354.31ZM228,284.22c-8.06,0-12.41,6.34-12.41,13.73,0,8.31,4.49,14,12.14,14,8.32,0,12.81-5.15,12.81-13.86C240.58,290,235.56,284.22,228,284.22Z"/><path class="cls-1" d="M159,109.12V47l-13.79,5.32-4.91-13.11,30-11.46h4.09v81.37Z"/><path class="cls-1" d="M215.24,109.12H199.68l29.08-65.81H195.17V29.52h55.3Z"/><path class="cls-2" d="M135.47,227l-.27-6.32c12.24-11.7,20.57-20.43,26-27.16,6.45-7.79,9.67-13.57,9.67-19.89,0-7.66-4.7-12.64-13.3-12.64-5.11,0-10.22,1.62-15.46,5.11L137,154.29a38.22,38.22,0,0,1,22.18-7c16.8,0,27,10.49,27,23.8,0,8.06-3.36,15.59-10.49,24.87a188.49,188.49,0,0,1-16.53,17.87h28.5V227Z"/><path class="cls-2" d="M227.42,181.18c16.26,1.75,23.12,10.48,23.12,22,0,13.18-11.16,25.14-29.17,25.14A65.83,65.83,0,0,1,200,224.73l3.5-12.63a52.24,52.24,0,0,0,16.8,3c9,0,14.92-4.16,14.92-11.56,0-6.85-5.65-11.42-17.07-11.42a43.72,43.72,0,0,0-9.55.8l-2.28-5.24,23.39-25.81h-28.5V148.65h49.47l.26,7.26Z"/><path class="cls-2" d="M296.25,67.43l-2.4-5.7H284l-2.41,5.7h-4.38l11.47-25.21h.61l11.43,25.21Zm-7.32-17.37-3.53,8.31h7.05Z"/><path class="cls-2" d="M309.86,67.7c-5.12,0-8.18-3.36-8.18-7.46s3.06-7.57,8.18-7.57a9.45,9.45,0,0,1,4.85,1.46l-1.25,2.68a7.54,7.54,0,0,0-3.67-1,4.07,4.07,0,0,0-4.31,4.41A4.27,4.27,0,0,0,310,64.55a7.42,7.42,0,0,0,3.63-1l1.08,2.71A9.45,9.45,0,0,1,309.86,67.7Z"/><path class="cls-2" d="M325.43,67.43V66a5.65,5.65,0,0,1-4.2,1.66c-2.82,0-5.09-1.66-5.09-4.58,0-2.58,2.07-4.51,5.26-4.51a8.28,8.28,0,0,1,3.9.91v-.61c0-2.24-1.19-3.22-3.5-3.22a12.81,12.81,0,0,0-3.59.61l-.45-2.88a17.72,17.72,0,0,1,4.65-.75c4.55,0,6.69,2.14,6.69,6.38v8.38ZM325.3,62a4.71,4.71,0,0,0-3-1c-1.46,0-2.54.78-2.54,2.07s1,2.1,2.61,2.1a3.57,3.57,0,0,0,2.92-1.39Z"/><path class="cls-2" d="M343.18,67.43V66.07a5.86,5.86,0,0,1-4.34,1.63c-4.08,0-6.82-3.15-6.82-7.46s3.25-7.57,7-7.57A5.85,5.85,0,0,1,343,54V42.56h3.84V67.43Zm-.14-10a4.35,4.35,0,0,0-3.39-1.7c-2.17,0-3.8,1.63-3.8,4.45,0,2.65,1.39,4.44,3.87,4.44A4,4,0,0,0,343,63Z"/><path class="cls-2" d="M363.77,61.36h-10c.31,2,1.53,3.32,4.51,3.32a15.39,15.39,0,0,0,4.21-.78l.48,3a21.1,21.1,0,0,1-5.06.81c-5.43,0-7.94-3.36-7.94-7.46,0-3.91,2.61-7.57,7.33-7.57,4.34,0,6.62,3.09,6.62,7A9.36,9.36,0,0,1,363.77,61.36ZM360.45,59c-.17-2-1.32-3.26-3.26-3.26s-3.12,1.19-3.39,3.26Z"/><path class="cls-2" d="M385.79,67.43V58.37c0-1.66-.61-2.48-2-2.48a5.07,5.07,0,0,0-3.6,2v9.54h-3.87v-9c0-1.76-.57-2.61-2.1-2.61a4.9,4.9,0,0,0-3.53,2.1v9.47h-3.87V52.94h3.74v2.41c1.62-1.66,3.25-2.68,5.22-2.68a3.76,3.76,0,0,1,4,2.78,7.46,7.46,0,0,1,5.53-2.78c3,0,4.41,1.93,4.41,4.85v9.91Z"/><path class="cls-2" d="M395.36,50.19a2.27,2.27,0,1,1,2.27-2.27A2.25,2.25,0,0,1,395.36,50.19Zm-1.93,17.24V52.94h3.87V67.43Z"/><path class="cls-2" d="M408.76,67.7c-5.12,0-8.17-3.36-8.17-7.46s3.05-7.57,8.17-7.57a9.46,9.46,0,0,1,4.86,1.46l-1.26,2.68a7.53,7.53,0,0,0-3.66-1,4.07,4.07,0,0,0-4.31,4.41,4.27,4.27,0,0,0,4.51,4.35,7.39,7.39,0,0,0,3.63-1l1.09,2.71A9.46,9.46,0,0,1,408.76,67.7Z"/><path class="cls-2" d="M289.81,101.36V100a5.87,5.87,0,0,1-4.35,1.63c-4.07,0-6.82-3.15-6.82-7.46s3.26-7.57,7-7.57a5.87,5.87,0,0,1,4,1.29V76.49h3.84v24.87Zm-.14-10a4.35,4.35,0,0,0-3.39-1.7c-2.17,0-3.8,1.63-3.8,4.45,0,2.64,1.39,4.44,3.87,4.44a4,4,0,0,0,3.32-1.63Z"/><path class="cls-2" d="M310.4,95.29h-10c.3,2,1.53,3.32,4.51,3.32a15.53,15.53,0,0,0,4.21-.78l.47,3a21,21,0,0,1-5.05.81c-5.43,0-7.94-3.36-7.94-7.46,0-3.91,2.61-7.57,7.33-7.57,4.34,0,6.61,3.09,6.61,7A10.28,10.28,0,0,1,310.4,95.29Zm-3.32-2.41c-.17-2-1.33-3.26-3.26-3.26s-3.12,1.19-3.39,3.26Z"/><path class="cls-2" d="M321.06,101.63a7.59,7.59,0,0,1-3.8-.95v8h-3.84V86.87h3.7v1.36a6.63,6.63,0,0,1,4.58-1.63c3.77,0,6.58,3.09,6.58,7.4S325.3,101.63,321.06,101.63Zm-.31-12a4.42,4.42,0,0,0-3.49,1.53v6.07a4.47,4.47,0,0,0,3.35,1.33c2.18,0,3.84-1.7,3.84-4.55C324.45,91.49,323,89.65,320.75,89.65Z"/><path class="cls-2" d="M339.82,101.36V100a5.69,5.69,0,0,1-4.21,1.66c-2.81,0-5.09-1.66-5.09-4.58,0-2.58,2.07-4.51,5.26-4.51a8.22,8.22,0,0,1,3.9.91v-.61c0-2.24-1.18-3.22-3.49-3.22a12.88,12.88,0,0,0-3.6.61l-.44-2.88a17.59,17.59,0,0,1,4.65-.75c4.55,0,6.68,2.14,6.68,6.38v8.38Zm-.14-5.43a4.69,4.69,0,0,0-3-1c-1.46,0-2.55.78-2.55,2.07s1,2.1,2.62,2.1a3.55,3.55,0,0,0,2.91-1.39Z"/><path class="cls-2" d="M350.88,91.82v9.54H347V86.87h3.73v2.38a6,6,0,0,1,5.16-2.65v3.8C353.66,90.16,351.76,90.57,350.88,91.82Z"/><path class="cls-2" d="M363.27,90v6.65c0,1.29.61,1.77,1.73,1.77a5.92,5.92,0,0,0,1.25-.17l.71,3a14.11,14.11,0,0,1-3.08.41c-2.72,0-4.45-1.32-4.45-5.19V90h-2.75v-.51l2.75-2.75V84.39L363.27,82v4.89h4V90Z"/><path class="cls-2" d="M388.85,101.36V92.3c0-1.66-.61-2.48-2-2.48a5.05,5.05,0,0,0-3.59,2v9.54h-3.87v-9c0-1.76-.58-2.61-2.11-2.61a4.91,4.91,0,0,0-3.53,2.1v9.47h-3.86V86.87h3.73v2.41c1.63-1.66,3.26-2.68,5.22-2.68a3.73,3.73,0,0,1,4,2.78,7.46,7.46,0,0,1,5.54-2.78c3,0,4.41,1.93,4.41,4.85v9.91Z"/><path class="cls-2" d="M409.44,95.29h-10c.3,2,1.53,3.32,4.51,3.32a15.53,15.53,0,0,0,4.21-.78l.47,3a21,21,0,0,1-5,.81c-5.43,0-7.94-3.36-7.94-7.46,0-3.91,2.61-7.57,7.33-7.57,4.34,0,6.62,3.09,6.62,7A9.36,9.36,0,0,1,409.44,95.29Zm-3.32-2.41c-.17-2-1.33-3.26-3.26-3.26s-3.12,1.19-3.39,3.26Z"/><path class="cls-2" d="M422.37,101.36v-9c0-1.83-.68-2.61-2.21-2.61a5.64,5.64,0,0,0-3.83,2v9.54h-3.87V86.87h3.73v2.41a7.66,7.66,0,0,1,5.37-2.68c3.18,0,4.68,2,4.68,4.85v9.91Z"/><path class="cls-2" d="M434.75,90v6.65c0,1.29.61,1.77,1.73,1.77a6,6,0,0,0,1.26-.17l.71,3a14.12,14.12,0,0,1-3.09.41c-2.71,0-4.44-1.32-4.44-5.19V90h-2.75v-.51l2.75-2.75V84.39L434.75,82v4.89h4V90Z"/><path class="cls-2" d="M445.92,101.63a9.8,9.8,0,0,1-5.74-1.9L441.67,97a7.52,7.52,0,0,0,4.18,1.7c1.42,0,2.07-.58,2.07-1.49,0-2.31-6.89-1.4-6.89-6,0-2.61,2.24-4.58,5.53-4.58A10,10,0,0,1,451.31,88l-1.19,2.81a7.47,7.47,0,0,0-3.73-1.25c-1.29,0-1.9.61-1.9,1.35,0,2.14,7,1.33,7,6.15C451.52,99.66,449.14,101.63,445.92,101.63Z"/><path class="cls-1" d="M286.23,182c-6.21,0-9.87-3.5-9.87-9.95V156.67h4.24v15c0,4.27,2.1,6.38,5.7,6.38s5.7-2.14,5.7-6.38v-15h4.24V172C296.24,178.35,292.34,182,286.23,182Z"/><path class="cls-1" d="M310.15,181.54v-9c0-1.83-.68-2.61-2.2-2.61a5.64,5.64,0,0,0-3.84,2v9.54h-3.87V167.05H304v2.41a7.62,7.62,0,0,1,5.36-2.68c3.19,0,4.68,2,4.68,4.85v9.91Z"/><path class="cls-1" d="M328.17,181.54v-1.36a5.87,5.87,0,0,1-4.35,1.63c-4.07,0-6.82-3.16-6.82-7.46s3.26-7.57,7-7.57a5.87,5.87,0,0,1,4,1.29v-11.4h3.84v24.87Zm-.14-10a4.35,4.35,0,0,0-3.39-1.7c-2.17,0-3.8,1.63-3.8,4.45,0,2.64,1.39,4.44,3.87,4.44a4,4,0,0,0,3.32-1.63Z"/><path class="cls-1" d="M348.76,175.46h-10c.3,2,1.53,3.33,4.51,3.33a15.53,15.53,0,0,0,4.21-.78l.47,3a21,21,0,0,1-5.05.81c-5.43,0-7.94-3.36-7.94-7.46,0-3.91,2.61-7.57,7.33-7.57,4.34,0,6.62,3.09,6.62,6.95A9.25,9.25,0,0,1,348.76,175.46Zm-3.32-2.4c-.17-2-1.33-3.26-3.26-3.26s-3.12,1.19-3.39,3.26Z"/><path class="cls-1" d="M355.65,172v9.54h-3.87V167.05h3.73v2.37a6,6,0,0,1,5.16-2.64v3.8C358.43,170.34,356.53,170.75,355.65,172Z"/><path class="cls-1" d="M370.27,189.14a19.05,19.05,0,0,1-4.81-.71l.37-3.4a12.76,12.76,0,0,0,3.83.68c2.41,0,3.53-1,3.53-3.36v-1.76a6.13,6.13,0,0,1-3.9,1.22c-4.07,0-7.13-2.75-7.13-7.33,0-4.27,3.26-7.7,7.1-7.7a6.4,6.4,0,0,1,4.07,1.32v-1H377v15.24C377,187.34,374.48,189.14,370.27,189.14Zm2.92-17.81a4.42,4.42,0,0,0-3.25-1.46c-2.35,0-3.94,1.83-3.94,4.65,0,2.44,1.42,4.27,4,4.27a4,4,0,0,0,3.15-1.46Z"/><path class="cls-1" d="M384.59,172v9.54h-3.87V167.05h3.74v2.37a6,6,0,0,1,5.15-2.64v3.8C387.37,170.34,385.47,170.75,384.59,172Z"/><path class="cls-1" d="M400.1,181.54v-1.39a5.69,5.69,0,0,1-4.21,1.66c-2.82,0-5.09-1.66-5.09-4.58,0-2.58,2.07-4.51,5.26-4.51a8.25,8.25,0,0,1,3.9.91V173c0-2.24-1.19-3.22-3.49-3.22a12.88,12.88,0,0,0-3.6.61l-.44-2.89a18,18,0,0,1,4.65-.74c4.55,0,6.68,2.14,6.68,6.38v8.38Zm-.14-5.43a4.7,4.7,0,0,0-3-1c-1.46,0-2.55.78-2.55,2.07s.95,2.1,2.61,2.1a3.57,3.57,0,0,0,2.92-1.39Z"/><path class="cls-1" d="M417.84,181.54v-1.36a5.84,5.84,0,0,1-4.34,1.63c-4.07,0-6.82-3.16-6.82-7.46s3.26-7.57,7-7.57a5.88,5.88,0,0,1,4,1.29v-11.4h3.83v24.87Zm-.13-10a4.37,4.37,0,0,0-3.4-1.7c-2.17,0-3.8,1.63-3.8,4.45,0,2.64,1.4,4.44,3.87,4.44a4,4,0,0,0,3.33-1.63Z"/><path class="cls-1" d="M435.22,181.54V179.3a8,8,0,0,1-5.26,2.51c-3.19,0-4.79-2-4.79-4.85v-9.91H429v9c0,1.8.81,2.58,2.31,2.58a5.25,5.25,0,0,0,3.73-1.9v-9.64H439v14.49Z"/><path class="cls-1" d="M451,181.54v-1.39a5.69,5.69,0,0,1-4.21,1.66c-2.82,0-5.09-1.66-5.09-4.58,0-2.58,2.07-4.51,5.26-4.51a8.28,8.28,0,0,1,3.9.91V173c0-2.24-1.19-3.22-3.49-3.22a12.88,12.88,0,0,0-3.6.61l-.44-2.89a18,18,0,0,1,4.65-.74c4.54,0,6.68,2.14,6.68,6.38v8.38Zm-.14-5.43a4.71,4.71,0,0,0-3-1c-1.46,0-2.54.78-2.54,2.07s.95,2.1,2.61,2.1a3.57,3.57,0,0,0,2.92-1.39Z"/><path class="cls-1" d="M463.14,170.17v6.65c0,1.29.61,1.77,1.73,1.77a5.84,5.84,0,0,0,1.25-.17l.72,3a14.2,14.2,0,0,1-3.09.41c-2.71,0-4.45-1.32-4.45-5.19v-6.45h-2.74v-.51l2.74-2.75v-2.34l3.84-2.41v4.89h4v3.12Z"/><path class="cls-1" d="M482.85,175.46h-10c.3,2,1.53,3.33,4.51,3.33a15.53,15.53,0,0,0,4.21-.78l.47,3a21,21,0,0,1-5.05.81c-5.43,0-7.94-3.36-7.94-7.46,0-3.91,2.61-7.57,7.33-7.57,4.34,0,6.61,3.09,6.61,6.95A10.16,10.16,0,0,1,482.85,175.46Zm-3.32-2.4c-.17-2-1.33-3.26-3.26-3.26s-3.12,1.19-3.39,3.26Z"/><path class="cls-1" d="M294.85,215.47v-9.06c0-1.66-.61-2.48-2-2.48a5,5,0,0,0-3.59,2v9.54h-3.87v-9c0-1.76-.58-2.61-2.1-2.61a4.9,4.9,0,0,0-3.53,2.1v9.47h-3.87V201h3.73v2.41c1.63-1.66,3.26-2.68,5.23-2.68a3.75,3.75,0,0,1,4,2.78,7.44,7.44,0,0,1,5.53-2.78c3,0,4.41,1.93,4.41,4.85v9.91Z"/><path class="cls-1" d="M310.69,215.47v-1.39a5.65,5.65,0,0,1-4.2,1.66c-2.82,0-5.09-1.66-5.09-4.58,0-2.58,2.07-4.51,5.26-4.51a8.28,8.28,0,0,1,3.9.91V207c0-2.24-1.19-3.22-3.5-3.22a12.87,12.87,0,0,0-3.59.61l-.44-2.89a18,18,0,0,1,4.64-.74c4.55,0,6.69,2.14,6.69,6.38v8.38Zm-.13-5.43a4.71,4.71,0,0,0-3-1c-1.46,0-2.54.78-2.54,2.07s1,2.1,2.61,2.1a3.57,3.57,0,0,0,2.92-1.39Z"/><path class="cls-1" d="M322,217.4c0,3.8-1.8,5.67-5.46,5.67a12,12,0,0,1-2.48-.27l.37-3.19a8.53,8.53,0,0,0,1.39.13c1.53,0,2.31-.54,2.31-2.37V201H322ZM320,198.23a2.28,2.28,0,0,1,0-4.55,2.28,2.28,0,1,1,0,4.55Z"/><path class="cls-1" d="M332.82,215.74a7.52,7.52,0,1,1,7.53-7.53A7.3,7.3,0,0,1,332.82,215.74Zm0-12.08c-2.31,0-3.77,1.76-3.77,4.55s1.46,4.58,3.77,4.58,3.73-1.77,3.73-4.58S335.09,203.66,332.82,203.66Z"/><path class="cls-1" d="M347.37,205.93v9.54H343.5V201h3.74v2.37a6,6,0,0,1,5.15-2.64v3.8C350.15,204.27,348.25,204.68,347.37,205.93Z"/><path class="cls-1" d="M359.42,215.74a9.8,9.8,0,0,1-5.74-1.9l1.5-2.75a7.47,7.47,0,0,0,4.17,1.7c1.42,0,2.07-.58,2.07-1.49,0-2.31-6.89-1.4-6.89-6,0-2.61,2.24-4.58,5.53-4.58a10,10,0,0,1,4.75,1.36l-1.19,2.81a7.47,7.47,0,0,0-3.73-1.25c-1.29,0-1.9.61-1.9,1.35,0,2.14,7,1.33,7,6.15C365,213.77,362.64,215.74,359.42,215.74Z"/><path class="cls-2" d="M300.46,285.85V296.7a16.12,16.12,0,0,1-9.26,2.72c-7.09,0-13.2-5.16-13.2-12.83s6.21-12.86,13.2-12.86a15.84,15.84,0,0,1,8.82,2.58l-1.93,3.39a12.59,12.59,0,0,0-6.69-2.07c-5.66,0-8.85,4-8.85,9a8.73,8.73,0,0,0,8.82,9.06,9.43,9.43,0,0,0,5-1.19v-4.88h-5.8v-3.73Z"/><path class="cls-2" d="M308.23,289.48V299h-3.87V284.52h3.74v2.38a6,6,0,0,1,5.15-2.65v3.8C311,287.81,309.11,288.22,308.23,289.48Z"/><path class="cls-2" d="M323.74,299v-1.39a5.69,5.69,0,0,1-4.21,1.66c-2.82,0-5.09-1.66-5.09-4.58,0-2.58,2.07-4.51,5.26-4.51a8.24,8.24,0,0,1,3.9.92v-.62c0-2.24-1.19-3.22-3.49-3.22a12.88,12.88,0,0,0-3.6.61l-.44-2.88a17.59,17.59,0,0,1,4.65-.75c4.55,0,6.68,2.14,6.68,6.38V299Zm-.14-5.43a4.7,4.7,0,0,0-3-1c-1.46,0-2.55.78-2.55,2.07s.95,2.1,2.61,2.1a3.57,3.57,0,0,0,2.92-1.39Z"/><path class="cls-2" d="M341.48,299v-1.36a5.84,5.84,0,0,1-4.34,1.63c-4.07,0-6.82-3.15-6.82-7.46s3.26-7.57,7-7.57a5.93,5.93,0,0,1,4,1.29v-11.4h3.83V299Zm-.13-10a4.4,4.4,0,0,0-3.4-1.7c-2.17,0-3.8,1.63-3.8,4.45,0,2.65,1.4,4.44,3.87,4.44a4.05,4.05,0,0,0,3.33-1.62Z"/><path class="cls-2" d="M358.86,299v-2.24a7.94,7.94,0,0,1-5.26,2.51c-3.19,0-4.79-2-4.79-4.85v-9.91h3.87v9c0,1.8.81,2.58,2.31,2.58a5.22,5.22,0,0,0,3.73-1.9v-9.64h3.87V299Z"/><path class="cls-2" d="M374.67,299v-1.39a5.69,5.69,0,0,1-4.21,1.66c-2.82,0-5.09-1.66-5.09-4.58,0-2.58,2.07-4.51,5.26-4.51a8.27,8.27,0,0,1,3.9.92v-.62c0-2.24-1.19-3.22-3.49-3.22a12.88,12.88,0,0,0-3.6.61L367,285a17.59,17.59,0,0,1,4.65-.75c4.54,0,6.68,2.14,6.68,6.38V299Zm-.14-5.43a4.71,4.71,0,0,0-3-1c-1.46,0-2.54.78-2.54,2.07s.95,2.1,2.61,2.1a3.57,3.57,0,0,0,2.92-1.39Z"/><path class="cls-2" d="M386.78,287.64v6.65c0,1.29.61,1.77,1.73,1.77a5.84,5.84,0,0,0,1.25-.17l.72,3a14.8,14.8,0,0,1-3.09.4c-2.71,0-4.45-1.32-4.45-5.19v-6.45H380.2v-.51l2.74-2.74V282l3.84-2.4v4.88h4v3.12Z"/><path class="cls-2" d="M406.49,292.94h-10c.3,2,1.53,3.32,4.51,3.32a15.53,15.53,0,0,0,4.21-.78l.47,3a21,21,0,0,1-5.05.81c-5.43,0-7.94-3.36-7.94-7.46,0-3.9,2.61-7.57,7.33-7.57,4.34,0,6.61,3.09,6.61,7A10.28,10.28,0,0,1,406.49,292.94Zm-3.32-2.41c-.17-2-1.33-3.26-3.26-3.26s-3.12,1.19-3.39,3.26Z"/><path class="cls-2" d="M285.7,333.21a7.62,7.62,0,0,1-3.8-.95v8h-3.83V318.45h3.7v1.36a6.62,6.62,0,0,1,4.58-1.63c3.76,0,6.58,3.09,6.58,7.4A7.31,7.31,0,0,1,285.7,333.21Zm-.3-12a4.43,4.43,0,0,0-3.5,1.53v6.08a4.5,4.5,0,0,0,3.36,1.32c2.17,0,3.84-1.7,3.84-4.55C289.1,323.07,287.67,321.23,285.4,321.23Z"/><path class="cls-2" d="M300.06,323.41v9.53h-3.87V318.45h3.73v2.38a6,6,0,0,1,5.16-2.65V322C302.84,321.74,300.94,322.15,300.06,323.41Z"/><path class="cls-2" d="M314.07,333.21a7.52,7.52,0,1,1,7.53-7.53A7.31,7.31,0,0,1,314.07,333.21Zm0-12.08c-2.31,0-3.77,1.77-3.77,4.55s1.46,4.58,3.77,4.58,3.73-1.76,3.73-4.58S316.34,321.13,314.07,321.13Z"/><path class="cls-2" d="M332.25,340.54a19.05,19.05,0,0,1-4.81-.71l.37-3.39a12.72,12.72,0,0,0,3.83.67c2.41,0,3.53-.95,3.53-3.35V332a6.13,6.13,0,0,1-3.9,1.22c-4.07,0-7.13-2.75-7.13-7.33,0-4.27,3.26-7.7,7.1-7.7a6.4,6.4,0,0,1,4.07,1.32v-1.05H339v15.24C339,338.74,336.46,340.54,332.25,340.54Zm2.92-17.81a4.42,4.42,0,0,0-3.25-1.46c-2.35,0-3.94,1.83-3.94,4.65,0,2.44,1.42,4.27,4,4.27a4,4,0,0,0,3.15-1.46Z"/><path class="cls-2" d="M346.57,323.41v9.53H342.7V318.45h3.74v2.38a6,6,0,0,1,5.15-2.65V322C349.36,321.74,347.45,322.15,346.57,323.41Z"/><path class="cls-2" d="M362.08,332.94v-1.39a5.69,5.69,0,0,1-4.21,1.66c-2.82,0-5.09-1.66-5.09-4.58,0-2.58,2.07-4.51,5.26-4.51a8.34,8.34,0,0,1,3.9.91v-.61c0-2.24-1.18-3.22-3.49-3.22a12.88,12.88,0,0,0-3.6.61l-.44-2.88a17.59,17.59,0,0,1,4.65-.75c4.55,0,6.68,2.14,6.68,6.38v8.38Zm-.14-5.43a4.69,4.69,0,0,0-3-1c-1.46,0-2.55.78-2.55,2.07s.95,2.1,2.61,2.1a3.57,3.57,0,0,0,2.92-1.39Z"/><path class="cls-2" d="M388.27,332.94v-9.06c0-1.66-.61-2.48-2-2.48a5.05,5.05,0,0,0-3.6,2v9.53h-3.87v-9c0-1.76-.57-2.61-2.1-2.61a4.9,4.9,0,0,0-3.53,2.1v9.47h-3.87V318.45H373v2.41c1.63-1.66,3.26-2.68,5.23-2.68a3.76,3.76,0,0,1,4,2.78,7.44,7.44,0,0,1,5.53-2.78c3,0,4.41,1.93,4.41,4.85v9.91Z"/><path class="cls-2" d="M400.32,333.21a9.73,9.73,0,0,1-5.74-1.9l1.5-2.75a7.5,7.5,0,0,0,4.17,1.7c1.43,0,2.07-.58,2.07-1.49,0-2.31-6.89-1.39-6.89-6,0-2.61,2.24-4.58,5.53-4.58a10,10,0,0,1,4.75,1.36l-1.18,2.81a7.53,7.53,0,0,0-3.74-1.25c-1.29,0-1.9.61-1.9,1.36,0,2.13,7,1.32,7,6.14C405.92,331.24,403.54,333.21,400.32,333.21Z"/></svg>