<svg id="Layer_1" data-name="Layer 1" xmlns="http://www.w3.org/2000/svg" xmlns:xlink="http://www.w3.org/1999/xlink" viewBox="0 0 600 380"><defs><style>.cls-1,.cls-5{fill:none;}.cls-2{fill:#f5eed9;}.cls-3{fill:#ebdcb2;}.cls-4{fill:url(#New_Pattern_4);}.cls-5{stroke:#1a1a1a;stroke-miterlimit:10;stroke-width:2px;}.cls-6{fill:#4d4d4d;}</style><pattern id="New_Pattern_4" data-name="New Pattern 4" width="114.44" height="80.04" patternTransform="translate(50.08 -48.88)" patternUnits="userSpaceOnUse" viewBox="0 0 114.44 80.04"><rect class="cls-1" width="114.44" height="80.04"/><rect class="cls-2" x="96.95" y="66.14" width="4.62" height="5.2"/><rect class="cls-2" x="107.93" y="71.34" width="4.62" height="5.2"/><rect class="cls-2" x="107.24" y="55.08" width="4.62" height="5.2"/><rect class="cls-2" x="89.33" y="55.08" width="4.62" height="5.2"/><rect class="cls-2" x="96.26" y="43.52" width="4.62" height="5.2"/><rect class="cls-2" x="50.02" y="75.09" width="4.62" height="5.2"/><rect class="cls-2" x="32.11" y="75.09" width="4.62" height="5.2"/><rect class="cls-2" x="39.04" y="63.53" width="4.62" height="5.2"/><rect class="cls-2" x="67.35" y="67.58" width="4.62" height="5.2"/><rect class="cls-2" x="77.71" y="79.84" width="4.62" height="5.2"/><rect class="cls-2" x="10.13" y="47.56" width="4.62" height="5.2"/><rect class="cls-2" x="5.51" y="62.59" width="4.62" height="5.2"/><rect class="cls-2" x="20.49" y="59.83" width="4.62" height="5.2"/><rect class="cls-2" x="96.95" y="26.12" width="4.62" height="5.2"/><rect class="cls-2" x="107.93" y="31.32" width="4.62" height="5.2"/><rect class="cls-2" x="107.24" y="15.06" width="4.62" height="5.2"/><rect class="cls-2" x="89.33" y="15.06" width="4.62" height="5.2"/><rect class="cls-2" x="96.26" y="3.5" width="4.62" height="5.2"/><rect class="cls-2" x="39.73" y="46.13" width="4.62" height="5.2"/><rect class="cls-2" x="50.71" y="51.33" width="4.62" height="5.2"/><rect class="cls-2" x="50.02" y="35.07" width="4.62" height="5.2"/><rect class="cls-2" x="32.11" y="35.07" width="4.62" height="5.2"/><rect class="cls-2" x="39.04" y="23.51" width="4.62" height="5.2"/><rect class="cls-2" x="67.35" y="27.55" width="4.62" height="5.2"/><rect class="cls-2" x="62.73" y="42.58" width="4.62" height="5.2"/><rect class="cls-2" x="77.71" y="39.82" width="4.62" height="5.2"/><rect class="cls-2" x="10.13" y="7.54" width="4.62" height="5.2"/><rect class="cls-2" x="5.51" y="22.57" width="4.62" height="5.2"/><rect class="cls-2" x="20.49" y="19.81" width="4.62" height="5.2"/><rect class="cls-2" x="39.73" y="6.11" width="4.62" height="5.2"/><rect class="cls-2" x="50.71" y="11.31" width="4.62" height="5.2"/><rect class="cls-2" x="50.02" y="-4.96" width="4.62" height="5.2"/><rect class="cls-2" x="32.11" y="-4.96" width="4.62" height="5.2"/><rect class="cls-2" x="62.73" y="2.56" width="4.62" height="5.2"/><rect class="cls-2" x="77.71" y="-0.2" width="4.62" height="5.2"/></pattern></defs><title>CALS-social-profilefaculty-extension-18-19</title><path class="cls-3" d="M278.87,146.45H292v17.27H278.87V172H292v17.91H239.88V172h13.84v-8.26H211.31V153.06a19.8,19.8,0,0,1,3.81-12.58l22.35-33.14c2.79-4.19,6.22-6.35,11.17-6.35h30.23Zm-25.15-26.92h-.89l-16.89,26.92h17.78Z"/><path class="cls-3" d="M327.76,161.06c.26,5.33.51,6.6,1.4,7.49s2.16,1,5.46,1h7c3.93,0,5.46-.38,6.35-1.27s1.52-3.05,1.65-16.64c-3.94,3.68-7.49,5.46-14.73,5.46h-10c-8.89,0-13.08-1.27-16.76-4.83-4.83-4.69-6.1-12.19-6.1-20.82,0-14.48,1.78-20.45,6.35-25.53,2.92-3,7.75-5,15.37-5H351c9.39,0,13.46,1.52,17.27,5.33,5.33,5.21,8.38,15.24,8.38,39.12s-3.05,33.91-8.38,39.11c-3.81,3.81-7.88,5.34-17.27,5.34H325.48c-8.64,0-13.34-1-16.77-4.45-4.69-4.7-6-14.1-6.34-24.38Zm21.72-25.91c-.25-10.54-.89-12.32-1.52-13.08-.89-.89-2.42-1.27-6.35-1.27h-7.49c-2.93,0-4.2.38-4.83,1s-1.53,2-1.53,7.49.77,6.73,1.53,7.49,1.9,1,4.83,1h6.6A13.34,13.34,0,0,0,349.48,135.15Z"/><path class="cls-4" d="M278.87,146.45H292v17.27H278.87V172H292v17.91H239.88V172h13.84v-8.26H211.31V153.06a19.8,19.8,0,0,1,3.81-12.58l22.35-33.14c2.79-4.19,6.22-6.35,11.17-6.35h30.23Zm-25.15-26.92h-.89l-16.89,26.92h17.78Z"/><path class="cls-4" d="M327.76,161.06c.26,5.33.51,6.6,1.4,7.49s2.16,1,5.46,1h7c3.93,0,5.46-.38,6.35-1.27s1.52-3.05,1.65-16.64c-3.94,3.68-7.49,5.46-14.73,5.46h-10c-8.89,0-13.08-1.27-16.76-4.83-4.83-4.69-6.1-12.19-6.1-20.82,0-14.48,1.78-20.45,6.35-25.53,2.92-3,7.75-5,15.37-5H351c9.39,0,13.46,1.52,17.27,5.33,5.33,5.21,8.38,15.24,8.38,39.12s-3.05,33.91-8.38,39.11c-3.81,3.81-7.88,5.34-17.27,5.34H325.48c-8.64,0-13.34-1-16.77-4.45-4.69-4.7-6-14.1-6.34-24.38Zm21.72-25.91c-.25-10.54-.89-12.32-1.52-13.08-.89-.89-2.42-1.27-6.35-1.27h-7.49c-2.93,0-4.2.38-4.83,1s-1.53,2-1.53,7.49.77,6.73,1.53,7.49,1.9,1,4.83,1h6.6A13.34,13.34,0,0,0,349.48,135.15Z"/><path class="cls-5" d="M282.87,142.45H296v17.27H282.87V168H296v17.91H243.88V168h13.84v-8.26H215.31V149.06a19.8,19.8,0,0,1,3.81-12.58l22.35-33.14c2.79-4.19,6.22-6.35,11.17-6.35h30.23Zm-25.15-26.92h-.89l-16.89,26.92h17.78Z"/><path class="cls-5" d="M331.76,157.06c.26,5.33.51,6.6,1.4,7.49s2.16,1,5.46,1h7c3.93,0,5.46-.38,6.35-1.27s1.52-3.05,1.65-16.64c-3.94,3.68-7.49,5.46-14.73,5.46h-10c-8.89,0-13.08-1.27-16.76-4.83-4.83-4.69-6.1-12.19-6.1-20.82,0-14.48,1.78-20.45,6.35-25.53,2.92-3,7.75-5,15.37-5H355c9.39,0,13.46,1.52,17.27,5.33,5.33,5.21,8.38,15.24,8.38,39.12s-3.05,33.91-8.38,39.11c-3.81,3.81-7.88,5.34-17.27,5.34H329.48c-8.64,0-13.34-1-16.77-4.45-4.69-4.7-6-14.1-6.34-24.38Zm21.72-25.91c-.25-10.54-.89-12.32-1.52-13.08-.89-.89-2.42-1.27-6.35-1.27h-7.49c-2.93,0-4.2.38-4.83,1s-1.53,2-1.53,7.49.77,6.73,1.53,7.49,1.9,1,4.83,1h6.6A13.34,13.34,0,0,0,353.48,131.15Z"/><path class="cls-6" d="M86.26,221.39v-5.17h23.86v9.54h-5.78v-4.42H96.17v6.9h6.73v4.87H96.17v6.81h3.71v5.2H86.26v-5.2h3.47V221.39Z"/><path class="cls-6" d="M109.09,245.12v-5.2h2.81l7.1-21.76c.54-1.61,1.11-2.06,2.72-2.06h4.67c1.61,0,2.19.45,2.72,2.06l7.11,21.76H139v5.2h-13V240h3.3l-1.12-3.79h-8.71L118.34,240h3.3v5.12Zm11.68-13.83h6L124,221.88h-.54Z"/><path class="cls-6" d="M148.89,245.12c-2.72,0-3.84-.37-4.83-1.36-1.57-1.57-2.31-4.25-2.31-13.09s.74-11.56,2.31-13.08c1-1,2.11-1.37,4.83-1.37h9.5c2.56,0,4,.33,4.91,1.24,1.45,1.45,1.86,3.76,1.94,9.21h-6.4c-.08-3.55-.2-4.42-.53-4.75s-.62-.33-1.78-.33H151c-1.28,0-1.61.08-1.9.33s-.54,1.41-.54,8.75.21,8.39.54,8.72.62.37,1.9.37h5.49c1.2,0,1.53-.13,1.78-.37s.41-1,.53-5h6.4c-.08,5.65-.45,8-1.94,9.45-1,1-2.39,1.32-5,1.32Z"/><path class="cls-6" d="M185.39,221.39v-5.17h13.17v5.17h-3.38v11.93c0,6.81-.54,8.58-2.11,10.11-1.32,1.32-3.14,1.69-6.89,1.69H181c-3.76,0-5.54-.37-6.81-1.65-1.57-1.57-2.11-3.3-2.11-10.15V221.39h-3.39v-5.17H182v5.17h-3.39V234c0,4,.29,4.79.74,5.24s1.16.54,3.47.54h1.9c2.23,0,3-.13,3.39-.54s.7-1.24.7-5.24V221.39Z"/><path class="cls-6" d="M204.72,221.39h-3.47v-5.17h13.58v5.17h-3.67V240H219v-5.24h5.78v10.4H201.25v-5.2h3.47Z"/><path class="cls-6" d="M244.81,239.92v5.2H230.94v-5.2h3.71V221.3h-4.71v5.49h-5.45V216.22h26.76v10.57H245.8V221.3h-4.71v18.62Z"/><path class="cls-6" d="M256.12,221.39h-2.89v-5.17h13.26v5.08h-3l4.38,7.1h.25l4.66-7.1h-3v-5.08h12.67v5.17h-2.93L271,233.48v6.44h3.67v5.2H260.87v-5.2h3.67v-6.31Z"/><path class="cls-6" d="M302.82,218.91v23.45h3.43v2.76H295.8v-2.76h4.05V219H295.8v-2.77h9.08c.95,0,1.16.17,1.41,1.12l7.59,24.81h.5l7.56-24.81c.24-1,.41-1.12,1.4-1.12h9V219h-4.05v23.37h4.05v2.76H321.73v-2.76h3.43V218.91h-.58l-8,25.1c-.29,1-.46,1.11-1.36,1.11h-2.44c-.91,0-1.11-.16-1.4-1.11l-8-25.1Z"/><path class="cls-6" d="M336.27,219v-2.77h22.21v8.47h-3.06V219h-12v9.78h9.08v2.69h-9.08v10.9h12.26v-6.24h3.05v9H336.27v-2.76h4V219Z"/><path class="cls-6" d="M370.58,218.91v23.45H374v2.76H363.56v-2.76h4V219h-4v-2.77h9.08c.95,0,1.16.17,1.4,1.12l7.6,24.81h.5l7.55-24.81c.25-1,.41-1.12,1.41-1.12h8.95V219h-4v23.37h4v2.76H389.48v-2.76h3.43V218.91h-.58l-8,25.1c-.28,1-.45,1.11-1.36,1.11h-2.43c-.91,0-1.12-.16-1.41-1.11l-8-25.1Z"/><path class="cls-6" d="M427.18,236.91c0,4.62-.66,5.9-1.73,6.93-.91.91-2.31,1.28-4.29,1.28H404v-2.76h4.05V219H404v-2.77h17c2,0,3.35.33,4.25,1.2,1.12,1.12,1.66,2.56,1.66,6.44,0,4-1.45,5.53-3.89,6.19v.09C426,230.71,427.18,232.45,427.18,236.91ZM420,228.77c1.45,0,2.19-.2,2.64-.66s.95-1.4.95-4.29-.37-3.76-.86-4.25-1.12-.58-2.52-.58h-9.13v9.78Zm-8.92,13.59h9.37c1.37,0,2.07-.13,2.52-.58s.87-1.32.87-4.83c0-3.26-.37-4.25-.95-4.83s-1.2-.66-2.64-.66h-9.17Z"/><path class="cls-6" d="M432.35,219v-2.77h22.21v8.47H451.5V219h-12v9.78h9.08v2.69h-9.08v10.9h12.26v-6.24h3.06v9H432.35v-2.76h4V219Z"/><path class="cls-6" d="M482.1,242.32H486v2.8h-4.34c-1.23,0-1.73-.2-2.1-.57-.54-.54-.79-1.37-1-7.19-.08-2.85-.41-3.71-1-4.29s-1.53-.91-3.14-.91h-7.68v10.2H471v2.76H459.64v-2.76h4V219h-4v-2.77h16.64c2,0,3.3.33,4.21,1.2,1.11,1.12,1.65,2.48,1.65,6.69,0,5-1.32,6.23-4.17,6.81V231c2.81.58,3.67,1.7,3.84,6.32C481.93,240,482,241.24,482.1,242.32Zm-6.73-12.76a3.37,3.37,0,0,0,2.56-.7c.49-.5.91-1.32.91-4.58s-.42-4.22-.91-4.71-1.12-.58-2.52-.58h-8.63v10.57Z"/><path class="cls-6" d="M509.31,243.84c-.83.83-2,1.28-4.21,1.28h-9.33c-2.11,0-3.35-.29-4.22-1.19-1.11-1.12-1.52-2.27-1.56-7.52h3.17c0,4.05.29,4.75.79,5.25s.95.57,2.31.57h8.34c1.36,0,1.94-.12,2.44-.62s.74-1.65.74-4.41-.12-3.39-.74-4c-.42-.45-1-.62-2.56-.78l-8.51-.83c-2.27-.2-3.47-.57-4.25-1.4-1-1-1.36-2.44-1.36-6.15,0-3.55.41-5.33,1.69-6.57.83-.82,2-1.28,4.17-1.28h8.42c2.15,0,3.39.29,4.25,1.2,1.16,1.16,1.49,2.35,1.57,7.31h-3.18c-.08-3.72-.24-4.5-.78-5s-1-.58-2.31-.58h-7.47c-1.33,0-1.9.13-2.4.62s-.74,1.82-.74,4.3.16,3.26.74,3.84c.41.45,1,.58,2.56.74l8.51.83c2.18.2,3.42.57,4.21,1.36,1,1,1.4,2.52,1.4,6.36S510.55,242.65,509.31,243.84Z"/><path class="cls-6" d="M114.68,285.19v-8.32c0-2.05-.89-3.09-2.78-3.09a6.2,6.2,0,0,0-4.13,2.14v9.27h-2.49V262.08h2.49v11.85a6.74,6.74,0,0,1,4.76-2.23c3.06,0,4.64,1.86,4.64,4.5v9Z"/><path class="cls-6" d="M126.78,285.44a6.87,6.87,0,1,1,6.69-6.87A6.6,6.6,0,0,1,126.78,285.44Zm0-11.73c-2.55,0-4.25,2-4.25,4.86s1.7,4.85,4.25,4.85,4.23-1.95,4.23-4.85S129.3,273.71,126.78,273.71Z"/><path class="cls-6" d="M136.62,285.19V262.08h2.49v23.11Z"/><path class="cls-6" d="M153,285.19v-1.36a5.74,5.74,0,0,1-4.22,1.61c-3.82,0-6.47-2.77-6.47-6.74a6.84,6.84,0,0,1,6.53-7,6.16,6.16,0,0,1,4,1.32V262.08h2.49v23.11Zm-.12-9.62a4.89,4.89,0,0,0-3.85-1.79c-2.49,0-4.26,2-4.26,4.85,0,2.65,1.64,4.73,4.42,4.73a4.68,4.68,0,0,0,3.69-1.73Z"/><path class="cls-6" d="M166.07,285.19V262.08H180.7V267h-9.27v4.13h8.45v4.66h-8.45v4.51h9.27v4.89Z"/><path class="cls-6" d="M192.58,285.19,190,281l-2.62,4.16h-4.94l4.82-6.78-4.82-6.9h5.07l2.55,4.19,2.62-4.19h4.95l-4.79,6.81,4.79,6.87Z"/><path class="cls-6" d="M205.7,275.2v4.88c0,1.17.44,1.58,1.17,1.58a5,5,0,0,0,1.2-.22l1.07,3.5a15.65,15.65,0,0,1-3.53.5c-2.68,0-4.57-1.16-4.57-5.48V275.2h-3v-.67l3-3v-2.08l4.66-2.68v4.76h3.63v3.69Z"/><path class="cls-6" d="M224.65,279.77h-9c.28,1.54,1.26,2.2,3.43,2.2a16.91,16.91,0,0,0,4.16-.72l.45,3.44a22.38,22.38,0,0,1-5.08.75c-5.36,0-7.6-3.21-7.6-7a6.93,6.93,0,0,1,7.19-7.16c4.32,0,6.49,3,6.49,6.59C224.74,278.29,224.71,279.29,224.65,279.77Zm-4-2.56a2.36,2.36,0,0,0-2.43-2.42,2.43,2.43,0,0,0-2.52,2.42Z"/><path class="cls-6" d="M236.57,285.19v-8.32c0-1.33-.54-1.74-1.45-1.74a4.38,4.38,0,0,0-3.09,1.64v8.42h-4.7V271.51h4.57V274c1.8-1.83,3.38-2.72,5.11-2.72,2.84,0,4.26,1.87,4.26,4.54v9.4Z"/><path class="cls-6" d="M249.21,285.44a10.84,10.84,0,0,1-5.92-1.76l1.48-3.35a8.62,8.62,0,0,0,4.44,1.68c1.11,0,1.58-.38,1.58-.92,0-1.7-6.65-.66-6.65-5.23,0-2.78,2.46-4.61,5.8-4.61a11.4,11.4,0,0,1,5,1.3l-1.14,3.34a9.11,9.11,0,0,0-4.06-1.23c-.92,0-1.42.38-1.42.85,0,1.73,6.9.66,6.9,5.55C255.2,283.77,252.59,285.44,249.21,285.44Z"/><path class="cls-6" d="M260.19,269.39a2.61,2.61,0,0,1-2.62-2.61,2.62,2.62,0,1,1,5.23,0A2.6,2.6,0,0,1,260.19,269.39Zm-2.37,15.8V271.51h4.7v13.68Z"/><path class="cls-6" d="M272.86,285.44a7.1,7.1,0,1,1,7.35-7.09A7,7,0,0,1,272.86,285.44Zm0-10.72c-1.73,0-2.74,1.33-2.74,3.63s1,3.62,2.74,3.62,2.71-1.32,2.71-3.62S274.56,274.72,272.86,274.72Z"/><path class="cls-6" d="M292.25,285.19v-8.32c0-1.33-.54-1.74-1.45-1.74a4.38,4.38,0,0,0-3.09,1.64v8.42H283V271.51h4.57V274c1.8-1.83,3.38-2.72,5.11-2.72,2.84,0,4.26,1.87,4.26,4.54v9.4Z"/><path class="cls-6" d="M314.7,285.19V284a4.83,4.83,0,0,1-3.72,1.42c-2.65,0-4.7-1.54-4.7-4.25,0-2.37,1.83-4.23,5-4.23a6.15,6.15,0,0,1,3.28.82v-.35c0-1.95-1.16-2.71-3.06-2.71a14.36,14.36,0,0,0-3.21.48l-.41-3.25a17.58,17.58,0,0,1,4.44-.7c4.67,0,6.88,2.18,6.88,6.28v7.66Zm-.13-4.92a2.59,2.59,0,0,0-1.95-.72,1.8,1.8,0,0,0-2,1.6,1.61,1.61,0,0,0,1.8,1.64,2.36,2.36,0,0,0,2.11-1Z"/><path class="cls-6" d="M330.31,285.44a6.58,6.58,0,0,1-3.22-.75V292h-4.67V271.51H327v1.23a5.72,5.72,0,0,1,4-1.49c3.5,0,6,3,6,7S334.25,285.44,330.31,285.44Zm-.6-10.56a3.17,3.17,0,0,0-2.62,1.26v4.76a3.23,3.23,0,0,0,2.46.92c1.48,0,2.81-1.11,2.81-3.53C332.36,276.14,331.35,274.88,329.71,274.88Z"/><path class="cls-6" d="M347.87,285.44a6.61,6.61,0,0,1-3.22-.75V292H340V271.51h4.54v1.23a5.68,5.68,0,0,1,4-1.49c3.5,0,6,3,6,7S351.81,285.44,347.87,285.44Zm-.6-10.56a3.17,3.17,0,0,0-2.62,1.26v4.76a3.23,3.23,0,0,0,2.46.92c1.48,0,2.81-1.11,2.81-3.53C349.92,276.14,348.91,274.88,347.27,274.88Z"/><path class="cls-6" d="M364.14,285.44c-4.64,0-7.38-3.25-7.38-7.09a7.37,7.37,0,1,1,7.38,7.09Zm0-10.72c-1.74,0-2.75,1.33-2.75,3.63s1,3.62,2.75,3.62,2.71-1.32,2.71-3.62S365.84,274.72,364.14,274.72Z"/><path class="cls-6" d="M376.81,269.39a2.6,2.6,0,0,1-2.61-2.61,2.62,2.62,0,1,1,2.61,2.61Zm-2.36,15.8V271.51h4.7v13.68Z"/><path class="cls-6" d="M392.14,285.19v-8.32c0-1.33-.54-1.74-1.45-1.74a4.38,4.38,0,0,0-3.09,1.64v8.42h-4.7V271.51h4.57V274c1.8-1.83,3.37-2.72,5.11-2.72,2.83,0,4.25,1.87,4.25,4.54v9.4Z"/><path class="cls-6" d="M406,275.2v4.88c0,1.17.44,1.58,1.16,1.58a4.87,4.87,0,0,0,1.2-.22l1.07,3.5a15.49,15.49,0,0,1-3.53.5c-2.68,0-4.57-1.16-4.57-5.48V275.2h-3v-.67l3-3v-2.08l4.67-2.68v4.76h3.62v3.69Z"/><path class="cls-6" d="M429.72,285.19v-8.35c0-1.23-.47-1.74-1.42-1.74s-1.64.47-2.68,1.64v8.45h-4.7v-8.32c0-1.2-.47-1.74-1.42-1.74s-1.64.51-2.68,1.64v8.42h-4.69V271.51h4.57V274c1.7-1.83,3.12-2.72,4.85-2.72a3.57,3.57,0,0,1,3.79,2.72c1.7-1.83,3.27-2.75,5-2.75,2.74,0,4.07,1.86,4.07,4.51v9.46Z"/><path class="cls-6" d="M450.43,279.77h-8.95c.28,1.54,1.26,2.2,3.44,2.2a17,17,0,0,0,4.16-.72l.44,3.44a22.31,22.31,0,0,1-5.08.75c-5.36,0-7.59-3.21-7.59-7a6.92,6.92,0,0,1,7.18-7.16c4.32,0,6.5,3,6.5,6.59A18.22,18.22,0,0,1,450.43,279.77Zm-4-2.56a2.35,2.35,0,0,0-2.43-2.42,2.44,2.44,0,0,0-2.52,2.42Z"/><path class="cls-6" d="M462.35,285.19v-8.32c0-1.33-.53-1.74-1.45-1.74a4.4,4.4,0,0,0-3.09,1.64v8.42h-4.69V271.51h4.57V274c1.79-1.83,3.37-2.72,5.1-2.72,2.84,0,4.26,1.87,4.26,4.54v9.4Z"/><path class="cls-6" d="M476.19,275.2v4.88c0,1.17.45,1.58,1.17,1.58a4.87,4.87,0,0,0,1.2-.22l1.07,3.5a15.57,15.57,0,0,1-3.53.5c-2.68,0-4.57-1.16-4.57-5.48V275.2h-3v-.67l3-3v-2.08l4.66-2.68v4.76h3.63v3.69Z"/><path class="cls-6" d="M487.07,285.44a10.9,10.9,0,0,1-5.93-1.76l1.49-3.35a8.62,8.62,0,0,0,4.44,1.68c1.11,0,1.58-.38,1.58-.92,0-1.7-6.65-.66-6.65-5.23,0-2.78,2.46-4.61,5.8-4.61a11.4,11.4,0,0,1,5,1.3l-1.14,3.34a9.11,9.11,0,0,0-4.06-1.23c-.92,0-1.42.38-1.42.85,0,1.73,6.9.66,6.9,5.55C493.06,283.77,490.45,285.44,487.07,285.44Z"/></svg>