<svg id="Layer_1" data-name="Layer 1" xmlns="http://www.w3.org/2000/svg" viewBox="0 0 600 380"><defs><style>.cls-1{fill:#4d4d4d;}.cls-2{fill:#c90000;}.cls-3{fill:#fff;}.cls-4,.cls-6{fill:none;stroke-width:2px;}.cls-4{stroke:#4d4d4d;stroke-miterlimit:10;}.cls-5{fill:#c10230;}.cls-6{stroke:#666;stroke-linejoin:round;}.cls-7{fill:#ebdcb2;}.cls-8{fill:#b0b0b0;}</style></defs><title>CALS-social-profileinvention-disclosures-18-19</title><path class="cls-1" d="M106.5,186.09V162.71h4v23.38Z"/><path class="cls-1" d="M134.38,186.54,119.74,171.1v15h-4V162.4l.64-.13,14.45,15.21V162.71h4v23.73Z"/><path class="cls-1" d="M148.61,186.41h-.51l-10.81-23.7h4.56l6.56,15.57L155,162.71h4.44Z"/><path class="cls-1" d="M161.88,186.09V162.71h14.25v3.64H165.86v6.12h9.28V176h-9.28v6.47h10.27v3.64Z"/><path class="cls-1" d="M199.45,186.54,184.81,171.1v15h-4V162.4l.64-.13,14.45,15.21V162.71h4v23.73Z"/><path class="cls-1" d="M214.66,166.35v19.74h-4V166.35h-7.43v-3.64h18.81v3.64Z"/><path class="cls-1" d="M225.57,186.09V162.71h4v23.38Z"/><path class="cls-1" d="M245.73,186.47c-6.76,0-11.7-5.13-11.7-12.05A11.72,11.72,0,0,1,246,162.33c6.76,0,11.71,5.13,11.71,12.09A11.72,11.72,0,0,1,245.73,186.47Zm.13-20.57c-4.47,0-7.56,3.64-7.56,8.52s3.09,8.51,7.56,8.51,7.52-3.67,7.52-8.51S250.29,165.9,245.86,165.9Z"/><path class="cls-1" d="M280.59,186.54,266,171.1v15h-4V162.4l.63-.13,14.45,15.21V162.71h4v23.73Z"/><path class="cls-1" d="M96.35,224.56a62.83,62.83,0,0,1-6.73-.39v-23a55.76,55.76,0,0,1,6.5-.38c9.25,0,13.81,5.32,13.81,11.64C109.93,219,105.59,224.56,96.35,224.56Zm.25-20.22a20,20,0,0,0-3,.19v16.29A19.33,19.33,0,0,0,97,221c6,0,8.71-3.61,8.71-8.55S102.53,204.34,96.6,204.34Z"/><path class="cls-1" d="M114.4,224.36V201h4v23.37Z"/><path class="cls-1" d="M129.23,224.75a13.73,13.73,0,0,1-7.33-2.3l1.37-3.57a10.82,10.82,0,0,0,6.09,2.17c2.45,0,3.54-1.44,3.54-3.06s-.7-2.65-4.4-4.21c-4.09-1.72-5.55-3.83-5.55-6.64,0-3.38,2.8-6.53,7.68-6.53a11,11,0,0,1,5.87,1.69l-1.27,3.5a9.09,9.09,0,0,0-4.69-1.65c-2.46,0-3.61,1.34-3.61,2.9s1.15,2.49,4,3.76c4.63,2,6,3.89,6,6.95C137,221.53,134.05,224.75,129.23,224.75Z"/><path class="cls-1" d="M152.26,224.75c-7.4,0-12.6-5.1-12.6-12.06s5.26-12.08,12.6-12.08a14.59,14.59,0,0,1,7.52,2.13l-1.37,3.38a13.21,13.21,0,0,0-6.22-1.78c-5.13,0-8.26,3.41-8.26,8.35s3.23,8.33,8.36,8.33a13.35,13.35,0,0,0,6.38-1.85l1.21,3.38A14.65,14.65,0,0,1,152.26,224.75Z"/><path class="cls-1" d="M163.39,224.36V201h4v19.74h10.27v3.63Z"/><path class="cls-1" d="M190.31,224.75c-6.76,0-11.7-5.14-11.7-12.06a11.72,11.72,0,0,1,11.92-12.08c6.76,0,11.71,5.13,11.71,12.08A11.73,11.73,0,0,1,190.31,224.75Zm.13-20.57c-4.47,0-7.56,3.63-7.56,8.51s3.09,8.52,7.56,8.52,7.52-3.67,7.52-8.52S194.87,204.18,190.44,204.18Z"/><path class="cls-1" d="M211.81,224.75a13.8,13.8,0,0,1-7.34-2.3l1.38-3.57a10.82,10.82,0,0,0,6.09,2.17c2.45,0,3.54-1.44,3.54-3.06s-.7-2.65-4.4-4.21c-4.09-1.72-5.55-3.83-5.55-6.64,0-3.38,2.8-6.53,7.68-6.53a11,11,0,0,1,5.87,1.69l-1.28,3.5a9,9,0,0,0-4.68-1.65c-2.46,0-3.61,1.34-3.61,2.9s1.15,2.49,4.05,3.76c4.63,2,6,3.89,6,6.95C219.53,221.53,216.62,224.75,211.81,224.75Z"/><path class="cls-1" d="M232.38,224.75c-5.83,0-9.28-3.29-9.28-9.35V201h4v14.13c0,4,2,6,5.36,6s5.35-2,5.35-6V201h4V215.4C241.79,221.37,238.12,224.75,232.38,224.75Z"/><path class="cls-1" d="M259.3,224.36,254.2,216c-.42,0-.8,0-1.25,0-.76,0-1.56,0-2.32-.07v8.45h-4V201.21a50.45,50.45,0,0,1,6.16-.38c6.63,0,9.56,3.22,9.56,7.37A7.18,7.18,0,0,1,257.8,215l6.12,9.4Zm-6-20a14,14,0,0,0-2.68.19v8a19.18,19.18,0,0,0,2.29.12c3.48,0,5.23-1.62,5.23-4.3C258.15,206,256.37,204.4,253.31,204.4Z"/><path class="cls-1" d="M266.8,224.36V201h14.25v3.63H270.78v6.13h9.28v3.51h-9.28v6.47h10.27v3.63Z"/><path class="cls-1" d="M291.33,224.75a13.77,13.77,0,0,1-7.34-2.3l1.37-3.57a10.82,10.82,0,0,0,6.09,2.17c2.46,0,3.54-1.44,3.54-3.06s-.7-2.65-4.4-4.21c-4.08-1.72-5.55-3.83-5.55-6.64,0-3.38,2.81-6.53,7.69-6.53a11.07,11.07,0,0,1,5.87,1.69l-1.28,3.5a9,9,0,0,0-4.69-1.65c-2.45,0-3.6,1.34-3.6,2.9s1.15,2.49,4.05,3.76c4.62,2,6,3.89,6,6.95C299,221.53,296.14,224.75,291.33,224.75Z"/><path class="cls-1" d="M100,266.59h-.35l-3.5-7.8-3.56,7.8H92.2L88.07,254.8h2.4l2.25,7.49,3.17-7.55h.36l3.39,7.55,2.1-7.49H104Z"/><path class="cls-1" d="M115.77,261.2h-8.43c.25,2,1.34,3.44,4.3,3.44a10.89,10.89,0,0,0,3.17-.62l.38,1.83a14.49,14.49,0,0,1-3.74.65c-4.13,0-6.21-2.59-6.21-5.9,0-3.15,2-6,5.58-6,3.25,0,5,2.41,5,5.52A5.19,5.19,0,0,1,115.77,261.2Zm-1.92-1.64a3.07,3.07,0,0,0-3.17-3.17c-1.86,0-3,1.2-3.25,3.17Z"/><path class="cls-1" d="M120.44,258.44v7.85h-2.16V254.8h2v1.91a5.17,5.17,0,0,1,4.1-2.13v2.11A4.75,4.75,0,0,0,120.44,258.44Z"/><path class="cls-1" d="M136.19,261.2h-8.42c.24,2,1.34,3.44,4.29,3.44a10.77,10.77,0,0,0,3.17-.62l.38,1.83a14.49,14.49,0,0,1-3.74.65c-4.13,0-6.21-2.59-6.21-5.9,0-3.15,2-6,5.58-6,3.25,0,5,2.41,5,5.52A5.19,5.19,0,0,1,136.19,261.2Zm-1.92-1.64a3.06,3.06,0,0,0-3.17-3.17c-1.86,0-3,1.2-3.25,3.17Z"/><path class="cls-1" d="M151.74,248.15a4.73,4.73,0,0,0-1.06-.13c-2,0-2.74.84-2.74,3.25v3.53h3.39v1.86h-3.39v9.63h-2.13v-9.63H144v-.27l1.78-1.78v-3c0-3.55,1.48-5.52,4.51-5.52a5.51,5.51,0,0,1,1.78.24Zm2.52,4a1.38,1.38,0,1,1,1.37-1.37A1.37,1.37,0,0,1,154.26,252.2Zm-1.09,14.09V254.8h2.16v11.49Z"/><path class="cls-1" d="M158.63,266.29V246.24h2.16v20.05Z"/><path class="cls-1" d="M174.05,261.2h-8.42c.25,2,1.34,3.44,4.29,3.44a10.89,10.89,0,0,0,3.18-.62l.38,1.83a14.49,14.49,0,0,1-3.75.65c-4.13,0-6.21-2.59-6.21-5.9,0-3.15,2-6,5.58-6,3.26,0,5,2.41,5,5.52A4.63,4.63,0,0,1,174.05,261.2Zm-1.91-1.64a3.07,3.07,0,0,0-3.17-3.17c-1.86,0-3,1.2-3.26,3.17Z"/><path class="cls-1" d="M185.4,266.29v-1.18a5,5,0,0,1-3.67,1.39,5.48,5.48,0,0,1-5.6-5.85,5.93,5.93,0,0,1,5.66-6.07,5.35,5.35,0,0,1,3.5,1.15v-9.49h2.16v20.05Zm-.11-8.35a4.25,4.25,0,0,0-3.34-1.55c-2.16,0-3.69,1.75-3.69,4.21a3.78,3.78,0,0,0,3.83,4.1,4.06,4.06,0,0,0,3.2-1.5Z"/><path class="cls-1" d="M202.32,266.5a5.49,5.49,0,0,1-3.61-1.34v1.13h-2.05V246.24h2.16v9.6a6.05,6.05,0,0,1,3.75-1.26c3.06,0,5.41,2.41,5.41,5.88A5.9,5.9,0,0,1,202.32,266.5Zm-.16-10.11a4.44,4.44,0,0,0-3.34,1.36v5.45a4.07,4.07,0,0,0,3.09,1.5,3.93,3.93,0,0,0,3.94-4.21C205.85,258.22,204.45,256.39,202.16,256.39Z"/><path class="cls-1" d="M212.74,272.19h-2.16l3.44-7-4.84-10.39h2.41l3.5,8.23,3.44-8.23h2.33Z"/><path class="cls-1" d="M239.26,266.61c-6.18,0-10.64-4.32-10.64-10.33a10.28,10.28,0,0,1,10.64-10.37,12.86,12.86,0,0,1,6.62,1.92l-.91,1.85a12.75,12.75,0,0,0-5.9-1.72c-5.06,0-8.07,3.58-8.07,8.32a7.88,7.88,0,0,0,8.26,8.28,12.82,12.82,0,0,0,5.91-1.72l.71,1.86A13,13,0,0,1,239.26,266.61Z"/><path class="cls-1" d="M262.77,266.29l-2.38-5.56h-9L249,266.29h-2.27l9-20.41h.36l9,20.41Zm-6.86-16-3.69,8.61h7.38Z"/><path class="cls-1" d="M267.44,266.29V246.24h2.19v18.08h9.54v2Z"/><path class="cls-1" d="M286.14,266.61a10.06,10.06,0,0,1-5.79-1.86l1.06-1.91a8.75,8.75,0,0,0,4.84,1.78,3.44,3.44,0,0,0,3.78-3.5c0-1.75-.69-2.79-4-4.24-3.47-1.53-4.76-3.09-4.76-5.5,0-2.9,2.46-5.47,6.13-5.47a8,8,0,0,1,4.46,1.37l-1,1.86a6.37,6.37,0,0,0-3.61-1.23c-2.51,0-3.8,1.53-3.8,3.36,0,1.4,1,2.52,3.42,3.64,4.18,1.89,5.36,3.28,5.36,6A5.84,5.84,0,0,1,286.14,266.61Z"/><path class="cls-1" d="M109.7,299.31a6.77,6.77,0,0,1-3.34-.85V305H104.2V287.61h2v1.15a5.7,5.7,0,0,1,3.86-1.37c3,0,5.41,2.4,5.41,5.88A5.8,5.8,0,0,1,109.7,299.31Zm0-10.12a4.53,4.53,0,0,0-3.37,1.37v5.66a4.42,4.42,0,0,0,3.31,1.31c2.22,0,3.75-1.77,3.75-4.23C113.39,291,112,289.19,109.7,289.19Z"/><path class="cls-1" d="M128.23,294h-8.42c.25,2,1.34,3.44,4.29,3.44a10.6,10.6,0,0,0,3.18-.63l.38,1.84a14.49,14.49,0,0,1-3.75.65c-4.13,0-6.21-2.6-6.21-5.9s2-6,5.58-6c3.26,0,5,2.4,5,5.52A4.63,4.63,0,0,1,128.23,294Zm-1.91-1.64a3.08,3.08,0,0,0-3.17-3.18c-1.86,0-3,1.21-3.26,3.18Z"/><path class="cls-1" d="M132.91,291.24v7.85h-2.16V287.61h2.05v1.91a5.17,5.17,0,0,1,4.1-2.13v2.1A4.78,4.78,0,0,0,132.91,291.24Z"/><path class="cls-1" d="M142.15,299.31a6.37,6.37,0,0,1-4.1-1.5l1.09-1.53a4.72,4.72,0,0,0,2.9,1.28c1.34,0,2-.63,2-1.64,0-2.24-5.36-1.67-5.36-5.11,0-1.81,1.47-3.42,3.91-3.42a6.47,6.47,0,0,1,3.33,1.09l-.95,1.62a4.3,4.3,0,0,0-2.46-1c-1.32,0-1.86.65-1.86,1.48,0,1.94,5.33,1.53,5.33,5.08A3.67,3.67,0,0,1,142.15,299.31Z"/><path class="cls-1" d="M153.79,299.31a6,6,0,1,1,5.8-6A5.72,5.72,0,0,1,153.79,299.31Zm0-10.17c-2.21,0-3.69,1.69-3.69,4.21s1.48,4.21,3.69,4.21,3.67-1.69,3.67-4.21S156,289.14,153.79,289.14Z"/><path class="cls-1" d="M170.2,299.09v-7.22c0-1.77-.66-2.68-2.33-2.68a5.29,5.29,0,0,0-3.5,1.86v8h-2.16V287.61h2v1.75a6.14,6.14,0,0,1,4.24-2c2.66,0,3.86,1.61,3.86,3.91v7.79Z"/><path class="cls-1" d="M183.29,299.09v-7.22c0-1.77-.65-2.68-2.32-2.68a5.25,5.25,0,0,0-3.5,1.86v8h-2.16V287.61h2.05v1.75a6.12,6.12,0,0,1,4.24-2c2.65,0,3.85,1.61,3.85,3.91v7.79Z"/><path class="cls-1" d="M198.5,294h-8.43c.25,2,1.34,3.44,4.3,3.44a10.6,10.6,0,0,0,3.17-.63l.38,1.84a14.49,14.49,0,0,1-3.75.65c-4.12,0-6.2-2.6-6.2-5.9s2-6,5.58-6c3.25,0,5,2.4,5,5.52A5.19,5.19,0,0,1,198.5,294Zm-1.92-1.64a3.08,3.08,0,0,0-3.17-3.18c-1.86,0-3,1.21-3.26,3.18Z"/><path class="cls-1" d="M201.12,299.09v-20h2.16v20Z"/><path class="cls-1" d="M213.83,285a1.38,1.38,0,1,1,1.37-1.37A1.37,1.37,0,0,1,213.83,285Zm-1.09,14.08V287.61h2.16v11.48Z"/><path class="cls-1" d="M226.08,299.09v-7.22c0-1.77-.66-2.68-2.33-2.68a5.29,5.29,0,0,0-3.5,1.86v8h-2.16V287.61h2.06v1.75a6.1,6.1,0,0,1,4.23-2c2.66,0,3.86,1.61,3.86,3.91v7.79Z"/><path class="cls-1" d="M236.41,299.09l-.14-.3c2.63-2.81,4.38-4.81,5.53-6.31,1.31-1.67,2.13-3,2.13-4.63a2.67,2.67,0,0,0-3-2.79,6,6,0,0,0-3.39,1l-.66-1.75a7.69,7.69,0,0,1,4-1.28c3.26,0,5.25,1.91,5.25,4.54,0,1.83-.82,3.44-2.43,5.55-.93,1.18-2.11,2.57-3.42,4h6.05v1.94Z"/><path class="cls-1" d="M255,299.37c-4,0-6-3.75-6-8.15s2.19-8.15,6.16-8.15,6,3.72,6,8.15S258.94,299.37,255,299.37Zm.05-14.44c-2.57,0-3.86,2.84-3.86,6.29s1.29,6.29,3.86,6.29,3.83-2.87,3.83-6.29S257.6,284.93,255,284.93Z"/><path class="cls-1" d="M266.57,299.09V285.83l-2.77,1-.65-1.88,5.22-2h.36v16.1Z"/><path class="cls-1" d="M278.13,299.37a4.61,4.61,0,0,1-4.92-4.54A4.24,4.24,0,0,1,275.7,291a3.84,3.84,0,0,1-2.16-3.5,4.6,4.6,0,0,1,9.19,0,3.88,3.88,0,0,1-2.14,3.5,4.24,4.24,0,0,1,2.49,3.83A4.62,4.62,0,0,1,278.13,299.37Zm0-7.41a2.82,2.82,0,1,0,2.82,2.81A2.72,2.72,0,0,0,278.13,292Zm0-7.11a2.65,2.65,0,1,0,2.57,2.65A2.55,2.55,0,0,0,278.13,284.85Z"/><path class="cls-2" d="M181.58,90c-.7-.71-1.64-.94-3.68-.94H166.55c-2.42,0-3,.55-3.52,1.09-.94.94-1.8,3.45-1.8,18.08,4.78-3.83,6.5-4.53,9.79-4.53h9.7c4.7,0,7.28.78,9,2.5,2.2,2.19,3.29,5.09,3.29,13.46,0,8.06-1.33,11.27-3.68,13.62-1.72,1.72-4.62,2.82-9,2.82H165.15c-4.54,0-6.89-1-8.69-2.82-3.05-3.05-4.23-7-4.23-24.58,0-16.59,1.49-21.36,4.46-24.34,2.19-2.19,4.93-3,10.18-3h12.91c4.23,0,6.81.7,8.46,2.35,2.19,2.19,3,5,3.21,13.3h-8.69C182.52,91.76,182.21,90.58,181.58,90ZM161.23,113.2c.08,11.2.55,13,1.57,13.94.86.86,1.8,1.17,3.91,1.17h12.52c2,0,3-.23,3.76-1s1.1-2.42,1.1-7.51c0-5.48-.47-6.81-1.25-7.59-.63-.63-1.65-.94-4.07-.94H168.35A15.57,15.57,0,0,0,161.23,113.2Z"/><path class="cls-2" d="M237.63,113.05h9.63v6.73h-9.63v9.16h9.63v7.12H219v-7.12h10.49v-9.16h-28v-3a8.43,8.43,0,0,1,1.8-5.33l18.4-26.84c1.56-2.35,2.74-3.29,5-3.29h10.88Zm-8.14-25h-1.33l-17.14,25h18.47Z"/><path class="cls-3" d="M519.63,334.61,332.55,322.84a2099.43,2099.43,0,0,0,0-263.8L519.63,47.27A2288.09,2288.09,0,0,1,519.63,334.61Z"/><path class="cls-4" d="M519.63,334.61,332.55,322.84a2099.43,2099.43,0,0,0,0-263.8L519.63,47.27A2288.09,2288.09,0,0,1,519.63,334.61Z"/><path class="cls-5" d="M385.27,235.31Q375,265.75,363.81,295.57l-20.27-1q13.77-31.08,26.58-63Z"/><path class="cls-6" d="M385.27,235.31Q375,265.75,363.81,295.57l-20.27-1q13.77-31.08,26.58-63Z"/><path class="cls-5" d="M372.61,234.62q9.18,30.19,17.44,60.92l20.27,1q-10.69-32.86-22.43-65Q380.26,233.08,372.61,234.62Z"/><path class="cls-6" d="M372.61,234.62q9.18,30.19,17.44,60.92l20.27,1q-10.69-32.86-22.43-65Q380.26,233.08,372.61,234.62Z"/><path class="cls-7" d="M407.45,219.29,403,223l2.76,5.12-5.32,2.07,1,5.74-5.68.25c-.24,1.92-.48,3.85-.73,5.77l-5.47-1.56-2.46,5.23-4.72-3.22-3.92,4.18L375,242l-5,2.74c-.65-1.79-1.31-3.59-2-5.38l-5.58,1-.24-5.71-5.64-.73c.5-1.83,1-3.66,1.5-5.5L353,226.07c1-1.58,2.07-3.17,3.11-4.76q-2.08-2-4.17-3.87l4.41-3.6q-1.4-2.47-2.8-5l5.29-2.08q-.56-2.79-1.14-5.59l5.67-.35c.21-1.9.41-3.79.61-5.69l5.51,1.41,2.31-5.25,4.81,3.07,3.8-4.29,3.65,4.44,4.92-2.9c.7,1.79,1.41,3.59,2.11,5.39l5.56-1.19.36,5.81,5.65.64c-.47,1.89-.95,3.77-1.42,5.66l5.17,2.42c-1,1.65-2.05,3.29-3.08,4.92Z"/><path class="cls-6" d="M407.45,219.29,403,223l2.76,5.12-5.32,2.07,1,5.74-5.68.25c-.24,1.92-.48,3.85-.73,5.77l-5.47-1.56-2.46,5.23-4.72-3.22-3.92,4.18L375,242l-5,2.74c-.65-1.79-1.31-3.59-2-5.38l-5.58,1-.24-5.71-5.64-.73c.5-1.83,1-3.66,1.5-5.5L353,226.07c1-1.58,2.07-3.17,3.11-4.76q-2.08-2-4.17-3.87l4.41-3.6q-1.4-2.47-2.8-5l5.29-2.08q-.56-2.79-1.14-5.59l5.67-.35c.21-1.9.41-3.79.61-5.69l5.51,1.41,2.31-5.25,4.81,3.07,3.8-4.29,3.65,4.44,4.92-2.9c.7,1.79,1.41,3.59,2.11,5.39l5.56-1.19.36,5.81,5.65.64c-.47,1.89-.95,3.77-1.42,5.66l5.17,2.42c-1,1.65-2.05,3.29-3.08,4.92Z"/><rect class="cls-8" x="416.37" y="116.86" width="88.83" height="7.72"/><rect class="cls-8" x="416.37" y="138.74" width="88.83" height="7.72"/><rect class="cls-8" x="417.66" y="160.63" width="88.83" height="7.72"/><rect class="cls-8" x="417.66" y="181.23" width="88.83" height="7.72"/><rect class="cls-8" x="417.66" y="203.11" width="88.83" height="7.72"/><rect class="cls-1" x="416.37" y="263.62" width="86.26" height="9.01"/><rect class="cls-1" x="350.71" y="101.41" width="50.21" height="12.87"/><rect class="cls-1" x="350.71" y="120.72" width="50.21" height="12.87"/><rect class="cls-1" x="350.71" y="141.32" width="50.21" height="12.87"/></svg>