<svg id="Layer_1" data-name="Layer 1" xmlns="http://www.w3.org/2000/svg" xmlns:xlink="http://www.w3.org/1999/xlink" viewBox="0 0 600 380"><defs><style>.cls-1,.cls-5{fill:none;}.cls-2{fill:#e3e3e3;}.cls-3{fill:gray;}.cls-4{fill:url(#New_Pattern_5);}.cls-5{stroke:#1a1a1a;stroke-miterlimit:10;stroke-width:2px;}.cls-6{fill:#4d4d4d;}</style><pattern id="New_Pattern_5" data-name="New Pattern 5" width="114.44" height="80.04" patternTransform="translate(-76.68 -44.96)" patternUnits="userSpaceOnUse" viewBox="0 0 114.44 80.04"><rect class="cls-1" width="114.44" height="80.04"/><rect class="cls-2" x="96.95" y="66.14" width="4.62" height="5.2"/><rect class="cls-2" x="107.93" y="71.34" width="4.62" height="5.2"/><rect class="cls-2" x="107.24" y="55.08" width="4.62" height="5.2"/><rect class="cls-2" x="89.33" y="55.08" width="4.62" height="5.2"/><rect class="cls-2" x="96.26" y="43.52" width="4.62" height="5.2"/><rect class="cls-2" x="50.02" y="75.09" width="4.62" height="5.2"/><rect class="cls-2" x="32.11" y="75.09" width="4.62" height="5.2"/><rect class="cls-2" x="39.04" y="63.53" width="4.62" height="5.2"/><rect class="cls-2" x="67.35" y="67.58" width="4.62" height="5.2"/><rect class="cls-2" x="77.71" y="79.84" width="4.62" height="5.2"/><rect class="cls-2" x="10.13" y="47.56" width="4.62" height="5.2"/><rect class="cls-2" x="5.51" y="62.59" width="4.62" height="5.2"/><rect class="cls-2" x="20.49" y="59.83" width="4.62" height="5.2"/><rect class="cls-2" x="96.95" y="26.12" width="4.62" height="5.2"/><rect class="cls-2" x="107.93" y="31.32" width="4.62" height="5.2"/><rect class="cls-2" x="107.24" y="15.06" width="4.62" height="5.2"/><rect class="cls-2" x="89.33" y="15.06" width="4.62" height="5.2"/><rect class="cls-2" x="96.26" y="3.5" width="4.62" height="5.2"/><rect class="cls-2" x="39.73" y="46.13" width="4.62" height="5.2"/><rect class="cls-2" x="50.71" y="51.33" width="4.62" height="5.2"/><rect class="cls-2" x="50.02" y="35.07" width="4.62" height="5.2"/><rect class="cls-2" x="32.11" y="35.07" width="4.62" height="5.2"/><rect class="cls-2" x="39.04" y="23.51" width="4.62" height="5.2"/><rect class="cls-2" x="67.35" y="27.55" width="4.62" height="5.2"/><rect class="cls-2" x="62.73" y="42.58" width="4.62" height="5.2"/><rect class="cls-2" x="77.71" y="39.82" width="4.62" height="5.2"/><rect class="cls-2" x="10.13" y="7.54" width="4.62" height="5.2"/><rect class="cls-2" x="5.51" y="22.57" width="4.62" height="5.2"/><rect class="cls-2" x="20.49" y="19.81" width="4.62" height="5.2"/><rect class="cls-2" x="39.73" y="6.11" width="4.62" height="5.2"/><rect class="cls-2" x="50.71" y="11.31" width="4.62" height="5.2"/><rect class="cls-2" x="50.02" y="-4.96" width="4.62" height="5.2"/><rect class="cls-2" x="32.11" y="-4.96" width="4.62" height="5.2"/><rect class="cls-2" x="62.73" y="2.56" width="4.62" height="5.2"/><rect class="cls-2" x="77.71" y="-0.2" width="4.62" height="5.2"/></pattern></defs><title>CALS-social-profileresearch-funding-18-19</title><path class="cls-3" d="M98.15,188.78v-10.5H90.91c-6.62,0-10.39-.84-13-3.47-3-3-4.2-7.87-4.2-20.79H92.48c.21,5.46.53,7.35,1.06,7.88s1.88.84,4.93.84h2.2V149.4l-12-1.26c-4.63-.52-7.67-1.68-10-4-2.83-2.83-4.2-7-4.2-17.22,0-9.34,1.79-15.22,5.15-18.58,2.2-2.21,5.77-3.57,11.33-3.57h7.14V95.33H114v9.45h5.56c6.83,0,10.71,1,13,3.36,3.15,3.15,4.31,7.24,4.41,20H118.21c-.21-4.62-.42-6.3-1-6.93s-1.68-.84-4.41-.84h-1.26V133l12.39,1.26c5,.63,7.66,1.79,9.87,4,2.83,2.84,4.3,7.14,4.3,17,0,10.08-1.78,16.07-5.14,19.43-2.21,2.2-3.57,3.57-9.45,3.57H114v10.5Zm2.1-57,.42.11V120.32H99c-2.52,0-3.67.1-4.09.52s-.73,2.52-.73,4.94.21,4.2.83,4.83S96.68,131.34,100.25,131.76Zm11.24,18.8v12.18h.94c3,0,4.62-.21,5.15-.74s.84-2.94.84-5.56c0-2.1-.21-3.89-.84-4.52s-2.31-.94-5.25-1.26Z"/><path class="cls-3" d="M156.43,178.28l28.35-56.7h-19v12.07H147.4V104.78h60.37v15.75l-28.56,57.75Z"/><path class="cls-3" d="M273.39,108.77c3.36,3.46,4.73,8.61,4.73,14.8,0,10.5-4,15-11.55,17.12v.21c8.08,2,12.28,5.77,12.28,17.74,0,7.25-2,12.08-5.35,15.44-3,3-6.93,4.2-12.92,4.2H234.13c-6,0-9.87-1.16-12.92-4.2-3.36-3.36-5.35-8.19-5.35-15.44,0-12,4.2-15.75,12.28-17.74v-.21c-7.56-2.1-11.55-6.62-11.55-17.12,0-6.19,1.37-11.34,4.73-14.8,2.83-2.84,6.19-4,12.7-4h26.67C267.2,104.78,270.56,105.93,273.39,108.77Zm-35.48,46.72c0,3.78.52,5,1.36,5.88s1.68,1,3.78,1h8.61c2,0,2.94-.21,3.78-1s1.37-2.1,1.37-5.88-.42-5-1.37-6-1.78-1-3.78-1h-8.61c-2.1,0-2.94.21-3.78,1S237.91,151.82,237.91,155.49Zm.63-28.56c0,3.36.63,4.83,1.36,5.78.74.73,1.58.84,3.47.84h8c1.89,0,2.73-.11,3.46-.84.73-1,1.37-2.42,1.37-5.78s-.42-4.51-1.26-5.35c-.63-.63-1.37-1-3.57-1h-8c-2.21,0-2.94.32-3.57,1C239,122.42,238.54,123.68,238.54,126.93Z"/><path class="cls-3" d="M305.84,158.85v19.43H286.42V158.85Z"/><path class="cls-3" d="M317,178.28l28.35-56.7h-19v12.07H307.94V104.78h60.37v15.75l-28.55,57.75Z"/><path class="cls-3" d="M428.79,126.09V161.9h5.88v16.38H401.6V161.9h7.77V121.16H401.6V104.78h39.69c3.25,0,4.72.94,5.35,4.3l6.62,34.34h.94l6.62-34.34c.63-3.36,2.1-4.3,5.35-4.3h39.17v16.38h-7.77V161.9h7.77v16.38H470.16V161.9H476V126.09H475l-11.13,48c-.73,3.15-2,4.2-4.72,4.2H445.7c-2.73,0-4-1.05-4.73-4.2l-11.13-48Z"/><path class="cls-4" d="M98.15,188.78v-10.5H90.91c-6.62,0-10.39-.84-13-3.47-3-3-4.2-7.87-4.2-20.79H92.48c.21,5.46.53,7.35,1.06,7.88s1.88.84,4.93.84h2.2V149.4l-12-1.26c-4.63-.52-7.67-1.68-10-4-2.83-2.83-4.2-7-4.2-17.22,0-9.34,1.79-15.22,5.15-18.58,2.2-2.21,5.77-3.57,11.33-3.57h7.14V95.33H114v9.45h5.56c6.83,0,10.71,1,13,3.36,3.15,3.15,4.31,7.24,4.41,20H118.21c-.21-4.62-.42-6.3-1-6.93s-1.68-.84-4.41-.84h-1.26V133l12.39,1.26c5,.63,7.66,1.79,9.87,4,2.83,2.84,4.3,7.14,4.3,17,0,10.08-1.78,16.07-5.14,19.43-2.21,2.2-3.57,3.57-9.45,3.57H114v10.5Zm2.1-57,.42.11V120.32H99c-2.52,0-3.67.1-4.09.52s-.73,2.52-.73,4.94.21,4.2.83,4.83S96.68,131.34,100.25,131.76Zm11.24,18.8v12.18h.94c3,0,4.62-.21,5.15-.74s.84-2.94.84-5.56c0-2.1-.21-3.89-.84-4.52s-2.31-.94-5.25-1.26Z"/><path class="cls-4" d="M156.43,178.28l28.35-56.7h-19v12.07H147.4V104.78h60.37v15.75l-28.56,57.75Z"/><path class="cls-4" d="M273.39,108.77c3.36,3.46,4.73,8.61,4.73,14.8,0,10.5-4,15-11.55,17.12v.21c8.08,2,12.28,5.77,12.28,17.74,0,7.25-2,12.08-5.35,15.44-3,3-6.93,4.2-12.92,4.2H234.13c-6,0-9.87-1.16-12.92-4.2-3.36-3.36-5.35-8.19-5.35-15.44,0-12,4.2-15.75,12.28-17.74v-.21c-7.56-2.1-11.55-6.62-11.55-17.12,0-6.19,1.37-11.34,4.73-14.8,2.83-2.84,6.19-4,12.7-4h26.67C267.2,104.78,270.56,105.93,273.39,108.77Zm-35.48,46.72c0,3.78.52,5,1.36,5.88s1.68,1,3.78,1h8.61c2,0,2.94-.21,3.78-1s1.37-2.1,1.37-5.88-.42-5-1.37-6-1.78-1-3.78-1h-8.61c-2.1,0-2.94.21-3.78,1S237.91,151.82,237.91,155.49Zm.63-28.56c0,3.36.63,4.83,1.36,5.78.74.73,1.58.84,3.47.84h8c1.89,0,2.73-.11,3.46-.84.73-1,1.37-2.42,1.37-5.78s-.42-4.51-1.26-5.35c-.63-.63-1.37-1-3.57-1h-8c-2.21,0-2.94.32-3.57,1C239,122.42,238.54,123.68,238.54,126.93Z"/><path class="cls-4" d="M305.84,158.85v19.43H286.42V158.85Z"/><path class="cls-4" d="M317,178.28l28.35-56.7h-19v12.07H307.94V104.78h60.37v15.75l-28.55,57.75Z"/><path class="cls-4" d="M428.79,126.09V161.9h5.88v16.38H401.6V161.9h7.77V121.16H401.6V104.78h39.69c3.25,0,4.72.94,5.35,4.3l6.62,34.34h.94l6.62-34.34c.63-3.36,2.1-4.3,5.35-4.3h39.17v16.38h-7.77V161.9h7.77v16.38H470.16V161.9H476V126.09H475l-11.13,48c-.73,3.15-2,4.2-4.72,4.2H445.7c-2.73,0-4-1.05-4.73-4.2l-11.13-48Z"/><path class="cls-5" d="M101.8,180.78V170.43H94.66c-6.52,0-10.24-.83-12.83-3.41-3-3-4.14-7.76-4.14-20.49H96.21c.21,5.38.52,7.24,1,7.76s1.87.83,4.87.83h2.17V142l-11.8-1.24c-4.55-.52-7.55-1.66-9.82-3.93-2.8-2.8-4.14-6.93-4.14-17,0-9.21,1.76-15,5.07-18.31C85.76,99.36,89.28,98,94.76,98h7V88.7h15.62V98h5.48c6.72,0,10.55,1,12.83,3.31,3.1,3.11,4.24,7.14,4.34,19.66H121.56c-.21-4.55-.42-6.21-1-6.83s-1.65-.83-4.34-.83h-1.25v12.52l12.21,1.24c5,.62,7.55,1.76,9.73,3.93,2.79,2.8,4.24,7,4.24,16.76,0,9.94-1.76,15.83-5.07,19.14-2.17,2.18-3.52,3.52-9.31,3.52h-9.31v10.35Zm2.06-56.18.42.1V113.32h-1.66c-2.48,0-3.62.11-4,.52s-.73,2.48-.73,4.86.21,4.14.83,4.76S100.35,124.19,103.86,124.6Zm11.07,18.52v12h.93c3,0,4.56-.21,5.07-.73s.83-2.89.83-5.48c0-2.07-.2-3.83-.83-4.45s-2.27-.93-5.17-1.24Z"/><path class="cls-5" d="M159.21,170.43l27.94-55.87H168.42v11.9h-18.1V98H209.8v15.52l-28.14,56.9Z"/><path class="cls-5" d="M274.46,101.94c3.31,3.42,4.66,8.49,4.66,14.59,0,10.35-3.93,14.79-11.38,16.86v.21c8,2,12.1,5.69,12.1,17.48,0,7.14-2,11.9-5.27,15.21-3,3-6.83,4.14-12.73,4.14H235.77c-5.9,0-9.72-1.14-12.72-4.14-3.31-3.31-5.28-8.07-5.28-15.21,0-11.79,4.14-15.51,12.1-17.48v-.21c-7.44-2.07-11.38-6.51-11.38-16.86,0-6.1,1.35-11.17,4.66-14.59,2.79-2.79,6.1-3.93,12.52-3.93H262C268.36,98,271.67,99.15,274.46,101.94Zm-35,46c0,3.73.51,5,1.34,5.79s1.66,1,3.72,1h8.49c2,0,2.9-.21,3.72-1s1.35-2.06,1.35-5.79-.42-5-1.35-5.9-1.76-1-3.72-1h-8.49c-2.06,0-2.89.21-3.72,1S239.5,144.36,239.5,148Zm.62-28.14c0,3.31.62,4.76,1.34,5.69.73.73,1.55.83,3.42.83h7.86c1.86,0,2.69-.1,3.41-.83.73-.93,1.35-2.38,1.35-5.69s-.42-4.45-1.25-5.28c-.62-.62-1.34-.93-3.51-.93h-7.86c-2.18,0-2.9.31-3.52.93C240.53,115.39,240.12,116.63,240.12,119.84Z"/><path class="cls-5" d="M306.43,151.29v19.14H287.29V151.29Z"/><path class="cls-5" d="M317.4,170.43l27.93-55.87H326.61v11.9H308.5V98H368v15.52l-28.14,56.9Z"/><path class="cls-5" d="M427.58,119v35.28h5.8v16.14H400.79V154.29h7.65V114.15h-7.65V98h39.1c3.21,0,4.66.93,5.28,4.24l6.52,33.83h.93l6.51-33.83c.63-3.31,2.07-4.24,5.28-4.24H503v16.14h-7.66v40.14H503v16.14H468.34V154.29h5.8V119h-1l-11,47.28c-.73,3.11-2,4.14-4.66,4.14H444.24c-2.69,0-3.93-1-4.66-4.14l-11-47.28Z"/><path class="cls-6" d="M87.78,285.5V284a6.3,6.3,0,0,1-4.51,1.8c-2.88,0-5.27-1.7-5.27-4.68,0-2.64,2.25-4.55,5.24-4.55a10.18,10.18,0,0,1,4.41,1v-.86c0-2.47-1.15-3.61-3.82-3.61a10.48,10.48,0,0,0-3.82.73l-.45-2.36a17,17,0,0,1,4.62-.77c4.16,0,6.14,2,6.14,6.18v8.67Zm-.13-5.69a7.29,7.29,0,0,0-4-1.18c-1.87,0-3.09.84-3.09,2.47s1.22,2.5,3.37,2.5a4.89,4.89,0,0,0,3.68-1.81Z"/><path class="cls-6" d="M107.35,285.89h-.45L102.46,276,98,285.89H97.5l-5.24-15h3l2.84,9.51,4-9.58h.45l4.31,9.58,2.66-9.51h2.92Z"/><path class="cls-6" d="M123.24,285.5V284a6.34,6.34,0,0,1-4.51,1.8c-2.88,0-5.28-1.7-5.28-4.68,0-2.64,2.26-4.55,5.24-4.55a10.14,10.14,0,0,1,4.41,1v-.86c0-2.47-1.15-3.61-3.82-3.61a10.38,10.38,0,0,0-3.81.73l-.45-2.36a16.92,16.92,0,0,1,4.61-.77c4.16,0,6.14,2,6.14,6.18v8.67Zm-.14-5.69a7.29,7.29,0,0,0-4-1.18c-1.87,0-3.08.84-3.08,2.47s1.21,2.5,3.36,2.5a4.85,4.85,0,0,0,3.68-1.81Z"/><path class="cls-6" d="M132.12,275.55v9.95h-2.74V270.93H132v2.43a6.57,6.57,0,0,1,5.2-2.71v2.68A6,6,0,0,0,132.12,275.55Z"/><path class="cls-6" d="M150.51,285.5V284a6.39,6.39,0,0,1-4.66,1.77c-4.19,0-7.11-3-7.11-7.42a7.53,7.53,0,0,1,7.19-7.71,6.78,6.78,0,0,1,4.44,1.46v-12h2.74V285.5Zm-.14-10.58a5.4,5.4,0,0,0-4.24-2c-2.74,0-4.68,2.22-4.68,5.35,0,2.91,1.8,5.2,4.86,5.2a5.13,5.13,0,0,0,4.06-1.91Z"/><path class="cls-6" d="M169.79,279.05H159.11c.31,2.5,1.7,4.37,5.44,4.37a13.33,13.33,0,0,0,4-.8l.48,2.33a18.07,18.07,0,0,1-4.75.83c-5.24,0-7.88-3.29-7.88-7.49,0-4,2.57-7.64,7.08-7.64,4.13,0,6.39,3.06,6.39,7A6.06,6.06,0,0,1,169.79,279.05ZM167.36,277c-.17-2.26-1.45-4-4-4-2.36,0-3.82,1.53-4.13,4Z"/><path class="cls-6" d="M184.19,285.5V284a6.37,6.37,0,0,1-4.65,1.77c-4.2,0-7.11-3-7.11-7.42a7.53,7.53,0,0,1,7.18-7.71,6.76,6.76,0,0,1,4.44,1.46v-12h2.74V285.5Zm-.14-10.58a5.38,5.38,0,0,0-4.23-2c-2.74,0-4.69,2.22-4.69,5.35,0,2.91,1.81,5.2,4.86,5.2a5.11,5.11,0,0,0,4.06-1.91Z"/><path class="cls-6" d="M202,273.29v8.19c0,1.35.76,1.91,2.29,1.91a9.09,9.09,0,0,0,1.21-.1l.28,2.21a11.64,11.64,0,0,1-2.39.28c-2.64,0-4.06-1.39-4.06-4.58v-7.91H197v-.35l2.33-2.25v-2.53l2.67-2v4.75h4.3v2.36Z"/><path class="cls-6" d="M215.55,285.78a7.57,7.57,0,1,1,7.35-7.56A7.26,7.26,0,0,1,215.55,285.78Zm0-12.91c-2.81,0-4.69,2.16-4.69,5.35s1.88,5.34,4.69,5.34,4.65-2.15,4.65-5.34S218.32,272.87,215.55,272.87Z"/><path class="cls-6" d="M247.5,285.92c-7.84,0-13.5-5.48-13.5-13.11s5.8-13.15,13.5-13.15a16.37,16.37,0,0,1,8.4,2.42l-1.15,2.36a16.11,16.11,0,0,0-7.49-2.18c-6.42,0-10.24,4.54-10.24,10.55s4.06,10.51,10.48,10.51a16.12,16.12,0,0,0,7.49-2.19l.91,2.36A16.37,16.37,0,0,1,247.5,285.92Z"/><path class="cls-6" d="M277.33,285.5l-3-7H262.93l-3,7H257l11.42-25.88h.45l11.42,25.88Zm-8.71-20.29-4.68,10.93h9.37Z"/><path class="cls-6" d="M283.26,285.5V260.07H286V283h12.11v2.49Z"/><path class="cls-6" d="M307,285.92a12.77,12.77,0,0,1-7.35-2.36l1.35-2.43a11,11,0,0,0,6.14,2.26c3.26,0,4.79-2.15,4.79-4.44s-.87-3.54-5-5.38c-4.41-1.94-6-3.92-6-7,0-3.67,3.12-6.93,7.77-6.93a10.17,10.17,0,0,1,5.66,1.73L313,263.75a8.11,8.11,0,0,0-4.58-1.56c-3.19,0-4.82,1.94-4.82,4.26,0,1.78,1.21,3.2,4.33,4.62,5.31,2.39,6.81,4.16,6.81,7.56C314.77,282.76,311.4,285.92,307,285.92Z"/><path class="cls-6" d="M334.68,262.5a6.33,6.33,0,0,0-1.36-.17c-2.56,0-3.47,1.07-3.47,4.12v4.48h4.31v2.36h-4.31V285.5h-2.7V273.29h-2.26v-.35l2.26-2.25v-3.85c0-4.51,1.87-7,5.72-7a7.06,7.06,0,0,1,2.26.31Z"/><path class="cls-6" d="M344.81,285.5V284a6.34,6.34,0,0,1-4.51,1.8c-2.88,0-5.28-1.7-5.28-4.68,0-2.64,2.26-4.55,5.24-4.55a10.14,10.14,0,0,1,4.41,1v-.86c0-2.47-1.15-3.61-3.82-3.61a10.48,10.48,0,0,0-3.82.73l-.45-2.36a17.06,17.06,0,0,1,4.62-.77c4.16,0,6.14,2,6.14,6.18v8.67Zm-.14-5.69a7.29,7.29,0,0,0-4-1.18c-1.87,0-3.09.84-3.09,2.47s1.22,2.5,3.37,2.5a4.85,4.85,0,0,0,3.68-1.81Z"/><path class="cls-6" d="M358.27,285.78c-4.62,0-7.88-3.29-7.88-7.49a7.61,7.61,0,0,1,7.88-7.64,9.66,9.66,0,0,1,5,1.5l-1.11,2.08A8.24,8.24,0,0,0,358,273c-2.84,0-5,1.95-5,5.28a5.05,5.05,0,0,0,5.17,5.13,8.23,8.23,0,0,0,4.09-1.21l.94,2.08A9.75,9.75,0,0,1,358.27,285.78Z"/><path class="cls-6" d="M375.92,285.5v-2a8.2,8.2,0,0,1-5.23,2.32c-3.41,0-5-2-5-5v-9.89h2.75v9.16c0,2.26,1,3.4,3.05,3.4a6.39,6.39,0,0,0,4.34-2.22V270.93h2.74V285.5Z"/><path class="cls-6" d="M382.55,285.5V260.07h2.74V285.5Z"/><path class="cls-6" d="M392.85,273.29v8.19c0,1.35.76,1.91,2.29,1.91a9.23,9.23,0,0,0,1.22-.1l.27,2.21a11.56,11.56,0,0,1-2.39.28c-2.64,0-4.06-1.39-4.06-4.58v-7.91h-2.33v-.35l2.33-2.25v-2.53l2.67-2v4.75h4.3v2.36Z"/><path class="cls-6" d="M402.6,293h-2.74l4.37-8.88-6.14-13.19h3.05l4.44,10.45L410,270.93h2.94Z"/><path class="cls-6" d="M431.78,285.5V284a6.34,6.34,0,0,1-4.52,1.8c-2.87,0-5.27-1.7-5.27-4.68,0-2.64,2.26-4.55,5.24-4.55a10.14,10.14,0,0,1,4.41,1v-.86c0-2.47-1.15-3.61-3.82-3.61a10.48,10.48,0,0,0-3.82.73l-.45-2.36a17.06,17.06,0,0,1,4.62-.77c4.16,0,6.14,2,6.14,6.18v8.67Zm-.14-5.69a7.29,7.29,0,0,0-4-1.18c-1.87,0-3.09.84-3.09,2.47s1.22,2.5,3.37,2.5a4.87,4.87,0,0,0,3.68-1.81Z"/><path class="cls-6" d="M448.05,285.5v-9.16c0-2.25-.84-3.4-2.95-3.4a6.64,6.64,0,0,0-4.44,2.36v10.2h-2.75V270.93h2.61v2.22a7.8,7.8,0,0,1,5.37-2.5c3.37,0,4.9,2.05,4.9,5v9.88Z"/><path class="cls-6" d="M465.74,285.5V284a6.37,6.37,0,0,1-4.65,1.77c-4.2,0-7.12-3-7.12-7.42a7.54,7.54,0,0,1,7.19-7.71,6.76,6.76,0,0,1,4.44,1.46v-12h2.74V285.5Zm-.14-10.58a5.38,5.38,0,0,0-4.23-2c-2.74,0-4.69,2.22-4.69,5.35,0,2.91,1.81,5.2,4.86,5.2a5.11,5.11,0,0,0,4.06-1.91Z"/><path class="cls-6" d="M484.23,285.78a8.13,8.13,0,0,1-5.21-1.91l1.39-1.94a6,6,0,0,0,3.68,1.63c1.7,0,2.5-.8,2.5-2.08,0-2.85-6.81-2.12-6.81-6.49,0-2.29,1.88-4.34,5-4.34A8.19,8.19,0,0,1,489,272l-1.22,2a5.43,5.43,0,0,0-3.12-1.22c-1.66,0-2.36.84-2.36,1.88,0,2.46,6.77,1.94,6.77,6.45A4.65,4.65,0,0,1,484.23,285.78Z"/><path class="cls-6" d="M495.71,273.29v8.19c0,1.35.76,1.91,2.29,1.91a9,9,0,0,0,1.21-.1l.28,2.21a11.64,11.64,0,0,1-2.39.28c-2.64,0-4.06-1.39-4.06-4.58v-7.91h-2.33v-.35l2.33-2.25v-2.53l2.67-2v4.75H500v2.36Z"/><path class="cls-6" d="M511.39,285.5V284a6.34,6.34,0,0,1-4.51,1.8c-2.88,0-5.27-1.7-5.27-4.68,0-2.64,2.25-4.55,5.23-4.55a10.11,10.11,0,0,1,4.41,1v-.86c0-2.47-1.14-3.61-3.82-3.61a10.42,10.42,0,0,0-3.81.73l-.45-2.36a16.92,16.92,0,0,1,4.61-.77c4.17,0,6.14,2,6.14,6.18v8.67Zm-.14-5.69a7.26,7.26,0,0,0-4-1.18c-1.87,0-3.08.84-3.08,2.47s1.21,2.5,3.36,2.5a4.85,4.85,0,0,0,3.68-1.81Z"/><path class="cls-6" d="M526.27,262.5a6.24,6.24,0,0,0-1.35-.17c-2.57,0-3.47,1.07-3.47,4.12v4.48h4.3v2.36h-4.3V285.5h-2.71V273.29h-2.25v-.35l2.25-2.25v-3.85c0-4.51,1.88-7,5.73-7a7,7,0,0,1,2.25.31Zm10.24,0a6.33,6.33,0,0,0-1.36-.17c-2.56,0-3.46,1.07-3.46,4.12v4.48H536v2.36h-4.3V285.5H529V273.29h-2.26v-.35l2.26-2.25v-3.85c0-4.51,1.87-7,5.72-7a7.06,7.06,0,0,1,2.26.31Z"/><path class="cls-6" d="M106.52,233.19h3.21v5.5h-6.25c-1.82,0-2.47-.3-3-.82s-1-1.78-1.17-7.33c-.09-2.34-.3-3-.78-3.51s-1.17-.69-2.69-.69H91.08v6.89h3.73v5.46H80.68v-5.46h3.64V213.76H80.68v-5.42h19.55c2.3,0,3.82.39,4.86,1.43,1.25,1.26,1.73,2.82,1.73,7,0,5.37-1.34,6.54-4.85,7.15V224c3.12.65,4.29,1.73,4.42,6.15C106.39,231.06,106.47,232.27,106.52,233.19ZM97.2,221.26c1.25,0,1.69-.08,2-.34s.52-1,.52-3.39-.13-3-.52-3.46c-.26-.22-.7-.35-2-.35H91.08v7.54Z"/><path class="cls-6" d="M112.07,213.76v-5.42h25.41v10.11h-6.07v-4.73h-8.93v6.85h7.24v5.12h-7.24v7.58h9.15V228h6.07v10.71H112.07v-5.46h3.65V213.76Z"/><path class="cls-6" d="M164.62,237.26c-.91.91-2.29,1.43-4.72,1.43H149c-2.55,0-4-.35-5.07-1.34-1.26-1.26-1.69-3.12-1.73-8.54h6.59c.08,3,.21,3.68.47,3.94s.7.39,2,.39h6.11c1.26,0,1.78-.08,2.08-.35s.39-1.17.39-3c0-1.51,0-2.08-.43-2.47s-.87-.39-2.08-.52l-8.89-.95c-2.08-.22-3.34-.65-4.29-1.56-1.17-1.22-1.56-3-1.56-7.11,0-3.86.56-6,1.95-7.42.91-.91,2.34-1.43,4.64-1.43h10.14c2.6,0,4.08.35,5,1.3,1.3,1.31,1.69,3,1.78,8.29h-6.55c-.08-2.74-.21-3.39-.52-3.69s-.65-.35-1.86-.35h-5.64c-1.13,0-1.56.05-1.82.31s-.39,1.12-.39,2.77,0,2.08.44,2.43.73.35,2.08.52l8.88,1c2.08.22,3.3.61,4.21,1.52,1.17,1.17,1.65,3,1.65,7.15S166,235.87,164.62,237.26Z"/><path class="cls-6" d="M170.7,213.76v-5.42h25.41v10.11H190v-4.73H181.1v6.85h7.25v5.12H181.1v7.58h9.15V228h6.07v10.71H170.7v-5.46h3.64V213.76Z"/><path class="cls-6" d="M199.15,238.69v-5.46h2.94l7.46-22.85c.56-1.69,1.17-2.17,2.86-2.17h4.9c1.69,0,2.3.48,2.86,2.17l7.46,22.85h2.9v5.46h-13.7v-5.37h3.47l-1.17-4H210l-1.13,4h3.47v5.37Zm12.26-14.52h6.29l-2.86-9.89h-.56Z"/><path class="cls-6" d="M258.72,233.19h3.21v5.5h-6.24c-1.82,0-2.47-.3-3-.82s-1-1.78-1.18-7.33c-.08-2.34-.3-3-.77-3.51s-1.17-.69-2.69-.69h-4.77v6.89H247v5.46H232.88v-5.46h3.65V213.76h-3.65v-5.42h19.56c2.29,0,3.81.39,4.85,1.43,1.26,1.26,1.74,2.82,1.74,7,0,5.37-1.35,6.54-4.86,7.15V224c3.12.65,4.29,1.73,4.42,6.15C258.59,231.06,258.68,232.27,258.72,233.19Zm-9.32-11.93c1.26,0,1.69-.08,1.95-.34s.52-1,.52-3.39-.13-3-.52-3.46c-.26-.22-.69-.35-1.95-.35h-6.11v7.54Z"/><path class="cls-6" d="M272.77,238.69c-2.86,0-4-.39-5.07-1.43-1.64-1.65-2.42-4.47-2.42-13.74s.78-12.14,2.42-13.75c1-1,2.21-1.43,5.07-1.43h10c2.68,0,4.2.35,5.16,1.3,1.51,1.52,1.95,4,2,9.67h-6.72c-.08-3.73-.21-4.64-.56-5S282,214,280.8,214H275c-1.34,0-1.69.09-2,.35s-.57,1.47-.57,9.19.22,8.8.57,9.14.65.4,2,.4h5.77c1.25,0,1.6-.13,1.86-.4s.43-1,.56-5.28h6.72c-.08,5.94-.47,8.41-2,9.92-1,1-2.52,1.39-5.21,1.39Z"/><path class="cls-6" d="M321.34,233.23H325v5.46H311.15v-5.46h3.43v-7.5H304.39v7.5h3.47v5.46H294v-5.46h3.64V213.76H294v-5.42h13.88v5.42h-3.47v6.77h10.19v-6.77h-3.43v-5.42H325v5.42h-3.64Z"/><path class="cls-6" d="M339.64,213.76v-5.42H364.7v10h-6.07v-4.64h-8.58V221h7.06v5.12h-7.06v7.15H354v5.46H339.64v-5.46h3.64V213.76Z"/><path class="cls-6" d="M384.87,213.76v-5.42H398.7v5.42h-3.56v12.53c0,7.16-.56,9-2.21,10.62-1.39,1.39-3.29,1.78-7.24,1.78h-5.42c-3.94,0-5.81-.39-7.15-1.73-1.65-1.65-2.21-3.47-2.21-10.67V213.76h-3.56v-5.42h13.92v5.42h-3.55V227c0,4.16.3,5,.77,5.5s1.22.57,3.65.57h2c2.34,0,3.12-.13,3.56-.57s.73-1.3.73-5.5V213.76Z"/><path class="cls-6" d="M424.07,213.76h-3.51v-5.42h13.26v5.42h-3.55v24.93h-6.46c-1.65,0-2.13-.39-2.82-1.82l-9.15-19.2h-.43v15.56h3.64v5.46H401.57v-5.46h3.64V213.76h-3.64v-5.42H412.4c1.61,0,2.08.39,2.82,1.82l8.41,17.78h.44Z"/><path class="cls-6" d="M461.05,210.6c2,2,2.95,5.37,2.95,12.92s-1,11-2.95,12.92c-1.64,1.65-3.72,2.25-7.58,2.25H436.65v-5.46h3.64V213.76h-3.64v-5.42h16.82C457.33,208.34,459.41,208.91,461.05,210.6Zm-14,22.63h5.51c1.82,0,2.55-.13,3.2-.74.79-.78,1.05-2.47,1.05-9s-.26-8.2-1.05-9-1.38-.78-3.2-.78h-5.51Z"/><path class="cls-6" d="M482.61,233.23v5.46H468.26v-5.46h3.81V213.76h-3.81v-5.42h14.35v5.42h-3.77v19.47Z"/><path class="cls-6" d="M508.49,213.76H505v-5.42h13.27v5.42h-3.56v24.93h-6.46c-1.64,0-2.12-.39-2.81-1.82l-9.15-19.2h-.44v15.56h3.65v5.46H486v-5.46h3.64V213.76H486v-5.42h10.84c1.61,0,2.08.39,2.82,1.82l8.41,17.78h.43Z"/><path class="cls-6" d="M540,218.32c-.09-3-.22-3.69-.52-4s-.61-.34-1.91-.34h-5.81c-1.34,0-1.69.08-2,.34-.39.44-.57,1.78-.57,9.24s.18,8.84.57,9.23.65.39,2,.39h6c1.21,0,1.65-.08,2-.39s.52-1.52.52-4.51v-.86h-6.07V222.3H547v4.12c0,7-.65,9.24-2.17,10.75-1.12,1.13-2.6,1.52-5.2,1.52h-10.1c-2.86,0-4-.39-5.07-1.43-1.65-1.65-2.43-4.47-2.43-13.74s.78-12.14,2.43-13.75c1-1,2.21-1.43,5.07-1.43h10c2.69,0,4.25.44,5.16,1.35,1.52,1.47,1.95,3.16,2,8.63Z"/><path class="cls-6" d="M523.86,148.14a2.22,2.22,0,1,1,2.19-2.2A2.21,2.21,0,0,1,523.86,148.14Zm-1.76,22.61V152.31h3.47v18.44Z"/><path class="cls-6" d="M543.53,170.75V159.16c0-2.85-1-4.3-3.73-4.3-2.07,0-4.22,1.45-5.63,3v12.91h-3.46V152.31H534v2.81a9.88,9.88,0,0,1,6.81-3.16c4.26,0,6.19,2.59,6.19,6.28v12.51Z"/></svg>