<svg id="Layer_1" data-name="Layer 1" xmlns="http://www.w3.org/2000/svg" xmlns:xlink="http://www.w3.org/1999/xlink" viewBox="0 0 600 380"><defs><style>.cls-1,.cls-5{fill:none;}.cls-2{fill:#920530;}.cls-3{fill:#c5050c;}.cls-4{fill:url(#New_Pattern_3);}.cls-5{font-size:159px;stroke:#1a1a1a;stroke-miterlimit:10;stroke-width:2px;font-family:Verlag-Black, Verlag;font-weight:800;}.cls-6{fill:#4d4d4d;}</style><pattern id="New_Pattern_3" data-name="New Pattern 3" width="114.44" height="80.04" patternTransform="translate(29.36 -15.96)" patternUnits="userSpaceOnUse" viewBox="0 0 114.44 80.04"><rect class="cls-1" width="114.44" height="80.04"/><rect class="cls-2" x="96.95" y="66.14" width="4.62" height="5.2"/><rect class="cls-2" x="107.93" y="71.34" width="4.62" height="5.2"/><rect class="cls-2" x="107.24" y="55.08" width="4.62" height="5.2"/><rect class="cls-2" x="89.33" y="55.08" width="4.62" height="5.2"/><rect class="cls-2" x="96.26" y="43.52" width="4.62" height="5.2"/><rect class="cls-2" x="50.02" y="75.09" width="4.62" height="5.2"/><rect class="cls-2" x="32.11" y="75.09" width="4.62" height="5.2"/><rect class="cls-2" x="39.04" y="63.53" width="4.62" height="5.2"/><rect class="cls-2" x="67.35" y="67.58" width="4.62" height="5.2"/><rect class="cls-2" x="77.71" y="79.84" width="4.62" height="5.2"/><rect class="cls-2" x="10.13" y="47.56" width="4.62" height="5.2"/><rect class="cls-2" x="5.51" y="62.59" width="4.62" height="5.2"/><rect class="cls-2" x="20.49" y="59.83" width="4.62" height="5.2"/><rect class="cls-2" x="96.95" y="26.12" width="4.62" height="5.2"/><rect class="cls-2" x="107.93" y="31.32" width="4.62" height="5.2"/><rect class="cls-2" x="107.24" y="15.06" width="4.62" height="5.2"/><rect class="cls-2" x="89.33" y="15.06" width="4.62" height="5.2"/><rect class="cls-2" x="96.26" y="3.5" width="4.62" height="5.2"/><rect class="cls-2" x="39.73" y="46.13" width="4.62" height="5.2"/><rect class="cls-2" x="50.71" y="51.33" width="4.62" height="5.2"/><rect class="cls-2" x="50.02" y="35.07" width="4.62" height="5.2"/><rect class="cls-2" x="32.11" y="35.07" width="4.62" height="5.2"/><rect class="cls-2" x="39.04" y="23.51" width="4.62" height="5.2"/><rect class="cls-2" x="67.35" y="27.55" width="4.62" height="5.2"/><rect class="cls-2" x="62.73" y="42.58" width="4.62" height="5.2"/><rect class="cls-2" x="77.71" y="39.82" width="4.62" height="5.2"/><rect class="cls-2" x="10.13" y="7.54" width="4.62" height="5.2"/><rect class="cls-2" x="5.51" y="22.57" width="4.62" height="5.2"/><rect class="cls-2" x="20.49" y="19.81" width="4.62" height="5.2"/><rect class="cls-2" x="39.73" y="6.11" width="4.62" height="5.2"/><rect class="cls-2" x="50.71" y="11.31" width="4.62" height="5.2"/><rect class="cls-2" x="50.02" y="-4.96" width="4.62" height="5.2"/><rect class="cls-2" x="32.11" y="-4.96" width="4.62" height="5.2"/><rect class="cls-2" x="62.73" y="2.56" width="4.62" height="5.2"/><rect class="cls-2" x="77.71" y="-0.2" width="4.62" height="5.2"/></pattern></defs><title>CALS-social-profilestaff-extension-18-19</title><path class="cls-3" d="M293,173v19.4H270.54V173H230.63V156.9l47.7-60.42H293v58.35h12.56V173Zm-22.42-38.79-16.22,20.66h16.22Z"/><path class="cls-3" d="M314.74,192V179c13.67-11.45,23.21-20.35,29.41-27.66,7.48-8.59,10.5-14.79,10.5-20.2,0-8.1-4.77-13.67-14.15-13.67-5.88,0-11.13,2.23-17,6.2l-8.27-18c9.22-6,17-9.07,29.25-9.07,20.67,0,33.23,13.68,33.23,30.05,0,8.43-3.18,16.86-10.65,26.4a128.42,128.42,0,0,1-19.24,19.08h32.28V192Z"/><path class="cls-4" d="M293,173v19.4H270.54V173H230.63V156.9l47.7-60.42H293v58.35h12.56V173Zm-22.42-38.79-16.22,20.66h16.22Z"/><path class="cls-4" d="M314.74,192V179c13.67-11.45,23.21-20.35,29.41-27.66,7.48-8.59,10.5-14.79,10.5-20.2,0-8.1-4.77-13.67-14.15-13.67-5.88,0-11.13,2.23-17,6.2l-8.27-18c9.22-6,17-9.07,29.25-9.07,20.67,0,33.23,13.68,33.23,30.05,0,8.43-3.18,16.86-10.65,26.4a128.42,128.42,0,0,1-19.24,19.08h32.28V192Z"/><text class="cls-5" transform="translate(223.13 189.04)">42</text><path class="cls-6" d="M156.61,243.93c-.84.84-2.12,1.32-4.36,1.32H142.16c-2.37,0-3.73-.32-4.69-1.24-1.16-1.16-1.56-2.88-1.6-7.89H142c.08,2.76.2,3.4.44,3.65s.64.36,1.84.36h5.64c1.17,0,1.65-.09,1.93-.32s.36-1.09.36-2.77c0-1.4,0-1.92-.4-2.28s-.8-.36-1.93-.48l-8.2-.88a6.27,6.27,0,0,1-4-1.44c-1.08-1.12-1.44-2.77-1.44-6.57,0-3.56.52-5.57,1.8-6.85.84-.84,2.16-1.32,4.29-1.32h9.37c2.4,0,3.76.32,4.64,1.2,1.2,1.2,1.56,2.72,1.64,7.65h-6c-.08-2.52-.2-3.12-.48-3.4s-.6-.32-1.73-.32h-5.2c-1,0-1.44,0-1.68.28s-.36,1-.36,2.56,0,1.92.4,2.24.68.32,1.92.48l8.21.88c1.92.2,3,.56,3.88,1.4,1.08,1.09,1.52,2.81,1.52,6.61S157.89,242.65,156.61,243.93Z"/><path class="cls-6" d="M181.88,240.21v5H168.43v-5H172V222.15h-4.56v5.32h-5.29V217.22h25.95v10.25h-5.29v-5.32h-4.56v18.06Z"/><path class="cls-6" d="M187.53,245.25v-5h2.72l6.89-21.11c.52-1.56,1.08-2,2.64-2h4.53c1.56,0,2.12.44,2.64,2l6.89,21.11h2.68v5H203.87v-5h3.2L206,236.6h-8.45l-1,3.68h3.2v5Zm11.33-13.41h5.81L202,222.71h-.53Z"/><path class="cls-6" d="M218.69,222.23v-5h23.14v9.25h-5.6v-4.28H228.3v6.68h6.52v4.73H228.3v6.61h3.6v5H218.69v-5h3.36v-18Z"/><path class="cls-6" d="M244.64,222.23v-5h23.14v9.25h-5.6v-4.28h-7.93v6.68h6.52v4.73h-6.52v6.61h3.6v5H244.64v-5H248v-18Z"/><path class="cls-6" d="M288.09,219.82v22.75h3.32v2.68H281.28v-2.68h3.92V219.9h-3.92v-2.68h8.81c.92,0,1.12.16,1.36,1.08l7.37,24.07h.48l7.33-24.07c.24-.92.4-1.08,1.36-1.08h8.69v2.68h-3.93v22.67h3.93v2.68H306.43v-2.68h3.32V219.82h-.56l-7.77,24.35c-.28.92-.44,1.08-1.32,1.08h-2.36c-.88,0-1.08-.16-1.36-1.08l-7.73-24.35Z"/><path class="cls-6" d="M320.52,219.9v-2.68h21.55v8.21h-3V219.9H327.45v9.49h8.81V232h-8.81v10.57h11.9v-6h3v8.73H320.52v-2.68h3.93V219.9Z"/><path class="cls-6" d="M353.8,219.82v22.75h3.33v2.68H347v-2.68h3.92V219.9H347v-2.68h8.81c.92,0,1.12.16,1.36,1.08l7.36,24.07H365l7.32-24.07c.24-.92.4-1.08,1.36-1.08h8.69v2.68h-3.92v22.67h3.92v2.68H372.14v-2.68h3.33V219.82h-.56l-7.77,24.35c-.28.92-.44,1.08-1.32,1.08h-2.37c-.88,0-1.08-.16-1.36-1.08l-7.73-24.35Z"/><path class="cls-6" d="M408.71,237.28c0,4.49-.64,5.73-1.69,6.73-.88.88-2.24,1.24-4.16,1.24H386.24v-2.68h3.93V219.9h-3.93v-2.68h16.5c2,0,3.24.32,4.12,1.16,1.09,1.08,1.61,2.48,1.61,6.25,0,3.92-1.41,5.36-3.77,6v.08C407.54,231.28,408.71,233,408.71,237.28Zm-6.93-7.89c1.4,0,2.12-.2,2.56-.64s.92-1.36.92-4.16-.36-3.65-.84-4.13-1.08-.56-2.44-.56h-8.85v9.49Zm-8.65,13.18h9.09c1.32,0,2-.12,2.44-.56s.84-1.28.84-4.69c0-3.16-.36-4.12-.92-4.68S403.42,232,402,232h-8.89Z"/><path class="cls-6" d="M413.71,219.9v-2.68h21.55v8.21h-3V219.9H420.64v9.49h8.81V232h-8.81v10.57h11.89v-6h3v8.73H413.71v-2.68h3.93V219.9Z"/><path class="cls-6" d="M462,242.53h3.76v2.72h-4.2c-1.2,0-1.68-.2-2-.56-.52-.52-.76-1.32-.92-7-.08-2.76-.4-3.6-1-4.16a4,4,0,0,0-3-.88h-7.45v9.89h4.09v2.68h-11v-2.68h3.93V219.9h-3.93v-2.68h16.14c2,0,3.2.32,4.09,1.16,1.08,1.08,1.6,2.4,1.6,6.49,0,4.88-1.28,6-4.05,6.61v.08c2.73.56,3.57,1.64,3.73,6.12C461.81,240.28,461.89,241.49,462,242.53Zm-6.53-12.38a3.25,3.25,0,0,0,2.48-.68c.48-.48.88-1.28.88-4.44s-.4-4.09-.88-4.57-1.08-.56-2.44-.56h-8.37v10.25Z"/><path class="cls-6" d="M488.36,244c-.8.8-2,1.24-4.09,1.24h-9c-2,0-3.24-.28-4.08-1.16-1.08-1.08-1.48-2.2-1.52-7.29h3.08c0,3.93.28,4.61.76,5.09s.92.56,2.24.56h8.09c1.32,0,1.89-.12,2.37-.6s.72-1.61.72-4.29-.12-3.28-.72-3.84c-.4-.44-1-.6-2.49-.76l-8.25-.8c-2.2-.2-3.36-.56-4.12-1.36-1-1-1.32-2.37-1.32-6,0-3.44.4-5.17,1.64-6.37.8-.8,2-1.24,4-1.24h8.17c2.09,0,3.29.28,4.13,1.16,1.12,1.12,1.44,2.28,1.52,7.09H486.4c-.08-3.6-.24-4.37-.76-4.89s-1-.56-2.25-.56h-7.24c-1.29,0-1.85.12-2.33.6s-.72,1.77-.72,4.17.16,3.16.72,3.72c.4.44,1,.56,2.49.72l8.24.8c2.13.2,3.33.57,4.09,1.33,1,1,1.36,2.44,1.36,6.16S489.56,242.85,488.36,244Z"/><path class="cls-6" d="M128.68,286.19v-8.32c0-2.05-.89-3.09-2.78-3.09a6.2,6.2,0,0,0-4.13,2.14v9.27h-2.49V263.08h2.49v11.85a6.74,6.74,0,0,1,4.76-2.23c3.06,0,4.64,1.86,4.64,4.5v9Z"/><path class="cls-6" d="M140.78,286.44a6.87,6.87,0,1,1,6.69-6.87A6.6,6.6,0,0,1,140.78,286.44Zm0-11.73c-2.55,0-4.25,2-4.25,4.86s1.7,4.85,4.25,4.85,4.23-1.95,4.23-4.85S143.3,274.71,140.78,274.71Z"/><path class="cls-6" d="M150.62,286.19V263.08h2.49v23.11Z"/><path class="cls-6" d="M167,286.19v-1.36a5.74,5.74,0,0,1-4.22,1.61c-3.82,0-6.47-2.77-6.47-6.74a6.84,6.84,0,0,1,6.53-7,6.16,6.16,0,0,1,4,1.32V263.08h2.49v23.11Zm-.12-9.62a4.89,4.89,0,0,0-3.85-1.79c-2.49,0-4.26,2-4.26,4.85,0,2.65,1.64,4.73,4.42,4.73a4.68,4.68,0,0,0,3.69-1.73Z"/><path class="cls-6" d="M180.07,286.19V263.08H194.7V268h-9.27v4.13h8.45v4.66h-8.45v4.51h9.27v4.89Z"/><path class="cls-6" d="M206.58,286.19,204,282l-2.62,4.16h-4.94l4.82-6.78-4.82-6.9h5.07l2.55,4.19,2.62-4.19h4.95l-4.79,6.81,4.79,6.87Z"/><path class="cls-6" d="M219.7,276.2v4.88c0,1.17.44,1.58,1.17,1.58a5,5,0,0,0,1.2-.22l1.07,3.5a15.65,15.65,0,0,1-3.53.5c-2.68,0-4.57-1.16-4.57-5.48V276.2h-3v-.67l3-3v-2.08l4.66-2.68v4.76h3.63v3.69Z"/><path class="cls-6" d="M238.65,280.77h-9c.28,1.54,1.26,2.2,3.43,2.2a16.91,16.91,0,0,0,4.16-.72l.45,3.44a22.38,22.38,0,0,1-5.08.75c-5.36,0-7.6-3.21-7.6-7a6.93,6.93,0,0,1,7.19-7.16c4.32,0,6.49,3,6.49,6.59C238.74,279.29,238.71,280.29,238.65,280.77Zm-4-2.56a2.36,2.36,0,0,0-2.43-2.42,2.43,2.43,0,0,0-2.52,2.42Z"/><path class="cls-6" d="M250.57,286.19v-8.32c0-1.33-.54-1.74-1.45-1.74a4.38,4.38,0,0,0-3.09,1.64v8.42h-4.7V272.51h4.57V275c1.8-1.83,3.38-2.72,5.11-2.72,2.84,0,4.26,1.87,4.26,4.54v9.4Z"/><path class="cls-6" d="M263.21,286.44a10.84,10.84,0,0,1-5.92-1.76l1.48-3.35a8.62,8.62,0,0,0,4.44,1.68c1.11,0,1.58-.38,1.58-.92,0-1.7-6.65-.66-6.65-5.23,0-2.78,2.46-4.61,5.8-4.61a11.4,11.4,0,0,1,5,1.3l-1.14,3.34a9.11,9.11,0,0,0-4.06-1.23c-.92,0-1.42.38-1.42.85,0,1.73,6.9.66,6.9,5.55C269.2,284.77,266.59,286.44,263.21,286.44Z"/><path class="cls-6" d="M274.19,270.39a2.61,2.61,0,0,1-2.62-2.61,2.62,2.62,0,1,1,5.23,0A2.6,2.6,0,0,1,274.19,270.39Zm-2.37,15.8V272.51h4.7v13.68Z"/><path class="cls-6" d="M286.86,286.44a7.1,7.1,0,1,1,7.35-7.09A7,7,0,0,1,286.86,286.44Zm0-10.72c-1.73,0-2.74,1.33-2.74,3.63s1,3.62,2.74,3.62,2.71-1.32,2.71-3.62S288.56,275.72,286.86,275.72Z"/><path class="cls-6" d="M306.25,286.19v-8.32c0-1.33-.54-1.74-1.45-1.74a4.38,4.38,0,0,0-3.09,1.64v8.42H297V272.51h4.57V275c1.8-1.83,3.38-2.72,5.11-2.72,2.84,0,4.26,1.87,4.26,4.54v9.4Z"/><path class="cls-6" d="M328.7,286.19V285a4.83,4.83,0,0,1-3.72,1.42c-2.65,0-4.7-1.54-4.7-4.25,0-2.37,1.83-4.23,5-4.23a6.15,6.15,0,0,1,3.28.82v-.35c0-1.95-1.16-2.71-3.06-2.71a14.36,14.36,0,0,0-3.21.48l-.41-3.25a17.58,17.58,0,0,1,4.44-.7c4.67,0,6.88,2.18,6.88,6.28v7.66Zm-.13-4.92a2.59,2.59,0,0,0-1.95-.72,1.8,1.8,0,0,0-2,1.6,1.61,1.61,0,0,0,1.8,1.64,2.36,2.36,0,0,0,2.11-1Z"/><path class="cls-6" d="M344.31,286.44a6.58,6.58,0,0,1-3.22-.75V293h-4.67V272.51H341v1.23a5.72,5.72,0,0,1,4-1.49c3.5,0,6,3,6,7S348.25,286.44,344.31,286.44Zm-.6-10.56a3.17,3.17,0,0,0-2.62,1.26v4.76a3.23,3.23,0,0,0,2.46.92c1.48,0,2.81-1.11,2.81-3.53C346.36,277.14,345.35,275.88,343.71,275.88Z"/><path class="cls-6" d="M361.87,286.44a6.61,6.61,0,0,1-3.22-.75V293H354V272.51h4.54v1.23a5.68,5.68,0,0,1,4-1.49c3.5,0,6,3,6,7S365.81,286.44,361.87,286.44Zm-.6-10.56a3.17,3.17,0,0,0-2.62,1.26v4.76a3.23,3.23,0,0,0,2.46.92c1.48,0,2.81-1.11,2.81-3.53C363.92,277.14,362.91,275.88,361.27,275.88Z"/><path class="cls-6" d="M378.14,286.44c-4.64,0-7.38-3.25-7.38-7.09a7.37,7.37,0,1,1,7.38,7.09Zm0-10.72c-1.74,0-2.75,1.33-2.75,3.63s1,3.62,2.75,3.62,2.71-1.32,2.71-3.62S379.84,275.72,378.14,275.72Z"/><path class="cls-6" d="M390.81,270.39a2.6,2.6,0,0,1-2.61-2.61,2.62,2.62,0,1,1,2.61,2.61Zm-2.36,15.8V272.51h4.7v13.68Z"/><path class="cls-6" d="M406.14,286.19v-8.32c0-1.33-.54-1.74-1.45-1.74a4.38,4.38,0,0,0-3.09,1.64v8.42h-4.7V272.51h4.57V275c1.8-1.83,3.37-2.72,5.11-2.72,2.83,0,4.25,1.87,4.25,4.54v9.4Z"/><path class="cls-6" d="M420,276.2v4.88c0,1.17.44,1.58,1.16,1.58a4.87,4.87,0,0,0,1.2-.22l1.07,3.5a15.49,15.49,0,0,1-3.53.5c-2.68,0-4.57-1.16-4.57-5.48V276.2h-3v-.67l3-3v-2.08l4.67-2.68v4.76h3.62v3.69Z"/><path class="cls-6" d="M443.72,286.19v-8.35c0-1.23-.47-1.74-1.42-1.74s-1.64.47-2.68,1.64v8.45h-4.7v-8.32c0-1.2-.47-1.74-1.42-1.74s-1.64.51-2.68,1.64v8.42h-4.69V272.51h4.57V275c1.7-1.83,3.12-2.72,4.85-2.72a3.57,3.57,0,0,1,3.79,2.72c1.7-1.83,3.27-2.75,5-2.75,2.74,0,4.07,1.86,4.07,4.51v9.46Z"/><path class="cls-6" d="M464.43,280.77h-8.95c.28,1.54,1.26,2.2,3.44,2.2a17,17,0,0,0,4.16-.72l.44,3.44a22.31,22.31,0,0,1-5.08.75c-5.36,0-7.59-3.21-7.59-7a6.92,6.92,0,0,1,7.18-7.16c4.32,0,6.5,3,6.5,6.59A18.22,18.22,0,0,1,464.43,280.77Zm-4-2.56a2.35,2.35,0,0,0-2.43-2.42,2.44,2.44,0,0,0-2.52,2.42Z"/><path class="cls-6" d="M476.35,286.19v-8.32c0-1.33-.53-1.74-1.45-1.74a4.4,4.4,0,0,0-3.09,1.64v8.42h-4.69V272.51h4.57V275c1.79-1.83,3.37-2.72,5.1-2.72,2.84,0,4.26,1.87,4.26,4.54v9.4Z"/><path class="cls-6" d="M490.19,276.2v4.88c0,1.17.45,1.58,1.17,1.58a4.87,4.87,0,0,0,1.2-.22l1.07,3.5a15.57,15.57,0,0,1-3.53.5c-2.68,0-4.57-1.16-4.57-5.48V276.2h-3v-.67l3-3v-2.08l4.66-2.68v4.76h3.63v3.69Z"/><path class="cls-6" d="M501.07,286.44a10.9,10.9,0,0,1-5.93-1.76l1.49-3.35a8.62,8.62,0,0,0,4.44,1.68c1.11,0,1.58-.38,1.58-.92,0-1.7-6.65-.66-6.65-5.23,0-2.78,2.46-4.61,5.8-4.61a11.4,11.4,0,0,1,5,1.3l-1.14,3.34a9.11,9.11,0,0,0-4.06-1.23c-.92,0-1.42.38-1.42.85,0,1.73,6.9.66,6.9,5.55C507.06,284.77,504.45,286.44,501.07,286.44Z"/></svg>