<?xml version="1.0" standalone="no"?>
<!DOCTYPE svg PUBLIC "-//W3C//DTD SVG 20010904//EN"
 "http://www.w3.org/TR/2001/REC-SVG-20010904/DTD/svg10.dtd">
<svg version="1.0" xmlns="http://www.w3.org/2000/svg"
 width="257.000000pt" height="257.000000pt" viewBox="0 0 257.000000 257.000000"
 preserveAspectRatio="xMidYMid meet">
<metadata>
Created by potrace 1.11, written by Peter Selinger 2001-2013
</metadata>
<g transform="translate(0.000000,257.000000) scale(0.100000,-0.100000)"
fill="#000000" stroke="none">
<path d="M1067 2238 c-6 -29 -235 -776 -246 -803 -9 -22 -11 -15 -81 235 -25
90 -35 141 -29 152 9 16 53 34 99 40 l25 3 1 185 c0 102 -3 187 -7 190 -5 4
-792 5 -820 1 -4 -1 -6 -85 -5 -188 l1 -188 66 -6 c72 -6 128 -33 146 -71 16
-32 25 -62 87 -303 62 -243 130 -504 188 -725 22 -85 57 -220 77 -300 l37
-145 234 0 234 0 8 30 c4 17 51 198 103 404 53 206 97 377 99 379 5 5 2 20
111 -426 l97 -392 233 0 234 0 16 57 c10 32 19 65 21 73 1 8 37 139 79 290 98
351 153 552 170 615 52 195 118 424 128 444 17 36 70 63 135 70 l56 6 1 175
c0 96 -1 181 -3 188 -3 9 -96 12 -418 12 l-414 0 0 -192 0 -193 42 1 c55 2 98
-19 98 -49 0 -27 -102 -387 -110 -387 -3 0 -44 118 -90 262 -47 144 -108 332
-135 418 l-51 155 -206 3 -205 3 -6 -23z m76 -127 c-13 -42 -26 -84 -28 -95
-3 -10 -15 -53 -29 -95 -13 -42 -70 -227 -126 -411 -56 -184 -108 -353 -115
-375 l-13 -40 -11 39 c-9 35 -5 57 50 235 33 108 101 329 151 491 49 162 94
302 99 312 5 9 17 16 27 15 18 -1 17 -5 -5 -76z m-1031 -43 c3 -107 4 -111 26
-115 39 -5 118 -51 145 -82 38 -45 50 -86 227 -766 71 -275 139 -537 151 -581
12 -45 25 -87 28 -93 5 -7 63 -12 174 -12 156 -2 167 -3 167 -20 0 -23 19 -21
-192 -23 l-178 -1 -15 50 c-8 27 -21 77 -29 110 -8 33 -24 96 -36 140 -11 44
-23 87 -25 95 -2 8 -28 109 -58 225 -96 364 -139 530 -142 545 -16 79 -71 262
-87 288 -30 50 -105 89 -175 91 -23 1 -23 3 -23 129 0 120 1 128 20 129 18 2
20 -6 22 -109z m1723 1 l0 -104 40 -16 c52 -21 96 -76 101 -125 2 -27 -21
-123 -77 -319 -44 -154 -88 -305 -96 -335 l-16 -55 -12 29 c-13 32 -10 48 51
256 89 302 112 391 108 417 -10 56 -46 90 -109 103 l-30 6 -1 114 c-1 111 7
145 30 137 7 -2 11 -41 11 -108z m-505 -655 c16 -70 13 -54 85 -344 36 -146
87 -352 113 -457 l47 -193 65 -1 c36 0 113 0 173 0 88 1 107 -2 107 -14 0 -8
-8 -18 -17 -23 -18 -9 -349 -10 -356 -2 -3 4 -179 701 -192 760 -3 13 -58 228
-65 255 -2 6 1 30 5 54 9 50 18 41 35 -35z"/>
</g>
</svg>
