<svg width="363" height="89" viewBox="0 0 363 89" xmlns="http://www.w3.org/2000/svg"><title>allwaysforward</title><g fill="none" fill-rule="evenodd"><path d="M83.267 3.757v9.772c2.31.514 3.976 1.414 5.13 2.957.899 1.285 1.925 3.471.899 6.685C87.5 29.214 83.01 45.03 83.01 45.03l-2.052 7.328-1.026-3.214v.128L65.054 3.243H52.87L37.735 52.87 36.709 49.4l-1.411-4.886s-.257-1.028-.641-2.443C33.246 37.057 30.167 26 29.27 22.786c-.642-2.315 0-3.857.77-4.757 1.282-1.672 3.462-2.315 5.001-2.572V3.886H4.9v9.771c3.335.514 8.465 2.186 10.004 8.1C16.187 26 28.5 73.443 31.194 83.73h17.571l7.696-31.886-1.283-1.414 4.105-15.943 12.184 49.243h15.648c2.18-8.1 15.392-56.315 16.93-61.843 1.54-5.529 6.67-6.557 9.235-6.686V3.757H83.267z" fill="#C5050C"/><path d="M70.057 85.657h16.545c2.18-8.1 15.905-58.243 17.444-63.771 1.539-5.529 6.67-6.557 9.234-6.686V3.757H81.343V15.2c1.796.129 4.233.643 5.516 2.443 1.026 1.286 1.154 3.086.641 5.143-1.796 6.171-6.285 21.857-6.285 21.857L79.933 49.4 65.054 3.243H50.817L36.71 49.4l-1.411-4.886c0-.128-5.002-17.485-6.157-21.857-.641-2.314 0-3.857.77-4.757 1.282-1.671 3.463-2.314 5.002-2.571V3.757H3.104V15.2c2.566.129 8.594 1.029 10.133 6.814 1.154 4.629 14.365 55.415 16.546 63.643h16.545l11.929-47.314 11.8 47.314zm18.854 2.957H67.62l-9.363-37.928-9.62 37.928H27.474l-.257-1.157c-.128-.643-15.52-59.786-16.802-64.8-1.154-4.114-5.9-4.628-7.824-4.628h-.77l-1.795.257V.67h37.837V18.03h-1.41c-.77 0-3.207.385-4.105 1.542-.128.258-.641.772-.257 2.186.77 2.829 3.207 11.443 4.746 16.843L48.637.029h18.598l12.57 38.957c1.41-5.143 3.719-13.115 4.873-17.1.257-1.029.257-1.929-.128-2.443-.77-.9-2.565-1.286-4.104-1.286h-.385l-1.668.129V.8h37.837v17.486l-1.667-.129h-.385c-1.795 0-6.156.386-7.182 4.5-1.668 6.043-17.829 64.8-17.829 64.8l-.256 1.157z" fill="#221F1F"/><path d="M153.968 34h-6.6v-2.472h1.584l-.528-2.376h-5.4l-.48 2.376h1.584V34h-6.552v-2.472h1.56l3.576-14.544h6.12l3.6 14.544h1.536V34zm-6.048-7.2l-1.536-7.08h-1.344l-1.512 7.08h4.392zm20.364 7.2v-5.424h-3.096v2.952h-4.056V19.36h2.136v-2.376h-7.44v2.376h1.896v12.168h-1.896V34h12.456zm14.292 0v-5.424h-3.096v2.952h-4.056V19.36h2.136v-2.376h-7.44v2.376h1.896v12.168h-1.896V34h12.456zm27.888 0h-2.832l-3.816-12.48L199.952 34h-2.832l-4.08-14.64h-1.512v-2.376h6.6v2.376h-1.632l2.304 9.672 3.6-12.048h2.952l3.552 12.048 2.328-9.672h-1.728v-2.376h6.6v2.376h-1.536L210.464 34zm20.82 0h-6.6v-2.472h1.583l-.528-2.376h-5.4l-.48 2.376h1.584V34h-6.552v-2.472h1.56l3.576-14.544h6.12l3.6 14.544h1.536V34zm-6.049-7.2l-1.536-7.08h-1.344l-1.512 7.08h4.392zm16.572 7.2h-8.16v-2.472h2.376v-5.136l-4.056-7.032h-1.512v-2.376h6.6v2.376h-1.56l1.416 2.64c.312.6.648 1.272.96 1.992.312-.72.6-1.368.912-1.968l1.44-2.664h-1.488v-2.376h6.336v2.376h-1.56l-4.08 7.032v5.136h2.376V34zm7.548 0l.144-1.152c1.008.912 2.232 1.368 4.056 1.368 3.648 0 5.616-2.4 5.616-5.208 0-2.52-1.536-3.72-2.808-4.248-1.2-.48-2.616-.936-3.624-1.176-1.272-.288-2.52-.792-2.52-2.04 0-1.128.912-1.92 2.448-1.92 1.56 0 3.144.408 3.36 2.784l3-.24v-5.184h-2.832l-.144 1.248c-.528-.672-2.04-1.464-3.96-1.464-3.456 0-5.136 2.04-5.136 4.776 0 4.008 4.032 4.44 6.288 5.136 1.296.408 2.568.936 2.568 2.424 0 1.632-1.248 2.256-3 2.256-1.896 0-3.192-.96-3.456-2.784l-2.856.24V34h2.856zM147.5 51.766v6.804h10.584v6.258H147.5V76h-7.14V45.214h19.488v6.552H147.5zm40.97 8.862c0-1.4-.195-2.681-.587-3.843-.392-1.162-.945-2.163-1.66-3.003a7.679 7.679 0 0 0-2.561-1.974c-.994-.476-2.107-.714-3.34-.714-1.203 0-2.31.238-3.317.714a7.62 7.62 0 0 0-2.583 1.974c-.714.84-1.267 1.841-1.66 3.003-.391 1.162-.587 2.443-.587 3.843 0 1.372.196 2.639.588 3.801.392 1.162.945 2.17 1.659 3.024a7.504 7.504 0 0 0 2.583 1.995c1.008.476 2.114.714 3.318.714 1.232 0 2.345-.238 3.339-.714a7.562 7.562 0 0 0 2.562-1.995c.714-.854 1.267-1.862 1.659-3.024.392-1.162.588-2.429.588-3.801zm7.645 0c0 2.268-.385 4.368-1.155 6.3-.77 1.932-1.855 3.605-3.255 5.019-1.4 1.414-3.073 2.527-5.02 3.339-1.945.812-4.108 1.218-6.488 1.218-2.38 0-4.536-.406-6.468-1.218-1.932-.812-3.577-1.925-4.935-3.339-1.358-1.414-2.401-3.087-3.13-5.019-.727-1.932-1.091-4.032-1.091-6.3s.385-4.375 1.155-6.321c.77-1.946 1.848-3.626 3.234-5.04 1.386-1.414 3.059-2.527 5.019-3.339 1.96-.812 4.13-1.218 6.51-1.218s4.529.406 6.447 1.218c1.918.812 3.556 1.925 4.914 3.339 1.358 1.414 2.408 3.094 3.15 5.04.742 1.946 1.113 4.053 1.113 6.321zm21.945-5.166c0-1.288-.462-2.289-1.386-3.003-.924-.714-2.156-1.071-3.696-1.071-.56 0-1.036.014-1.428.042-.392.028-.84.084-1.344.168v8.484c.476.056.868.091 1.176.105.308.014.672.021 1.092.021 1.708 0 3.066-.399 4.074-1.197s1.512-1.981 1.512-3.549zM219.32 76l-5.25-10.038a4.95 4.95 0 0 1-.61.042h-.608c-.532 0-.98-.007-1.344-.021a77.965 77.965 0 0 1-1.302-.063V76h-7.14V45.508a107.81 107.81 0 0 1 4.158-.357 73.816 73.816 0 0 1 4.914-.147c2.408 0 4.452.266 6.132.798 1.68.532 3.059 1.26 4.137 2.184 1.078.924 1.862 2.009 2.352 3.255.49 1.246.735 2.569.735 3.969 0 1.848-.462 3.549-1.386 5.103-.924 1.554-2.226 2.821-3.906 3.801L227.426 76h-8.106zm41.432.504l-.966.084-9.45-18.438-9.324 18.438-.924-.084-11.214-31.29h8.19l4.956 16.17 8.022-16.422h.756l8.064 16.296 4.914-16.044h8.022l-11.046 31.29zm25.095-18.942l-3.066 7.392h6.09l-3.024-7.392zM293.45 76l-2.31-5.586h-10.626L278.203 76h-7.266l14.49-31.038h.966L300.883 76h-7.434zm26.65-20.538c0-1.288-.463-2.289-1.387-3.003-.924-.714-2.156-1.071-3.696-1.071-.56 0-1.036.014-1.428.042-.392.028-.84.084-1.344.168v8.484c.476.056.868.091 1.176.105.308.014.672.021 1.092.021 1.708 0 3.066-.399 4.074-1.197s1.512-1.981 1.512-3.549zM321.358 76l-5.25-10.038a4.95 4.95 0 0 1-.61.042h-.609c-.532 0-.98-.007-1.344-.021a77.965 77.965 0 0 1-1.302-.063V76h-7.14V45.508a107.81 107.81 0 0 1 4.158-.357 73.816 73.816 0 0 1 4.914-.147c2.408 0 4.452.266 6.132.798 1.68.532 3.06 1.26 4.137 2.184 1.078.924 1.862 2.009 2.352 3.255.49 1.246.735 2.569.735 3.969 0 1.848-.462 3.549-1.386 5.103-.924 1.554-2.226 2.821-3.906 3.801L329.464 76h-8.106zm33.368-15.666c0-2.8-.861-4.991-2.583-6.573-1.722-1.582-4.25-2.373-7.581-2.373-.616 0-1.12.014-1.512.042-.392.028-.868.07-1.428.126V69.7c.336.028.623.056.86.084.239.028.484.049.736.063.252.014.518.021.798.021h1.008c1.68 0 3.129-.224 4.347-.672 1.218-.448 2.226-1.092 3.024-1.932.798-.84 1.386-1.848 1.764-3.024.378-1.176.567-2.478.567-3.906zm7.602 0c0 2.268-.364 4.375-1.092 6.321a13.196 13.196 0 0 1-3.34 5.04c-1.497 1.414-3.408 2.527-5.732 3.339-2.324.812-5.082 1.218-8.274 1.218-.896 0-1.715-.007-2.457-.021a54.803 54.803 0 0 1-2.184-.084 65.91 65.91 0 0 1-2.205-.168c-.756-.07-1.61-.147-2.562-.231v-30.24a83.303 83.303 0 0 1 4.746-.399 85.917 85.917 0 0 1 4.368-.105c3.192 0 5.964.392 8.316 1.176 2.352.784 4.298 1.862 5.838 3.234 1.54 1.372 2.688 2.989 3.444 4.851.756 1.862 1.134 3.885 1.134 6.069z" fill="#2B2B2B"/></g></svg>