<svg width="363" height="89" viewBox="0 0 363 89" xmlns="http://www.w3.org/2000/svg"><title>allwaysforward</title><g fill="none" fill-rule="evenodd"><path d="M83.267 3.757v9.772c2.31.513 3.976 1.413 5.13 2.956.9 1.285 1.925 3.47.9 6.685-1.797 6.044-6.286 21.86-6.286 21.86l-2.05 7.327-1.027-3.214v.128L65.053 3.244H52.87L37.735 52.87 36.71 49.4l-1.412-4.886s-.257-1.028-.64-2.443c-1.412-5.013-4.49-16.07-5.388-19.284-.642-2.315 0-3.857.77-4.757 1.282-1.673 3.462-2.316 5-2.573V3.887H4.9v9.77c3.335.514 8.465 2.186 10.004 8.1C16.187 26 28.5 73.443 31.194 83.73h17.571l7.696-31.887-1.282-1.414 4.105-15.944L71.467 83.73h15.648c2.18-8.1 15.392-56.316 16.93-61.844 1.54-5.53 6.67-6.557 9.235-6.686V3.757H83.267z" fill="#C5050C"/><path d="M70.057 85.657h16.545c2.18-8.1 15.905-58.243 17.444-63.77 1.54-5.53 6.67-6.558 9.234-6.687V3.757H81.343V15.2c1.796.13 4.233.643 5.516 2.443 1.025 1.286 1.153 3.086.64 5.143-1.796 6.17-6.285 21.857-6.285 21.857L79.933 49.4 65.053 3.243H50.818L36.71 49.4l-1.412-4.886c0-.128-5.002-17.485-6.157-21.857-.64-2.314 0-3.857.77-4.757 1.283-1.67 3.464-2.314 5.003-2.57V3.756H3.103V15.2c2.567.13 8.595 1.03 10.134 6.814 1.154 4.63 14.365 55.415 16.546 63.643h16.545l11.93-47.314 11.8 47.314zm18.854 2.957H67.62l-9.363-37.928-9.62 37.928H27.474l-.257-1.157c-.128-.643-15.52-59.786-16.802-64.8-1.154-4.114-5.9-4.628-7.824-4.628h-.768l-1.796.256V.67h37.837v17.36h-1.41c-.77 0-3.207.384-4.105 1.54-.128.26-.64.773-.257 2.187.77 2.83 3.208 11.443 4.747 16.843L48.637.03h18.598l12.57 38.956c1.41-5.143 3.72-13.115 4.873-17.1.257-1.03.257-1.93-.128-2.443-.77-.9-2.565-1.286-4.104-1.286h-.385l-1.667.13V.8h37.837v17.486l-1.667-.13h-.385c-1.795 0-6.156.387-7.182 4.5-1.668 6.044-17.83 64.8-17.83 64.8l-.255 1.158z" fill="#221F1F"/><path d="M153.968 34h-6.6v-2.472h1.584l-.528-2.376h-5.4l-.48 2.376h1.584V34h-6.552v-2.472h1.56l3.576-14.544h6.12l3.6 14.544h1.536V34zm-6.048-7.2l-1.536-7.08h-1.344l-1.512 7.08h4.392zm20.364 7.2v-5.424h-3.096v2.952h-4.056V19.36h2.136v-2.376h-7.44v2.376h1.896v12.168h-1.896V34h12.456zm14.292 0v-5.424h-3.096v2.952h-4.056V19.36h2.136v-2.376h-7.44v2.376h1.896v12.168h-1.896V34h12.456zm27.888 0h-2.832l-3.816-12.48L199.952 34h-2.832l-4.08-14.64h-1.512v-2.376h6.6v2.376h-1.632l2.304 9.672 3.6-12.048h2.952l3.552 12.048 2.328-9.672h-1.728v-2.376h6.6v2.376h-1.536L210.464 34zm20.82 0h-6.6v-2.472h1.583l-.528-2.376h-5.4l-.48 2.376h1.583V34h-6.552v-2.472h1.56l3.577-14.544h6.12l3.6 14.544h1.536V34zm-6.05-7.2l-1.535-7.08h-1.345l-1.512 7.08h4.392zm16.573 7.2h-8.16v-2.472h2.376v-5.136l-4.056-7.032h-1.512v-2.376h6.6v2.376h-1.56L236.91 22c.313.6.65 1.272.96 1.992.313-.72.6-1.368.913-1.968l1.44-2.664h-1.488v-2.376h6.336v2.376h-1.56l-4.08 7.032v5.136h2.377V34zm7.548 0l.144-1.152c1.007.912 2.23 1.368 4.055 1.368 3.648 0 5.616-2.4 5.616-5.208 0-2.52-1.535-3.72-2.807-4.248-1.2-.48-2.616-.936-3.624-1.176-1.273-.288-2.52-.792-2.52-2.04 0-1.128.91-1.92 2.447-1.92 1.56 0 3.144.408 3.36 2.784l3-.24v-5.184h-2.832l-.144 1.248c-.527-.672-2.04-1.464-3.96-1.464-3.455 0-5.135 2.04-5.135 4.776 0 4.008 4.032 4.44 6.288 5.136 1.296.408 2.568.936 2.568 2.424 0 1.632-1.247 2.256-3 2.256-1.895 0-3.19-.96-3.455-2.784l-2.856.24V34h2.855zM147.5 51.766v6.804h10.584v6.258H147.5V76h-7.14V45.214h19.488v6.552H147.5zm40.97 8.862c0-1.4-.195-2.68-.587-3.843-.392-1.162-.945-2.163-1.66-3.003-.713-.84-1.567-1.498-2.56-1.974-.995-.476-2.108-.714-3.34-.714-1.204 0-2.31.238-3.318.714s-1.87 1.134-2.583 1.974c-.714.84-1.267 1.84-1.66 3.003-.39 1.162-.587 2.443-.587 3.843 0 1.372.196 2.64.588 3.8.392 1.163.945 2.17 1.66 3.025.713.854 1.574 1.52 2.582 1.995 1.008.476 2.114.714 3.318.714 1.232 0 2.345-.238 3.34-.714.993-.476 1.847-1.14 2.56-1.995.715-.854 1.268-1.862 1.66-3.024.392-1.163.588-2.43.588-3.802zm7.645 0c0 2.268-.385 4.368-1.155 6.3-.77 1.932-1.855 3.605-3.255 5.02-1.4 1.413-3.073 2.526-5.02 3.338-1.945.812-4.108 1.218-6.488 1.218-2.38 0-4.536-.406-6.468-1.218-1.933-.812-3.578-1.925-4.936-3.34-1.358-1.413-2.4-3.086-3.13-5.018-.727-1.932-1.09-4.032-1.09-6.3s.384-4.375 1.154-6.32c.77-1.947 1.848-3.627 3.234-5.04 1.386-1.415 3.06-2.528 5.02-3.34 1.96-.812 4.13-1.218 6.51-1.218s4.528.406 6.446 1.218c1.918.812 3.556 1.925 4.914 3.34 1.358 1.413 2.408 3.093 3.15 5.04.742 1.945 1.113 4.052 1.113 6.32zm21.945-5.166c0-1.288-.462-2.29-1.386-3.003-.924-.715-2.156-1.072-3.696-1.072-.56 0-1.036.014-1.428.042-.392.028-.84.084-1.344.168v8.484c.476.056.868.09 1.176.105.308.014.672.02 1.092.02 1.708 0 3.066-.398 4.074-1.196 1.008-.797 1.512-1.98 1.512-3.548zM219.32 76l-5.25-10.038c-.224.028-.427.042-.61.042h-.608c-.532 0-.98-.007-1.344-.02-.364-.015-.798-.036-1.302-.064V76h-7.14V45.508c1.316-.14 2.702-.26 4.158-.357 1.456-.097 3.094-.146 4.914-.146 2.408 0 4.452.266 6.132.798 1.68.532 3.06 1.26 4.137 2.184 1.078.924 1.862 2.01 2.352 3.255.49 1.247.734 2.57.734 3.97 0 1.848-.462 3.55-1.386 5.103-.924 1.554-2.226 2.82-3.906 3.8L227.426 76h-8.106zm41.432.504l-.966.084-9.45-18.438-9.324 18.438-.924-.084-11.214-31.29h8.19l4.956 16.17 8.022-16.422h.756l8.064 16.296 4.914-16.044h8.022l-11.046 31.29zm25.095-18.942l-3.066 7.392h6.09l-3.023-7.392zM293.45 76l-2.31-5.586h-10.627L278.203 76h-7.266l14.49-31.038h.966L300.883 76h-7.434zm26.648-20.538c0-1.288-.462-2.29-1.386-3.003-.924-.715-2.156-1.072-3.696-1.072-.56 0-1.036.014-1.428.042-.392.028-.84.084-1.344.168v8.484c.476.056.868.09 1.176.105.308.014.672.02 1.092.02 1.708 0 3.066-.398 4.074-1.196 1.008-.797 1.512-1.98 1.512-3.548zM321.358 76l-5.25-10.038c-.224.028-.427.042-.61.042h-.608c-.532 0-.98-.007-1.344-.02-.364-.015-.798-.036-1.302-.064V76h-7.14V45.508c1.316-.14 2.702-.26 4.158-.357 1.456-.097 3.094-.146 4.914-.146 2.408 0 4.452.266 6.132.798 1.68.532 3.06 1.26 4.137 2.184 1.078.924 1.862 2.01 2.352 3.255.49 1.247.735 2.57.735 3.97 0 1.848-.462 3.55-1.386 5.103-.924 1.554-2.226 2.82-3.906 3.8L329.464 76h-8.106zm33.37-15.666c0-2.8-.862-4.99-2.584-6.573-1.722-1.58-4.25-2.372-7.58-2.372-.617 0-1.12.014-1.513.042-.39.028-.867.07-1.427.126V69.7c.336.028.623.056.86.084.24.028.484.05.736.063.25.014.517.02.797.02h1.008c1.68 0 3.13-.223 4.347-.67 1.218-.45 2.226-1.093 3.024-1.933.798-.84 1.386-1.848 1.764-3.024.378-1.176.567-2.478.567-3.906zm7.6 0c0 2.268-.363 4.375-1.09 6.32-.73 1.947-1.842 3.627-3.34 5.04-1.498 1.415-3.41 2.528-5.733 3.34-2.324.812-5.082 1.218-8.274 1.218-.895 0-1.714-.007-2.456-.02-.742-.015-1.47-.043-2.184-.085-.714-.042-1.45-.098-2.205-.168-.756-.07-1.61-.148-2.562-.232v-30.24c1.792-.196 3.374-.33 4.746-.4 1.37-.07 2.827-.104 4.367-.104 3.192 0 5.964.392 8.316 1.176 2.352.784 4.298 1.862 5.838 3.234 1.54 1.372 2.69 2.99 3.445 4.85.756 1.863 1.134 3.886 1.134 6.07z" fill="#2B2B2B"/></g></svg>