<svg width="42" height="66" viewBox="0 0 42 66" xmlns="http://www.w3.org/2000/svg"><title>bw_logo_b</title><g fill="#000" fill-rule="evenodd"><path d="M34.224 38.053l.01-.006c.092-.032.344-.115.717-.115.138 0 .277.01.416.033.627.094.935.518.99.603l.065.693.094.01.25-1.006-.006-.014c-.372-.93-1.34-1.03-1.74-1.03-.414 0-.893.11-.982.304l-.327 1.02.08.045.434-.537M35.708 41.367l.02.7.09.01.317-.98-.004-.014c-.28-.86-1.148-1.167-1.868-1.167-.337 0-.72.074-.813.238l-.393.993.077.05.47-.5.012-.002c.07-.023.255-.074.542-.074.19 0 .393.024.597.07.624.145.903.59.953.677M34.894 32.916l.014-.005c.106-.05.522-.227 1.173-.193.706.038 1.075.477 1.11.518l.18.677v.096h.095l.11-1.13-.006-.01c-.41-.76-1.217-.876-1.663-.876-.568 0-1.178.198-1.26.416l-.19 1.05.088.032.35-.574M34.662 35.497l.012-.008c.09-.046.462-.21 1.102-.155.58.052.913.377 1.066.527.02.02.033.033.044.04l.013.013.15.672.092-.005.143-1.026-.005-.014c-.308-.594-.94-.936-1.735-.936-.493 0-1.056.15-1.11.376l-.223 1.042.09.035.36-.563M6.256 37.932c.375 0 .627.083.718.115l.45.548.08-.043-.338-1.043c-.083-.18-.572-.29-.976-.29-.398 0-1.367.1-1.74 1.024l-.006.013.25 1.007.093-.007.058-.68.006-.01c.058-.084.366-.508.994-.602.137-.022.28-.033.412-.033M7.053 40.62c.294 0 .488.06.54.075l.485.51.08-.048-.406-1.02c-.084-.152-.477-.22-.805-.22-.72 0-1.586.305-1.868 1.16l-.006.014.313.982.093-.013.016-.68.008-.013c.045-.086.325-.532.95-.676.204-.046.406-.07.6-.07M5.13 32.717c.643-.033 1.066.144 1.17.194l.362.587.09-.03-.197-1.085c-.075-.196-.696-.39-1.253-.39-.444 0-1.252.113-1.66.867l-.007.01.11 1.046.093.006.177-.678c.015-.02.387-.488 1.115-.527M6.534 35.49l.375.576.085-.034-.225-1.052c-.05-.225-.612-.374-1.108-.374-.79 0-1.423.34-1.73.93l-.007.012.14 1.035.094.01.15-.678.013-.013c.012-.007.023-.02.044-.04.157-.153.488-.475 1.068-.527.64-.054 1.012.11 1.1.154"/><path d="M40.946 23.775c-.572-5.578-2.11-10.225-4.45-13.44-2.344-3.223-5.434-4.93-8.942-4.94-.62-1.924-2.938-2.217-3.244-2.248-.1-.32-.975-2.838-3.668-2.874V.27h-.1v.003c-2.694.036-3.568 2.554-3.67 2.874-.306.03-2.624.324-3.246 2.247-3.506.01-6.597 1.718-8.938 4.94C2.346 13.55.808 18.198.235 23.775-.62 32.098.88 41.45 4.347 49.435c3.69 8.49 8.94 13.755 15.183 15.218.082.13.59.902 1.01.968l.05.005h.004l.048-.005c.42-.066.927-.837 1.01-.968 6.244-1.463 11.497-6.727 15.184-15.22 3.468-7.982 4.967-17.335 4.11-25.657zm-.595.08c.025.228.04.46.06.69-.59.014-1.17.137-1.707.356-.433-5.346-1.88-9.74-4.016-12.678.41-.497.93-.913 1.5-1.196 2.184 3.105 3.624 7.53 4.164 12.83zm-5.354 20.707c-.3-1.022-.972-1.408-1.17-1.5-.374-.18-.74-.27-1.088-.27-.322 0-.6.08-.842.198.772-2.103 2.05-6.37 2.092-11.625l.008-.022c.24-.69.936-1.117 1.814-1.117.967 0 2.077.556 2.385 1.796v.004c-.357 4.8-1.41 9.66-3.08 14.02.052-.62-.01-1.108-.12-1.484zM20.588 59.62h-.047c-.498.012-1.692.234-1.87 1.153l-.007.053-.016.102-.055-.017c-.94-.342-1.857-.807-2.75-1.378.617-.477 2.15-1.79 2.767-3.51l.002-.008c.49.317.984.59 1.478.81l.51.222.508-.224c.513-.228 1.024-.514 1.532-.847.594 1.706 2.095 3.02 2.742 3.528-.906.584-1.837 1.06-2.792 1.408l-.054.018-.017-.105-.006-.05c-.18-.92-1.373-1.14-1.88-1.153h-.046zM6.095 46.11c-1.678-4.362-2.743-9.224-3.106-14.03l.013-.06c.308-1.24 1.42-1.796 2.385-1.796.88 0 1.574.428 1.816 1.117l.003.014c.04 5.26 1.32 9.53 2.093 11.634-.243-.118-.523-.2-.846-.2-.347 0-.717.093-1.09.27-.196.092-.856.475-1.155 1.476-.118.39-.18.91-.115 1.576zm8.03-34.26c-.045-.126-.196-.17-.335-.087-.398.237-.45 1.046-.272 1.69.127.464.352.74.597.74.172 0 .34-.084.492-.245.392-.412.657-1.313.615-2.093-.095-1.866-1.15-1.96-1.363-1.96-.713 0-1.474 1.14-1.474 2.834 0 1.646.63 2.948 1.47 3.028.333.034.694.052 1.04.052 1.335 0 3.15-.243 4.217-1.398.705-.763 1-1.848.873-3.218-.196-2.177-1.33-4.025-3.037-4.957.208-.176.445-.266.703-.266 1.2 0 2.614 1.904 2.732 2.497.024.118.084.2.156.23l.052.014.05-.012c.073-.03.13-.113.156-.23.12-.594 1.53-2.497 2.732-2.497.258 0 .494.09.703.267-1.705.932-2.84 2.78-3.038 4.957-.125 1.37.17 2.455.876 3.218 1.067 1.155 2.883 1.398 4.217 1.398.35 0 .7-.018 1.04-.052.838-.08 1.47-1.382 1.47-3.027 0-1.694-.762-2.834-1.475-2.834-.21 0-1.266.095-1.362 1.96-.04.78.225 1.682.616 2.094.153.16.32.245.49.245.248 0 .47-.276.598-.74.18-.644.125-1.453-.272-1.69-.138-.084-.29-.04-.335.087-.03.08-.014.204.113.31.116.098.167.605.057.913-.033.087-.087.19-.18.19-.126 0-.608-.217-.608-1.276 0-1.155.603-1.282.865-1.282.263 0 .992.48.992 2.023 0 .594-.123 1.227-.31 1.61-.36.73-.954.912-1.607.512-1.07-.78-1.43-2.563-1.16-3.834.123-.58.607-1.927 2.442-1.927h.05c2.418.032 4.613 1.268 6.406 3.595-.332.8-1.523 2.928-5.302 5.098-1.02-.644-2.307-1.06-3.54-1.143-.16-.01-.326-.016-.49-.016-1.162 0-2.147.266-2.94.478-.492.133-.918.247-1.22.256h-.036c-.32-.01-.745-.123-1.242-.256-.79-.212-1.774-.478-2.938-.478-.164 0-.33.007-.49.016-1.232.082-2.523.5-3.542 1.143-3.823-2.18-4.995-4.296-5.317-5.093 1.795-2.33 3.99-3.568 6.412-3.6h.048c1.837 0 2.32 1.348 2.443 1.928.268 1.27-.092 3.055-1.156 3.833-.664.408-1.254.22-1.61-.51-.19-.383-.31-1.016-.31-1.61 0-1.542.727-2.022.993-2.022.26 0 .863.127.863 1.28 0 1.06-.478 1.276-.608 1.276-.09 0-.148-.102-.178-.19-.113-.307-.06-.814.056-.91.128-.108.143-.232.112-.312zm-.286 14.924s2.688 11.523 3.318 14.217l2.894-18.656.01-.072h.664l.014.068 3.948 18.892 3.336-14.464c.06-.374.006-.662-.16-.83-.177-.182-.46-.21-.614-.21-.076 0-.127.007-.135.008l-.28.043V24.38h4.186v1.418l-.27-.02c-.008-.003-.025-.003-.054-.003-.187 0-.634.054-.758.565l-5.44 24.598h-.735l-.013-.07-3.4-17.49c-.42 2.733-2.65 17.326-2.675 17.487l-.01.073h-.822l-.015-.065c-.233-1.002-5.715-24.51-5.715-24.517-.086-.48-.607-.605-.71-.626l-.206-.033v-1.316h4.682v1.346l-.28-.038c-.027 0-.335-.027-.542.167-.153.148-.23.39-.23.715 0 .064.004.133.01.208zm15.247-8.797c3.58-2.055 4.83-4.03 5.25-5 .188.26.374.528.553.813 1.882 2.982 3.034 7.038 3.347 11.733-.76.4-2.41 1.12-4.585 1.276-.475-2.884-1.656-6.787-4.565-8.823zm-16.987.005c-2.903 2.037-4.082 5.94-4.556 8.82-2.178-.153-3.835-.876-4.598-1.278.314-4.696 1.466-8.752 3.346-11.734.18-.284.364-.55.552-.81.42.97 1.67 2.947 5.256 5.002zM7.497 27.11c-.17 1.12-.238 2.064-.263 2.634-.01.232-.017.463-.02.69-.43-.48-1.078-.752-1.825-.752-.872 0-1.88.4-2.476 1.257-.09-1.715-.09-3.416.007-5.078.825.423 2.456 1.097 4.577 1.247zm-.74 17.518c.175-.527.51-.91.995-1.137.227-.107.457-.162.684-.162.732 0 1.224.55 1.34.94.15.497-.072 1.046-.526 1.3-.198.11-.386.17-.554.17-.407 0-.62-.32-.658-.472-.06-.25.023-.504.207-.62.144-.094.316-.042.39.095.062.11.226.115.307.014.047-.056.062-.132.043-.215-.07-.324-.523-.49-.807-.414-.49.13-.837.722-.727 1.243.05.24.37.927 1.162.927.166 0 .343-.032.53-.093.662-.217.976-.598 1.117-.978.468.978.952 1.906 1.452 2.78-1.27 1.224-3.24 1.713-3.958 1.857-.07-.136-.136-.278-.204-.417-.65-1.574-1.226-3.523-.794-4.818zm5.114 3.65c1.99 3.417 4.2 6 6.478 7.556l-.007.02c-.59 1.72-2.22 3.08-2.765 3.496-2.922-1.955-5.55-5.1-7.673-9.205.797-.164 2.684-.665 3.97-1.866zm11.037 7.516c2.252-1.557 4.44-4.118 6.408-7.495 1.3 1.203 3.182 1.69 3.964 1.85-2.115 4.082-4.726 7.215-7.63 9.172-.59-.457-2.18-1.82-2.743-3.528zm6.567-7.77c.503-.878.99-1.81 1.46-2.793.144.38.458.758 1.117.974.187.06.366.093.532.093.785 0 1.11-.688 1.158-.928.11-.522-.237-1.114-.726-1.244-.284-.076-.738.09-.807.413-.018.082-.002.158.044.214.08.1.245.097.307-.013.076-.136.247-.188.39-.095.18.117.267.372.205.62-.04.154-.25.472-.656.472-.17 0-.355-.058-.552-.17-.453-.253-.676-.802-.528-1.3.117-.39.61-.94 1.34-.94.227 0 .458.056.685.164.482.23.817.61.99 1.138.424 1.266-.116 3.16-.748 4.716-.084.174-.167.35-.254.52-.705-.138-2.674-.622-3.954-1.84zm6.336-18.342c-.748 0-1.395.27-1.827.76-.004-.23-.01-.463-.02-.698-.025-.57-.093-1.518-.264-2.64 2.12-.153 3.743-.824 4.563-1.244.095 1.655.093 3.35.005 5.057-.6-.843-1.597-1.235-2.458-1.235zm-8.174-23.67c.292 0 .596.015.902.047 2.88.302 5.396 1.886 7.465 4.706-.568.29-1.09.702-1.51 1.192-1.84-2.41-4.173-3.772-6.8-3.775-1.582 0-2.726 1.02-3.064 2.73-.25 1.274.1 2.796.875 3.79.015.02.057.093.035.137-.02.042-.096.064-.213.064-.308 0-1.892-.053-2.844-1.09-.582-.635-.824-1.495-.722-2.557.236-2.422 1.914-5.246 5.876-5.246zM20.592.77C22.81.78 23.47 2.777 23.57 3.13c-.055.004-.143.012-.246.03-.125.02-.273.055-.336.07-.103-.143-.602-.773-1.44-.773-.305 0-.624.088-.944.26l-.012.007-.012-.007c-.32-.172-.64-.26-.948-.26-.832 0-1.334.63-1.436.772-.065-.015-.212-.05-.338-.07-.102-.018-.19-.026-.245-.03.1-.356.762-2.35 2.98-2.357zm1.928 2.623c-.802.296-1.417.83-1.825 1.59-.048.087-.084.12-.103.126-.02-.006-.058-.038-.104-.124-.407-.756-1.02-1.293-1.825-1.59.243-.187.51-.282.793-.282.56 0 .984.37 1.033.523.01.034.023.07.05.092l.052.02.05-.02c.03-.024.04-.06.053-.093.047-.153.47-.523 1.032-.523.28 0 .55.095.793.28zm-5.104.21c1.395 0 2.502.794 3.032 2.175.028.087.055.154.093.183l.048.02h.006l.048-.02c.04-.03.064-.095.09-.18.535-1.384 1.64-2.178 3.035-2.178 1.386 0 2.674.787 3.025 1.838-.145.02-.537.078-.82.133-.306.057-.672.18-.783.222-.25-.313-.812-.64-1.486-.64-.784 0-1.95.43-3.05 2.465-.007.014-.022.036-.054.046l-.008.002-.01-.003c-.032-.01-.046-.033-.056-.05-1.098-2.033-2.263-2.46-3.05-2.46-.672 0-1.233.325-1.483.638-.11-.042-.478-.165-.782-.222-.283-.055-.676-.113-.82-.133.352-1.05 1.64-1.838 3.026-1.838zm-4.77 2.454c.304-.033.608-.05.9-.05 3.962 0 5.64 2.825 5.873 5.247.103 1.062-.14 1.922-.72 2.557-.952 1.037-2.534 1.09-2.842 1.09-.12 0-.195-.022-.217-.064-.02-.044.02-.116.037-.137.773-.994 1.125-2.516.874-3.79-.335-1.71-1.48-2.73-3.062-2.73-2.63.003-4.96 1.365-6.803 3.778-.418-.493-.936-.907-1.505-1.197 2.073-2.82 4.583-4.402 7.466-4.704zM.833 23.854c.538-5.3 1.98-9.724 4.162-12.83.57.284 1.088.7 1.5 1.2-2.138 2.94-3.58 7.33-4.014 12.677-.533-.215-1.123-.338-1.705-.357.02-.23.034-.46.058-.69zM4.8 48.975C1.575 41.564.118 32.838.748 24.86c.588.016 1.182.145 1.71.37-.014.176-.028.352-.04.53-.43 7.24.94 15.21 3.763 21.86.304.713.624 1.397.954 2.065-.59.12-1.176.362-1.692.694-.22-.46-.434-.927-.642-1.406zm.782 1.69c.515-.337 1.104-.58 1.694-.69 2.1 4.172 4.714 7.418 7.637 9.51-.512.44-.943.998-1.236 1.608-3.122-2.313-5.86-5.826-8.095-10.428zm8.354 10.623c.284-.617.72-1.188 1.244-1.62 1.1.756 2.24 1.355 3.416 1.775 0 .137.01.654.115 1.182.094.474.29.96.38 1.16-1.81-.5-3.533-1.34-5.154-2.497zm6.933 3.506c-.044.05-.156.17-.278.177-.123-.006-.233-.127-.28-.176-.573-.718-1.484-2.18-1.146-3.923.097-.5.908-.74 1.426-.74.516 0 1.327.24 1.423.74.34 1.743-.574 3.206-1.146 3.924zm1.225-1.01c.087-.198.286-.685.377-1.16.102-.527.113-1.044.114-1.18 1.184-.424 2.334-1.03 3.443-1.794.526.428.964.998 1.252 1.614-1.63 1.172-3.365 2.017-5.187 2.52zm5.443-2.716c-.296-.61-.73-1.166-1.245-1.602 2.907-2.087 5.505-5.315 7.6-9.46.595.13 1.17.38 1.67.733-2.222 4.547-4.934 8.027-8.025 10.328zm8.845-12.094c-.22.504-.445.998-.676 1.48-.504-.347-1.077-.6-1.674-.737.336-.677.66-1.373.968-2.098 2.825-6.65 4.196-14.62 3.764-21.86-.01-.18-.025-.354-.038-.53.537-.232 1.12-.357 1.71-.37.628 7.98-.827 16.706-4.053 24.114z"/></g></svg>