<svg width="16" height="18" viewBox="0 0 16 18" xmlns="http://www.w3.org/2000/svg"><title>calendar_icon</title><g fill="#FFF" fill-rule="evenodd"><path d="M6.783 8.6H9.11v2.284H6.783zM10.43 8.6h2.327v2.284H10.43zM3.14 12.073h2.326v2.285H3.14zM6.783 12.073H9.11v2.285H6.783zM10.43 12.073h2.327v2.285H10.43zM4.36 4.352c-.573 0-1.042-.46-1.042-1.023V1.026c0-.563.47-1.023 1.042-1.023.572 0 1.04.46 1.04 1.023v2.306c0 .56-.468 1.02-1.04 1.02z"/><path d="M14.2 2.176h-1.182v1.396c0 .86-.705 1.564-1.567 1.564h-.415c-.862 0-1.567-.703-1.567-1.564V2.176H6.232v1.396c0 .86-.705 1.564-1.568 1.564H4.25c-.864 0-1.57-.703-1.57-1.564V2.176h-.905c-.97 0-1.764.79-1.764 1.758V16.24c0 .965.795 1.756 1.765 1.756h12.428c.97 0 1.765-.79 1.765-1.757V3.933c-.004-.967-.798-1.758-1.768-1.758zm-.3 12.403c0 .6-.495 1.093-1.096 1.093h-9.63c-.6 0-1.094-.493-1.094-1.094V8.377c0-.6.494-1.136 1.095-1.136h9.63c.6 0 1.094.535 1.094 1.136v6.2z"/><path d="M11.25 4.352c-.573 0-1.04-.46-1.04-1.023V1.026c0-.563.467-1.023 1.04-1.023s1.042.46 1.042 1.023v2.306c0 .56-.47 1.02-1.042 1.02z"/></g></svg>