<svg width="16" height="18" viewBox="0 0 16 18" xmlns="http://www.w3.org/2000/svg"><title>calendar_icon</title><g fill="#FFF" fill-rule="evenodd"><path d="M6.783 8.599H9.11v2.285H6.783zM10.43 8.599h2.327v2.285H10.43zM3.139 12.073h2.327v2.285H3.139zM6.783 12.073H9.11v2.285H6.783zM10.43 12.073h2.327v2.285H10.43zM4.36 4.352c-.573 0-1.042-.46-1.042-1.023V1.027c0-.563.469-1.023 1.042-1.023.572 0 1.041.46 1.041 1.023v2.306c0 .559-.469 1.02-1.041 1.02z"/><path d="M14.2 2.176h-1.182v1.396a1.57 1.57 0 0 1-1.567 1.564h-.416a1.57 1.57 0 0 1-1.567-1.564V2.176H6.232v1.396a1.57 1.57 0 0 1-1.568 1.564h-.415A1.57 1.57 0 0 1 2.68 3.572V2.176h-.906c-.97 0-1.764.791-1.764 1.758v12.305c0 .966.794 1.757 1.764 1.757h12.428c.97 0 1.765-.79 1.765-1.757V3.934A1.772 1.772 0 0 0 14.2 2.176zm-.301 12.403c0 .601-.494 1.094-1.095 1.094h-9.63a1.098 1.098 0 0 1-1.094-1.094V8.378c0-.601.494-1.136 1.095-1.136h9.629c.6 0 1.095.535 1.095 1.136v6.201z"/><path d="M11.25 4.352c-.573 0-1.041-.46-1.041-1.023V1.027c0-.563.468-1.023 1.041-1.023s1.042.46 1.042 1.023v2.306c0 .559-.47 1.02-1.042 1.02z"/></g></svg>