<svg width="45" height="68" viewBox="0 0 45 68" xmlns="http://www.w3.org/2000/svg"><title>uw logo text</title><desc>Created with Sketch.</desc><defs><linearGradient x1="49.649%" y1="100.101%" x2="49.649%" y2=".005%" id="a"><stop stop-color="#781B21" offset="0%"/><stop stop-color="#8A1E24" offset="4.82%"/><stop stop-color="#9D2228" offset="12.09%"/><stop stop-color="#AB252A" offset="20.52%"/><stop stop-color="#B3272C" offset="31.05%"/><stop stop-color="#B5272C" offset="50.21%"/><stop stop-color="#B2262C" offset="67.37%"/><stop stop-color="#AA252A" offset="78.31%"/><stop stop-color="#9B2227" offset="87.5%"/><stop stop-color="#861E24" offset="95.69%"/><stop stop-color="#781B21" offset="100%"/></linearGradient><linearGradient x1="49.775%" y1="100.101%" x2="49.775%" y2=".005%" id="b"><stop stop-color="#781B21" offset="0%"/><stop stop-color="#8A1E24" offset="4.82%"/><stop stop-color="#9D2228" offset="12.09%"/><stop stop-color="#AB252A" offset="20.52%"/><stop stop-color="#B3272C" offset="31.05%"/><stop stop-color="#B5272C" offset="50.21%"/><stop stop-color="#B2262C" offset="67.37%"/><stop stop-color="#AA252A" offset="78.31%"/><stop stop-color="#9B2227" offset="87.5%"/><stop stop-color="#861E24" offset="95.69%"/><stop stop-color="#781B21" offset="100%"/></linearGradient></defs><g fill="none"><path d="M44.244 24.502c-.35-3.488-1.227-6.627-2.278-9.243 0-.088-.175-.35-.175-.437-.963-2.005-2.102-3.836-3.416-5.144-2.453-2.53-5.432-3.925-8.76-4.012h-.09c-.525-1.134-2.014-1.92-3.24-2.093 0 0-.79-2.965-3.943-2.965S18.4 3.575 18.4 3.575c-1.314.174-2.716.96-3.24 2.093h-.09c-3.328 0-6.307 1.395-8.76 4.01-1.314 1.396-2.453 3.14-3.417 5.145 0 0-.174.35-.174.436C1.576 17.874.7 21.013.438 24.5c-1.84 17.265 6.308 38.453 21.027 41.68.175.348.788.96 1.05.96.264 0 .79-.612 1.052-.96 14.37-3.314 22.517-24.415 20.677-41.68z" fill="#DFCBA0"/><path d="M35.92 30.606c-.087-2.006-.7-8.98-5.168-11.685-.964-.61-2.19-1.045-3.505-1.045-2.19-.087-3.855.698-4.906.698-1.138 0-2.715-.872-4.905-.698-1.315.087-2.54.523-3.505 1.046-4.468 2.705-5.08 9.593-5.17 11.686-.262 7.237 2.104 12.905 2.805 14.474 3.066 6.453 6.833 10.9 10.513 12.47l.263.086.264-.087c3.68-1.57 7.447-6.017 10.513-12.47.7-1.57 3.066-7.237 2.804-14.474z" fill="url(#a)"/><path d="M28.912 25.46v1.396h.35c.175 0 .438 0 .613.175.176.175.176.437.176.873 0 0-2.978 12.38-3.59 14.65-.615-2.966-4.207-19.185-4.207-19.185v-.087h-.613v.088S19.1 39.15 18.574 42.29c-.7-2.703-3.593-14.475-3.593-14.475v-.174c0-.348.09-.61.264-.696.175-.175.526-.175.526-.175h.263v-1.396h-4.906v1.308h.175c.087 0 .7.174.788.61 0 0 5.87 23.892 6.133 24.85v.088h.876v-.087c.087-.174 2.365-14.998 2.89-17.788.526 2.79 3.592 17.614 3.68 17.788v.087h.79l5.78-24.938c.09-.523.614-.61.79-.61h.262v-1.395l-4.38.174z" fill="#fff"/><path d="M44.068 24.502c-.35-3.488-1.226-6.627-2.277-9.243 0-.088-.175-.35-.175-.437-.963-2.005-2.102-3.836-3.416-5.144-2.455-2.53-5.433-3.925-8.763-4.012h-.087c-.526-1.134-2.015-1.92-3.242-2.093 0 0-.788-2.965-3.942-2.965s-3.943 2.965-3.943 2.965c-1.314.174-2.716.96-3.242 2.093h-.086c-3.33 0-6.308 1.395-8.76 4.01-1.316 1.396-2.454 3.14-3.418 5.145 0 0-.175.35-.175.436C1.403 17.874.527 21.013.264 24.5c-1.84 17.265 6.308 38.453 21.026 41.68.175.348.788.96 1.05.96.264 0 .79-.612 1.052-.96 14.368-3.314 22.604-24.415 20.676-41.68zm-.35.087v.61c-.7 0-1.402.087-2.015.348-.438-5.32-2.015-9.766-4.293-12.817.438-.523 1.052-.96 1.752-1.22 2.366 3.14 4.03 7.586 4.556 13.08zm-28.65-12.47c-.524.087-.524.96-.437 1.57.09.61.44 1.22.79 1.22.7-.087 1.314-1.57 1.226-2.615-.087-1.57-.964-1.92-1.49-1.92-.875 0-1.576 1.31-1.576 3.053 0 1.744.613 3.052 1.577 3.052.35 0 7.096.872 6.483-4.71-.263-2.614-1.927-4.533-3.504-5.405 1.49-.872 3.416.61 3.942 2.442.088.35.35.35.438 0 .613-1.92 2.278-3.226 3.767-2.442-1.577.872-3.066 2.79-3.33 5.406-.437 5.67 6.31 4.797 6.572 4.71.876 0 1.577-1.308 1.577-3.052s-.7-3.052-1.577-3.052c-.526 0-1.402.436-1.49 1.92 0 1.132.526 2.527 1.227 2.614.35 0 .7-.61.79-1.22.086-.61 0-1.395-.44-1.57-.174 0-.35 0-.35.175 0 .087.35.348.263 1.046 0 .96-1.05.524-.876-1.045.087-1.308.875-1.22.875-1.22.35 0 1.05.784 1.05 2.266 0 1.31-.7 2.79-2.014 2.006-1.05-.784-1.488-2.528-1.225-3.836.087-.61.7-2.267 2.54-2.267 2.54 0 4.994 1.22 6.922 3.662-.175.61-1.227 2.965-5.607 5.32-1.49-.873-3.154-1.222-4.644-1.222-2.365 0-3.154.698-4.205.698-1.05 0-1.84-.697-4.204-.697-1.577 0-3.242.35-4.644 1.22-4.293-2.353-5.344-4.62-5.607-5.318 1.928-2.442 4.38-3.75 7.01-3.75 1.84 0 2.364 1.657 2.452 2.268.263 1.308-.088 3.14-1.226 3.836-1.314.697-2.015-.698-2.015-2.006 0-1.483.614-2.267 1.052-2.267 0 0 .788-.088.876 1.308.088 1.482-.876 2.005-.876 1.046 0-.61.35-.87.263-1.045 0-.088-.176-.262-.35-.175zm22.08 1.22c2.19 2.966 3.767 7.325 4.03 12.906-.79.436-2.454 1.133-4.644 1.308-.526-2.878-1.752-6.8-4.82-8.98 3.856-2.18 5.083-4.274 5.433-5.233zm-24.094 5.146c-3.066 2.18-4.293 6.103-4.82 8.98-2.19-.174-3.853-.87-4.642-1.307.35-5.582 1.84-9.942 4.03-12.82.35.96 1.577 3.053 5.432 5.146zm-4.906 9.417c-.175 1.046-.175 1.918-.263 2.528V33.746c.088 1.744.35 3.488.79 5.232v.174c.7 3.053 1.663 5.32 2.1 6.105.702 1.395 1.403 2.703 2.104 3.836-1.403 1.222-3.418 1.658-4.12 1.832-3.766-6.975-5.606-16.044-5.168-24.24.79.436 2.366 1.046 4.556 1.22zm4.906 21.624c2.453 4.01 4.906 6.453 6.746 7.673-.7 1.657-2.278 2.878-2.803 3.314-3.242-2.006-5.958-5.32-8.06-9.243.788-.086 2.715-.61 4.117-1.743zm7.184 7.935c1.052.698 2.103 1.134 2.19 1.134.088 0 1.14-.436 2.103-1.134.702 1.57 2.104 2.79 2.805 3.313-.964.61-1.928 1.047-2.89 1.396v-.087c-.177-1.046-1.666-1.22-2.104-1.22-.525 0-1.926.174-2.102 1.22v.088c-.963-.348-1.927-.784-2.89-1.307.7-.61 2.102-1.83 2.89-3.4zm4.73-.262c1.84-1.307 4.294-3.75 6.747-7.673 1.315 1.134 3.154 1.657 4.118 1.83-2.103 3.925-4.818 7.15-7.973 9.244-.7-.522-2.277-1.743-2.89-3.4zm6.923-8.11c.702-1.132 1.402-2.44 2.016-3.748.35-.785 1.4-3.052 2.102-6.104v-.174c.35-1.744.614-3.488.79-5.232V30.52c0-.612-.09-1.484-.264-2.53 2.103-.175 3.767-.785 4.556-1.22.263 8.196-1.577 17.177-5.257 24.24-.7-.262-2.628-.785-3.942-1.92zM29.44 6.366c3.767 0 7.008 1.744 9.462 4.796-.614.263-1.227.7-1.753 1.222-2.015-2.442-4.468-3.837-7.27-3.837-1.754 0-2.893 1.22-3.243 2.79-.263 1.308 0 2.878.876 3.837.438.436.175.61.088.61-1.14 0-4.293-.61-4.03-4.098.175-2.267 1.4-3.75 2.628-4.62 1.314-.612 2.716-.7 3.242-.7zM22.34 1.22c2.542 0 3.155 2.355 3.155 2.442-.175 0-.35 0-.526.087l-.44.087c-.875.26-1.663.872-2.1 1.656 0 0 0 .088-.09.088l-.087-.087c-.438-.784-1.226-1.308-2.102-1.656l-.437-.088c-.176 0-.35 0-.526-.088 0-.087.613-2.44 3.154-2.44zm-3.416 2.79c1.49 0 2.716.873 3.154 2.18.088.35.263.35.438 0 .438-1.307 1.752-2.18 3.154-2.18 1.227 0 2.366.7 2.98 1.745-.44.087-.877.174-1.403.35-.876-.7-1.664-.7-2.19-.524-1.227.35-2.19 1.483-2.716 2.53-.525-.96-1.488-2.093-2.715-2.53-.526-.174-1.402-.174-2.19.524-.438-.175-.964-.262-1.402-.35.526-1.045 1.665-1.743 2.89-1.743zm-3.68 2.355c.526 0 1.928.087 3.154.785 1.315.872 2.454 2.354 2.63 4.62.262 3.402-3.418 4.012-4.12 4.012-.087 0-.174-.087.176-.436.876-1.046 1.14-2.615.876-3.836-.35-1.57-1.49-2.79-3.24-2.79-2.805 0-5.258 1.395-7.273 3.836-.438-.523-1.05-.96-1.752-1.22 2.54-3.227 5.782-4.97 9.55-4.97zM.964 24.59c.613-5.494 2.19-9.94 4.556-13.08.613.26 1.226.697 1.752 1.308-2.278 2.964-3.855 7.41-4.293 12.818-.614-.262-1.315-.35-2.016-.35v-.697zM5.08 50.05C1.666 42.64.176 33.832.877 25.636c.7 0 1.402.087 2.015.348v.524c-.524 8.196 1.403 17.177 4.995 24.327-.7.175-1.402.436-2.015.872l-.79-1.657zm.965 1.92c.613-.437 1.314-.7 2.015-.873 2.103 4.01 4.907 7.41 8.148 9.59-.526.437-1.05 1.048-1.314 1.658-3.417-2.18-6.396-5.755-8.85-10.376zm9.2 10.724c.262-.698.788-1.22 1.314-1.657 1.138.698 2.364 1.308 3.59 1.744 0 .873.176 1.745.526 2.355-1.927-.523-3.68-1.308-5.432-2.44zm7.36 3.4s-.09.175-.264.175c-.087 0-.262-.176-.262-.176-.613-.697-1.577-2.18-1.226-3.923.087-.523.963-.697 1.49-.697.525 0 1.4.174 1.488.698.35 1.745-.613 3.14-1.226 3.924zm1.4-.96c.35-.61.526-1.48.526-2.353 1.228-.435 2.454-1.045 3.593-1.83.526.436 1.052 1.046 1.315 1.657-1.665 1.22-3.505 2.005-5.432 2.528zm5.87-2.702c-.262-.61-.788-1.22-1.314-1.657 3.243-2.18 5.96-5.58 8.062-9.59.7.086 1.4.435 2.015.87-2.366 4.448-5.345 8.023-8.76 10.377zM39.6 50.05l-.788 1.57c-.613-.436-1.314-.698-2.015-.872 3.68-7.063 5.52-16.13 4.994-24.24v-.524c.614-.26 1.315-.348 2.016-.348.7 8.196-.79 17.003-4.206 24.414z" fill-opacity=".783" fill="#000"/><path d="M35.745 30.606c-.087-2.006-.7-8.98-5.17-11.685-.962-.61-2.19-1.045-3.503-1.045-2.19-.087-3.855.698-4.906.698-1.14 0-2.716-.872-4.907-.698-1.315.087-2.54.523-3.505 1.046-4.468 2.705-5.082 9.593-5.17 11.686-.262 7.237 2.103 12.905 2.804 14.474 3.066 6.453 6.833 10.9 10.513 12.47l.263.086.262-.087c3.68-1.57 7.447-6.017 10.514-12.47.7-1.57 3.154-7.237 2.803-14.474z" fill="url(#b)"/><path d="M28.736 26.856h.35c.175 0 .438 0 .613.175s.175.437.175.873c0 0-2.978 12.38-3.592 14.65-.613-2.966-4.205-19.185-4.205-19.185v-.087h-.7v.088S18.835 39.15 18.31 42.29c-.7-2.703-3.59-14.475-3.59-14.475v-.174c0-.348.086-.61.26-.696.177-.175.527-.175.527-.175h.263v-1.396h-4.994v1.308h.175c.09 0 .702.174.79.61 0 0 5.87 23.892 6.133 24.85v.088h.876v-.087c0-.174 2.364-14.998 2.89-17.788.526 2.79 3.592 17.614 3.68 17.788v.087h.788l5.782-24.938c.088-.523.614-.61.79-.61h.262v-1.395l-4.206.174v1.396z" fill="#fff"/></g></svg>