<svg height="32" viewBox="0 0 32 32" width="32" xmlns="http://www.w3.org/2000/svg"><g fill="none" stroke="#FFF" stroke-linecap="round" stroke-linejoin="round" stroke-miterlimit="10" stroke-width="2"><path d="M649 138h26v18h-14M653 156h-4v-14M661 156l-8 6v-6"/></g><path d="M11.312 12.766c.194.195.45.292.704.292.255 0 .51-.097.704-.292.39-.39.39-1.02 0-1.41L4.755 3.385c-.39-.39-1.02-.39-1.408 0s-.39 1.02 0 1.41l7.965 7.972zM17.407 16.048L28.652 4.793c.39-.39.39-1.02 0-1.41-.39-.388-1.02-.56-1.408-.17L15.296 15H15v.345L3.2 27.303c-.39.39-.315 1.02.073 1.41.194.194.486.29.74.29s.53-.096.723-.29L15.99 17.457l11.25 11.255c.193.195.45.292.705.292s.51-.097.705-.292c.39-.39.39-1.02 0-1.41L17.408 16.05z"/></svg>