<svg width="226" height="66" viewBox="0 0 226 66" xmlns="http://www.w3.org/2000/svg"><title>uw logo text + Wisconsin + UNIVERSITY OF WISCON</title><g fill="#FFF" fill-rule="evenodd"><path d="M34.224 38.053l.01-.006c.092-.032.344-.115.717-.115.137 0 .276.011.415.033.627.094.935.518.991.603l.064.693.093.008.25-1.005-.006-.014c-.372-.93-1.339-1.031-1.74-1.031-.414 0-.893.111-.982.305l-.327 1.019.082.046.433-.536M35.708 41.367l.019.7.092.01.316-.981-.004-.013c-.282-.861-1.149-1.167-1.869-1.167-.337 0-.72.074-.813.238l-.392.993.077.049.471-.5.011-.001c.07-.023.255-.074.542-.074.191 0 .393.023.597.07.624.144.903.59.953.676M34.894 32.916l.014-.005c.106-.05.522-.228 1.173-.194a1.568 1.568 0 0 1 1.108.518l.18.677v.096h.096l.11-1.129-.006-.012c-.409-.76-1.216-.875-1.662-.875-.568 0-1.178.198-1.26.416l-.191 1.05.089.032.349-.574M34.662 35.497l.012-.008c.09-.045.462-.21 1.102-.154.579.052.913.377 1.066.527.021.02.033.033.044.04l.013.013.15.672.093-.005.143-1.026-.005-.014c-.308-.594-.939-.936-1.735-.936-.493 0-1.056.151-1.109.376l-.224 1.042.09.035.36-.562M6.256 37.932c.375 0 .627.083.718.115l.449.548.082-.043-.339-1.043c-.083-.18-.572-.29-.976-.29-.398 0-1.367.101-1.739 1.025l-.007.013.25 1.007.093-.007.058-.679.006-.01c.057-.085.365-.509.993-.603.137-.022.279-.033.412-.033M7.053 40.621c.294 0 .488.058.539.074l.486.511.079-.049-.405-1.019c-.084-.153-.477-.222-.805-.222-.719 0-1.586.306-1.868 1.16l-.005.015.313.981.093-.013.016-.68.008-.012c.045-.086.325-.532.95-.676.204-.047.406-.07.599-.07M5.13 32.717c.643-.033 1.066.144 1.171.194l.361.586.089-.031-.196-1.084c-.075-.196-.696-.39-1.253-.39-.444 0-1.252.113-1.661.867l-.006.012.109 1.045.094.006.177-.678a1.563 1.563 0 0 1 1.115-.527M6.534 35.489l.375.577.086-.034-.225-1.052c-.049-.225-.612-.374-1.108-.374-.79 0-1.423.34-1.731.929l-.006.013.141 1.035.093.009.151-.677.013-.013c.012-.007.023-.02.044-.04.157-.153.488-.475 1.068-.527.64-.054 1.012.109 1.099.154"/><path d="M40.946 23.775c-.572-5.578-2.109-10.225-4.449-13.44-2.345-3.223-5.435-4.931-8.943-4.941-.62-1.923-2.938-2.216-3.244-2.247-.099-.32-.975-2.838-3.668-2.874V.271h-.101v.002c-2.693.036-3.567 2.554-3.668 2.874-.307.031-2.625.324-3.247 2.247-3.506.01-6.597 1.718-8.938 4.941C2.346 13.55.808 18.197.235 23.775-.62 32.097.879 41.45 4.347 49.433c3.689 8.492 8.939 13.756 15.183 15.219.082.131.591.902 1.011.968l.049.005h.004l.048-.005c.419-.066.927-.837 1.011-.968 6.243-1.463 11.496-6.727 15.183-15.219 3.468-7.983 4.967-17.336 4.11-25.658zm-.595.08c.024.228.038.46.058.689a4.863 4.863 0 0 0-1.706.357c-.433-5.347-1.879-9.74-4.016-12.679a4.65 4.65 0 0 1 1.499-1.196c2.185 3.105 3.625 7.529 4.165 12.829zm-5.355 20.707c-.301-1.022-.972-1.408-1.171-1.501a2.531 2.531 0 0 0-1.087-.27c-.322 0-.6.081-.842.199.772-2.103 2.05-6.37 2.092-11.625l.008-.022c.24-.689.936-1.117 1.814-1.117.967 0 2.077.556 2.385 1.796l.001.004c-.358 4.799-1.412 9.659-3.081 14.02.052-.619-.009-1.108-.119-1.484zM20.588 59.619h-.047v.001c-.499.012-1.693.234-1.87 1.153l-.008.053-.016.102-.055-.017a14.032 14.032 0 0 1-2.749-1.379c.616-.477 2.148-1.791 2.766-3.51l.003-.008c.491.317.984.591 1.478.81l.509.222.509-.224a10.844 10.844 0 0 0 1.532-.847c.594 1.706 2.095 3.021 2.742 3.528a14.095 14.095 0 0 1-2.792 1.408l-.054.017-.017-.105-.005-.05c-.181-.919-1.373-1.141-1.88-1.153v-.001h-.046zM6.095 46.112c-1.678-4.362-2.743-9.224-3.106-14.031l.014-.059c.308-1.24 1.419-1.796 2.385-1.796.879 0 1.574.428 1.816 1.117l.003.014c.04 5.26 1.321 9.531 2.093 11.634a1.899 1.899 0 0 0-.846-.2 2.55 2.55 0 0 0-1.09.27c-.196.091-.856.474-1.155 1.475-.117.391-.18.91-.114 1.576zm8.03-34.26c-.045-.126-.196-.171-.335-.087-.398.237-.45 1.046-.272 1.691.127.463.352.739.597.739.172 0 .34-.084.492-.245.392-.412.657-1.313.615-2.093-.095-1.866-1.151-1.961-1.363-1.961-.712 0-1.473 1.14-1.473 2.835 0 1.645.631 2.947 1.469 3.027.334.034.695.052 1.041.052 1.335 0 3.15-.243 4.217-1.398.705-.763 1.001-1.848.873-3.218-.196-2.177-1.331-4.025-3.037-4.957.209-.176.446-.266.704-.266 1.201 0 2.614 1.903 2.732 2.496.024.118.084.201.156.231l.051.013.05-.013c.073-.03.131-.113.156-.231.119-.593 1.529-2.496 2.732-2.496.258 0 .494.09.703.266-1.705.932-2.841 2.78-3.038 4.957-.125 1.37.169 2.455.876 3.218 1.066 1.155 2.882 1.398 4.216 1.398.349 0 .7-.018 1.041-.052.837-.08 1.469-1.382 1.469-3.027 0-1.695-.762-2.835-1.475-2.835-.21 0-1.266.095-1.362 1.961-.041.78.225 1.681.616 2.093.153.161.319.245.491.245.247 0 .469-.276.597-.739.179-.645.125-1.454-.272-1.691-.138-.084-.289-.039-.335.087-.03.08-.014.204.113.311.116.097.167.604.057.912-.033.087-.087.189-.179.189-.127 0-.609-.216-.609-1.275 0-1.154.604-1.281.866-1.281.263 0 .992.48.992 2.023 0 .593-.123 1.226-.311 1.61-.358.729-.953.911-1.606.511-1.07-.779-1.429-2.563-1.159-3.834.122-.58.606-1.927 2.441-1.927h.05c2.418.031 4.613 1.267 6.406 3.594-.332.801-1.523 2.928-5.302 5.098a7.797 7.797 0 0 0-3.539-1.143 8.821 8.821 0 0 0-.492-.016c-1.161 0-2.146.266-2.938.478-.493.133-.919.247-1.221.256h-.036c-.32-.009-.745-.123-1.242-.256-.79-.212-1.774-.478-2.938-.478-.164 0-.33.007-.491.016a7.817 7.817 0 0 0-3.541 1.143c-3.823-2.18-4.995-4.296-5.317-5.093 1.794-2.33 3.99-3.568 6.411-3.599h.048c1.837 0 2.32 1.347 2.443 1.927.268 1.271-.092 3.055-1.156 3.833-.664.407-1.254.219-1.609-.51-.191-.384-.312-1.017-.312-1.61 0-1.543.728-2.023.994-2.023.259 0 .863.127.863 1.281 0 1.059-.478 1.275-.608 1.275-.09 0-.148-.102-.178-.189-.113-.308-.061-.815.056-.912.128-.107.143-.231.112-.311zm-.286 14.924s2.689 11.523 3.319 14.217l2.894-18.656.011-.072h.663l.014.068 3.948 18.892 3.336-14.464c.061-.375.006-.663-.161-.832-.176-.181-.459-.209-.613-.209-.076 0-.127.007-.135.008l-.28.043v-1.393h4.186v1.418l-.271-.021c-.008-.002-.025-.002-.054-.002-.187 0-.634.054-.758.565l-5.441 24.598h-.734l-.013-.07c-.032-.161-2.87-14.767-3.401-17.49-.418 2.733-2.648 17.326-2.674 17.487l-.009.073h-.823l-.015-.065c-.233-1.003-5.715-24.511-5.715-24.518-.086-.479-.607-.605-.711-.626l-.205-.033v-1.316h4.682v1.346l-.279-.038c-.027-.001-.335-.027-.542.167-.153.148-.231.39-.231.715 0 .064.005.133.012.208zm15.248-8.797c3.58-2.054 4.83-4.028 5.249-4.998.189.259.375.527.554.812 1.882 2.982 3.034 7.038 3.347 11.733-.759.399-2.41 1.121-4.585 1.276-.475-2.884-1.656-6.787-4.565-8.823zm-16.987.006c-2.903 2.037-4.082 5.94-4.556 8.821-2.178-.154-3.835-.877-4.598-1.279.314-4.696 1.466-8.752 3.346-11.734.179-.284.364-.55.552-.81.421.971 1.671 2.947 5.256 5.002zm-4.603 9.124a25.429 25.429 0 0 0-.284 3.326c-.428-.482-1.077-.753-1.824-.753-.871 0-1.878.4-2.475 1.257-.09-1.714-.09-3.415.007-5.077.824.423 2.455 1.097 4.576 1.247zm-.741 17.519c.176-.527.512-.909.996-1.137.227-.108.457-.163.684-.163.732 0 1.224.549 1.34.94a1.13 1.13 0 0 1-.526 1.3 1.16 1.16 0 0 1-.554.169.688.688 0 0 1-.658-.471c-.061-.249.023-.504.207-.621a.269.269 0 0 1 .39.096c.062.11.226.114.307.013a.242.242 0 0 0 .043-.215c-.07-.323-.523-.489-.807-.413-.489.13-.837.722-.727 1.243.05.24.37.928 1.161.928.166 0 .343-.032.531-.093.661-.217.975-.598 1.116-.978.469.978.953 1.906 1.453 2.781-1.271 1.223-3.239 1.712-3.958 1.856-.07-.136-.136-.278-.204-.417-.65-1.574-1.226-3.523-.794-4.818zm5.115 3.651c1.988 3.416 4.2 5.998 6.477 7.555l-.007.02c-.592 1.719-2.222 3.079-2.766 3.496-2.922-1.955-5.549-5.101-7.673-9.205.797-.164 2.684-.665 3.969-1.866zm11.036 7.515c2.252-1.557 4.44-4.118 6.408-7.495 1.301 1.204 3.182 1.691 3.964 1.85-2.114 4.083-4.725 7.216-7.63 9.173-.59-.457-2.18-1.819-2.742-3.528zm6.567-7.769c.503-.879.991-1.811 1.461-2.794.143.379.457.757 1.116.973.186.061.365.093.531.093.785 0 1.109-.688 1.158-.928.11-.521-.237-1.113-.726-1.243-.284-.076-.738.09-.807.413a.248.248 0 0 0 .044.215c.08.101.244.097.306-.013a.27.27 0 0 1 .39-.096c.18.117.267.372.205.621a.685.685 0 0 1-.656.471c-.17 0-.355-.058-.552-.169a1.134 1.134 0 0 1-.528-1.3c.117-.391.609-.94 1.34-.94.227 0 .458.055.685.163.481.228.816.61.99 1.137.423 1.266-.117 3.16-.749 4.716-.084.174-.167.351-.254.521-.705-.139-2.674-.623-3.954-1.84zm6.336-18.343c-.748 0-1.395.271-1.827.761a25.007 25.007 0 0 0-.284-3.34c2.122-.152 3.744-.823 4.564-1.243a46.6 46.6 0 0 1 .005 5.057c-.599-.843-1.597-1.235-2.458-1.235zM27.636 6.011c.292 0 .596.016.902.048 2.881.303 5.396 1.887 7.465 4.707-.568.29-1.09.702-1.509 1.192-1.842-2.411-4.174-3.772-6.801-3.775-1.582 0-2.726 1.021-3.064 2.73-.249 1.274.102 2.796.876 3.79.015.021.057.093.035.137-.02.042-.096.064-.213.064-.308 0-1.892-.053-2.844-1.09-.582-.635-.824-1.495-.722-2.557.235-2.422 1.913-5.246 5.875-5.246zM20.592.773c2.217.006 2.878 2.003 2.978 2.357a2.744 2.744 0 0 0-.246.029c-.125.021-.273.056-.336.07-.103-.142-.602-.772-1.439-.772-.306 0-.625.088-.945.26l-.012.007-.012-.007c-.32-.172-.64-.26-.948-.26-.832 0-1.334.63-1.436.772-.065-.014-.212-.049-.338-.07a2.69 2.69 0 0 0-.245-.029c.099-.356.762-2.351 2.979-2.357zm1.928 2.622a3.32 3.32 0 0 0-1.825 1.591c-.048.086-.084.118-.103.125-.02-.007-.058-.039-.104-.125a3.334 3.334 0 0 0-1.825-1.591c.243-.186.511-.281.793-.281.561 0 .984.37 1.033.523a.188.188 0 0 0 .052.092l.051.022.05-.022c.03-.023.041-.058.053-.092.047-.153.47-.523 1.032-.523.279 0 .549.095.793.281zm-5.104.21c1.395 0 2.502.794 3.032 2.175.028.087.055.154.093.183l.047.019h.006l.048-.018c.039-.03.064-.096.09-.181.535-1.384 1.639-2.178 3.035-2.178 1.386 0 2.674.787 3.025 1.838-.145.02-.537.078-.821.133-.305.057-.671.18-.782.222-.249-.313-.811-.639-1.485-.639-.784 0-1.949.428-3.051 2.464a.083.083 0 0 1-.053.046l-.008.003-.009-.003a.097.097 0 0 1-.057-.048c-1.098-2.034-2.263-2.462-3.049-2.462-.673 0-1.234.326-1.484.639a5.586 5.586 0 0 0-.782-.222 18.643 18.643 0 0 0-.821-.133c.352-1.051 1.639-1.838 3.026-1.838zm-4.77 2.454c.304-.032.608-.048.9-.048 3.962 0 5.64 2.824 5.873 5.246.104 1.062-.139 1.922-.719 2.557-.952 1.037-2.534 1.09-2.842 1.09-.119 0-.195-.022-.217-.064-.02-.044.02-.116.036-.137.773-.994 1.125-2.516.874-3.79-.336-1.709-1.48-2.73-3.063-2.73-2.629.003-4.96 1.365-6.803 3.778a4.91 4.91 0 0 0-1.505-1.198c2.073-2.819 4.583-4.402 7.466-4.704zM.833 23.855c.538-5.3 1.979-9.724 4.162-12.829.57.283 1.088.698 1.499 1.198-2.137 2.94-3.58 7.332-4.013 12.678a5.059 5.059 0 0 0-1.706-.357c.019-.23.034-.461.058-.69zM4.8 48.974C1.575 41.566.118 32.839.748 24.86a4.754 4.754 0 0 1 1.709.369c-.013.177-.027.353-.038.531-.431 7.241.94 15.211 3.762 21.859.303.714.623 1.398.953 2.066a5.006 5.006 0 0 0-1.692.694 43.425 43.425 0 0 1-.642-1.405zm.782 1.691a4.682 4.682 0 0 1 1.694-.689c2.101 4.171 4.714 7.417 7.637 9.509a4.987 4.987 0 0 0-1.236 1.608c-3.122-2.313-5.859-5.826-8.095-10.428zm8.354 10.623a4.634 4.634 0 0 1 1.244-1.62c1.1.756 2.241 1.355 3.416 1.775 0 .137.011.654.115 1.182.093.474.289.961.378 1.159-1.81-.499-3.532-1.338-5.153-2.496zm6.933 3.506c-.043.049-.155.17-.277.177-.123-.007-.233-.128-.279-.177-.574-.718-1.485-2.181-1.147-3.923.097-.502.908-.74 1.426-.742.516.002 1.327.24 1.423.742.339 1.742-.574 3.205-1.146 3.923zm1.226-1.01c.087-.198.286-.685.377-1.159a7.001 7.001 0 0 0 .114-1.182c1.184-.423 2.334-1.029 3.443-1.793.527.428.965.998 1.253 1.614-1.631 1.172-3.365 2.017-5.187 2.52zm5.443-2.716a4.955 4.955 0 0 0-1.245-1.602c2.907-2.087 5.505-5.315 7.599-9.46a4.629 4.629 0 0 1 1.672.733c-2.223 4.548-4.935 8.028-8.026 10.329zm8.845-12.094c-.22.504-.445.998-.676 1.48a4.918 4.918 0 0 0-1.674-.737c.336-.677.661-1.373.968-2.098 2.824-6.648 4.195-14.618 3.763-21.859-.01-.179-.025-.354-.038-.531a4.595 4.595 0 0 1 1.71-.369c.628 7.979-.827 16.706-4.053 24.114z"/><text font-family="Friz Quadrata TT" font-size="9" letter-spacing=".2" transform="translate(-2)"><tspan x="51.548" y="55.4">UNIVERSITY OF WISCONSIN-MADISON</tspan></text><path d="M78.801 20.179l-6.75 21.947a33.982 33.982 0 0 0-1.151-.787c-.99-.666-1.635-1.195-1.938-1.589-.302-.394-.645-1.196-1.029-2.407l-3.602-11.352-4.965 16.135a39.705 39.705 0 0 0-1.483-1.029c-.848-.565-1.413-1.05-1.696-1.453-.282-.404-.605-1.17-.968-2.3L51.192 24.81c-.484-1.513-.883-2.548-1.195-3.103-.313-.555-.762-1.064-1.348-1.528h4.662c-.04.242-.06.373-.06.393 0 .323.11.828.333 1.514l4.965 15.439 3.965-12.715c.364-1.17.545-2.068.545-2.694 0-.726-.424-1.372-1.271-1.937h4.42c-.061.262-.091.464-.091.605 0 .525.151 1.261.454 2.21l4.632 14.44 3.874-12.29c.424-1.353.636-2.281.636-2.786 0-1.05-.575-1.776-1.725-2.18H78.8zm7.992 21.04h-6.055c.687-.364 1.12-.96 1.302-1.787.08-.363.121-1.13.121-2.3V24.264c0-1.17-.04-1.937-.12-2.3-.182-.828-.616-1.423-1.303-1.786h6.055c-.686.363-1.12.958-1.302 1.786-.08.363-.12 1.13-.12 2.3v12.866c0 1.17.04 1.938.12 2.301.182.828.616 1.423 1.302 1.786zm17.952-6.146c0 1.614-.656 3.057-1.968 4.329-1.635 1.574-3.865 2.361-6.69 2.361-1.918 0-3.794-.333-5.631-.999l-.969-3.966c2.16 1.696 4.5 2.543 7.024 2.543 1.352 0 2.487-.313 3.405-.938.919-.626 1.378-1.403 1.378-2.331 0-.888-.354-1.645-1.06-2.27-.605-.525-1.973-1.272-4.102-2.24-2.129-.97-3.597-1.817-4.405-2.544-1.11-1.009-1.665-2.24-1.665-3.693 0-1.715.722-3.088 2.165-4.117 1.443-1.03 3.375-1.544 5.797-1.544 1.595 0 3.22.232 4.874.696v3.633c-1.433-1.393-3.118-2.089-5.055-2.089-1.252 0-2.266.278-3.043.833-.777.555-1.165 1.276-1.165 2.164 0 .787.307 1.448.923 1.983.616.535 1.882 1.246 3.8 2.134 2.28 1.05 3.834 1.907 4.661 2.573 1.15.909 1.726 2.07 1.726 3.482zm21.07 1.998l-1.605 3.723c-1.554.626-3.209.939-4.965.939-3.653 0-6.584-1.004-8.794-3.012-2.21-2.008-3.315-4.667-3.315-7.977 0-3.189 1.07-5.833 3.21-7.932 2.138-2.099 4.843-3.148 8.112-3.148 1.595 0 3.512.272 5.752.817v3.663c-2.038-1.17-3.976-1.755-5.812-1.755-2.24 0-4.072.731-5.495 2.194-1.423 1.464-2.134 3.335-2.134 5.616 0 2.502.777 4.622 2.331 6.357 1.554 1.736 3.461 2.604 5.722 2.604 2.038 0 4.369-.697 6.993-2.09zm24.55-6.509c0 3.128-1.145 5.772-3.435 7.932s-5.08 3.239-8.37 3.239c-3.25 0-6.005-1.06-8.265-3.179-2.26-2.119-3.39-4.702-3.39-7.75 0-3.168 1.155-5.822 3.466-7.961 2.31-2.14 5.181-3.21 8.612-3.21 3.27 0 5.984 1.05 8.144 3.15 1.009.968 1.8 2.148 2.376 3.541.575 1.393.863 2.805.863 4.238zm-3.632.515c0-2.483-.727-4.602-2.18-6.357-1.533-1.857-3.541-2.786-6.024-2.786-2.341 0-4.263.772-5.767 2.316-1.503 1.544-2.255 3.557-2.255 6.04 0 2.623.858 4.884 2.573 6.78 1.433 1.595 3.3 2.392 5.6 2.392 2.382 0 4.32-.777 5.813-2.33 1.493-1.555 2.24-3.573 2.24-6.055zm27.518-10.898c-.686.444-1.14.913-1.362 1.407-.222.495-.333 1.277-.333 2.346v18.315c-1.554-.504-3.018-1.624-4.39-3.36l-11.2-14.198v12.775c0 1.05.115 1.832.347 2.346.232.515.671.984 1.317 1.408h-5.691c.686-.444 1.14-.913 1.362-1.408.222-.494.333-1.276.333-2.346V23.932c0-1.049-.116-1.831-.348-2.346-.232-.514-.671-.984-1.317-1.407h4.662c.04.12.293.514.757 1.18l11.837 15.076V23.932c0-1.049-.116-1.826-.348-2.33-.233-.505-.682-.98-1.348-1.423h5.722zm17.588 14.894c0 1.614-.656 3.057-1.967 4.329-1.635 1.574-3.865 2.361-6.69 2.361-1.918 0-3.795-.333-5.631-.999l-.97-3.966c2.16 1.696 4.501 2.543 7.024 2.543 1.352 0 2.488-.313 3.406-.938.918-.626 1.377-1.403 1.377-2.331 0-.888-.353-1.645-1.06-2.27-.605-.525-1.972-1.272-4.101-2.24-2.13-.97-3.598-1.817-4.405-2.544-1.11-1.009-1.665-2.24-1.665-3.693 0-1.715.722-3.088 2.165-4.117 1.443-1.03 3.375-1.544 5.797-1.544 1.594 0 3.219.232 4.874.696v3.633c-1.433-1.393-3.118-2.089-5.056-2.089-1.251 0-2.265.278-3.042.833-.777.555-1.166 1.276-1.166 2.164 0 .787.308 1.448.924 1.983.615.535 1.882 1.246 3.799 2.134 2.28 1.05 3.834 1.907 4.662 2.573 1.15.909 1.725 2.07 1.725 3.482zm8.81 6.145h-6.055c.686-.363 1.12-.958 1.302-1.786.08-.363.121-1.13.121-2.3V24.264c0-1.17-.04-1.937-.121-2.3-.182-.828-.616-1.423-1.302-1.786h6.055c-.686.363-1.12.958-1.302 1.786-.08.363-.121 1.13-.121 2.3v12.866c0 1.17.04 1.938.121 2.301.182.828.616 1.423 1.302 1.786zm24.218-21.04c-.686.445-1.14.914-1.362 1.408-.222.495-.333 1.277-.333 2.346v18.315c-1.554-.504-3.018-1.624-4.39-3.36l-11.2-14.198v12.775c0 1.05.115 1.832.347 2.346.232.515.671.984 1.317 1.408h-5.691c.686-.444 1.14-.913 1.362-1.408.222-.494.333-1.276.333-2.346V23.932c0-1.049-.116-1.831-.348-2.346-.232-.514-.671-.984-1.317-1.407h4.662c.04.12.293.514.757 1.18l11.837 15.076V23.932c0-1.049-.116-1.826-.348-2.33-.233-.505-.682-.98-1.348-1.423h5.722z"/></g></svg>