<?xml version="1.0" encoding="UTF-8" standalone="no"?>
<svg width="227px" height="68px" viewBox="0 0 227 68" version="1.1" xmlns="http://www.w3.org/2000/svg" xmlns:xlink="http://www.w3.org/1999/xlink" xmlns:sketch="http://www.bohemiancoding.com/sketch/ns">
    <!-- Generator: Sketch 3.3 (11970) - http://www.bohemiancoding.com/sketch -->
    <title>uw logo text + Wisconsin + UNIVERSITY OF WISCON</title>
    <desc>Created with Sketch.</desc>
    <defs>
        <linearGradient x1="49.6491768%" y1="100.100851%" x2="49.6491768%" y2="0.00463667711%" id="linearGradient-1">
            <stop stop-color="#781B21" offset="0%"></stop>
            <stop stop-color="#8A1E24" offset="4.82%"></stop>
            <stop stop-color="#9D2228" offset="12.09%"></stop>
            <stop stop-color="#AB252A" offset="20.52%"></stop>
            <stop stop-color="#B3272C" offset="31.05%"></stop>
            <stop stop-color="#B5272C" offset="50.21%"></stop>
            <stop stop-color="#B2262C" offset="67.37%"></stop>
            <stop stop-color="#AA252A" offset="78.31%"></stop>
            <stop stop-color="#9B2227" offset="87.5%"></stop>
            <stop stop-color="#861E24" offset="95.69%"></stop>
            <stop stop-color="#781B21" offset="100%"></stop>
        </linearGradient>
        <linearGradient x1="49.7749133%" y1="100.100851%" x2="49.7749133%" y2="0.00463667711%" id="linearGradient-2">
            <stop stop-color="#781B21" offset="0%"></stop>
            <stop stop-color="#8A1E24" offset="4.82%"></stop>
            <stop stop-color="#9D2228" offset="12.09%"></stop>
            <stop stop-color="#AB252A" offset="20.52%"></stop>
            <stop stop-color="#B3272C" offset="31.05%"></stop>
            <stop stop-color="#B5272C" offset="50.21%"></stop>
            <stop stop-color="#B2262C" offset="67.37%"></stop>
            <stop stop-color="#AA252A" offset="78.31%"></stop>
            <stop stop-color="#9B2227" offset="87.5%"></stop>
            <stop stop-color="#861E24" offset="95.69%"></stop>
            <stop stop-color="#781B21" offset="100%"></stop>
        </linearGradient>
    </defs>
    <g id="Page-1" stroke="none" stroke-width="1" fill="none" fill-rule="evenodd" sketch:type="MSPage">
        <g id="Desktop-HD-Alt" sketch:type="MSArtboardGroup" transform="translate(-180.000000, -7.000000)">
            <g id="uw-logo-text-+-Wisconsin-+-UNIVERSITY-OF-WISCON" sketch:type="MSLayerGroup" transform="translate(179.000000, 7.000000)">
                <g id="uw-logo-text" transform="translate(0.736911, 0.000000)" sketch:type="MSShapeGroup">
                    <path d="M44.5067088,24.502021 C44.1562623,21.0141888 43.280146,17.8751399 42.2288064,15.2592657 C42.2288064,15.1720699 42.0535832,14.9104825 42.0535832,14.8232867 C41.0898552,12.8177832 39.950904,10.9866713 38.6367295,9.67873427 C36.1836038,7.15005594 33.2048084,5.75492308 29.8755664,5.66772727 L29.7879547,5.66772727 C29.2622849,4.53418182 27.7728872,3.74941958 26.5463244,3.57502797 C26.5463244,3.57502797 25.7578197,0.610370629 22.6038009,0.610370629 C19.4497822,0.610370629 18.6612775,3.57502797 18.6612775,3.57502797 C17.3471031,3.74941958 15.9453169,4.53418182 15.4196472,5.66772727 L15.3320355,5.66772727 C12.0027935,5.66772727 9.02399805,7.06286014 6.57087237,9.67873427 C5.25669789,11.0738671 4.11774668,12.8177832 3.15401874,14.8232867 C3.15401874,14.8232867 2.97879547,15.1720699 2.97879547,15.2592657 C1.83984426,17.8751399 0.963727947,21.0141888 0.700893053,24.502021 C-1.13895121,41.7667902 7.00893053,62.9553706 21.7276846,66.1816154 C21.9029079,66.5303986 22.5161893,67.1407692 22.7790242,67.1407692 C23.0418591,67.1407692 23.5675289,66.5303986 23.8303638,66.1816154 C38.1986714,62.8681748 46.3465531,41.7667902 44.5067088,24.502021 L44.5067088,24.502021 L44.5067088,24.502021 Z" id="Gold" fill-opacity="0.476505888" fill="#ECE7BF"></path>
                    <path d="M36.1836038,30.6057273 C36.0959922,28.6002238 35.4827108,21.6245594 31.0145176,18.9214895 C30.0507896,18.3111189 28.8242268,17.8751399 27.5100523,17.8751399 C25.3197615,17.7879441 23.6551405,18.5727063 22.6038009,18.5727063 L22.6038009,18.5727063 C21.4648497,18.5727063 19.8878404,17.7007483 17.6975496,17.8751399 C16.3833751,17.9623357 15.1568123,18.3983147 14.1930843,18.9214895 C9.72489111,21.6245594 9.11160968,28.513028 9.02399805,30.6057273 C8.76116316,37.842979 11.1266772,43.5107063 11.8275703,45.0802308 C14.8939774,51.5327203 18.6612775,55.9797063 22.3409661,57.5492308 L22.6038009,57.6364266 L22.8666358,57.5492308 C26.5463244,55.9797063 30.3136245,51.5327203 33.3800316,45.0802308 C34.0809247,43.5107063 36.4464387,37.842979 36.1836038,30.6057273 L36.1836038,30.6057273 Z" id="Red" fill="url(#linearGradient-1)"></path>
                    <path d="M29.1746733,25.4611748 L29.1746733,26.8563077 L29.4375082,26.8563077 L29.5251198,26.8563077 C29.7003431,26.8563077 29.963178,26.8563077 30.1384013,27.0306993 C30.3136245,27.2050909 30.3136245,27.4666783 30.3136245,27.9026573 C30.3136245,27.9026573 27.3348291,40.2844615 26.7215476,42.5515524 C26.1082662,39.5868951 22.5161893,23.3684755 22.5161893,23.3684755 L22.5161893,23.2812797 L21.9029079,23.2812797 L21.9029079,23.3684755 C21.9029079,23.3684755 19.3621706,39.1509161 18.8365008,42.289965 C18.1356077,39.5868951 15.2444239,27.8154615 15.2444239,27.8154615 L15.2444239,27.6410699 C15.2444239,27.2922867 15.3320355,27.0306993 15.5072588,26.9435035 C15.6824821,26.7691119 16.0329286,26.7691119 16.0329286,26.7691119 L16.2957635,26.7691119 L16.2957635,25.373979 L11.3895121,25.373979 L11.3895121,26.6819161 L11.5647354,26.6819161 C11.652347,26.6819161 12.2656284,26.8563077 12.3532401,27.2922867 C12.3532401,27.2922867 18.2232194,51.1839371 18.4860543,52.1430909 L18.4860543,52.2302867 L19.3621706,52.2302867 L19.3621706,52.1430909 C19.4497822,51.9686993 21.7276846,37.1454126 22.2533544,34.3551469 C22.7790242,37.1454126 25.8454313,51.9686993 25.9330429,52.1430909 L25.9330429,52.2302867 L26.7215476,52.2302867 L32.5039153,27.2922867 C32.5915269,26.7691119 33.1171967,26.6819161 33.29242,26.6819161 L33.29242,26.6819161 L33.5552549,26.6819161 L33.5552549,25.2867832 L29.1746733,25.4611748 L29.1746733,25.4611748 Z" id="W" fill="#FFFFFF"></path>
                    <path d="M44.3314856,24.502021 C43.9810391,21.0141888 43.1049227,17.8751399 42.0535832,15.2592657 C42.0535832,15.1720699 41.8783599,14.9104825 41.8783599,14.8232867 C40.9146319,12.8177832 39.7756807,10.9866713 38.4615063,9.67873427 C36.0083806,7.15005594 33.0295851,5.75492308 29.7003431,5.66772727 L29.6127315,5.66772727 C29.0870617,4.53418182 27.5976639,3.74941958 26.3711011,3.57502797 C26.3711011,3.57502797 25.5825964,0.610370629 22.4285777,0.610370629 C19.2745589,0.610370629 18.4860543,3.57502797 18.4860543,3.57502797 C17.1718798,3.74941958 15.7700937,4.53418182 15.2444239,5.66772727 L15.1568123,5.66772727 C11.8275703,5.66772727 8.84877479,7.06286014 6.39564911,9.67873427 C5.08147463,11.0738671 3.94252342,12.8177832 2.97879547,14.8232867 C2.97879547,14.8232867 2.80357221,15.1720699 2.80357221,15.2592657 C1.664621,17.8751399 0.788504684,21.0141888 0.525669789,24.502021 C-1.31417447,41.7667902 6.83370726,62.9553706 21.5524614,66.1816154 C21.7276846,66.5303986 22.3409661,67.1407692 22.6038009,67.1407692 C22.8666358,67.1407692 23.3923056,66.5303986 23.6551405,66.1816154 C38.0234481,62.8681748 46.2589415,41.7667902 44.3314856,24.502021 L44.3314856,24.502021 L44.3314856,24.502021 Z M43.7182042,24.5892168 L43.7182042,25.1995874 C43.0173111,25.1995874 42.3164181,25.2867832 41.7031366,25.5483706 C41.2650785,20.2294266 39.6880691,15.7824406 37.4101667,12.7305874 C37.8482248,12.2074126 38.4615063,11.7714336 39.1623993,11.5098462 C41.5279134,14.6488951 43.1925344,19.0958811 43.7182042,24.5892168 L43.7182042,24.5892168 Z M15.0692006,12.1202168 C14.5435308,12.2074126 14.5435308,13.0793706 14.6311425,13.6897413 C14.7187541,14.3001119 15.0692006,14.9104825 15.4196472,14.9104825 C16.1205402,14.8232867 16.7338216,13.340958 16.64621,12.2946084 C16.5585984,10.7250839 15.6824821,10.3763007 15.1568123,10.3763007 C14.2806959,10.3763007 13.5798029,11.6842378 13.5798029,13.4281538 C13.5798029,15.1720699 14.1930843,16.480007 15.1568123,16.480007 C15.5072588,16.480007 22.2533544,17.351965 21.640073,11.7714336 C21.3772381,9.15555944 19.7126171,7.23725175 18.1356077,6.36529371 C19.6250055,5.49333566 21.5524614,6.97566434 22.0781312,8.80677622 C22.1657428,9.15555944 22.4285777,9.15555944 22.5161893,8.80677622 C23.1294707,6.88846853 24.7940917,5.58053147 26.2834895,6.36529371 C24.7064801,7.23725175 23.2170824,9.15555944 22.9542475,11.7714336 C22.5161893,17.4391608 29.2622849,16.5672028 29.5251198,16.480007 C30.4012362,16.480007 31.1021292,15.1720699 31.1021292,13.4281538 C31.1021292,11.6842378 30.4012362,10.3763007 29.5251198,10.3763007 C28.9994501,10.3763007 28.1233337,10.8122797 28.0357221,12.2946084 C28.0357221,13.4281538 28.5613919,14.8232867 29.2622849,14.9104825 C29.6127315,14.9104825 29.963178,14.3001119 30.0507896,13.6897413 C30.1384013,13.0793706 30.0507896,12.2946084 29.6127315,12.1202168 C29.4375082,12.1202168 29.2622849,12.1202168 29.2622849,12.2946084 C29.2622849,12.3818042 29.6127315,12.6433916 29.5251198,13.340958 C29.5251198,14.3001119 28.4737803,13.8641329 28.6490035,12.2946084 C28.7366152,10.9866713 29.5251198,11.0738671 29.5251198,11.0738671 C29.8755664,11.0738671 30.5764594,11.8586294 30.5764594,13.340958 C30.5764594,14.6488951 29.8755664,16.1312238 28.5613919,15.3464615 C27.5100523,14.5616993 27.0719942,12.8177832 27.3348291,11.5098462 C27.4224407,10.8994755 28.0357221,9.24275524 29.8755664,9.24275524 C32.4163037,9.24275524 34.8694294,10.4634965 36.7968853,12.904979 L36.7968853,12.904979 C36.621662,13.5153497 35.5703224,15.8696364 31.1897408,18.2239231 C29.7003431,17.351965 28.0357221,17.0031818 26.5463244,17.0031818 C24.1808103,17.0031818 23.3923056,17.7007483 22.3409661,17.7007483 L22.3409661,17.7007483 C21.2896265,17.7007483 20.5011218,17.0031818 18.1356077,17.0031818 C16.5585984,17.0031818 14.8939774,17.351965 13.4921913,18.2239231 C9.19922132,15.8696364 8.14788174,13.6025455 7.88504684,12.904979 C9.81250274,10.4634965 12.2656284,9.15555944 14.8939774,9.15555944 C16.7338216,9.15555944 17.2594914,10.8122797 17.3471031,11.4226503 C17.6099379,12.7305874 17.2594914,14.5616993 16.1205402,15.2592657 C14.8063657,15.9568322 14.1054727,14.5616993 14.1054727,13.2537622 C14.1054727,11.7714336 14.7187541,10.9866713 15.1568123,10.9866713 C15.1568123,10.9866713 15.9453169,10.8994755 16.0329286,12.2946084 C16.1205402,13.7769371 15.1568123,14.3001119 15.1568123,13.340958 C15.1568123,12.7305874 15.5072588,12.469 15.4196472,12.2946084 C15.4196472,12.2074126 15.2444239,12.033021 15.0692006,12.1202168 L15.0692006,12.1202168 L15.0692006,12.1202168 Z M37.1473318,13.340958 C39.3376226,16.3056154 40.9146319,20.6654056 41.1774668,26.2459371 C40.3889622,26.6819161 38.7243412,27.3794825 36.5340504,27.5538741 C36.0083806,24.6764126 34.7818177,20.7526014 31.7154106,18.5727063 C35.5703224,16.3928112 36.7968853,14.3001119 37.1473318,13.340958 L37.1473318,13.340958 Z M13.0541331,18.4855105 C9.987726,20.6654056 8.76116316,24.5892168 8.23549337,27.4666783 C6.04520258,27.2922867 4.38058158,26.5947203 3.59207689,26.1587413 C3.94252342,20.5782098 5.43192116,16.2184196 7.62221195,13.340958 C7.97265847,14.3001119 9.19922132,16.3928112 13.0541331,18.4855105 L13.0541331,18.4855105 L13.0541331,18.4855105 Z M8.14788174,27.9026573 C7.97265847,28.949007 7.97265847,29.820965 7.88504684,30.4313357 L7.88504684,33.1344056 L7.88504684,33.6575804 L7.88504684,33.7447762 C7.97265847,35.4886923 8.23549337,37.2326084 8.67355153,38.9765245 L8.67355153,39.1509161 C9.37444458,42.2027692 10.3381725,44.4698601 10.7762307,45.2546224 C11.4771237,46.6497552 12.1780168,47.9576923 12.8789098,49.0912378 C11.4771237,50.311979 9.46205621,50.747958 8.76116316,50.9223497 C4.993863,43.9466853 3.15401874,34.8783217 3.59207689,26.6819161 C4.38058158,27.1178951 5.95759095,27.7282657 8.14788174,27.9026573 L8.14788174,27.9026573 L8.14788174,27.9026573 Z M13.0541331,49.5272168 C15.5072588,53.5382238 17.9603845,55.9797063 19.8002287,57.2004476 C19.0993357,58.8571678 17.5223263,60.0779091 16.9966565,60.5138881 C13.7550262,58.5083846 11.0390656,55.1949441 8.93638642,51.2711329 C9.72489111,51.1839371 11.652347,50.6607622 13.0541331,49.5272168 L13.0541331,49.5272168 Z M20.2382869,57.462035 C21.2896265,58.1596014 22.3409661,58.5955804 22.4285777,58.5955804 C22.5161893,58.5955804 23.5675289,58.1596014 24.5312568,57.462035 L24.5312568,57.462035 C25.2321499,59.0315594 26.633936,60.2523007 27.3348291,60.7754755 C26.3711011,61.3858462 25.4073732,61.8218252 24.4436452,62.1706084 L24.4436452,62.0834126 C24.2684219,61.0370629 22.7790242,60.8626713 22.3409661,60.8626713 C21.8152963,60.8626713 20.4135102,61.0370629 20.2382869,62.0834126 L20.2382869,62.1706084 C19.2745589,61.8218252 18.310831,61.3858462 17.3471031,60.8626713 C18.0479961,60.2523007 19.4497822,59.0315594 20.2382869,57.462035 L20.2382869,57.462035 L20.2382869,57.462035 Z M24.969315,57.2004476 C26.8091593,55.8925105 29.2622849,53.451028 31.7154106,49.5272168 C33.0295851,50.6607622 34.8694294,51.1839371 35.8331573,51.3583287 C33.7304782,55.2821399 31.0145176,58.5083846 27.8604988,60.6010839 C27.1596058,60.0779091 25.5825964,58.8571678 24.969315,57.2004476 L24.969315,57.2004476 Z M31.8906339,49.0912378 C32.5915269,47.9576923 33.29242,46.6497552 33.9057014,45.3418182 C34.2561479,44.5570559 35.3074875,42.289965 36.0083806,39.2381119 L36.0083806,39.0637203 C36.3588271,37.3198042 36.621662,35.5758881 36.7968853,33.831972 L36.7968853,33.7447762 L36.7968853,33.2216014 L36.7968853,30.5185315 C36.7968853,29.9081608 36.7092736,29.0362028 36.5340504,27.9898531 C38.6367295,27.8154615 40.3013505,27.2050909 41.0898552,26.7691119 C41.3526901,34.9655175 39.5128458,43.9466853 35.8331573,51.0095455 C35.1322643,50.747958 33.2048084,50.2247832 31.8906339,49.0912378 L31.8906339,49.0912378 Z M29.4375082,6.36529371 C33.2048084,6.36529371 36.4464387,8.10920979 38.8995644,11.1610629 C38.286283,11.4226503 37.6730016,11.8586294 37.1473318,12.3818042 C35.1322643,9.94032168 32.6791386,8.54518881 29.8755664,8.54518881 C28.1233337,8.54518881 26.9843825,9.76593007 26.633936,11.3354545 C26.3711011,12.6433916 26.633936,14.2129161 27.5100523,15.1720699 C27.9481105,15.608049 27.6852756,15.7824406 27.5976639,15.7824406 C26.4587127,15.7824406 23.304694,15.1720699 23.5675289,11.6842378 C23.7427522,9.41714685 24.969315,7.93481818 26.1958778,7.06286014 C27.5100523,6.45248951 28.9118384,6.36529371 29.4375082,6.36529371 L29.4375082,6.36529371 L29.4375082,6.36529371 Z M22.3409661,1.22074126 C24.8817034,1.22074126 25.4949848,3.57502797 25.4949848,3.66222378 C25.3197615,3.66222378 25.1445383,3.66222378 24.969315,3.74941958 L24.5312568,3.83661538 C23.6551405,4.0982028 22.8666358,4.70857343 22.4285777,5.49333566 C22.4285777,5.49333566 22.4285777,5.58053147 22.3409661,5.58053147 L22.2533544,5.49333566 C21.8152963,4.70857343 21.0267916,4.1853986 20.1506753,3.83661538 L19.7126171,3.74941958 C19.5373938,3.74941958 19.3621706,3.74941958 19.1869473,3.66222378 C19.1869473,3.57502797 19.8002287,1.22074126 22.3409661,1.22074126 L22.3409661,1.22074126 Z M18.9241124,4.01100699 C20.4135102,4.01100699 21.640073,4.88296503 22.0781312,6.1909021 C22.1657428,6.53968531 22.3409661,6.53968531 22.5161893,6.1909021 C22.9542475,4.88296503 24.2684219,4.01100699 25.6702081,4.01100699 C26.8967709,4.01100699 28.0357221,4.70857343 28.6490035,5.75492308 C28.2109454,5.84211888 27.7728872,5.92931469 27.2472174,6.10370629 C26.3711011,5.40613986 25.5825964,5.40613986 25.0569266,5.58053147 C23.8303638,5.92931469 22.8666358,7.06286014 22.3409661,8.10920979 L22.3409661,8.10920979 C21.8152963,7.15005594 20.8515683,6.01651049 19.6250055,5.58053147 C19.0993357,5.40613986 18.2232194,5.40613986 17.4347147,6.10370629 C16.9966565,5.92931469 16.4709867,5.84211888 16.0329286,5.75492308 C16.5585984,4.70857343 17.6975496,4.01100699 18.9241124,4.01100699 L18.9241124,4.01100699 L18.9241124,4.01100699 Z M15.2444239,6.36529371 C15.7700937,6.36529371 17.1718798,6.45248951 18.3984426,7.15005594 C19.7126171,8.02201399 20.8515683,9.50434266 21.0267916,11.7714336 C21.2896265,15.1720699 17.6099379,15.7824406 16.9090449,15.7824406 C16.8214333,15.7824406 16.7338216,15.6952448 17.0842682,15.3464615 C17.9603845,14.3001119 18.2232194,12.7305874 17.9603845,11.5098462 C17.6099379,9.94032168 16.4709867,8.71958042 14.7187541,8.71958042 C11.9151819,8.71958042 9.46205621,10.1147133 7.44698868,12.5561958 C7.00893053,12.033021 6.39564911,11.597042 5.69475605,11.3354545 C8.23549337,8.10920979 11.4771237,6.36529371 15.2444239,6.36529371 L15.2444239,6.36529371 L15.2444239,6.36529371 Z M0.963727947,24.5892168 C1.57700937,19.0958811 3.15401874,14.6488951 5.51953279,11.5098462 C6.13281421,11.7714336 6.74609563,12.2074126 7.27176542,12.8177832 C4.993863,15.7824406 3.41685363,20.2294266 2.97879547,25.6355664 C2.36551405,25.373979 1.664621,25.2867832 0.963727947,25.2867832 L0.963727947,24.5892168 L0.963727947,24.5892168 Z M5.08147463,50.0503916 C1.664621,42.6387483 0.175223263,33.831972 0.876116316,25.6355664 C1.57700937,25.6355664 2.27790242,25.7227622 2.89118384,25.9843497 L2.89118384,26.5075245 C2.36551405,34.7039301 4.29296995,43.6850979 7.88504684,50.8351538 C7.18415379,51.0095455 6.48326074,51.2711329 5.86997932,51.7071119 L5.08147463,50.0503916 L5.08147463,50.0503916 Z M6.04520258,51.9686993 C6.658484,51.5327203 7.35937705,51.2711329 8.06027011,51.0967413 C10.1629493,55.1077483 12.9665215,58.5083846 16.2081518,60.6882797 C15.6824821,61.1242587 15.1568123,61.7346294 14.8939774,62.345 C11.4771237,60.1651049 8.49832826,56.5900769 6.04520258,51.9686993 L6.04520258,51.9686993 L6.04520258,51.9686993 Z M15.2444239,62.6937832 C15.5072588,61.9962168 16.0329286,61.473042 16.5585984,61.0370629 C17.6975496,61.7346294 18.9241124,62.345 20.1506753,62.780979 C20.1506753,63.6529371 20.3258985,64.5248951 20.6763451,65.1352657 C18.7488892,64.6120909 16.9966565,63.8273287 15.2444239,62.6937832 L15.2444239,62.6937832 Z M22.6038009,66.0944196 C22.6038009,66.0944196 22.5161893,66.2688112 22.3409661,66.2688112 C22.2533544,66.2688112 22.0781312,66.0944196 22.0781312,66.0944196 C21.4648497,65.3968531 20.5011218,63.9145245 20.8515683,62.1706084 C20.9391799,61.6474336 21.8152963,61.473042 22.3409661,61.473042 C22.8666358,61.473042 23.7427522,61.6474336 23.8303638,62.1706084 C24.1808103,63.9145245 23.2170824,65.3096573 22.6038009,66.0944196 L22.6038009,66.0944196 Z M24.0055871,65.1352657 C24.3560336,64.5248951 24.5312568,63.6529371 24.5312568,62.780979 C25.7578197,62.345 26.9843825,61.7346294 28.1233337,60.9498671 C28.6490035,61.3858462 29.1746733,61.9962168 29.4375082,62.6065874 C27.7728872,63.8273287 25.9330429,64.6120909 24.0055871,65.1352657 L24.0055871,65.1352657 L24.0055871,65.1352657 Z M29.8755664,62.4321958 C29.6127315,61.8218252 29.0870617,61.2114545 28.5613919,60.7754755 C31.8030223,58.5955804 34.5189828,55.1949441 36.621662,51.1839371 C37.3225551,51.2711329 38.0234481,51.6199161 38.6367295,52.0558951 C36.2712155,56.5028811 33.29242,60.0779091 29.8755664,62.4321958 L29.8755664,62.4321958 Z M39.6004575,50.0503916 C39.3376226,50.5735664 39.0747877,51.0967413 38.8119528,51.6199161 C38.1986714,51.1839371 37.4977783,50.9223497 36.7968853,50.747958 C40.4765738,43.6850979 42.3164181,34.6167343 41.7907483,26.5075245 L41.7907483,25.9843497 C42.4040297,25.7227622 43.1049227,25.6355664 43.8058158,25.6355664 C44.5067088,33.831972 43.0173111,42.6387483 39.6004575,50.0503916 L39.6004575,50.0503916 L39.6004575,50.0503916 Z" id="Crest_1_" fill-opacity="0.493319746" fill="#000000"></path>
                    <path d="M36.0083806,30.6057273 C35.9207689,28.6002238 35.3074875,21.6245594 30.8392943,18.9214895 C29.8755664,18.3111189 28.6490035,17.8751399 27.3348291,17.8751399 C25.1445383,17.7879441 23.4799173,18.5727063 22.4285777,18.5727063 L22.4285777,18.5727063 C21.2896265,18.5727063 19.7126171,17.7007483 17.5223263,17.8751399 C16.2081518,17.9623357 14.981589,18.3983147 14.0178611,18.9214895 C9.54966784,21.6245594 8.93638642,28.513028 8.84877479,30.6057273 C8.5859399,37.842979 10.9514539,43.5107063 11.652347,45.0802308 C14.7187541,51.5327203 18.4860543,55.9797063 22.1657428,57.5492308 L22.4285777,57.6364266 L22.6914126,57.5492308 C26.3711011,55.9797063 30.1384013,51.5327203 33.2048084,45.0802308 C33.9057014,43.5107063 36.3588271,37.842979 36.0083806,30.6057273 L36.0083806,30.6057273 Z" id="Red_1_" fill="url(#linearGradient-2)"></path>
                    <path d="M28.9994501,26.8563077 L29.2622849,26.8563077 L29.3498966,26.8563077 C29.5251198,26.8563077 29.7879547,26.8563077 29.963178,27.0306993 C30.1384013,27.2050909 30.1384013,27.4666783 30.1384013,27.9026573 C30.1384013,27.9026573 27.1596058,40.2844615 26.5463244,42.5515524 C25.9330429,39.5868951 22.3409661,23.3684755 22.3409661,23.3684755 L22.3409661,23.2812797 L21.640073,23.2812797 L21.640073,23.3684755 C21.640073,23.3684755 19.0993357,39.1509161 18.5736659,42.289965 C17.8727728,39.5868951 14.981589,27.8154615 14.981589,27.8154615 L14.981589,27.6410699 C14.981589,27.2922867 15.0692006,27.0306993 15.2444239,26.9435035 C15.4196472,26.7691119 15.7700937,26.7691119 15.7700937,26.7691119 L16.0329286,26.7691119 L16.0329286,25.373979 L11.0390656,25.373979 L11.0390656,26.6819161 L11.2142888,26.6819161 C11.3019005,26.6819161 11.9151819,26.8563077 12.0027935,27.2922867 C12.0027935,27.2922867 17.8727728,51.1839371 18.1356077,52.1430909 L18.1356077,52.2302867 L19.0117241,52.2302867 L19.0117241,52.1430909 C19.0117241,51.9686993 21.3772381,37.1454126 21.9029079,34.3551469 C22.4285777,37.1454126 25.4949848,51.9686993 25.5825964,52.1430909 L25.5825964,52.2302867 L26.3711011,52.2302867 L32.1534688,27.2922867 C32.2410804,26.7691119 32.7667502,26.6819161 32.9419735,26.6819161 L33.2048084,26.6819161 L33.2048084,25.2867832 L28.9994501,25.4611748 L28.9994501,26.8563077 Z" id="W_1_" fill="#FFFFFF"></path>
                </g>
                <text id="UNIVERSITY-OF-WISCON" sketch:type="MSTextLayer" font-family="Friz Quadrata TT" font-size="9" font-weight="normal" letter-spacing="0.200000018" fill="#FFFFFF">
                    <tspan x="51.5482759" y="55.4">UNIVERSITY OF WISCONSIN-MADISON</tspan>
                </text>
                <path d="M80.8010345,20.1786364 L74.0502163,42.1263636 C73.8887609,42.0052721 73.5053102,41.7429111 72.8998527,41.3392727 C71.9109386,40.6732694 71.2651269,40.143502 70.9623981,39.7499545 C70.6596693,39.3564071 70.3165819,38.5541879 69.9331254,37.3432727 L66.3306708,25.991 L61.3659436,42.1263636 C60.9824871,41.8438168 60.4880375,41.5007293 59.8825799,41.0970909 C59.0349393,40.5319972 58.4698541,40.0476384 58.1873072,39.644 C57.9047603,39.2403616 57.5818545,38.4734602 57.2185799,37.3432727 L53.1923072,24.8103636 C52.7079412,23.2967197 52.3093542,22.2624119 51.9965345,21.7074091 C51.6837147,21.1524063 51.2346738,20.6428205 50.6493981,20.1786364 L55.3113981,20.1786364 C55.2710343,20.4208194 55.2508527,20.5519999 55.2508527,20.5721818 C55.2508527,20.8950925 55.3618516,21.3996329 55.5838527,22.0858182 L60.5485799,37.5249091 L64.5143072,24.8103636 C64.8775818,23.6398123 65.0592163,22.7417304 65.0592163,22.1160909 C65.0592163,21.3895418 64.6354024,20.7437301 63.7877618,20.1786364 L68.2075799,20.1786364 C68.1470342,20.4410013 68.1167618,20.6428175 68.1167618,20.7840909 C68.1167618,21.3088208 68.2681239,22.0454498 68.5708527,22.994 L73.2025799,37.4340909 L77.077489,25.1433636 C77.5013093,23.7911751 77.7132163,22.8628207 77.7132163,22.3582727 C77.7132163,21.3088129 77.1380402,20.5822747 75.9876708,20.1786364 L80.8010345,20.1786364 Z M88.7930345,41.2181818 L82.738489,41.2181818 C83.4246743,40.8549073 83.858579,40.2595496 84.0402163,39.4320909 C84.120944,39.0688164 84.1613072,38.3019149 84.1613072,37.1313636 L84.1613072,24.2654545 C84.1613072,23.0949032 84.120944,22.3280018 84.0402163,21.9647273 C83.858579,21.1372686 83.4246743,20.5419109 82.738489,20.1786364 L88.7930345,20.1786364 C88.1068492,20.5419109 87.6729445,21.1372686 87.4913072,21.9647273 C87.4105795,22.3280018 87.3702163,23.0949032 87.3702163,24.2654545 L87.3702163,37.1313636 C87.3702163,38.3019149 87.4105795,39.0688164 87.4913072,39.4320909 C87.6729445,40.2595496 88.1068492,40.8549073 88.7930345,41.2181818 L88.7930345,41.2181818 Z M106.744762,35.0728182 C106.744762,36.6873717 106.088859,38.1303573 104.777034,39.4018182 C103.142299,40.9760079 100.91223,41.7630909 98.0867618,41.7630909 C96.1694794,41.7630909 94.2925891,41.4300942 92.4560345,40.7640909 L91.4873072,36.7983636 C93.6467726,38.4936448 95.9878401,39.3412727 98.5105799,39.3412727 C99.8627685,39.3412727 100.997984,39.0284577 101.916262,38.4028182 C102.834539,37.7771787 103.293671,37.0001865 103.293671,36.0718182 C103.293671,35.1838137 102.940493,34.4270031 102.234125,33.8013636 C101.628668,33.2766337 100.261363,32.5299139 98.1321708,31.5611818 C96.0029784,30.5924497 94.5347658,29.7448218 93.727489,29.0182727 C92.6174835,28.0091768 92.062489,26.7780982 92.062489,25.325 C92.062489,23.6095369 92.7839818,22.237187 94.226989,21.2079091 C95.6699962,20.1786312 97.602386,19.664 100.024216,19.664 C101.618588,19.664 103.243208,19.8960886 104.898125,20.3602727 L104.898125,23.993 C103.465209,22.6004476 101.780044,21.9041818 99.8425799,21.9041818 C98.591301,21.9041818 97.5771747,22.181679 96.8001708,22.7366818 C96.023167,23.2916846 95.6346708,24.0131774 95.6346708,24.9011818 C95.6346708,25.6882767 95.9424405,26.3492246 96.557989,26.8840455 C97.1735376,27.4188663 98.439934,28.1302683 100.357216,29.0182727 C102.637773,30.0677325 104.191758,30.9254512 105.019216,31.5914545 C106.169586,32.4996409 106.744762,33.6600838 106.744762,35.0728182 L106.744762,35.0728182 Z M127.81458,37.0708182 L126.210125,40.7943636 C124.656118,41.4200031 123.001225,41.7328182 121.245398,41.7328182 C117.592471,41.7328182 114.661091,40.7287828 112.451171,38.7206818 C110.241251,36.7125809 109.136307,34.0536529 109.136307,30.7438182 C109.136307,27.555075 110.205933,24.9112832 112.345216,22.8123636 C114.4845,20.7134441 117.188836,19.664 120.458307,19.664 C122.052679,19.664 123.969932,19.9364518 126.210125,20.4813636 L126.210125,24.1443636 C124.171752,22.9738123 122.234316,22.3885455 120.397762,22.3885455 C118.157569,22.3885455 116.326087,23.120129 114.903262,24.5833182 C113.480436,26.0465073 112.769034,27.9183522 112.769034,30.1989091 C112.769034,32.7014671 113.546027,34.8205368 115.100034,36.5561818 C116.654042,38.2918269 118.561205,39.1596364 120.82158,39.1596364 C122.859954,39.1596364 125.19093,38.4633706 127.81458,37.0708182 L127.81458,37.0708182 Z M152.365762,30.5621818 C152.365762,33.6903793 151.220455,36.334171 148.929807,38.4936364 C146.639159,40.6531017 143.849051,41.7328182 140.559398,41.7328182 C137.310109,41.7328182 134.555319,40.6732833 132.294944,38.5541818 C130.034569,36.4350803 128.904398,33.8518334 128.904398,30.8043636 C128.904398,27.6358023 130.059796,24.9819198 132.370625,22.8426364 C134.681455,20.7033529 137.55229,19.6337273 140.983216,19.6337273 C144.252687,19.6337273 146.967115,20.6831713 149.12658,22.7820909 C150.135676,23.750823 150.927804,24.9314476 151.502989,26.324 C152.078174,27.7165524 152.365762,29.1292656 152.365762,30.5621818 L152.365762,30.5621818 Z M148.733034,31.0768182 C148.733034,28.5944421 148.006496,26.4753724 146.553398,24.7195455 C145.019572,22.8628089 143.011501,21.9344545 140.529125,21.9344545 C138.188023,21.9344545 136.265724,22.7064014 134.762171,24.2503182 C133.258618,25.794235 132.506853,27.8073512 132.506853,30.2897273 C132.506853,32.9133768 133.364571,35.1737178 135.080034,37.0708182 C136.512951,38.6651898 138.37975,39.4623636 140.680489,39.4623636 C143.061955,39.4623636 144.999391,38.6853714 146.492853,37.1313636 C147.986315,35.5773559 148.733034,33.5591942 148.733034,31.0768182 L148.733034,31.0768182 Z M176.250944,20.1786364 C175.564758,20.6226386 175.110672,21.0918612 174.888671,21.5863182 C174.66667,22.0807752 174.555671,22.8628128 174.555671,23.9324545 L174.555671,42.2474545 C173.001663,41.7429066 171.538496,40.6228269 170.166125,38.8871818 L158.965216,24.6892727 L158.965216,37.4643636 C158.965216,38.5138234 159.081261,39.2958611 159.313353,39.8105 C159.545445,40.3251389 159.984395,40.7943615 160.630216,41.2181818 L154.938944,41.2181818 C155.625129,40.7741796 156.079215,40.304957 156.301216,39.8105 C156.523217,39.316043 156.634216,38.5340053 156.634216,37.4643636 L156.634216,23.9324545 C156.634216,22.8829948 156.518172,22.1009571 156.28608,21.5863182 C156.053988,21.0716792 155.615038,20.6024567 154.969216,20.1786364 L159.631216,20.1786364 C159.67158,20.2997279 159.92385,20.6932694 160.388034,21.3592727 L172.224671,36.4350909 L172.224671,23.9324545 C172.224671,22.8829948 172.108627,22.1060025 171.876534,21.6014545 C171.644442,21.0969066 171.195401,20.6226386 170.529398,20.1786364 L176.250944,20.1786364 Z M193.839398,35.0728182 C193.839398,36.6873717 193.183496,38.1303573 191.871671,39.4018182 C190.236935,40.9760079 188.006867,41.7630909 185.181398,41.7630909 C183.264116,41.7630909 181.387225,41.4300942 179.550671,40.7640909 L178.581944,36.7983636 C180.741409,38.4936448 183.082476,39.3412727 185.605216,39.3412727 C186.957405,39.3412727 188.092621,39.0284577 189.010898,38.4028182 C189.929175,37.7771787 190.388307,37.0001865 190.388307,36.0718182 C190.388307,35.1838137 190.035129,34.4270031 189.328762,33.8013636 C188.723304,33.2766337 187.356,32.5299139 185.226807,31.5611818 C183.097615,30.5924497 181.629402,29.7448218 180.822125,29.0182727 C179.71212,28.0091768 179.157125,26.7780982 179.157125,25.325 C179.157125,23.6095369 179.878618,22.237187 181.321625,21.2079091 C182.764633,20.1786312 184.697022,19.664 187.118853,19.664 C188.713224,19.664 190.337844,19.8960886 191.992762,20.3602727 L191.992762,23.993 C190.559846,22.6004476 188.874681,21.9041818 186.937216,21.9041818 C185.685937,21.9041818 184.671811,22.181679 183.894807,22.7366818 C183.117803,23.2916846 182.729307,24.0131774 182.729307,24.9011818 C182.729307,25.6882767 183.037077,26.3492246 183.652625,26.8840455 C184.268174,27.4188663 185.53457,28.1302683 187.451853,29.0182727 C189.73241,30.0677325 191.286394,30.9254512 192.113853,31.5914545 C193.264222,32.4996409 193.839398,33.6600838 193.839398,35.0728182 L193.839398,35.0728182 Z M202.648762,41.2181818 L196.594216,41.2181818 C197.280402,40.8549073 197.714306,40.2595496 197.895944,39.4320909 C197.976671,39.0688164 198.017034,38.3019149 198.017034,37.1313636 L198.017034,24.2654545 C198.017034,23.0949032 197.976671,22.3280018 197.895944,21.9647273 C197.714306,21.1372686 197.280402,20.5419109 196.594216,20.1786364 L202.648762,20.1786364 C201.962577,20.5419109 201.528672,21.1372686 201.347034,21.9647273 C201.266307,22.3280018 201.225944,23.0949032 201.225944,24.2654545 L201.225944,37.1313636 C201.225944,38.3019149 201.266307,39.0688164 201.347034,39.4320909 C201.528672,40.2595496 201.962577,40.8549073 202.648762,41.2181818 L202.648762,41.2181818 Z M226.866944,20.1786364 C226.180758,20.6226386 225.726672,21.0918612 225.504671,21.5863182 C225.28267,22.0807752 225.171671,22.8628128 225.171671,23.9324545 L225.171671,42.2474545 C223.617663,41.7429066 222.154496,40.6228269 220.782125,38.8871818 L209.581216,24.6892727 L209.581216,37.4643636 C209.581216,38.5138234 209.697261,39.2958611 209.929353,39.8105 C210.161445,40.3251389 210.600395,40.7943615 211.246216,41.2181818 L205.554944,41.2181818 C206.241129,40.7741796 206.695215,40.304957 206.917216,39.8105 C207.139217,39.316043 207.250216,38.5340053 207.250216,37.4643636 L207.250216,23.9324545 C207.250216,22.8829948 207.134172,22.1009571 206.90208,21.5863182 C206.669988,21.0716792 206.231038,20.6024567 205.585216,20.1786364 L210.247216,20.1786364 C210.28758,20.2997279 210.53985,20.6932694 211.004034,21.3592727 L222.840671,36.4350909 L222.840671,23.9324545 C222.840671,22.8829948 222.724627,22.1060025 222.492534,21.6014545 C222.260442,21.0969066 221.811401,20.6226386 221.145398,20.1786364 L226.866944,20.1786364 Z" id="Wisconsin" fill="#FFFFFF" sketch:type="MSShapeGroup"></path>
            </g>
        </g>
    </g>
</svg>