<svg width="227" height="68" viewBox="0 0 227 68" xmlns="http://www.w3.org/2000/svg"><title>uw logo text + Wisconsin + UNIVERSITY OF WISCON</title><defs><linearGradient x1="49.649%" y1="100.101%" x2="49.649%" y2=".005%" id="a"><stop stop-color="#781B21" offset="0%"/><stop stop-color="#8A1E24" offset="4.82%"/><stop stop-color="#9D2228" offset="12.09%"/><stop stop-color="#AB252A" offset="20.52%"/><stop stop-color="#B3272C" offset="31.05%"/><stop stop-color="#B5272C" offset="50.21%"/><stop stop-color="#B2262C" offset="67.37%"/><stop stop-color="#AA252A" offset="78.31%"/><stop stop-color="#9B2227" offset="87.5%"/><stop stop-color="#861E24" offset="95.69%"/><stop stop-color="#781B21" offset="100%"/></linearGradient><linearGradient x1="49.775%" y1="100.101%" x2="49.775%" y2=".005%" id="b"><stop stop-color="#781B21" offset="0%"/><stop stop-color="#8A1E24" offset="4.82%"/><stop stop-color="#9D2228" offset="12.09%"/><stop stop-color="#AB252A" offset="20.52%"/><stop stop-color="#B3272C" offset="31.05%"/><stop stop-color="#B5272C" offset="50.21%"/><stop stop-color="#B2262C" offset="67.37%"/><stop stop-color="#AA252A" offset="78.31%"/><stop stop-color="#9B2227" offset="87.5%"/><stop stop-color="#861E24" offset="95.69%"/><stop stop-color="#781B21" offset="100%"/></linearGradient></defs><g fill="none" fill-rule="evenodd"><path d="M44.244 24.502a34.04 34.04 0 0 0-2.278-9.243c0-.087-.176-.349-.176-.436-.963-2.005-2.102-3.836-3.416-5.144-2.453-2.529-5.432-3.924-8.762-4.011h-.087c-.526-1.134-2.015-1.919-3.242-2.093 0 0-.788-2.965-3.942-2.965s-3.943 2.965-3.943 2.965c-1.314.174-2.716.96-3.241 2.093h-.088c-3.33 0-6.308 1.395-8.761 4.01-1.314 1.396-2.453 3.14-3.417 5.145 0 0-.175.35-.175.436a28.642 28.642 0 0 0-2.278 9.243c-1.84 17.265 6.308 38.453 21.027 41.68.175.348.788.959 1.05.959.264 0 .79-.61 1.052-.96 14.369-3.313 22.516-24.414 20.677-41.679z" fill-opacity=".477" fill="#ECE7BF"/><path d="M36.184 30.606c-.088-2.006-.701-8.981-5.17-11.685-.963-.61-2.19-1.046-3.504-1.046-2.19-.087-3.855.698-4.906.698-1.14 0-2.716-.872-4.906-.698-1.315.087-2.541.523-3.505 1.046-4.468 2.704-5.081 9.592-5.169 11.685-.263 7.237 2.103 12.905 2.804 14.474 3.066 6.453 6.833 10.9 10.513 12.47l.263.086.263-.087c3.68-1.57 7.447-6.016 10.513-12.469.7-1.57 3.066-7.237 2.804-14.474z" fill="url(#a)" transform="translate(-.263)"/><path d="M28.912 25.461v1.395h.35c.175 0 .438 0 .613.175.176.174.176.436.176.872 0 0-2.98 12.381-3.593 14.649-.613-2.965-4.205-19.184-4.205-19.184v-.087h-.613v.087S19.1 39.151 18.573 42.29c-.7-2.703-3.592-14.475-3.592-14.475v-.174c0-.349.088-.61.263-.697.175-.175.526-.175.526-.175h.263v-1.395h-4.907v1.308h.176c.087 0 .7.174.788.61 0 0 5.87 23.892 6.133 24.851v.087h.876v-.087c.088-.174 2.366-14.998 2.891-17.788.526 2.79 3.592 17.614 3.68 17.788v.087h.788l5.783-24.938c.087-.523.613-.61.788-.61h.263v-1.395l-4.38.174z" fill="#FFF"/><path d="M44.068 24.502a34.04 34.04 0 0 0-2.278-9.243c0-.087-.175-.349-.175-.436-.963-2.005-2.102-3.836-3.417-5.144-2.453-2.529-5.432-3.924-8.76-4.011h-.088c-.526-1.134-2.015-1.919-3.242-2.093 0 0-.788-2.965-3.943-2.965-3.154 0-3.942 2.965-3.942 2.965-1.314.174-2.716.96-3.242 2.093h-.087c-3.33 0-6.308 1.395-8.761 4.01-1.315 1.396-2.454 3.14-3.417 5.145 0 0-.176.35-.176.436a28.642 28.642 0 0 0-2.277 9.243c-1.84 17.265 6.308 38.453 21.026 41.68.176.348.789.959 1.052.959s.788-.61 1.051-.96c14.368-3.313 22.604-24.414 20.676-41.679zm-.613.087v.61c-.7 0-1.402.088-2.015.35-.438-5.32-2.015-9.767-4.293-12.818A4.232 4.232 0 0 1 38.9 11.51c2.366 3.139 4.03 7.586 4.556 13.08zM14.806 12.12c-.526.087-.526.96-.438 1.57.088.61.438 1.22.789 1.22.7-.087 1.314-1.569 1.226-2.615-.087-1.57-.964-1.919-1.49-1.919-.875 0-1.576 1.308-1.576 3.052s.613 3.052 1.577 3.052c.35 0 7.096.872 6.483-4.709-.263-2.615-1.927-4.534-3.504-5.406 1.489-.872 3.416.61 3.942 2.442.088.349.35.349.438 0 .613-1.919 2.278-3.226 3.767-2.442-1.577.872-3.066 2.79-3.329 5.406-.438 5.668 6.308 4.796 6.571 4.709.876 0 1.577-1.308 1.577-3.052s-.7-3.052-1.577-3.052c-.526 0-1.402.436-1.49 1.919 0 1.133.526 2.528 1.227 2.615.35 0 .701-.61.789-1.22.087-.61 0-1.395-.438-1.57-.176 0-.35 0-.35.175 0 .087.35.348.262 1.046 0 .96-1.051.523-.876-1.046.088-1.308.876-1.221.876-1.221.35 0 1.051.785 1.051 2.267 0 1.308-.7 2.79-2.015 2.005-1.051-.784-1.49-2.528-1.226-3.836.087-.61.7-2.267 2.54-2.267 2.541 0 4.994 1.22 6.922 3.662-.175.61-1.227 2.965-5.607 5.319-1.49-.872-3.154-1.22-4.644-1.22-2.365 0-3.154.697-4.205.697-1.051 0-1.84-.698-4.205-.698-1.577 0-3.242.349-4.644 1.22-4.293-2.353-5.344-4.62-5.607-5.318 1.927-2.442 4.38-3.75 7.009-3.75 1.84 0 2.365 1.657 2.453 2.268.263 1.308-.088 3.139-1.227 3.836-1.314.698-2.015-.697-2.015-2.005 0-1.483.614-2.267 1.052-2.267 0 0 .788-.088.876 1.308.087 1.482-.876 2.005-.876 1.046 0-.61.35-.872.263-1.046 0-.088-.176-.262-.35-.175zm22.078 1.221c2.19 2.965 3.768 7.324 4.03 12.905-.788.436-2.453 1.133-4.643 1.308-.526-2.878-1.752-6.801-4.819-8.981 3.855-2.18 5.082-4.273 5.432-5.232zm-24.093 5.145c-3.066 2.18-4.293 6.103-4.819 8.98-2.19-.174-3.855-.871-4.643-1.307.35-5.58 1.84-9.94 4.03-12.818.35.96 1.577 3.052 5.432 5.145zm-4.906 9.417c-.175 1.046-.175 1.918-.263 2.528v3.314a26.99 26.99 0 0 0 .788 5.232v.174c.701 3.052 1.665 5.319 2.103 6.104.701 1.395 1.402 2.703 2.103 3.836-1.402 1.221-3.417 1.657-4.118 1.831-3.767-6.975-5.607-16.044-5.169-24.24.788.436 2.366 1.046 4.556 1.22zm4.906 21.624c2.453 4.011 4.906 6.453 6.746 7.673-.7 1.657-2.278 2.878-2.803 3.314-3.242-2.006-5.958-5.32-8.06-9.243.788-.087 2.715-.61 4.117-1.744zm7.184 7.935c1.052.698 2.103 1.134 2.19 1.134.088 0 1.14-.436 2.103-1.134.701 1.57 2.103 2.79 2.804 3.313a14.615 14.615 0 0 1-2.891 1.396v-.088c-.176-1.046-1.665-1.22-2.103-1.22-.526 0-1.928.174-2.103 1.22v.088a21.149 21.149 0 0 1-2.891-1.308c.7-.61 2.103-1.831 2.891-3.401zm4.731-.262c1.84-1.307 4.293-3.749 6.746-7.673 1.314 1.134 3.154 1.657 4.118 1.831-2.103 3.924-4.819 7.15-7.973 9.243-.7-.523-2.277-1.744-2.89-3.4zm6.922-8.109a37.826 37.826 0 0 0 2.015-3.75c.35-.784 1.401-3.051 2.102-6.103v-.174c.35-1.744.614-3.488.789-5.232V30.519c0-.61-.088-1.483-.263-2.53 2.103-.174 3.767-.784 4.556-1.22.263 8.197-1.577 17.178-5.257 24.24-.7-.261-2.628-.784-3.942-1.918zM29.174 6.365c3.768 0 7.01 1.744 9.462 4.796-.613.262-1.226.698-1.752 1.22-2.015-2.44-4.468-3.836-7.272-3.836-1.752 0-2.89 1.22-3.241 2.79-.263 1.308 0 2.878.876 3.837.438.436.175.61.088.61-1.14 0-4.293-.61-4.03-4.098.175-2.267 1.401-3.75 2.628-4.621 1.314-.61 2.716-.698 3.241-.698zm-7.096-5.144c2.54 0 3.154 2.354 3.154 2.441-.175 0-.35 0-.526.087l-.438.088c-.876.261-1.664.872-2.103 1.656 0 0 0 .088-.087.088l-.088-.088c-.438-.784-1.226-1.308-2.102-1.656l-.438-.088c-.176 0-.35 0-.526-.087 0-.087.613-2.441 3.154-2.441zM18.66 4.01c1.49 0 2.716.872 3.154 2.18.088.349.263.349.438 0 .438-1.308 1.752-2.18 3.154-2.18 1.227 0 2.366.698 2.979 1.744-.438.087-.876.174-1.402.349-.876-.698-1.664-.698-2.19-.523-1.227.348-2.19 1.482-2.716 2.528-.526-.959-1.49-2.092-2.716-2.528-.526-.175-1.402-.175-2.19.523-.438-.175-.964-.262-1.402-.35.526-1.045 1.664-1.743 2.891-1.743zm-3.68 2.354c.526 0 1.928.087 3.154.785 1.315.872 2.453 2.354 2.629 4.621.263 3.401-3.417 4.011-4.118 4.011-.088 0-.175-.087.175-.436.876-1.046 1.14-2.615.876-3.836-.35-1.57-1.49-2.79-3.241-2.79-2.804 0-5.257 1.395-7.272 3.836a4.232 4.232 0 0 0-1.752-1.22c2.54-3.227 5.782-4.97 9.55-4.97zM.701 24.59c.613-5.493 2.19-9.94 4.555-13.08a4.853 4.853 0 0 1 1.753 1.309c-2.278 2.964-3.855 7.411-4.293 12.818-.614-.262-1.314-.35-2.015-.35v-.697zM4.818 50.05C1.402 42.64-.088 33.832.613 25.636c.7 0 1.402.087 2.015.348v.524c-.526 8.196 1.402 17.177 4.994 24.327-.7.175-1.402.436-2.015.872l-.789-1.657zm.964 1.919c.613-.436 1.314-.698 2.015-.872 2.103 4.01 4.906 7.411 8.148 9.591-.526.436-1.051 1.047-1.314 1.657-3.417-2.18-6.396-5.755-8.849-10.376zm9.2 10.725c.262-.698.788-1.221 1.314-1.657 1.138.698 2.365 1.308 3.592 1.744 0 .872.175 1.744.525 2.354-1.927-.523-3.68-1.308-5.432-2.441zm7.359 3.4s-.088.175-.263.175c-.088 0-.263-.175-.263-.175-.613-.697-1.577-2.18-1.227-3.923.088-.524.964-.698 1.49-.698s1.402.174 1.49.698c.35 1.744-.614 3.139-1.227 3.923zm1.401-.959c.35-.61.526-1.482.526-2.354a15.52 15.52 0 0 0 3.592-1.831c.526.436 1.052 1.046 1.314 1.657-1.664 1.22-3.504 2.005-5.432 2.528zm5.87-2.703c-.262-.61-.788-1.22-1.314-1.657 3.242-2.18 5.958-5.58 8.06-9.591.701.087 1.402.436 2.016.872-2.366 4.447-5.345 8.022-8.762 10.376zm9.725-12.382l-.788 1.57c-.613-.436-1.314-.698-2.015-.872 3.68-7.063 5.52-16.131 4.994-24.24v-.524c.613-.261 1.314-.348 2.015-.348.7 8.196-.789 17.003-4.206 24.414z" fill-opacity=".493" fill="#000"/><path d="M36.008 30.606c-.087-2.006-.7-8.981-5.169-11.685-.963-.61-2.19-1.046-3.504-1.046-2.19-.087-3.855.698-4.906.698-1.14 0-2.716-.872-4.907-.698-1.314.087-2.54.523-3.504 1.046-4.468 2.704-5.082 9.592-5.17 11.685-.262 7.237 2.103 12.905 2.804 14.474 3.067 6.453 6.834 10.9 10.514 12.47l.263.086.262-.087c3.68-1.57 7.447-6.016 10.514-12.469.7-1.57 3.154-7.237 2.803-14.474z" fill="url(#b)" transform="translate(-.263)"/><path d="M28.736 26.856h.351c.175 0 .438 0 .613.175.175.174.175.436.175.872 0 0-2.978 12.381-3.592 14.649-.613-2.965-4.205-19.184-4.205-19.184v-.087h-.701v.087s-2.54 15.783-3.066 18.922c-.701-2.703-3.593-14.475-3.593-14.475v-.174c0-.349.088-.61.263-.697.176-.175.526-.175.526-.175h.263v-1.395h-4.994v1.308h.175c.088 0 .701.174.789.61 0 0 5.87 23.892 6.133 24.851v.087h.876v-.087c0-.174 2.365-14.998 2.89-17.788.526 2.79 3.593 17.614 3.68 17.788v.087h.789l5.782-24.938c.088-.523.614-.61.789-.61h.263v-1.395l-4.206.174v1.395z" fill="#FFF"/><text font-family="Friz Quadrata TT" font-size="9" letter-spacing=".2" fill="#FFF" transform="translate(-1)"><tspan x="51.548" y="55.4">UNIVERSITY OF WISCONSIN-MADISON</tspan></text><path d="M79.801 20.179l-6.75 21.947a33.982 33.982 0 0 0-1.151-.787c-.99-.666-1.635-1.195-1.938-1.589-.302-.394-.645-1.196-1.029-2.407l-3.602-11.352-4.965 16.135a39.705 39.705 0 0 0-1.483-1.029c-.848-.565-1.413-1.05-1.696-1.453-.282-.404-.605-1.17-.968-2.3L52.192 24.81c-.484-1.513-.883-2.548-1.195-3.103-.313-.555-.762-1.064-1.348-1.528h4.662c-.04.242-.06.373-.06.393 0 .323.11.828.333 1.514l4.965 15.439 3.965-12.715c.364-1.17.545-2.068.545-2.694 0-.726-.424-1.372-1.271-1.937h4.42c-.061.262-.091.464-.091.605 0 .525.151 1.261.454 2.21l4.632 14.44 3.874-12.29c.424-1.353.636-2.281.636-2.786 0-1.05-.575-1.776-1.725-2.18H79.8zm7.992 21.04h-6.055c.687-.364 1.12-.96 1.302-1.787.08-.363.121-1.13.121-2.3V24.264c0-1.17-.04-1.937-.12-2.3-.182-.828-.616-1.423-1.303-1.786h6.055c-.686.363-1.12.958-1.302 1.786-.08.363-.12 1.13-.12 2.3v12.866c0 1.17.04 1.938.12 2.301.182.828.616 1.423 1.302 1.786zm17.952-6.146c0 1.614-.656 3.057-1.968 4.329-1.635 1.574-3.865 2.361-6.69 2.361-1.918 0-3.794-.333-5.631-.999l-.969-3.966c2.16 1.696 4.5 2.543 7.024 2.543 1.352 0 2.487-.313 3.405-.938.919-.626 1.378-1.403 1.378-2.331 0-.888-.354-1.645-1.06-2.27-.605-.525-1.973-1.272-4.102-2.24-2.129-.97-3.597-1.817-4.405-2.544-1.11-1.009-1.665-2.24-1.665-3.693 0-1.715.722-3.088 2.165-4.117 1.443-1.03 3.375-1.544 5.797-1.544 1.595 0 3.22.232 4.874.696v3.633c-1.433-1.393-3.118-2.089-5.055-2.089-1.252 0-2.266.278-3.043.833-.777.555-1.165 1.276-1.165 2.164 0 .787.307 1.448.923 1.983.616.535 1.882 1.246 3.8 2.134 2.28 1.05 3.834 1.907 4.661 2.573 1.15.909 1.726 2.07 1.726 3.482zm21.07 1.998l-1.605 3.723c-1.554.626-3.209.939-4.965.939-3.653 0-6.584-1.004-8.794-3.012-2.21-2.008-3.315-4.667-3.315-7.977 0-3.189 1.07-5.833 3.21-7.932 2.138-2.099 4.843-3.148 8.112-3.148 1.595 0 3.512.272 5.752.817v3.663c-2.038-1.17-3.976-1.755-5.812-1.755-2.24 0-4.072.731-5.495 2.194-1.423 1.464-2.134 3.335-2.134 5.616 0 2.502.777 4.622 2.331 6.357 1.554 1.736 3.461 2.604 5.722 2.604 2.038 0 4.369-.697 6.993-2.09zm24.55-6.509c0 3.128-1.145 5.772-3.435 7.932s-5.08 3.239-8.37 3.239c-3.25 0-6.005-1.06-8.265-3.179-2.26-2.119-3.39-4.702-3.39-7.75 0-3.168 1.155-5.822 3.466-7.961 2.31-2.14 5.181-3.21 8.612-3.21 3.27 0 5.984 1.05 8.144 3.15 1.009.968 1.8 2.148 2.376 3.541.575 1.393.863 2.805.863 4.238zm-3.632.515c0-2.483-.727-4.602-2.18-6.357-1.533-1.857-3.541-2.786-6.024-2.786-2.341 0-4.263.772-5.767 2.316-1.503 1.544-2.255 3.557-2.255 6.04 0 2.623.858 4.884 2.573 6.78 1.433 1.595 3.3 2.392 5.6 2.392 2.382 0 4.32-.777 5.813-2.33 1.493-1.555 2.24-3.573 2.24-6.055zm27.518-10.898c-.686.444-1.14.913-1.362 1.407-.222.495-.333 1.277-.333 2.346v18.315c-1.554-.504-3.018-1.624-4.39-3.36l-11.2-14.198v12.775c0 1.05.115 1.832.347 2.346.232.515.671.984 1.317 1.408h-5.691c.686-.444 1.14-.913 1.362-1.408.222-.494.333-1.276.333-2.346V23.932c0-1.049-.116-1.831-.348-2.346-.232-.514-.671-.984-1.317-1.407h4.662c.04.12.293.514.757 1.18l11.837 15.076V23.932c0-1.049-.116-1.826-.348-2.33-.233-.505-.682-.98-1.348-1.423h5.722zm17.588 14.894c0 1.614-.656 3.057-1.967 4.329-1.635 1.574-3.865 2.361-6.69 2.361-1.918 0-3.795-.333-5.631-.999l-.97-3.966c2.16 1.696 4.501 2.543 7.024 2.543 1.352 0 2.488-.313 3.406-.938.918-.626 1.377-1.403 1.377-2.331 0-.888-.353-1.645-1.06-2.27-.605-.525-1.972-1.272-4.101-2.24-2.13-.97-3.598-1.817-4.405-2.544-1.11-1.009-1.665-2.24-1.665-3.693 0-1.715.722-3.088 2.165-4.117 1.443-1.03 3.375-1.544 5.797-1.544 1.594 0 3.219.232 4.874.696v3.633c-1.433-1.393-3.118-2.089-5.056-2.089-1.251 0-2.265.278-3.042.833-.777.555-1.166 1.276-1.166 2.164 0 .787.308 1.448.924 1.983.615.535 1.882 1.246 3.799 2.134 2.28 1.05 3.834 1.907 4.662 2.573 1.15.909 1.725 2.07 1.725 3.482zm8.81 6.145h-6.055c.686-.363 1.12-.958 1.302-1.786.08-.363.121-1.13.121-2.3V24.264c0-1.17-.04-1.937-.121-2.3-.182-.828-.616-1.423-1.302-1.786h6.055c-.686.363-1.12.958-1.302 1.786-.08.363-.121 1.13-.121 2.3v12.866c0 1.17.04 1.938.121 2.301.182.828.616 1.423 1.302 1.786zm24.218-21.04c-.686.445-1.14.914-1.362 1.408-.222.495-.333 1.277-.333 2.346v18.315c-1.554-.504-3.018-1.624-4.39-3.36l-11.2-14.198v12.775c0 1.05.115 1.832.347 2.346.232.515.671.984 1.317 1.408h-5.691c.686-.444 1.14-.913 1.362-1.408.222-.494.333-1.276.333-2.346V23.932c0-1.049-.116-1.831-.348-2.346-.232-.514-.671-.984-1.317-1.407h4.662c.04.12.293.514.757 1.18l11.837 15.076V23.932c0-1.049-.116-1.826-.348-2.33-.233-.505-.682-.98-1.348-1.423h5.722z" fill="#FFF"/></g></svg>