<svg xmlns="http://www.w3.org/2000/svg" viewBox="-250 342 110 110"><circle fill="#C2242A" cx="-195" cy="397" r="55"/><path fill="#C2242A" d="M-250 342h110v110h-110z"/><path fill="#D6434E" d="M-211 413c0 2.2 1.8 4 4 4h24l12 12v-12h4c2.2 0 4-1.8 4-4v-32c0-2.2-1.8-4-4-4h-40c-2.2 0-4 1.8-4 4v32z"/><path fill="#F0F1F1" d="M-179 405c0 2.2-1.8 4-4 4h-24l-12 12v-12h-4c-2.2 0-4-1.8-4-4v-32c0-2.2 1.8-4 4-4h40c2.2 0 4 1.8 4 4v32z"/><path fill="#FFF" d="M-179.7 370.8c-.7-1.1-1.9-1.8-3.3-1.8h-40c-2.2 0-4 1.8-4 4v32c0 2.2 1.8 4 4 4h4v1.1l39.3-39.3z"/><circle fill="#C2242A" cx="-215" cy="389" r="4"/><circle fill="#C2242A" cx="-203" cy="389" r="4"/><circle fill="#C2242A" cx="-191" cy="389" r="4"/></svg>