<svg width="227" height="68" viewBox="0 0 227 68" xmlns="http://www.w3.org/2000/svg"><title>uw logo text + Wisconsin + UNIVERSITY OF WISCON</title><defs><linearGradient x1="49.649%" y1="100.101%" x2="49.649%" y2=".005%" id="a"><stop stop-color="#781B21" offset="0%"/><stop stop-color="#8A1E24" offset="4.82%"/><stop stop-color="#9D2228" offset="12.09%"/><stop stop-color="#AB252A" offset="20.52%"/><stop stop-color="#B3272C" offset="31.05%"/><stop stop-color="#B5272C" offset="50.21%"/><stop stop-color="#B2262C" offset="67.37%"/><stop stop-color="#AA252A" offset="78.31%"/><stop stop-color="#9B2227" offset="87.5%"/><stop stop-color="#861E24" offset="95.69%"/><stop stop-color="#781B21" offset="100%"/></linearGradient><linearGradient x1="49.775%" y1="100.101%" x2="49.775%" y2=".005%" id="b"><stop stop-color="#781B21" offset="0%"/><stop stop-color="#8A1E24" offset="4.82%"/><stop stop-color="#9D2228" offset="12.09%"/><stop stop-color="#AB252A" offset="20.52%"/><stop stop-color="#B3272C" offset="31.05%"/><stop stop-color="#B5272C" offset="50.21%"/><stop stop-color="#B2262C" offset="67.37%"/><stop stop-color="#AA252A" offset="78.31%"/><stop stop-color="#9B2227" offset="87.5%"/><stop stop-color="#861E24" offset="95.69%"/><stop stop-color="#781B21" offset="100%"/></linearGradient></defs><g fill="none" fill-rule="evenodd"><path d="M44.244 24.502c-.35-3.488-1.227-6.627-2.278-9.243 0-.088-.176-.35-.176-.437-.963-2.005-2.102-3.836-3.416-5.144-2.453-2.53-5.432-3.925-8.762-4.012h-.087C29 4.534 27.51 3.748 26.283 3.575c0 0-.788-2.965-3.942-2.965-3.153 0-3.942 2.965-3.942 2.965-1.314.174-2.716.96-3.24 2.093h-.09c-3.328 0-6.307 1.395-8.76 4.01-1.314 1.396-2.453 3.14-3.417 5.145 0 0-.174.35-.174.436C1.576 17.874.7 21.013.438 24.5c-1.84 17.265 6.308 38.453 21.027 41.68.175.348.788.96 1.05.96.264 0 .79-.612 1.052-.96 14.37-3.314 22.516-24.415 20.677-41.68z" fill-opacity=".477" fill="#ECE7BF"/><path d="M36.184 30.606c-.088-2.006-.7-8.98-5.17-11.685-.963-.61-2.19-1.045-3.504-1.045-2.19-.087-3.855.698-4.906.698-1.14 0-2.716-.872-4.906-.698-1.315.087-2.54.523-3.505 1.046-4.468 2.705-5.08 9.593-5.17 11.686-.262 7.237 2.104 12.905 2.805 14.474 3.066 6.453 6.833 10.9 10.513 12.47l.264.086.263-.087c3.68-1.57 7.447-6.017 10.513-12.47.7-1.57 3.066-7.237 2.804-14.474z" fill="url(#a)" transform="translate(-.263)"/><path d="M28.912 25.46v1.396h.35c.175 0 .438 0 .613.175.176.175.176.437.176.873 0 0-2.978 12.38-3.59 14.65-.615-2.966-4.207-19.185-4.207-19.185v-.087h-.613v.088S19.1 39.15 18.574 42.29c-.7-2.703-3.593-14.475-3.593-14.475v-.174c0-.348.09-.61.264-.696.175-.175.526-.175.526-.175h.263v-1.396h-4.906v1.308h.175c.087 0 .7.174.788.61 0 0 5.87 23.892 6.133 24.85v.088h.876v-.087c.087-.174 2.365-14.998 2.89-17.788.526 2.79 3.592 17.614 3.68 17.788v.087h.79l5.78-24.938c.09-.523.614-.61.79-.61h.262v-1.395l-4.38.174z" fill="#FFF"/><path d="M44.068 24.502c-.35-3.488-1.226-6.627-2.277-9.243 0-.088-.175-.35-.175-.437-.963-2.005-2.102-3.836-3.416-5.144-2.455-2.53-5.433-3.925-8.763-4.012h-.087c-.526-1.134-2.015-1.92-3.242-2.093 0 0-.788-2.965-3.942-2.965s-3.943 2.965-3.943 2.965c-1.314.174-2.716.96-3.242 2.093h-.086c-3.33 0-6.308 1.395-8.76 4.01-1.316 1.396-2.454 3.14-3.418 5.145 0 0-.175.35-.175.436C1.403 17.874.527 21.013.264 24.5c-1.84 17.265 6.308 38.453 21.026 41.68.175.348.788.96 1.05.96.264 0 .79-.612 1.052-.96 14.368-3.314 22.604-24.415 20.676-41.68zm-.613.087v.61c-.7 0-1.402.087-2.015.348-.438-5.32-2.015-9.766-4.293-12.817.438-.523 1.052-.96 1.752-1.22 2.365 3.14 4.03 7.586 4.555 13.08zm-28.65-12.47c-.524.087-.524.96-.437 1.57.088.61.438 1.22.79 1.22.7-.087 1.313-1.57 1.225-2.615-.087-1.57-.964-1.92-1.49-1.92-.875 0-1.576 1.31-1.576 3.053 0 1.744.613 3.052 1.577 3.052.35 0 7.096.872 6.483-4.71-.263-2.614-1.927-4.533-3.504-5.405 1.49-.872 3.416.61 3.942 2.442.088.35.35.35.438 0 .613-1.92 2.278-3.226 3.767-2.442-1.577.872-3.066 2.79-3.33 5.406-.437 5.67 6.31 4.797 6.572 4.71.876 0 1.577-1.308 1.577-3.052s-.702-3.052-1.578-3.052c-.526 0-1.402.436-1.49 1.92 0 1.132.526 2.527 1.227 2.614.35 0 .7-.61.788-1.22.087-.61 0-1.395-.438-1.57-.175 0-.35 0-.35.175 0 .087.35.348.262 1.046 0 .96-1.05.524-.876-1.045.088-1.308.876-1.22.876-1.22.35 0 1.05.784 1.05 2.266 0 1.31-.7 2.79-2.014 2.006-1.05-.784-1.49-2.528-1.226-3.836.087-.61.7-2.267 2.54-2.267 2.54 0 4.994 1.22 6.922 3.662-.175.61-1.227 2.965-5.607 5.32-1.49-.873-3.154-1.222-4.644-1.222-2.365 0-3.154.698-4.205.698-1.05 0-1.84-.697-4.205-.697-1.577 0-3.242.35-4.644 1.22-4.294-2.353-5.345-4.62-5.608-5.318 1.928-2.442 4.38-3.75 7.01-3.75 1.84 0 2.364 1.657 2.452 2.268.263 1.308-.088 3.14-1.226 3.836-1.315.697-2.016-.698-2.016-2.006 0-1.483.614-2.267 1.052-2.267 0 0 .788-.088.876 1.308.088 1.482-.876 2.005-.876 1.046 0-.61.35-.87.263-1.045 0-.088-.176-.262-.35-.175zm22.08 1.22c2.19 2.966 3.767 7.325 4.03 12.906-.79.436-2.454 1.133-4.644 1.308-.525-2.878-1.75-6.8-4.818-8.98 3.855-2.18 5.082-4.274 5.432-5.233zM12.79 18.487c-3.065 2.18-4.292 6.103-4.818 8.98-2.19-.174-3.854-.87-4.643-1.307.35-5.582 1.84-9.942 4.03-12.82.35.96 1.576 3.053 5.43 5.146zm-4.905 9.417c-.175 1.046-.175 1.918-.263 2.528V33.746c.088 1.744.35 3.488.79 5.232v.174c.7 3.053 1.663 5.32 2.1 6.105.702 1.395 1.403 2.703 2.104 3.836-1.402 1.222-3.417 1.658-4.118 1.832-3.767-6.975-5.607-16.044-5.17-24.24.79.436 2.367 1.046 4.557 1.22zm4.906 21.624c2.454 4.01 4.907 6.453 6.747 7.673-.7 1.657-2.278 2.878-2.803 3.314-3.242-2.006-5.958-5.32-8.06-9.243.788-.086 2.715-.61 4.117-1.743zm7.185 7.935c1.052.698 2.103 1.134 2.19 1.134.088 0 1.14-.436 2.103-1.134.7 1.57 2.103 2.79 2.804 3.313-.964.61-1.928 1.047-2.89 1.396v-.087c-.177-1.046-1.666-1.22-2.104-1.22-.526 0-1.927.174-2.103 1.22v.088c-.963-.348-1.927-.784-2.89-1.307.7-.61 2.102-1.83 2.89-3.4zm4.73-.262c1.84-1.307 4.294-3.75 6.747-7.673 1.315 1.134 3.154 1.657 4.118 1.83-2.103 3.925-4.818 7.15-7.973 9.244-.7-.522-2.277-1.743-2.89-3.4zm6.923-8.11c.7-1.132 1.4-2.44 2.015-3.748.35-.785 1.4-3.052 2.102-6.104v-.174c.35-1.744.614-3.488.79-5.232V30.52c0-.612-.09-1.484-.264-2.53 2.104-.175 3.768-.785 4.557-1.22.263 8.196-1.577 17.177-5.257 24.24-.7-.262-2.628-.785-3.942-1.92zM29.175 6.366c3.767 0 7.008 1.744 9.462 4.796-.614.263-1.227.7-1.753 1.222-2.015-2.442-4.468-3.837-7.27-3.837-1.754 0-2.893 1.22-3.243 2.79-.262 1.308 0 2.878.877 3.837.438.436.175.61.088.61-1.14 0-4.293-.61-4.03-4.098.175-2.267 1.4-3.75 2.628-4.62 1.314-.612 2.716-.7 3.242-.7zM22.078 1.22c2.54 0 3.154 2.355 3.154 2.442-.175 0-.35 0-.526.087l-.438.087c-.876.26-1.664.872-2.102 1.656 0 0 0 .088-.088.088l-.088-.087c-.438-.784-1.226-1.308-2.102-1.656l-.438-.088c-.176 0-.35 0-.526-.088 0-.087.613-2.44 3.154-2.44zM18.66 4.01c1.49 0 2.717.873 3.155 2.18.088.35.263.35.438 0 .438-1.307 1.752-2.18 3.154-2.18 1.227 0 2.366.7 2.98 1.745-.44.087-.877.174-1.403.35-.876-.7-1.664-.7-2.19-.524-1.227.35-2.19 1.483-2.716 2.53-.526-.96-1.49-2.093-2.716-2.53-.526-.174-1.402-.174-2.19.524-.438-.175-.964-.262-1.402-.35.526-1.045 1.665-1.743 2.89-1.743zm-3.68 2.355c.527 0 1.93.087 3.155.785 1.315.872 2.454 2.354 2.63 4.62.262 3.402-3.418 4.012-4.12 4.012-.087 0-.174-.087.176-.436.877-1.046 1.14-2.615.877-3.836-.35-1.57-1.49-2.79-3.24-2.79-2.805 0-5.258 1.395-7.273 3.836-.438-.523-1.05-.96-1.752-1.22 2.54-3.227 5.782-4.97 9.55-4.97zM.7 24.59c.614-5.494 2.19-9.94 4.557-13.08.613.26 1.226.697 1.752 1.308-2.28 2.964-3.856 7.41-4.294 12.818-.613-.262-1.314-.35-2.015-.35v-.697zM4.82 50.05C1.402 42.64-.088 33.832.613 25.636c.7 0 1.402.087 2.015.348v.524c-.525 8.196 1.402 17.177 4.994 24.327-.7.175-1.402.436-2.015.872l-.79-1.657zm.964 1.92c.613-.437 1.314-.7 2.015-.873 2.103 4.01 4.907 7.41 8.148 9.59-.526.437-1.05 1.048-1.314 1.658-3.416-2.18-6.395-5.755-8.848-10.376zm9.2 10.724c.262-.698.788-1.22 1.314-1.657 1.14.698 2.365 1.308 3.592 1.744 0 .873.175 1.745.525 2.355-1.927-.523-3.68-1.308-5.432-2.44zm7.36 3.4s-.09.175-.264.175c-.088 0-.263-.176-.263-.176-.613-.697-1.577-2.18-1.226-3.923.086-.523.962-.697 1.488-.697s1.402.174 1.49.698c.35 1.745-.614 3.14-1.227 3.924zm1.4-.96c.35-.61.526-1.48.526-2.353 1.227-.435 2.453-1.045 3.592-1.83.526.436 1.052 1.046 1.315 1.657-1.665 1.22-3.505 2.005-5.432 2.528zm5.87-2.702c-.262-.61-.788-1.22-1.314-1.657 3.242-2.18 5.958-5.58 8.06-9.59.702.086 1.402.435 2.016.87-2.366 4.448-5.345 8.023-8.76 10.377zm9.725-12.382l-.788 1.57c-.614-.436-1.315-.698-2.016-.872 3.68-7.063 5.52-16.13 4.994-24.24v-.524c.613-.26 1.314-.348 2.015-.348.7 8.196-.79 17.003-4.206 24.414z" fill-opacity=".493" fill="#000"/><path d="M36.008 30.606c-.087-2.006-.7-8.98-5.17-11.685-.962-.61-2.19-1.045-3.503-1.045-2.19-.087-3.855.698-4.906.698-1.14 0-2.717-.872-4.908-.698-1.314.087-2.54.523-3.504 1.046-4.468 2.705-5.082 9.593-5.17 11.686-.262 7.237 2.103 12.905 2.804 14.474 3.067 6.453 6.834 10.9 10.514 12.47l.263.086.26-.087c3.68-1.57 7.448-6.017 10.515-12.47.7-1.57 3.154-7.237 2.803-14.474z" fill="url(#b)" transform="translate(-.263)"/><path d="M28.736 26.856h.35c.175 0 .438 0 .613.175s.175.437.175.873c0 0-2.978 12.38-3.592 14.65-.613-2.966-4.205-19.185-4.205-19.185v-.087h-.7v.088S18.835 39.15 18.31 42.29c-.7-2.703-3.59-14.475-3.59-14.475v-.174c0-.348.086-.61.26-.696.177-.175.527-.175.527-.175h.263v-1.396h-4.994v1.308h.175c.09 0 .702.174.79.61 0 0 5.87 23.892 6.133 24.85v.088h.876v-.087c0-.174 2.364-14.998 2.89-17.788.526 2.79 3.592 17.614 3.68 17.788v.087h.788l5.782-24.938c.088-.523.614-.61.79-.61h.262v-1.395l-4.206.174v1.396z" fill="#FFF"/><text font-family="Friz Quadrata TT" font-size="9" letter-spacing=".2" fill="#FFF" transform="translate(-1)"><tspan x="51.548" y="55.4">UNIVERSITY OF WISCONSIN-MADISON</tspan></text><path d="M79.8 20.18l-6.75 21.946c-.16-.12-.545-.383-1.15-.787-.99-.667-1.635-1.196-1.938-1.59-.302-.394-.645-1.196-1.03-2.407l-3.6-11.352-4.966 16.136c-.384-.282-.878-.625-1.483-1.03-.848-.564-1.413-1.048-1.696-1.452-.282-.404-.605-1.17-.968-2.3L52.19 24.81c-.484-1.513-.883-2.548-1.195-3.103-.313-.555-.762-1.064-1.348-1.528h4.66c-.04.24-.06.372-.06.392 0 .323.112.828.334 1.514l4.965 15.44 3.964-12.716c.364-1.17.545-2.068.545-2.694 0-.726-.425-1.372-1.272-1.937h4.42c-.06.26-.09.463-.09.604 0 .525.15 1.26.453 2.21l4.633 14.44 3.874-12.29c.424-1.353.636-2.28.636-2.786 0-1.05-.575-1.776-1.725-2.18H79.8zm7.993 21.038h-6.055c.687-.363 1.12-.958 1.302-1.786.08-.363.12-1.13.12-2.3V24.264c0-1.17-.04-1.937-.12-2.3-.18-.828-.615-1.423-1.302-1.786h6.055c-.686.362-1.12.957-1.302 1.785-.08.363-.12 1.13-.12 2.3V37.13c0 1.172.04 1.94.12 2.302.183.828.617 1.423 1.303 1.786zm17.952-6.145c0 1.614-.656 3.057-1.968 4.33-1.635 1.573-3.865 2.36-6.69 2.36-1.918 0-3.794-.333-5.63-1l-.97-3.965c2.16 1.696 4.5 2.543 7.024 2.543 1.353 0 2.488-.312 3.406-.937.92-.626 1.378-1.403 1.378-2.33 0-.89-.354-1.646-1.06-2.272-.605-.523-1.973-1.27-4.102-2.24-2.13-.968-3.597-1.815-4.405-2.542-1.11-1.01-1.665-2.24-1.665-3.693 0-1.715.722-3.088 2.165-4.117 1.443-1.03 3.375-1.544 5.797-1.544 1.595 0 3.22.232 4.874.696v3.633c-1.433-1.393-3.118-2.09-5.055-2.09-1.252 0-2.266.28-3.043.834-.777.555-1.165 1.276-1.165 2.164 0 .788.307 1.45.923 1.984.616.535 1.882 1.246 3.8 2.134 2.28 1.05 3.834 1.907 4.66 2.573 1.152.91 1.727 2.07 1.727 3.483zm21.07 1.998l-1.605 3.724c-1.554.626-3.21.94-4.965.94-3.653 0-6.584-1.005-8.794-3.013-2.21-2.007-3.314-4.666-3.314-7.976 0-3.19 1.07-5.833 3.21-7.932 2.138-2.1 4.843-3.148 8.112-3.148 1.595 0 3.512.272 5.752.817v3.664c-2.038-1.17-3.976-1.755-5.812-1.755-2.24 0-4.072.73-5.495 2.193-1.423 1.464-2.134 3.335-2.134 5.616 0 2.5.776 4.62 2.33 6.356 1.554 1.736 3.46 2.604 5.722 2.604 2.038 0 4.37-.697 6.993-2.09zm24.55-6.508c0 3.128-1.145 5.772-3.435 7.932s-5.08 3.24-8.37 3.24c-3.25 0-6.005-1.06-8.265-3.18-2.26-2.12-3.39-4.702-3.39-7.75 0-3.168 1.155-5.822 3.466-7.96 2.31-2.14 5.182-3.21 8.613-3.21 3.27 0 5.984 1.05 8.144 3.148 1.01.97 1.8 2.15 2.376 3.542.575 1.393.863 2.805.863 4.238zm-3.632.515c0-2.483-.727-4.602-2.18-6.357-1.533-1.857-3.54-2.786-6.024-2.786-2.342 0-4.264.772-5.768 2.316-1.503 1.544-2.255 3.557-2.255 6.04 0 2.623.858 4.884 2.573 6.78 1.433 1.595 3.3 2.392 5.6 2.392 2.382 0 4.32-.777 5.813-2.33 1.493-1.555 2.24-3.573 2.24-6.055zM175.25 20.18c-.685.443-1.14.912-1.36 1.406-.223.495-.334 1.277-.334 2.346v18.315c-1.554-.504-3.018-1.624-4.39-3.36l-11.2-14.198v12.774c0 1.05.115 1.832.347 2.346.232.515.67.984 1.317 1.408h-5.69c.685-.444 1.14-.913 1.36-1.408.223-.494.334-1.276.334-2.346V23.932c0-1.05-.116-1.83-.348-2.346-.232-.514-.67-.984-1.317-1.407h4.66c.042.12.294.513.758 1.18l11.837 15.075V23.932c0-1.05-.116-1.826-.348-2.33-.233-.505-.682-.98-1.348-1.423h5.72zm17.59 14.893c0 1.614-.657 3.057-1.968 4.33-1.635 1.573-3.865 2.36-6.69 2.36-1.918 0-3.795-.333-5.63-1l-.97-3.965c2.16 1.696 4.5 2.543 7.023 2.543 1.352 0 2.488-.312 3.406-.937.92-.626 1.378-1.403 1.378-2.33 0-.89-.353-1.646-1.06-2.272-.605-.523-1.972-1.27-4.1-2.24-2.13-.968-3.6-1.815-4.406-2.542-1.11-1.01-1.665-2.24-1.665-3.693 0-1.715.722-3.088 2.165-4.117 1.443-1.03 3.375-1.544 5.797-1.544 1.593 0 3.218.232 4.873.696v3.633c-1.433-1.393-3.118-2.09-5.056-2.09-1.25 0-2.265.28-3.042.834-.777.555-1.166 1.276-1.166 2.164 0 .788.307 1.45.923 1.984.615.535 1.882 1.246 3.8 2.134 2.28 1.05 3.833 1.907 4.66 2.573 1.15.91 1.726 2.07 1.726 3.483zm8.81 6.145h-6.056c.686-.363 1.12-.958 1.302-1.786.08-.363.12-1.13.12-2.3V24.264c0-1.17-.04-1.937-.12-2.3-.182-.828-.616-1.423-1.302-1.786h6.055c-.687.362-1.12.957-1.303 1.785-.08.363-.12 1.13-.12 2.3V37.13c0 1.172.04 1.94.12 2.302.182.828.616 1.423 1.302 1.786zm24.217-21.04c-.686.445-1.14.914-1.362 1.408-.222.495-.333 1.277-.333 2.346v18.315c-1.554-.504-3.018-1.624-4.39-3.36l-11.2-14.198v12.774c0 1.05.115 1.832.347 2.346.23.515.67.984 1.316 1.408h-5.69c.685-.444 1.14-.913 1.36-1.408.223-.494.334-1.276.334-2.346V23.932c0-1.05-.116-1.83-.348-2.346-.232-.514-.67-.984-1.317-1.407h4.662c.04.12.293.513.757 1.18l11.837 15.075V23.932c0-1.05-.115-1.826-.347-2.33-.233-.505-.682-.98-1.348-1.423h5.722z" fill="#FFF"/></g></svg>