<?xml version="1.0" encoding="UTF-8" standalone="no"?>
<svg width="60px" height="86px" viewBox="0 0 60 86" version="1.1" xmlns="http://www.w3.org/2000/svg" xmlns:xlink="http://www.w3.org/1999/xlink">
    <!-- Generator: Sketch 3.6.1 (26313) - http://www.bohemiancoding.com/sketch -->
    <title>hybrid_logo</title>
    <desc>Created with Sketch.</desc>
    <defs>
        <filter x="-50%" y="-50%" width="200%" height="200%" filterUnits="objectBoundingBox" id="filter-1">
            <feOffset dx="0" dy="4" in="SourceAlpha" result="shadowOffsetOuter1"></feOffset>
            <feGaussianBlur stdDeviation="3.5" in="shadowOffsetOuter1" result="shadowBlurOuter1"></feGaussianBlur>
            <feColorMatrix values="0 0 0 0 0   0 0 0 0 0   0 0 0 0 0  0 0 0 0.35 0" in="shadowBlurOuter1" type="matrix" result="shadowMatrixOuter1"></feColorMatrix>
            <feMerge>
                <feMergeNode in="shadowMatrixOuter1"></feMergeNode>
                <feMergeNode in="SourceGraphic"></feMergeNode>
            </feMerge>
        </filter>
        <path id="path-2" d="M28.7304683,14.2556703 C28.6352074,12.001079 27.9676432,4.41456382 23.3116782,1.44589532 C22.2608553,0.774692378 20.9308961,0.342993572 19.6555826,0.25946281 C19.4872146,0.249853076 19.3166313,0.243939394 19.1482633,0.243939394 C17.937934,0.243939394 16.8863727,0.526317723 16.0393636,0.75325528 C15.4545065,0.912185491 14.9434949,1.04893939 14.5166674,1.06224518 L14.4590678,1.06224518 C14.0270711,1.04893939 13.5190133,0.912185491 12.9326793,0.75325528 C12.0849318,0.526317723 11.0333705,0.243939394 9.82377958,0.243939394 C9.65541162,0.243939394 9.48335137,0.249853076 9.31719877,0.25946281 C8.04336219,0.342993572 6.70971068,0.774692378 5.65962626,1.44589532 C1.00513817,4.41456382 0.339050866,12.001079 0.243051587,14.2556703 C-0.0899920635,22.209573 2.316636,28.5261249 3.09496861,30.2403535 C6.3234982,37.3574702 10.3266681,42.1120707 14.1762392,43.8240817 L14.4863907,43.962314 L14.7950653,43.8240817 C18.6431595,42.1120707 22.6500216,37.3574702 25.8778128,30.2403535 C26.65393,28.5261249 29.062035,22.209573 28.7304683,14.2556703 L28.7304683,14.2556703 Z"></path>
    </defs>
    <g id="Home-page" stroke="none" stroke-width="1" fill="none" fill-rule="evenodd" filter="url(#filter-1)">
        <g id="Desktop-HD-Alt" transform="translate(-171.000000, -54.000000)">
            <g id="uw-logo-text-+-Wisconsin-+-UNIVERSITY-OF-WISCON" transform="translate(178.000000, 57.000000)">
                <g id="hybrid_logo">
                    <path d="M40.5073032,54.2787328 C40.2628743,54.842011 40.0117992,55.3919835 39.7540781,55.9286501 C39.19359,55.5420432 38.5548256,55.2618825 37.8916921,55.1073875 C38.2653508,54.3526538 38.6271943,53.5772222 38.9690994,52.7700046 C42.1127065,45.3594215 43.6398335,36.4785491 43.1590987,28.4078512 C43.1465449,28.2082645 43.1310373,28.0123737 43.1155298,27.8157438 C43.7136791,27.5592378 44.3635204,27.4187879 45.0192693,27.4047429 C45.720064,36.2967034 44.0984147,46.0232323 40.5073032,54.2787328 L40.5073032,54.2787328 Z M30.6599926,67.7574931 C30.3299028,67.0788981 29.847691,66.4587006 29.2739107,65.9730395 C32.5098249,63.6467447 35.4030954,60.0497475 37.734401,55.4311616 C38.3982729,55.5738292 39.0377758,55.8539899 39.5953101,56.2465106 C37.120744,61.3160147 34.1011975,65.1946511 30.6599926,67.7574931 L30.6599926,67.7574931 Z M25.0189273,69.4931589 C25.133388,68.9047475 25.1459417,68.3281635 25.1466802,68.1766253 C26.4640857,67.7050092 27.7453068,67.0301102 28.9800052,66.1778007 C29.5663393,66.6545914 30.0544587,67.2903122 30.3742101,67.9770386 C28.5583469,69.2824839 26.6287614,70.224977 24.6002228,70.7852984 C24.6969605,70.5642746 24.9177588,70.0216942 25.0189273,69.4931589 L25.0189273,69.4931589 Z M23.2348176,71.9118549 C23.1875565,71.9650781 23.0620189,72.1003535 22.926143,72.1077456 C22.7895287,72.1003535 22.666945,71.9650781 22.6152531,71.9118549 C21.9764886,71.110551 20.9618501,69.4798531 21.3392011,67.5379477 C21.4462772,66.9791047 22.3494089,66.7137282 22.926143,66.7115106 C23.5014003,66.7137282 24.4045319,66.9791047 24.511608,67.5379477 C24.8882206,69.4798531 23.8713667,71.110551 23.2348176,71.9118549 L23.2348176,71.9118549 Z M15.5157372,68.0029109 C15.8317964,67.3161846 16.315485,66.6789853 16.9003422,66.1977594 C18.1261791,67.0404591 19.3963234,67.7087052 20.704129,68.1766253 C20.704129,68.3281635 20.7166827,68.9047475 20.8318819,69.4931589 C20.9352657,70.0216942 21.1538487,70.5642746 21.2528018,70.7852984 C19.2382938,70.2286731 17.3212621,69.2935721 15.5157372,68.0029109 L15.5157372,68.0029109 Z M6.21488402,56.1644582 C6.78866432,55.7889394 7.44441324,55.51691 8.10016216,55.3964187 C10.4403292,60.0453122 13.3491073,63.6622681 16.6042213,65.9937374 C16.0333948,66.4830946 15.5541369,67.1069881 15.2277394,67.7855831 C11.751827,65.2079568 8.70495761,61.29236 6.21488402,56.1644582 L6.21488402,56.1644582 Z M0.832278319,27.4047429 C1.48728878,27.4217447 2.1496838,27.5658907 2.73601786,27.8157438 C2.72124874,28.0138522 2.70574116,28.2082645 2.69392587,28.4078512 C2.21319102,36.4785491 3.740318,45.3594215 6.88244823,52.7700046 C7.21918416,53.5653949 7.57511995,54.3275207 7.94213258,55.0719054 C7.28490675,55.2057025 6.63358856,55.474775 6.05906981,55.8451194 C5.81537933,55.3343251 5.57538113,54.813921 5.34350595,54.2787328 C1.75387139,46.0232323 0.131483586,36.2967034 0.832278319,27.4047429 L0.832278319,27.4047429 Z M5.56135047,11.9862948 C6.19568416,12.3026768 6.77241829,12.7646832 7.230261,13.3220478 C4.85169426,16.5982277 3.24407558,21.492539 2.76186382,27.4505739 C2.16740675,27.2110698 1.51091937,27.0743159 0.861816559,27.053618 C0.884708694,26.797112 0.900954726,26.5398669 0.926800686,26.2848393 C1.52642695,20.3778099 3.13109181,15.4472773 5.56135047,11.9862948 L5.56135047,11.9862948 Z M14.0794403,6.45108815 C14.4183916,6.41560606 14.7573429,6.39638659 15.0807866,6.39638659 C19.4923227,6.39638659 21.3613548,9.5446832 21.6205529,12.2435399 C21.7364904,13.4277548 21.4654771,14.3865106 20.8200666,15.0931956 C19.7596438,16.2485813 17.9991647,16.3084573 17.6565211,16.3084573 C17.523599,16.3084573 17.4386766,16.2833242 17.415046,16.2382323 C17.3906769,16.187966 17.4371997,16.1081313 17.4534457,16.0837374 C18.3144854,14.9764004 18.707344,13.2813912 18.4274692,11.860629 C18.053072,9.95642332 16.7792354,8.81803949 15.0165409,8.81803949 C12.0900399,8.82173554 9.49436706,10.3393343 7.44367478,13.0278421 C6.97770906,12.4778696 6.40023647,12.0166024 5.76737969,11.6935675 C8.07505465,8.55192378 10.8701106,6.78742883 14.0794403,6.45108815 L14.0794403,6.45108815 Z M19.3896773,3.71674931 C20.9433887,3.71674931 22.1766102,4.6001056 22.7666365,6.14061983 C22.7983902,6.23597796 22.8271899,6.3106382 22.8700204,6.34390266 L22.9224508,6.36607897 L22.926143,6.36607897 L22.9276199,6.36607897 L22.9815272,6.34538108 C23.0258346,6.3106382 23.052419,6.2389348 23.0819573,6.14357668 C23.6778912,4.6001056 24.906682,3.71674931 26.4611319,3.71674931 C28.003028,3.71674931 29.4385864,4.5927135 29.8292296,5.76362259 C29.6675078,5.78653811 29.2310803,5.85011019 28.9150211,5.91294307 C28.5760698,5.97577594 28.1677036,6.11326905 28.0443815,6.16057851 C27.766722,5.81167126 27.1405114,5.44724059 26.3909785,5.44724059 C25.5173851,5.44724059 24.2213948,5.92403122 22.9948194,8.1934068 C22.9874349,8.20966942 22.9711889,8.23406336 22.9350045,8.24589073 L22.926143,8.24810836 L22.9165431,8.24589073 C22.8796203,8.23406336 22.8633743,8.20966942 22.8530359,8.19192837 C21.6301528,5.92403122 20.3334241,5.44724059 19.4590922,5.44724059 C18.7088209,5.44724059 18.0848256,5.81167126 17.8064277,6.16057851 C17.6823671,6.11326905 17.2740009,5.97577594 16.9350496,5.91294307 C16.6189904,5.85011019 16.181086,5.78653811 16.0208411,5.76362259 C16.4129612,4.5927135 17.8463043,3.71674931 19.3896773,3.71674931 L19.3896773,3.71674931 Z M25.0735731,3.48241965 C24.1800413,3.81210744 23.4947541,4.40717172 23.0406037,5.2543067 C22.9874349,5.35114325 22.9468198,5.38514692 22.926143,5.39327824 C22.9047278,5.38514692 22.8611589,5.35114325 22.8109439,5.2543067 C22.3582704,4.41234619 21.6751986,3.81432507 20.778713,3.48241965 C21.0489879,3.27470156 21.3473241,3.16825528 21.6611679,3.16825528 C22.2859017,3.16825528 22.7570366,3.58147383 22.8116824,3.75149219 C22.8242361,3.78993113 22.8375283,3.82910927 22.8700204,3.85350321 L22.926143,3.87863636 L22.9815272,3.85350321 C23.0147578,3.82910927 23.0273115,3.78993113 23.0406037,3.75149219 C23.0937725,3.58147383 23.564169,3.16825528 24.1896412,3.16825528 C24.4997927,3.16825528 24.8010828,3.27470156 25.0735731,3.48241965 L25.0735731,3.48241965 Z M22.926143,0.560321396 C25.394063,0.566235078 26.131042,2.79125803 26.2418104,3.18673554 C26.181257,3.1911708 26.0823039,3.19930211 25.9685817,3.21852158 C25.8290135,3.24217631 25.6635994,3.28135445 25.5941845,3.29613866 C25.4789854,3.13794766 24.9236665,2.4364371 23.991735,2.4364371 C23.6505684,2.4364371 23.2961095,2.53401286 22.9401737,2.72620753 L22.926143,2.73433884 L22.9128508,2.72620753 C22.5554381,2.53401286 22.2002408,2.4364371 21.8575972,2.4364371 C20.930835,2.4364371 20.3718238,3.13794766 20.2581016,3.29613866 C20.1857329,3.28135445 20.0232725,3.24217631 19.8829659,3.21852158 C19.7692437,3.19930211 19.671029,3.1911708 19.6104756,3.18673554 C19.7205056,2.79051882 20.4582231,0.566235078 22.926143,0.560321396 L22.926143,0.560321396 Z M30.7692841,6.39638659 C31.0942047,6.39638659 31.4324176,6.41560606 31.7735842,6.45108815 C34.9806986,6.78742883 37.7809237,8.5534022 40.0841679,11.6965243 C39.4520496,12.0202984 38.8708847,12.4800872 38.4034421,13.0248852 C36.3527498,10.3378558 33.7578155,8.82173554 30.8313144,8.81803949 C29.0708353,8.81803949 27.7969987,9.95642332 27.4218631,11.860629 C27.1434652,13.2813912 27.5348469,14.9764004 28.3958865,16.0837374 C28.412871,16.1081313 28.4608707,16.187966 28.4350247,16.2382323 C28.412871,16.2833242 28.3279486,16.3084573 28.1979803,16.3084573 C27.8553368,16.3084573 26.0919039,16.2485813 25.0314811,15.0931956 C24.3838552,14.3865106 24.1143187,13.4277548 24.2287794,12.2435399 C24.4901928,9.5446832 26.357748,6.39638659 30.7692841,6.39638659 L30.7692841,6.39638659 Z M38.9631917,49.3629844 C38.6286712,48.2231221 37.8806153,47.793641 37.6598169,47.6886731 C37.2440662,47.4913039 36.8371769,47.3892929 36.4487491,47.3892929 C36.0913364,47.3892929 35.7819233,47.4787374 35.5116484,47.6103168 C36.3712112,45.2670202 37.7949544,40.5116804 37.8414771,34.6534389 L37.8496001,34.629045 C38.1169212,33.8624839 38.8915615,33.3842149 39.8692772,33.3842149 C40.9459461,33.3842149 42.1813829,34.0036731 42.524765,35.3859963 L42.5262419,35.3896924 C42.1274756,40.7400964 40.9533306,46.155551 39.0953754,51.0158586 C39.1529749,50.3269146 39.0857754,49.7806382 38.9631917,49.3629844 L38.9631917,49.3629844 Z M3.34450559,35.3859963 C3.68641071,34.0036731 4.9233245,33.3842149 5.99999333,33.3842149 C6.97770906,33.3842149 7.75161093,33.8624839 8.02040891,34.629045 L8.02483965,34.6445684 C8.06767009,40.5072452 9.49510552,45.2684986 10.3554067,47.611056 C10.0836549,47.4794766 9.77276497,47.3892929 9.41239845,47.3892929 C9.02544751,47.3892929 8.61486598,47.4913039 8.19911526,47.6886731 C7.98127074,47.7921625 7.24576858,48.2179477 6.91272493,49.3341552 C6.78275667,49.76955 6.7118649,50.3476125 6.7857105,51.0897796 C4.9181553,46.2279936 3.73219499,40.808843 3.3275211,35.4525253 L3.34450559,35.3859963 Z M8.05437789,32.8475482 C8.04330105,33.1062718 8.03517803,33.3627778 8.03074729,33.6185445 C7.55444318,33.0811387 6.83075631,32.7788017 6.00073178,32.7788017 C5.03040061,32.7788017 3.90794751,33.2238062 3.24481403,34.1803444 C3.14512247,32.2694858 3.14364556,30.3734114 3.25219859,28.5209504 C4.16936093,28.9925666 5.98522421,29.7436042 8.346068,29.9106657 C8.15702327,31.1599311 8.08170076,32.2118274 8.05437789,32.8475482 L8.05437789,32.8475482 Z M8.40662139,54.8057897 C7.68293452,53.0516437 7.04195473,50.8783655 7.52268957,49.435427 C7.71764196,48.848494 8.09130069,48.4227089 8.63037356,48.1684206 C8.88366396,48.0479293 9.13916973,47.9865748 9.39172168,47.9865748 C10.2077155,47.9865748 10.7549114,48.598641 10.8848797,49.0340358 C11.0502938,49.5877043 10.8036495,50.1997704 10.2985456,50.482888 C10.0777473,50.6070753 9.86876425,50.6721258 9.68193488,50.6721258 C9.22852291,50.6721258 8.99221699,50.3173049 8.94938654,50.1472865 C8.88218705,49.8693434 8.9752325,49.5847475 9.17978481,49.4553857 C9.34076822,49.351157 9.53128986,49.4088154 9.61399693,49.5610927 C9.6834118,49.6830624 9.86507197,49.6882369 9.95590206,49.5766162 C10.0083324,49.5145225 10.0245785,49.4287741 10.0031632,49.3356336 C9.92562536,48.9771166 9.42052146,48.7908356 9.10520076,48.8758448 C8.56022024,49.0214692 8.1732693,49.6808448 8.29585299,50.2611249 C8.35123719,50.5294582 8.70717298,51.2952801 9.58815097,51.2952801 C9.77276497,51.2952801 9.96993272,51.259798 10.1796542,51.1925298 C10.9151564,50.9508081 11.2644461,50.5265014 11.4224756,50.1029339 C11.9430871,51.1917906 12.4836369,52.2259458 13.0404327,53.2017034 C11.6248126,54.5648072 9.43381367,55.1096051 8.63258893,55.2700138 C8.55505105,55.1177365 8.4819439,54.9602847 8.40662139,54.8057897 L8.40662139,54.8057897 Z M7.62090422,14.1677043 C8.08982377,15.2506474 9.48107486,17.4520156 13.471691,19.7420891 C10.2402076,22.0129431 8.92649441,26.3617172 8.39997529,29.5728466 C5.97340891,29.4028283 4.13022276,28.5956107 3.27952146,28.1476492 C3.6295496,22.9140404 4.9115092,18.3930303 7.00503193,15.0702801 C7.20367659,14.7538981 7.41118272,14.4567355 7.62090422,14.1677043 L7.62090422,14.1677043 Z M37.5003104,54.6919513 C37.4065265,54.8848852 37.3142195,55.0829936 37.2174818,55.2737098 C36.4317646,55.1177365 34.2415041,54.5781129 32.8148072,53.2216621 C33.3745568,52.2422084 33.9180604,51.203618 34.4416257,50.1073691 C34.6003938,50.5294582 34.9511604,50.9515473 35.6851856,51.1925298 C35.8912148,51.259798 36.0913364,51.2952801 36.2752119,51.2952801 C37.1502823,51.2952801 37.5091719,50.5294582 37.5645561,50.2611249 C37.6871398,49.6808448 37.3001889,49.0214692 36.7566852,48.8758448 C36.4406261,48.792314 35.9355222,48.9771166 35.8579843,49.3356336 C35.838046,49.4287741 35.8550305,49.5145225 35.9074609,49.5766162 C35.9960756,49.6882369 36.1792127,49.6830624 36.2471506,49.5610927 C36.3328115,49.4088154 36.5225947,49.351157 36.6813627,49.4553857 C36.8822228,49.5847475 36.9789605,49.8693434 36.9095456,50.1472865 C36.8674536,50.3173049 36.6326246,50.6721258 36.1799511,50.6721258 C35.9901679,50.6721258 35.7841387,50.6070753 35.5662942,50.482888 C35.0604518,50.1997704 34.8123306,49.5877043 34.9777448,49.0340358 C35.107713,48.598641 35.6549089,47.9865748 36.4694259,47.9865748 C36.7219778,47.9865748 36.9789605,48.0479293 37.2322509,48.1684206 C37.7676315,48.4227089 38.1398133,48.848494 38.3332888,49.435427 C38.8051622,50.8465794 38.2033205,52.957764 37.5003104,54.6919513 L37.5003104,54.6919513 Z M37.4663415,29.5684114 C36.937607,26.3550643 35.6231553,22.0048118 32.3850258,19.7361754 C36.3697343,17.4461019 37.7617238,15.2462121 38.228428,14.1647475 C38.4381495,14.4545179 38.6456557,14.7524197 38.8457772,15.0702801 C40.9407769,18.3930303 42.2227365,22.9133012 42.5720262,28.1461708 C41.726494,28.5926538 39.8884771,29.3961754 37.4663415,29.5684114 L37.4663415,29.5684114 Z M37.8355694,33.6266758 C37.8296618,33.3686915 37.8222772,33.1092287 37.8119389,32.8475482 C37.784616,32.2103489 37.7092935,31.1554959 37.5195103,29.9047521 C39.8810925,29.7347337 41.6880943,28.9873921 42.6000875,28.5187328 C42.7064251,30.3638017 42.7049482,32.2510055 42.6067336,34.1537328 C41.9384309,33.2156749 40.8285316,32.7788017 39.8692772,32.7788017 C39.0370373,32.7788017 38.3163043,33.0796602 37.8355694,33.6266758 L37.8355694,33.6266758 Z M15.7261972,12.9066116 C15.6759821,12.7669008 15.5083526,12.7166345 15.3540153,12.809775 C14.9102033,13.0744123 14.8526037,13.9762489 15.0497715,14.6947612 C15.1922935,15.21073 15.4426301,15.5182415 15.7151203,15.5182415 C15.9071189,15.5182415 16.0939482,15.425101 16.2623162,15.2454729 C16.6994821,14.7856841 16.9941261,13.7825758 16.9483418,12.9132645 C16.8420041,10.8331267 15.6656438,10.7266804 15.4293378,10.7266804 C14.637713,10.7266804 13.7899655,11.9981221 13.7899655,13.8868044 C13.7899655,15.7200459 14.4929756,17.1718549 15.4249071,17.2605601 C15.7970889,17.2975207 16.1995474,17.3174793 16.584283,17.3174793 C18.0700565,17.3174793 20.0912105,17.0469284 21.2793862,15.7607025 C22.0636264,14.9091322 22.3944547,13.6997842 22.2511943,12.1740542 C22.0333497,9.74722681 20.7698516,7.68778696 18.8705427,6.64919651 C19.1031564,6.45330579 19.3667852,6.35277319 19.654783,6.35277319 C20.9906499,6.35277319 22.5642996,8.47356749 22.6957448,9.13368228 C22.7223292,9.26600092 22.7895287,9.3584022 22.8700204,9.39018825 L22.926143,9.40645087 L22.9815272,9.39018825 C23.0634959,9.3584022 23.12848,9.26600092 23.1550644,9.13368228 C23.2887249,8.47356749 24.8579439,6.35277319 26.1975031,6.35277319 C26.4847624,6.35277319 26.7469143,6.45330579 26.9810049,6.64919651 C25.0809576,7.68778696 23.8174594,9.74722681 23.5973995,12.1740542 C23.4585698,13.6997842 23.7857058,14.9091322 24.5728999,15.7607025 C25.7603371,17.0469284 27.7814912,17.3174793 29.2665262,17.3174793 C29.6564309,17.3174793 30.0470741,17.2975207 30.4266405,17.2605601 C31.3570951,17.1718549 32.0608436,15.7200459 32.0608436,13.8868044 C32.0608436,11.9981221 31.2123577,10.7266804 30.419256,10.7266804 C30.1851654,10.7266804 29.0095435,10.8331267 28.9017289,12.9132645 C28.8574215,13.7825758 29.1528039,14.7856841 29.588493,15.2454729 C29.7590763,15.425101 29.9429518,15.5182415 30.1356889,15.5182415 C30.4103945,15.5182415 30.6570388,15.21073 30.7995608,14.6947612 C31.0004208,13.9762489 30.939129,13.0744123 30.4967938,12.809775 C30.3439334,12.7166345 30.1755655,12.7669008 30.1231351,12.9066116 C30.090643,12.996056 30.1091044,13.1342883 30.2501495,13.2533012 C30.3793793,13.3619651 30.4362404,13.9282002 30.3121798,14.2704545 C30.2774724,14.3680303 30.216919,14.4811295 30.1150121,14.4811295 C29.9732285,14.4811295 29.4356326,14.2401469 29.4356326,13.0596281 C29.4356326,11.772663 30.1091044,11.6329522 30.3993176,11.6329522 C30.6932231,11.6329522 31.5055247,12.1674013 31.5055247,13.8868044 C31.5055247,14.5476584 31.3681719,15.2521258 31.1577119,15.6808678 C30.7596842,16.4939991 30.0972891,16.6972819 29.3706484,16.2507989 C28.1795189,15.3822268 27.7792758,13.3944904 28.0798274,11.9774242 C28.2149648,11.3313545 28.7547762,9.83001837 30.7980839,9.83001837 L30.8534681,9.83001837 C33.5458786,9.86476125 35.9894295,11.2426492 37.985476,13.8350597 C37.6155096,14.7280257 36.2899811,17.0986731 32.0829973,19.5173691 C30.947252,18.799596 29.5146474,18.3346327 28.1433346,18.2437098 C27.9646282,18.2318825 27.7785373,18.226708 27.5954003,18.226708 C26.3016254,18.226708 25.2050182,18.5216529 24.3233018,18.7582002 C23.774629,18.9060422 23.2998018,19.0331864 22.9638043,19.0442746 L22.9246661,19.0442746 C22.5679919,19.0331864 22.0953801,18.9060422 21.5415381,18.7582002 C20.662037,18.5216529 19.5661683,18.226708 18.2709165,18.226708 C18.0877794,18.226708 17.9031654,18.2318825 17.7237206,18.2437098 C16.3524078,18.3346327 14.9161109,18.799596 13.7811041,19.5173691 C9.52612067,17.0868457 8.22053048,14.7295041 7.86164087,13.8402342 C9.85916432,11.2441276 12.3041921,9.86476125 14.998818,9.83001837 L15.0527253,9.83001837 C17.0975099,9.83001837 17.6358443,11.3313545 17.7724587,11.9774242 C18.0700565,13.3944904 17.6705518,15.3822268 16.4860684,16.2485813 C15.7461355,16.7031956 15.0896481,16.4939991 14.6938357,15.6808678 C14.4818988,15.2521258 14.3474998,14.5476584 14.3474998,13.8868044 C14.3474998,12.1674013 15.1568476,11.6329522 15.4537069,11.6329522 C15.7424432,11.6329522 16.4144381,11.772663 16.4144381,13.0596281 C16.4144381,14.2401469 15.8820114,14.4811295 15.7380124,14.4811295 C15.636844,14.4811295 15.5718598,14.3680303 15.5386293,14.2704545 C15.4138303,13.9282002 15.4714298,13.3619651 15.6013981,13.2533012 C15.7439201,13.1342883 15.7609046,12.996056 15.7261972,12.9066116 L15.7261972,12.9066116 Z M8.79874152,55.5841781 C9.68488871,55.4015932 11.785796,54.8442287 13.2161852,53.5047796 C15.4293378,57.3124518 17.8920886,60.1894582 20.4286849,61.925124 L20.4205619,61.9465611 C19.7603822,63.8633333 17.9459959,65.3787144 17.3404619,65.8444169 C14.0875633,63.6644858 11.1632776,60.1584114 8.79874152,55.5841781 L8.79874152,55.5841781 Z M22.9224508,66.1430579 L22.9054663,66.1430579 L22.8700204,66.1430579 L22.8700204,66.1452755 C22.3132246,66.1563636 20.9847422,66.4047383 20.7875745,67.430023 C20.7846207,67.4514601 20.7809284,67.4684619 20.778713,67.4884206 L20.7602516,67.602259 L20.6996982,67.5837787 C19.6540446,67.2001286 18.631283,66.6819421 17.6387982,66.0454821 C18.3248238,65.5139899 20.0313956,64.0503535 20.7188981,62.1343205 L20.7225904,62.12545 C21.2675709,62.4795317 21.8169821,62.7840863 22.3671319,63.0280257 L22.9335276,63.2749219 L23.5014003,63.0258081 C24.0714883,62.772259 24.6408378,62.4529201 25.2064951,62.0825758 C25.8681517,63.9838246 27.5385391,65.4489394 28.2592722,66.0144353 C27.2512798,66.6656795 26.2137491,67.1949541 25.1503725,67.5837787 L25.091296,67.602259 L25.0728346,67.4854637 C25.0713577,67.4684619 25.0684039,67.4514601 25.0661885,67.430023 C24.86459,66.4047383 23.5383231,66.1563636 22.9734042,66.1452755 L22.9734042,66.1430579 L22.9224508,66.1430579 Z M28.5568699,65.8133701 C27.8996441,65.303315 26.1295651,63.7842378 25.5040929,61.8800321 C28.0104125,60.1451056 30.4465788,57.2910147 32.6383162,53.5262167 C34.0864284,54.8693618 36.181428,55.4119421 37.0505907,55.5878742 C34.6971315,60.1391919 31.7905687,63.6312213 28.5568699,65.8133701 L28.5568699,65.8133701 Z M44.9254854,26.2848393 C44.9520698,26.5391276 44.9675774,26.7963728 44.9897311,27.0521396 C44.3361975,27.0691414 43.6900485,27.2058953 43.0896838,27.4498347 C42.6082105,21.4910606 40.9983764,16.5945317 38.6183328,13.3190909 C39.0746986,12.7661616 39.655125,12.3019376 40.2872433,11.9862948 C42.7204558,15.4472773 44.3243822,20.3778099 44.9254854,26.2848393 L44.9254854,26.2848393 Z M45.5878804,26.1946556 C44.9505929,19.9793756 43.2388519,14.7997291 40.6343176,11.2167769 C38.0231373,7.62495409 34.5834093,5.7214876 30.6769771,5.70966024 C29.9872592,3.56595041 27.4063555,3.23995868 27.0659273,3.20521579 C26.9558974,2.84891644 25.9796586,0.0428741965 22.9815272,0.00221763085 L22.9815272,0 L22.9276199,0 L22.926143,0 L22.9224508,0 L22.8700204,0 L22.8700204,0.00221763085 C19.8711506,0.0428741965 18.8978656,2.84891644 18.7856203,3.20521579 C18.4444536,3.23995868 15.86355,3.56595041 15.1694013,5.70966024 C11.2666614,5.7214876 7.82693344,7.62495409 5.21944535,11.2167769 C2.61269571,14.7997291 0.898739358,19.9793756 0.262190296,26.1946556 C-0.690417929,35.4710055 0.979231061,45.8931313 4.83987897,54.7902663 C8.94643272,64.2551148 14.7920503,70.1214876 21.743875,71.7529247 C21.8354435,71.8985491 22.4011008,72.7575115 22.8700204,72.8314325 L22.9246661,72.836607 L22.926143,72.836607 L22.9276199,72.836607 L22.9815272,72.8314325 C23.4482314,72.7575115 24.0138887,71.8985491 24.1069342,71.7529247 C31.0580204,70.1214876 36.9065918,64.2551148 41.0131456,54.7902663 C44.8737935,45.8946097 46.5419655,35.4710055 45.5878804,26.1946556 L45.5878804,26.1946556 Z" id="Fill-19" fill="#FFFFFF"></path>
                    <path d="M37.1778267,32.874899 C37.0825659,30.6203076 36.4150017,23.0337925 31.7590367,20.065124 C30.7074753,19.3946602 29.3775161,18.9629614 28.1029411,18.8786915 C27.9338346,18.8698209 27.7639898,18.863168 27.5948833,18.863168 C26.3852924,18.863168 25.3337311,19.1462856 24.4859836,19.3724839 C23.9011265,19.5314141 23.3908534,19.6689073 22.9640258,19.6814738 L22.9064263,19.6814738 C22.4744295,19.6689073 21.9656333,19.5314141 21.3792993,19.3724839 C20.5322903,19.1462856 19.4807289,18.863168 18.2703996,18.863168 C18.1027701,18.863168 17.9307098,18.8698209 17.7645572,18.8786915 C16.4899822,18.9629614 15.1570691,19.3946602 14.1069847,20.065124 C9.45249661,23.0337925 8.78640931,30.6203076 8.69041003,32.874899 C8.35736638,40.8295409 10.763256,47.1460927 11.5423271,48.8595822 C14.7708566,55.9766988 18.7740266,60.7320386 22.6235976,62.4433104 L22.9337491,62.5822819 L23.2424237,62.4433104 C27.0905179,60.7320386 31.0973801,55.9766988 34.3251712,48.8595822 C35.10055,47.1460927 37.5093934,40.8295409 37.1778267,32.874899" id="Fill-21" fill="#BC1E40"></path>
                    <g id="Group-25" transform="translate(8.447137, 18.619450)">
                        <mask id="mask-3" fill="white">
                            <use xlink:href="#path-2"></use>
                        </mask>
                        <g id="Clip-24"></g>
                        <path d="M28.7304683,14.2556703 C28.6352074,12.001079 27.9676432,4.41456382 23.3116782,1.44589532 C22.2608553,0.774692378 20.9308961,0.342993572 19.6555826,0.25946281 C19.4872146,0.249853076 19.3166313,0.243939394 19.1482633,0.243939394 C17.937934,0.243939394 16.8863727,0.526317723 16.0393636,0.75325528 C15.4545065,0.912185491 14.9434949,1.04893939 14.5166674,1.06224518 L14.4590678,1.06224518 C14.0270711,1.04893939 13.5190133,0.912185491 12.9326793,0.75325528 C12.0849318,0.526317723 11.0333705,0.243939394 9.82377958,0.243939394 C9.65541162,0.243939394 9.48335137,0.249853076 9.31719877,0.25946281 C8.04336219,0.342993572 6.70971068,0.774692378 5.65962626,1.44589532 C1.00513817,4.41456382 0.339050866,12.001079 0.243051587,14.2556703 C-0.0899920635,22.209573 2.316636,28.5261249 3.09496861,30.2403535 C6.3234982,37.3574702 10.3266681,42.1120707 14.1762392,43.8240817 L14.4863907,43.962314 L14.7950653,43.8240817 C18.6431595,42.1120707 22.6500216,37.3574702 25.8778128,30.2403535 C26.65393,28.5261249 29.062035,22.209573 28.7304683,14.2556703" id="Fill-23" mask="url(#mask-3)"></path>
                    </g>
                    <path d="M29.87686,26.8665978 L29.87686,28.4196786 L30.1899654,28.3716299 C30.1973499,28.3701515 30.2549495,28.3634986 30.3391335,28.3634986 C30.5097168,28.3634986 30.8250375,28.393067 31.0207284,28.5956107 C31.2082962,28.7848485 31.2688496,29.1049265 31.2009116,29.5233196 C31.1964809,29.538843 28.0794582,43.0671304 27.4872165,45.6432782 C26.8048831,42.3841001 23.091188,24.5883517 23.091188,24.5883517 L23.0749419,24.512213 L22.3379628,24.512213 L22.3246706,24.5920478 C22.3246706,24.5920478 19.6396447,41.9183976 19.1027872,45.3845546 C18.4019924,42.3826217 15.4075534,29.5403214 15.4075534,29.5403214 C15.3994304,29.4575298 15.3942612,29.3784343 15.3942612,29.3082094 C15.3942612,28.9459963 15.481399,28.6754454 15.6512439,28.5113407 C15.8823806,28.2947521 16.2250242,28.3243205 16.2553009,28.3257989 L16.5661908,28.3671947 L16.5661908,26.8665978 L11.35343,26.8665978 L11.35343,28.333191 L11.5816129,28.3701515 C11.696812,28.393067 12.2772385,28.5342562 12.3724993,29.067966 C12.3732377,29.0760973 18.4765765,55.2766667 18.7357745,56.3928742 L18.752759,56.466056 L19.6684444,56.466056 L19.6787828,56.3854821 C19.7075826,56.2051148 22.1910101,39.9410101 22.6562374,36.8954637 C23.2462637,39.9306612 26.4068553,56.2088108 26.4423012,56.3884389 L26.4563319,56.466056 L27.2745411,56.466056 L33.3313571,29.0517034 C33.4694484,28.4832507 33.9671677,28.4218962 34.1746739,28.4218962 C34.2079044,28.4218962 34.2271043,28.4218962 34.2352273,28.4233747 L34.5379942,28.4477686 L34.5379942,26.8665978 L29.87686,26.8665978 Z" id="Fill-26" fill="#FFFFFF"></path>
                </g>
            </g>
        </g>
    </g>
</svg>