<svg width="60" height="86" viewBox="0 0 60 86" xmlns="http://www.w3.org/2000/svg" xmlns:xlink="http://www.w3.org/1999/xlink"><title>hybrid_logo</title><defs><filter x="-50%" y="-50%" width="200%" height="200%" filterUnits="objectBoundingBox" id="a"><feOffset dy="4" in="SourceAlpha" result="shadowOffsetOuter1"/><feGaussianBlur stdDeviation="3.5" in="shadowOffsetOuter1" result="shadowBlurOuter1"/><feColorMatrix values="0 0 0 0 0 0 0 0 0 0 0 0 0 0 0 0 0 0 0.35 0" in="shadowBlurOuter1" result="shadowMatrixOuter1"/><feMerge><feMergeNode in="shadowMatrixOuter1"/><feMergeNode in="SourceGraphic"/></feMerge></filter><path id="b" d="M28.73 14.256c-.095-2.255-.762-9.841-5.418-12.81A7.956 7.956 0 0 0 19.656.259a8.942 8.942 0 0 0-.508-.015c-1.21 0-2.262.282-3.109.51-.584.158-1.096.295-1.522.308h-.058c-.432-.013-.94-.15-1.526-.309-.848-.227-1.9-.51-3.11-.51-.168 0-.34.007-.506.016C8.043.343 6.71.775 5.66 1.446 1.005 4.415.34 12 .243 14.256-.09 22.21 2.317 28.526 3.095 30.24c3.228 7.117 7.232 11.872 11.081 13.584l.31.138.31-.138c3.847-1.712 7.854-6.467 11.082-13.584.776-1.714 3.184-8.03 2.852-15.984z"/></defs><g fill="none" fill-rule="evenodd" filter="url(#a)"><path d="M47.507 57.279a47.381 47.381 0 0 1-.753 1.65 5.489 5.489 0 0 0-1.862-.822c.373-.754.735-1.53 1.077-2.337 3.144-7.41 4.67-16.291 4.19-24.362-.012-.2-.028-.396-.043-.592a5.121 5.121 0 0 1 1.903-.411c.701 8.892-.92 18.618-4.512 26.874zM37.66 70.757a5.534 5.534 0 0 0-1.386-1.784c3.236-2.326 6.13-5.923 8.46-10.542a5.118 5.118 0 0 1 1.861.816c-2.474 5.069-5.494 8.948-8.935 11.51zm-5.641 1.736a7.705 7.705 0 0 0 .128-1.316c1.317-.472 2.598-1.147 3.833-2a5.153 5.153 0 0 1 1.394 1.8c-1.816 1.305-3.745 2.248-5.774 2.808.097-.22.318-.763.419-1.292zm-1.784 2.419c-.047.053-.173.188-.309.196-.136-.008-.26-.143-.31-.196-.64-.801-1.654-2.432-1.277-4.374.107-.559 1.01-.824 1.587-.826.575.002 1.479.267 1.586.826.376 1.942-.64 3.573-1.277 4.374zm-7.72-3.91c.317-.686.8-1.323 1.385-1.804 1.226.842 2.496 1.51 3.804 1.979 0 .151.013.728.128 1.316.103.529.322 1.071.42 1.292-2.014-.556-3.93-1.491-5.736-2.782zm-9.3-11.838a5.221 5.221 0 0 1 1.885-.768c2.34 4.65 5.25 8.266 8.504 10.598a5.563 5.563 0 0 0-1.376 1.792c-3.476-2.578-6.523-6.494-9.013-11.622zm-5.383-28.76a5.268 5.268 0 0 1 1.904.412c-.015.198-.03.392-.042.592-.48 8.07 1.046 16.951 4.188 24.362a43.84 43.84 0 0 0 1.06 2.302 5.567 5.567 0 0 0-1.883.773 47.338 47.338 0 0 1-.715-1.566c-3.59-8.256-5.213-17.982-4.512-26.874zm4.73-15.418a5.16 5.16 0 0 1 1.668 1.336c-2.378 3.276-3.986 8.17-4.468 14.129a5.615 5.615 0 0 0-1.9-.397c.023-.257.039-.514.065-.77.6-5.906 2.204-10.837 4.634-14.298zm8.517-5.535a9.698 9.698 0 0 1 1.002-.055c4.411 0 6.28 3.149 6.54 5.848.115 1.184-.156 2.143-.8 2.85-1.061 1.155-2.822 1.214-3.164 1.214-.133 0-.218-.025-.242-.07-.024-.05.022-.13.038-.154.861-1.108 1.254-2.803.974-4.223-.374-1.905-1.648-3.043-3.41-3.043-2.927.004-5.523 1.521-7.573 4.21a5.488 5.488 0 0 0-1.677-1.334c2.308-3.142 5.103-4.907 8.312-5.243zm5.31-2.734c1.554 0 2.788.883 3.378 2.424.031.095.06.17.103.203l.052.022h.006l.054-.02c.044-.035.07-.107.1-.202.596-1.544 1.825-2.427 3.38-2.427 1.541 0 2.977.876 3.367 2.047a19.38 19.38 0 0 0-.914.149c-.339.063-.747.2-.87.248-.278-.35-.904-.714-1.654-.714-.874 0-2.17.477-3.396 2.746a.096.096 0 0 1-.06.053l-.009.002-.01-.002a.109.109 0 0 1-.063-.054c-1.223-2.268-2.52-2.745-3.394-2.745-.75 0-1.374.365-1.653.714a6.062 6.062 0 0 0-.871-.248 19.698 19.698 0 0 0-.914-.15c.392-1.17 1.825-2.046 3.369-2.046zm5.685-.235a3.699 3.699 0 0 0-2.033 1.772c-.054.097-.094.131-.115.14-.021-.009-.065-.043-.115-.14a3.71 3.71 0 0 0-2.032-1.772 1.43 1.43 0 0 1 .882-.314c.625 0 1.096.413 1.15.583.013.039.027.078.059.103l.056.025.056-.025c.033-.025.045-.064.059-.103.053-.17.523-.583 1.149-.583.31 0 .611.107.884.314zM29.926 3.56c2.468.006 3.205 2.231 3.316 2.627a2.89 2.89 0 0 0-.273.032c-.14.023-.305.062-.375.077-.115-.158-.67-.86-1.602-.86-.341 0-.696.098-1.052.29l-.014.008-.013-.008a2.23 2.23 0 0 0-1.055-.29c-.927 0-1.486.702-1.6.86-.072-.015-.235-.054-.375-.077a2.88 2.88 0 0 0-.273-.032c.11-.396.848-2.62 3.316-2.627zm7.843 5.836c.325 0 .663.02 1.005.055 3.207.336 6.007 2.102 8.31 5.246a5.604 5.604 0 0 0-1.68 1.328c-2.051-2.687-4.646-4.203-7.573-4.207-1.76 0-3.034 1.138-3.41 3.043-.278 1.42.114 3.115.975 4.223.017.024.065.104.039.154-.022.045-.107.07-.237.07-.343 0-2.106-.06-3.167-1.215-.647-.706-.917-1.665-.802-2.85.261-2.698 2.129-5.847 6.54-5.847zm8.194 42.967c-.334-1.14-1.082-1.57-1.303-1.674-.416-.198-.823-.3-1.211-.3-.358 0-.667.09-.937.221.86-2.343 2.283-7.098 2.33-12.957l.008-.024c.267-.767 1.042-1.245 2.02-1.245 1.076 0 2.311.62 2.655 2.002l.001.004c-.399 5.35-1.573 10.766-3.43 15.626.057-.69-.01-1.235-.133-1.653zM10.345 38.386c.341-1.382 1.578-2.002 2.655-2.002.978 0 1.752.478 2.02 1.245l.005.016c.043 5.862 1.47 10.623 2.33 12.966a2.132 2.132 0 0 0-.943-.222c-.387 0-.797.102-1.213.3-.218.103-.953.529-1.286 1.645-.13.436-.201 1.014-.127 1.756-1.868-4.862-3.054-10.281-3.458-15.637l.017-.067zm4.71-2.538c-.012.258-.02.515-.024.77-.477-.537-1.2-.84-2.03-.84-.97 0-2.093.446-2.756 1.402-.1-1.91-.101-3.807.007-5.659.917.472 2.733 1.223 5.094 1.39a28.236 28.236 0 0 0-.292 2.937zm.352 21.958c-.724-1.754-1.365-3.928-.884-5.37.195-.588.568-1.013 1.107-1.268.254-.12.51-.181.762-.181.816 0 1.363.612 1.493 1.047a1.262 1.262 0 0 1-.586 1.449c-.221.124-.43.19-.617.19a.766.766 0 0 1-.733-.526c-.067-.278.026-.562.23-.692a.299.299 0 0 1 .435.106c.07.122.251.127.342.016a.27.27 0 0 0 .047-.241c-.077-.359-.582-.545-.898-.46-.545.145-.932.805-.81 1.385.056.268.412 1.034 1.293 1.034.185 0 .382-.035.592-.102.735-.242 1.084-.666 1.242-1.09a48.25 48.25 0 0 0 1.618 3.099c-1.415 1.363-3.606 1.908-4.407 2.068-.078-.152-.151-.31-.226-.464zm-.786-40.638c.469 1.083 1.86 3.284 5.85 5.574-3.23 2.27-4.545 6.62-5.071 9.83-2.427-.17-4.27-.976-5.12-1.424.35-5.234 1.632-9.755 3.725-13.078.199-.316.406-.613.616-.902zM44.5 57.692c-.094.193-.187.391-.284.582-.785-.156-2.975-.696-4.402-2.052.56-.98 1.103-2.018 1.627-3.115.158.422.51.845 1.243 1.086.206.067.406.102.59.102.875 0 1.234-.766 1.29-1.034.122-.58-.265-1.24-.808-1.385-.316-.084-.821.101-.899.46a.275.275 0 0 0 .05.24c.088.112.271.107.34-.015a.3.3 0 0 1 .433-.106c.201.13.298.414.229.692a.761.761 0 0 1-.73.525c-.19 0-.396-.065-.614-.19a1.262 1.262 0 0 1-.588-1.448c.13-.435.677-1.047 1.491-1.047.253 0 .51.06.763.181.536.255.908.68 1.101 1.267.472 1.412-.13 3.523-.833 5.257zm-.035-25.124c-.528-3.213-1.843-7.563-5.081-9.832 3.985-2.29 5.377-4.49 5.843-5.571.21.29.418.587.618.905 2.095 3.323 3.377 7.843 3.726 13.076-.846.447-2.684 1.25-5.106 1.422zm.37 4.059a28.156 28.156 0 0 0-.316-3.722c2.361-.17 4.168-.918 5.08-1.386.106 1.845.105 3.732.007 5.635-.669-.938-1.778-1.375-2.738-1.375-.832 0-1.553.3-2.033.848zm-22.11-20.72c-.05-.14-.218-.19-.372-.097-.444.264-.501 1.166-.304 1.885.142.516.393.823.665.823.192 0 .379-.093.547-.273.437-.46.732-1.462.686-2.332-.106-2.08-1.282-2.186-1.519-2.186-.791 0-1.639 1.271-1.639 3.16 0 1.833.703 3.285 1.635 3.374.372.037.775.056 1.16.056 1.485 0 3.506-.27 4.694-1.556.785-.852 1.115-2.061.972-3.587-.218-2.427-1.481-4.486-3.38-5.525.232-.196.496-.296.784-.296 1.336 0 2.91 2.12 3.04 2.78.027.133.095.225.175.257l.056.016.056-.016c.081-.032.146-.124.173-.256.134-.66 1.703-2.781 3.043-2.781.287 0 .549.1.783.296-1.9 1.039-3.164 3.098-3.384 5.525-.138 1.526.189 2.735.976 3.587 1.187 1.286 3.208 1.556 4.694 1.556.39 0 .78-.02 1.16-.056.93-.09 1.634-1.541 1.634-3.374 0-1.889-.849-3.16-1.642-3.16-.234 0-1.41.106-1.517 2.186-.045.87.25 1.873.686 2.332.171.18.355.273.548.273.274 0 .521-.307.664-.823.2-.719.14-1.62-.303-1.885-.153-.093-.321-.043-.374.097-.032.09-.014.227.127.346.13.109.186.675.062 1.017-.035.098-.095.211-.197.211-.142 0-.68-.24-.68-1.421 0-1.287.674-1.427.964-1.427.294 0 1.107.534 1.107 2.254 0 .66-.138 1.365-.348 1.794-.398.813-1.06 1.016-1.787.57-1.191-.869-1.592-2.857-1.291-4.274.135-.646.675-2.147 2.718-2.147h.055c2.693.035 5.136 1.413 7.132 4.005-.37.893-1.695 3.264-5.902 5.682a8.668 8.668 0 0 0-3.94-1.273 8.378 8.378 0 0 0-.548-.017c-1.293 0-2.39.295-3.272.531-.548.148-1.023.275-1.36.286h-.038c-.357-.01-.83-.138-1.383-.286-.88-.236-1.976-.531-3.271-.531-.183 0-.368.005-.547.017a8.677 8.677 0 0 0-3.943 1.273c-4.255-2.43-5.56-4.787-5.92-5.677 1.998-2.596 4.443-3.975 7.138-4.01h.054c2.045 0 2.583 1.501 2.72 2.147.297 1.417-.102 3.405-1.287 4.272-.74.454-1.396.245-1.792-.568-.212-.429-.347-1.133-.347-1.794 0-1.72.81-2.254 1.107-2.254.288 0 .96.14.96 1.427 0 1.18-.532 1.421-.676 1.421-.101 0-.166-.113-.2-.21-.124-.343-.067-.909.063-1.018.143-.119.16-.257.125-.346zM15.8 58.584c.886-.182 2.987-.74 4.417-2.08 2.213 3.808 4.676 6.685 7.213 8.421l-.008.022c-.66 1.916-2.475 3.432-3.08 3.897-3.253-2.18-6.178-5.686-8.542-10.26zm14.123 10.56H29.87v.001c-.557.011-1.885.26-2.082 1.285l-.01.058-.018.114-.06-.018a15.706 15.706 0 0 1-3.061-1.539c.686-.531 2.392-1.995 3.08-3.91l.004-.01c.545.355 1.094.66 1.644.903l.567.247.567-.25c.57-.253 1.14-.572 1.705-.942.662 1.9 2.333 3.366 3.053 3.931a15.64 15.64 0 0 1-3.109 1.57l-.059.018-.018-.117-.007-.055c-.201-1.025-1.528-1.274-2.093-1.285v-.002h-.05zm5.635-.33c-.657-.51-2.427-2.03-3.053-3.934 2.506-1.735 4.943-4.589 7.134-8.354 1.448 1.343 3.543 1.886 4.413 2.062-2.354 4.551-5.26 8.043-8.494 10.225zm16.368-39.53c.027.255.043.512.065.768-.654.017-1.3.154-1.9.398-.482-5.959-2.092-10.855-4.472-14.13a5.208 5.208 0 0 1 1.67-1.334c2.432 3.461 4.036 8.392 4.637 14.299zm.663-.09c-.637-6.215-2.35-11.394-4.954-14.977-2.61-3.592-6.05-5.496-9.957-5.507-.69-2.144-3.27-2.47-3.611-2.505-.11-.356-1.086-3.162-4.084-3.203V3H29.87v.002c-2.999.04-3.972 2.847-4.084 3.203-.342.035-2.922.361-3.617 2.505-3.902.011-7.342 1.915-9.95 5.507C9.613 17.8 7.9 22.979 7.262 29.195 6.31 38.47 7.98 48.893 11.84 57.79c4.106 9.465 9.952 15.331 16.904 16.963.091.146.657 1.005 1.126 1.078l.055.006h.003l.054-.006c.466-.073 1.032-.932 1.125-1.078 6.951-1.632 12.8-7.498 16.906-16.963 3.86-8.895 5.529-19.319 4.575-28.595z" fill="#FFF"/><path d="M44.178 35.875c-.095-2.255-.763-9.841-5.419-12.81a7.98 7.98 0 0 0-3.656-1.186 9.715 9.715 0 0 0-.508-.016c-1.21 0-2.261.283-3.109.51-.585.158-1.095.296-1.522.308h-.058c-.432-.012-.94-.15-1.527-.309-.847-.226-1.898-.509-3.109-.509-.167 0-.34.007-.505.016-1.275.084-2.608.516-3.658 1.186-4.655 2.969-5.32 10.555-5.417 12.81-.333 7.955 2.073 14.271 2.852 15.985 3.229 7.117 7.232 11.872 11.082 13.583l.31.14.308-.14c3.849-1.711 7.855-6.466 11.083-13.583.776-1.714 3.184-8.03 2.853-15.985" fill="#BC1E40"/><g transform="translate(15.447 21.62)"><mask id="c" fill="#fff"><use xlink:href="#b"/></mask><path d="M28.73 14.256c-.095-2.255-.762-9.841-5.418-12.81A7.956 7.956 0 0 0 19.656.259a8.942 8.942 0 0 0-.508-.015c-1.21 0-2.262.282-3.109.51-.584.158-1.096.295-1.522.308h-.058c-.432-.013-.94-.15-1.526-.309-.848-.227-1.9-.51-3.11-.51-.168 0-.34.007-.506.016C8.043.343 6.71.775 5.66 1.446 1.005 4.415.34 12 .243 14.256-.09 22.21 2.317 28.526 3.095 30.24c3.228 7.117 7.232 11.872 11.081 13.584l.31.138.31-.138c3.847-1.712 7.854-6.467 11.082-13.584.776-1.714 3.184-8.03 2.852-15.984" mask="url(#c)"/></g><path d="M36.877 29.867v1.553l.313-.048c.007-.002.065-.009.15-.009.17 0 .485.03.68.233.188.189.249.509.18.927l-3.713 16.12c-.682-3.259-4.396-21.055-4.396-21.055l-.016-.076h-.737l-.013.08-3.222 20.793-3.695-15.845a2.435 2.435 0 0 1-.014-.232c0-.362.087-.633.257-.797.231-.216.574-.187.604-.185l.311.041v-1.5h-5.213v1.466l.229.037c.115.023.695.164.79.698l6.364 27.325.017.073h.915l.01-.08c.03-.18 2.513-16.445 2.978-19.49.59 3.035 3.75 19.313 3.786 19.492l.014.078h.819l6.056-27.414c.138-.569.636-.63.844-.63l.06.001.303.025v-1.581h-4.661z" fill="#FFF"/></g></svg>