<?xml version="1.0" encoding="UTF-8" standalone="no"?>
<svg width="42px" height="66px" viewBox="0 0 42 66" version="1.1" xmlns="http://www.w3.org/2000/svg" xmlns:xlink="http://www.w3.org/1999/xlink">
    <!-- Generator: Sketch 3.7 (28169) - http://www.bohemiancoding.com/sketch -->
    <title>hybrid_logo</title>
    <desc>Created with Sketch.</desc>
    <defs></defs>
    <g id="Home-page" stroke="none" stroke-width="1" fill="none" fill-rule="evenodd">
        <g id="Desktop-HD-Alt" transform="translate(-181.000000, -60.000000)">
            <g id="uw-logo-text-+-Wisconsin-+-UNIVERSITY-OF-WISCON" transform="translate(178.000000, 57.000000)">
                <g id="hybrid_logo" transform="translate(3.000000, 3.000000)">
                    <path d="M40.946,23.775 C40.374,18.197 38.837,13.55 36.497,10.335 C34.152,7.112 31.062,5.404 27.554,5.394 C26.934,3.471 24.616,3.178 24.31,3.147 C24.211,2.827 23.335,0.309 20.642,0.273 L20.642,0.271 L20.541,0.271 L20.541,0.273 C17.848,0.309 16.974,2.827 16.873,3.147 C16.566,3.178 14.248,3.471 13.626,5.394 C10.12,5.404 7.029,7.112 4.688,10.335 C2.346,13.55 0.808,18.197 0.235,23.775 C-0.62,32.097 0.879,41.45 4.347,49.433 C8.036,57.925 13.286,63.189 19.53,64.652 C19.612,64.783 20.121,65.554 20.541,65.62 L20.59,65.625 L20.592,65.625 L20.594,65.625 L20.642,65.62 C21.061,65.554 21.569,64.783 21.653,64.652 C27.896,63.189 33.149,57.925 36.836,49.433 C40.304,41.45 41.803,32.097 40.946,23.775 L40.946,23.775 Z M40.351,23.855 C40.375,24.083 40.389,24.315 40.409,24.544 C39.821,24.559 39.241,24.682 38.703,24.901 C38.27,19.554 36.824,15.161 34.687,12.222 C35.096,11.725 35.618,11.309 36.186,11.026 C38.371,14.131 39.811,18.555 40.351,23.855 L40.351,23.855 Z M34.996,44.562 C34.695,43.54 34.024,43.154 33.825,43.061 C33.452,42.883 33.087,42.791 32.738,42.791 C32.416,42.791 32.138,42.872 31.896,42.99 C32.668,40.887 33.946,36.62 33.988,31.365 L33.996,31.343 C34.236,30.654 34.932,30.226 35.81,30.226 C36.777,30.226 37.887,30.782 38.195,32.022 L38.196,32.026 C37.838,36.825 36.784,41.685 35.115,46.046 C35.167,45.427 35.106,44.938 34.996,44.562 L34.996,44.562 Z M20.588,59.619 L20.573,59.619 L20.541,59.619 L20.541,59.62 C20.042,59.632 18.848,59.854 18.671,60.773 C18.668,60.794 18.665,60.808 18.663,60.826 L18.647,60.928 L18.592,60.911 C17.652,60.568 16.735,60.103 15.843,59.532 C16.459,59.055 17.991,57.741 18.609,56.022 L18.612,56.014 C19.103,56.331 19.596,56.605 20.09,56.824 L20.599,57.046 L21.108,56.822 C21.621,56.594 22.132,56.308 22.64,55.975 C23.234,57.681 24.735,58.996 25.382,59.503 C24.476,60.087 23.545,60.562 22.59,60.911 L22.536,60.928 L22.519,60.823 C22.518,60.808 22.516,60.794 22.514,60.773 C22.333,59.854 21.141,59.632 20.634,59.62 L20.634,59.619 L20.588,59.619 L20.588,59.619 Z M6.095,46.112 C4.417,41.75 3.352,36.888 2.989,32.081 L3.003,32.022 C3.311,30.782 4.422,30.226 5.388,30.226 C6.267,30.226 6.962,30.654 7.204,31.343 L7.207,31.357 C7.247,36.617 8.528,40.888 9.3,42.991 C9.057,42.872 8.777,42.791 8.454,42.791 C8.107,42.791 7.737,42.883 7.364,43.061 C7.168,43.152 6.508,43.535 6.209,44.536 C6.092,44.927 6.029,45.446 6.095,46.112 L6.095,46.112 Z M14.125,11.852 C14.08,11.726 13.929,11.681 13.79,11.765 C13.392,12.002 13.34,12.811 13.518,13.456 C13.645,13.919 13.87,14.195 14.115,14.195 C14.287,14.195 14.455,14.111 14.607,13.95 C14.999,13.538 15.264,12.637 15.222,11.857 C15.127,9.991 14.071,9.896 13.859,9.896 C13.147,9.896 12.386,11.036 12.386,12.731 C12.386,14.376 13.017,15.678 13.855,15.758 C14.189,15.792 14.55,15.81 14.896,15.81 C16.231,15.81 18.046,15.567 19.113,14.412 C19.818,13.649 20.114,12.564 19.986,11.194 C19.79,9.017 18.655,7.169 16.949,6.237 C17.158,6.061 17.395,5.971 17.653,5.971 C18.854,5.971 20.267,7.874 20.385,8.467 C20.409,8.585 20.469,8.668 20.541,8.698 L20.592,8.711 L20.642,8.698 C20.715,8.668 20.773,8.585 20.798,8.467 C20.917,7.874 22.327,5.971 23.53,5.971 C23.788,5.971 24.024,6.061 24.233,6.237 C22.528,7.169 21.392,9.017 21.195,11.194 C21.07,12.564 21.364,13.649 22.071,14.412 C23.137,15.567 24.953,15.81 26.287,15.81 C26.636,15.81 26.987,15.792 27.328,15.758 C28.165,15.678 28.797,14.376 28.797,12.731 C28.797,11.036 28.035,9.896 27.322,9.896 C27.112,9.896 26.056,9.991 25.96,11.857 C25.919,12.637 26.185,13.538 26.576,13.95 C26.729,14.111 26.895,14.195 27.067,14.195 C27.314,14.195 27.536,13.919 27.664,13.456 C27.843,12.811 27.789,12.002 27.392,11.765 C27.254,11.681 27.103,11.726 27.057,11.852 C27.027,11.932 27.043,12.056 27.17,12.163 C27.286,12.26 27.337,12.767 27.227,13.075 C27.194,13.162 27.14,13.264 27.048,13.264 C26.921,13.264 26.439,13.048 26.439,11.989 C26.439,10.835 27.043,10.708 27.305,10.708 C27.568,10.708 28.297,11.188 28.297,12.731 C28.297,13.324 28.174,13.957 27.986,14.341 C27.628,15.07 27.033,15.252 26.38,14.852 C25.31,14.073 24.951,12.289 25.221,11.018 C25.343,10.438 25.827,9.091 27.662,9.091 L27.712,9.091 C30.13,9.122 32.325,10.358 34.118,12.685 C33.786,13.486 32.595,15.613 28.816,17.783 C27.796,17.139 26.509,16.722 25.277,16.64 C25.117,16.631 24.95,16.624 24.785,16.624 C23.624,16.624 22.639,16.89 21.847,17.102 C21.354,17.235 20.928,17.349 20.626,17.358 L20.59,17.358 C20.27,17.349 19.845,17.235 19.348,17.102 C18.558,16.89 17.574,16.624 16.41,16.624 C16.246,16.624 16.08,16.631 15.919,16.64 C14.688,16.722 13.397,17.14 12.378,17.783 C8.555,15.603 7.383,13.487 7.061,12.69 C8.855,10.36 11.051,9.122 13.472,9.091 L13.52,9.091 C15.357,9.091 15.84,10.438 15.963,11.018 C16.231,12.289 15.871,14.073 14.807,14.851 C14.143,15.258 13.553,15.07 13.198,14.341 C13.007,13.957 12.886,13.324 12.886,12.731 C12.886,11.188 13.614,10.708 13.88,10.708 C14.139,10.708 14.743,10.835 14.743,11.989 C14.743,13.048 14.265,13.264 14.135,13.264 C14.045,13.264 13.987,13.162 13.957,13.075 C13.844,12.767 13.896,12.26 14.013,12.163 C14.141,12.056 14.156,11.932 14.125,11.852 L14.125,11.852 Z M13.839,26.776 C13.839,26.776 16.528,38.299 17.158,40.993 C17.64,37.882 20.052,22.337 20.052,22.337 L20.063,22.265 L20.726,22.265 L20.74,22.333 C20.74,22.333 24.076,38.301 24.688,41.225 C25.221,38.914 28.021,26.775 28.024,26.761 C28.085,26.386 28.03,26.098 27.863,25.929 C27.687,25.748 27.404,25.72 27.25,25.72 C27.174,25.72 27.123,25.727 27.115,25.728 L26.835,25.771 L26.835,24.378 L31.021,24.378 L31.021,25.796 L30.75,25.775 C30.742,25.773 30.725,25.773 30.696,25.773 C30.509,25.773 30.062,25.827 29.938,26.338 L24.497,50.936 L23.763,50.936 L23.75,50.866 C23.718,50.705 20.88,36.099 20.349,33.376 C19.931,36.109 17.701,50.702 17.675,50.863 L17.666,50.936 L16.843,50.936 L16.828,50.871 C16.595,49.868 11.113,26.36 11.113,26.353 C11.027,25.874 10.506,25.748 10.402,25.727 L10.197,25.694 L10.197,24.378 L14.879,24.378 L14.879,25.724 L14.6,25.686 C14.573,25.685 14.265,25.659 14.058,25.853 C13.905,26.001 13.827,26.243 13.827,26.568 C13.827,26.632 13.832,26.701 13.839,26.776 L13.839,26.776 Z M29.087,17.979 C32.667,15.925 33.917,13.951 34.336,12.981 C34.525,13.24 34.711,13.508 34.89,13.793 C36.772,16.775 37.924,20.831 38.237,25.526 C37.478,25.925 35.827,26.647 33.652,26.802 C33.177,23.918 31.996,20.015 29.087,17.979 L29.087,17.979 Z M12.1,17.985 C9.197,20.022 8.018,23.925 7.544,26.806 C5.366,26.652 3.709,25.929 2.946,25.527 C3.26,20.831 4.412,16.775 6.292,13.793 C6.471,13.509 6.656,13.243 6.844,12.983 C7.265,13.954 8.515,15.93 12.1,17.985 L12.1,17.985 Z M7.497,27.109 C7.327,28.229 7.259,29.174 7.234,29.744 C7.224,29.976 7.217,30.207 7.213,30.435 C6.785,29.953 6.136,29.682 5.389,29.682 C4.518,29.682 3.511,30.082 2.914,30.939 C2.824,29.225 2.824,27.524 2.921,25.862 C3.745,26.285 5.376,26.959 7.497,27.109 L7.497,27.109 Z M6.756,44.628 C6.932,44.101 7.268,43.719 7.752,43.491 C7.979,43.383 8.209,43.328 8.436,43.328 C9.168,43.328 9.66,43.877 9.776,44.268 C9.925,44.765 9.704,45.314 9.25,45.568 C9.052,45.679 8.864,45.737 8.696,45.737 C8.289,45.737 8.077,45.419 8.038,45.266 C7.977,45.017 8.061,44.762 8.245,44.645 C8.389,44.552 8.561,44.604 8.635,44.741 C8.697,44.851 8.861,44.855 8.942,44.754 C8.989,44.698 9.004,44.622 8.985,44.539 C8.915,44.216 8.462,44.05 8.178,44.126 C7.689,44.256 7.341,44.848 7.451,45.369 C7.501,45.609 7.821,46.297 8.612,46.297 C8.778,46.297 8.955,46.265 9.143,46.204 C9.804,45.987 10.118,45.606 10.259,45.226 C10.728,46.204 11.212,47.132 11.712,48.007 C10.441,49.23 8.473,49.719 7.754,49.863 C7.684,49.727 7.618,49.585 7.55,49.446 C6.9,47.872 6.324,45.923 6.756,44.628 L6.756,44.628 Z M11.871,48.279 C13.859,51.695 16.071,54.277 18.348,55.834 L18.341,55.854 C17.749,57.573 16.119,58.933 15.575,59.35 C12.653,57.395 10.026,54.249 7.902,50.145 C8.699,49.981 10.586,49.48 11.871,48.279 L11.871,48.279 Z M22.907,55.794 C25.159,54.237 27.347,51.676 29.315,48.299 C30.616,49.503 32.497,49.99 33.279,50.149 C31.165,54.232 28.554,57.365 25.649,59.322 C25.059,58.865 23.469,57.503 22.907,55.794 L22.907,55.794 Z M29.474,48.025 C29.977,47.146 30.465,46.214 30.935,45.231 C31.078,45.61 31.392,45.988 32.051,46.204 C32.237,46.265 32.416,46.297 32.582,46.297 C33.367,46.297 33.691,45.609 33.74,45.369 C33.85,44.848 33.503,44.256 33.014,44.126 C32.73,44.05 32.276,44.216 32.207,44.539 C32.189,44.622 32.205,44.698 32.251,44.754 C32.331,44.855 32.495,44.851 32.557,44.741 C32.633,44.604 32.804,44.552 32.947,44.645 C33.127,44.762 33.214,45.017 33.152,45.266 C33.113,45.419 32.903,45.737 32.496,45.737 C32.326,45.737 32.141,45.679 31.944,45.568 C31.491,45.314 31.268,44.765 31.416,44.268 C31.533,43.877 32.025,43.328 32.756,43.328 C32.983,43.328 33.214,43.383 33.441,43.491 C33.922,43.719 34.257,44.101 34.431,44.628 C34.854,45.894 34.314,47.788 33.682,49.344 C33.598,49.518 33.515,49.695 33.428,49.865 C32.723,49.726 30.754,49.242 29.474,48.025 L29.474,48.025 Z M35.81,29.682 C35.062,29.682 34.415,29.953 33.983,30.443 C33.979,30.211 33.972,29.979 33.962,29.744 C33.938,29.173 33.87,28.226 33.699,27.103 C35.821,26.951 37.443,26.28 38.263,25.86 C38.358,27.515 38.356,29.209 38.268,30.917 C37.669,30.074 36.671,29.682 35.81,29.682 L35.81,29.682 Z M27.636,6.011 C27.928,6.011 28.232,6.027 28.538,6.059 C31.419,6.362 33.934,7.946 36.003,10.766 C35.435,11.056 34.913,11.468 34.494,11.958 C32.652,9.547 30.32,8.186 27.693,8.183 C26.111,8.183 24.967,9.204 24.629,10.913 C24.38,12.187 24.731,13.709 25.505,14.703 C25.52,14.724 25.562,14.796 25.54,14.84 C25.52,14.882 25.444,14.904 25.327,14.904 C25.019,14.904 23.435,14.851 22.483,13.814 C21.901,13.179 21.659,12.319 21.761,11.257 C21.996,8.835 23.674,6.011 27.636,6.011 L27.636,6.011 Z M20.592,0.773 C22.809,0.779 23.47,2.776 23.57,3.13 C23.515,3.134 23.427,3.142 23.324,3.159 C23.199,3.18 23.051,3.215 22.988,3.229 C22.885,3.087 22.386,2.457 21.549,2.457 C21.243,2.457 20.924,2.545 20.604,2.717 L20.592,2.724 L20.58,2.717 C20.26,2.545 19.94,2.457 19.632,2.457 C18.8,2.457 18.298,3.087 18.196,3.229 C18.131,3.215 17.984,3.18 17.858,3.159 C17.756,3.142 17.668,3.134 17.613,3.13 C17.712,2.774 18.375,0.779 20.592,0.773 L20.592,0.773 Z M22.52,3.395 C21.718,3.691 21.103,4.225 20.695,4.986 C20.647,5.072 20.611,5.104 20.592,5.111 C20.572,5.104 20.534,5.072 20.488,4.986 C20.081,4.23 19.468,3.693 18.663,3.395 C18.906,3.209 19.174,3.114 19.456,3.114 C20.017,3.114 20.44,3.484 20.489,3.637 C20.5,3.671 20.513,3.706 20.541,3.729 L20.592,3.751 L20.642,3.729 C20.672,3.706 20.683,3.671 20.695,3.637 C20.742,3.484 21.165,3.114 21.727,3.114 C22.006,3.114 22.276,3.209 22.52,3.395 L22.52,3.395 Z M17.416,3.605 C18.811,3.605 19.918,4.399 20.448,5.78 C20.476,5.867 20.503,5.934 20.541,5.963 L20.588,5.982 L20.592,5.982 L20.594,5.982 L20.642,5.964 C20.681,5.934 20.706,5.868 20.732,5.783 C21.267,4.399 22.371,3.605 23.767,3.605 C25.153,3.605 26.441,4.392 26.792,5.443 C26.647,5.463 26.255,5.521 25.971,5.576 C25.666,5.633 25.3,5.756 25.189,5.798 C24.94,5.485 24.378,5.159 23.704,5.159 C22.92,5.159 21.755,5.587 20.653,7.623 C20.647,7.637 20.632,7.659 20.6,7.669 L20.592,7.672 L20.583,7.669 C20.55,7.659 20.536,7.637 20.526,7.621 C19.428,5.587 18.263,5.159 17.477,5.159 C16.804,5.159 16.243,5.485 15.993,5.798 C15.882,5.756 15.515,5.633 15.211,5.576 C14.927,5.521 14.534,5.463 14.39,5.443 C14.742,4.392 16.029,3.605 17.416,3.605 L17.416,3.605 Z M12.646,6.059 C12.95,6.027 13.254,6.011 13.546,6.011 C17.508,6.011 19.186,8.835 19.419,11.257 C19.523,12.319 19.28,13.179 18.7,13.814 C17.748,14.851 16.166,14.904 15.858,14.904 C15.739,14.904 15.663,14.882 15.641,14.84 C15.621,14.796 15.661,14.724 15.677,14.703 C16.45,13.709 16.802,12.187 16.551,10.913 C16.215,9.204 15.071,8.183 13.488,8.183 C10.859,8.186 8.528,9.548 6.685,11.961 C6.267,11.467 5.749,11.053 5.18,10.763 C7.253,7.944 9.763,6.361 12.646,6.059 L12.646,6.059 Z M0.833,23.855 C1.371,18.555 2.812,14.131 4.995,11.026 C5.565,11.309 6.083,11.724 6.494,12.224 C4.357,15.164 2.914,19.556 2.481,24.902 C1.947,24.687 1.357,24.564 0.775,24.545 C0.794,24.315 0.809,24.084 0.833,23.855 L0.833,23.855 Z M4.8,48.974 C1.575,41.566 0.118,32.839 0.748,24.86 C1.336,24.876 1.93,25.005 2.457,25.229 C2.444,25.406 2.43,25.582 2.419,25.76 C1.988,33.001 3.359,40.971 6.181,47.619 C6.484,48.333 6.804,49.017 7.134,49.685 C6.543,49.805 5.958,50.047 5.442,50.379 C5.223,49.92 5.008,49.453 4.8,48.974 L4.8,48.974 Z M5.582,50.665 C6.097,50.328 6.686,50.084 7.276,49.976 C9.377,54.147 11.99,57.393 14.913,59.485 C14.401,59.924 13.97,60.483 13.677,61.093 C10.555,58.78 7.818,55.267 5.582,50.665 L5.582,50.665 Z M13.936,61.288 C14.22,60.671 14.655,60.1 15.18,59.668 C16.28,60.424 17.421,61.023 18.596,61.443 C18.596,61.58 18.607,62.097 18.711,62.625 C18.804,63.099 19,63.586 19.089,63.784 C17.279,63.285 15.557,62.446 13.936,61.288 L13.936,61.288 Z M20.869,64.794 C20.826,64.843 20.714,64.964 20.592,64.971 C20.469,64.964 20.359,64.843 20.313,64.794 C19.739,64.076 18.828,62.613 19.166,60.871 C19.263,60.369 20.074,60.131 20.592,60.129 C21.108,60.131 21.919,60.369 22.015,60.871 C22.354,62.613 21.441,64.076 20.869,64.794 L20.869,64.794 Z M22.095,63.784 C22.182,63.586 22.381,63.099 22.472,62.625 C22.574,62.097 22.585,61.58 22.586,61.443 C23.77,61.02 24.92,60.414 26.029,59.65 C26.556,60.078 26.994,60.648 27.282,61.264 C25.651,62.436 23.917,63.281 22.095,63.784 L22.095,63.784 Z M27.538,61.068 C27.242,60.459 26.809,59.902 26.293,59.466 C29.2,57.379 31.798,54.151 33.892,50.006 C34.488,50.135 35.063,50.387 35.564,50.739 C33.341,55.287 30.629,58.767 27.538,61.068 L27.538,61.068 Z M36.383,48.974 C36.163,49.478 35.938,49.972 35.707,50.454 C35.203,50.107 34.63,49.855 34.033,49.717 C34.369,49.04 34.694,48.344 35.001,47.619 C37.825,40.971 39.196,33.001 38.764,25.76 C38.754,25.581 38.739,25.406 38.726,25.229 C39.263,24.998 39.847,24.873 40.436,24.86 C41.064,32.839 39.609,41.566 36.383,48.974 L36.383,48.974 Z" id="Fill-9" fill="#FFFFFF"></path>
                    <path d="M33.1227314,29.8390342 C33.0393156,27.8535921 32.4547581,21.1727423 28.3777286,18.5584685 C27.4569213,17.9680436 26.2923328,17.5878802 25.1762419,17.5136703 C25.0281627,17.5058587 24.8794368,17.5 24.7313575,17.5 C23.6721705,17.5 22.7513632,17.7493194 22.0090269,17.9485146 C21.4968925,18.088472 21.0500682,18.2095514 20.6763135,18.2206178 L20.6258761,18.2206178 C20.247595,18.2095514 19.8020639,18.088472 19.2886362,17.9485146 C18.5469467,17.7493194 17.6261393,17.5 16.5663057,17.5 C16.4195197,17.5 16.2688539,17.5058587 16.1233611,17.5136703 C15.0072703,17.5878802 13.8400953,17.9680436 12.9205812,18.5584685 C8.84484495,21.1727423 8.26158077,27.8535921 8.17751831,29.8390342 C7.88588622,36.8440644 9.99262091,42.406557 10.6748201,43.915493 C13.5019055,50.1829802 17.0073103,54.3706356 20.3782151,55.8776187 L20.6498015,56 L20.9200947,55.8776187 C24.2897063,54.3706356 27.7983442,50.1829802 30.6247829,43.915493 C31.303749,42.406557 33.4130702,36.8440644 33.1227314,29.8390342" id="Fill-21" fill="#BC1E40"></path>
                    <path d="M26.8229148,24.5614853 L26.8229148,25.9132973 L27.0954437,25.8714754 C27.1018713,25.8701886 27.1520064,25.8643979 27.2252807,25.8643979 C27.3737576,25.8643979 27.6482148,25.8901344 27.8185454,26.0664297 C27.9818057,26.2311436 28.0345118,26.5097417 27.9753781,26.8739138 C27.9715216,26.8874255 25.2584441,38.6625376 24.742953,40.904834 C24.1490454,38.0680235 20.9166202,22.5784846 20.9166202,22.5784846 L20.9024796,22.512213 L20.261008,22.512213 L20.2494384,22.5817017 C20.2494384,22.5817017 17.9123738,37.6626729 17.4450894,40.6796393 C16.835113,38.0667367 14.2287331,26.8887123 14.2287331,26.8887123 C14.2216628,26.81665 14.2171635,26.7478047 14.2171635,26.6866804 C14.2171635,26.3714078 14.2930089,26.1359184 14.440843,25.9930806 C14.6420259,25.8045604 14.9402652,25.8302969 14.9666182,25.8315838 L15.237219,25.8676149 L15.237219,24.5614853 L10.6999969,24.5614853 L10.6999969,25.8380179 L10.8986089,25.8701886 C10.998879,25.8901344 11.504086,26.0130264 11.5870017,26.477571 C11.5876444,26.4846486 16.9000314,49.2898 17.1256392,50.2613545 L17.1404226,50.3250524 L17.9374413,50.3250524 L17.9464399,50.2549204 C17.9715074,50.0979274 20.1330994,35.9415416 20.5380363,33.2906776 C21.0515992,35.9325338 23.8025994,50.1011445 23.8334517,50.257494 L23.8456641,50.3250524 L24.5578389,50.3250524 L29.8297322,26.4634159 C29.9499278,25.9686309 30.3831461,25.9152275 30.5637608,25.9152275 C30.5926849,25.9152275 30.6093965,25.9152275 30.6164669,25.9165144 L30.8799973,25.937747 L30.8799973,24.5614853 L26.8229148,24.5614853 Z" id="Fill-26" fill="#FFFFFF"></path>
                </g>
            </g>
        </g>
    </g>
</svg>