<svg width="60" height="86" viewBox="0 0 60 86" xmlns="http://www.w3.org/2000/svg" xmlns:xlink="http://www.w3.org/1999/xlink"><title>hybrid_logo</title><defs><filter x="-50%" y="-50%" width="200%" height="200%" filterUnits="objectBoundingBox" id="a"><feOffset dy="4" in="SourceAlpha" result="shadowOffsetOuter1"/><feGaussianBlur stdDeviation="3.5" in="shadowOffsetOuter1" result="shadowBlurOuter1"/><feColorMatrix values="0 0 0 0 0 0 0 0 0 0 0 0 0 0 0 0 0 0 0.35 0" in="shadowBlurOuter1" result="shadowMatrixOuter1"/><feMerge><feMergeNode in="shadowMatrixOuter1"/><feMergeNode in="SourceGraphic"/></feMerge></filter><path id="b" d="M28.73 14.256c-.095-2.255-.762-9.84-5.418-12.81-1.05-.67-2.38-1.103-3.656-1.187-.17-.01-.34-.016-.508-.016-1.21 0-2.262.282-3.11.51-.583.158-1.095.295-1.52.308h-.06c-.43-.013-.94-.15-1.525-.31-.848-.226-1.9-.508-3.11-.508-.168 0-.34.006-.506.015C8.043.342 6.71.774 5.66 1.445 1.005 4.416.34 12 .243 14.256-.09 22.21 2.317 28.526 3.095 30.24c3.228 7.117 7.232 11.872 11.08 13.584l.31.138.31-.138c3.848-1.712 7.855-6.467 11.083-13.584.776-1.714 3.184-8.03 2.852-15.984z"/></defs><g fill="none" fill-rule="evenodd" filter="url(#a)"><path d="M47.507 57.28c-.244.562-.495 1.112-.753 1.65-.56-.388-1.2-.668-1.862-.823.373-.754.735-1.53 1.077-2.337 3.143-7.41 4.67-16.29 4.19-24.362-.013-.2-.03-.396-.044-.592.598-.257 1.248-.397 1.903-.41.7 8.89-.922 18.617-4.513 26.873zM37.66 70.756c-.33-.678-.812-1.298-1.386-1.784 3.236-2.326 6.13-5.923 8.46-10.542.664.144 1.304.424 1.86.817-2.473 5.07-5.493 8.948-8.934 11.51zm-5.64 1.736c.113-.588.126-1.165.127-1.316 1.317-.472 2.598-1.147 3.833-2 .586.478 1.074 1.113 1.394 1.8-1.816 1.305-3.745 2.248-5.774 2.808.097-.22.318-.763.42-1.292zm-1.785 2.42c-.047.052-.173.187-.31.195-.135-.008-.258-.143-.31-.196-.64-.8-1.653-2.432-1.276-4.374.106-.56 1.01-.824 1.586-.826.575.002 1.48.267 1.586.826.376 1.942-.64 3.573-1.277 4.374zm-7.72-3.91c.317-.687.8-1.324 1.385-1.805 1.226.842 2.496 1.51 3.804 1.98 0 .15.013.727.128 1.315.103.53.322 1.07.42 1.292-2.014-.556-3.93-1.49-5.736-2.782zm-9.3-11.84c.574-.374 1.23-.646 1.885-.767 2.34 4.65 5.25 8.266 8.504 10.598-.57.49-1.05 1.113-1.376 1.792-3.476-2.578-6.523-6.494-9.013-11.622zM7.832 30.406c.655.017 1.318.16 1.904.41-.015.2-.03.393-.042.593-.48 8.07 1.046 16.95 4.188 24.362.337.795.693 1.558 1.06 2.302-.657.134-1.308.403-1.883.773-.245-.51-.485-1.03-.716-1.566-3.59-8.257-5.213-17.983-4.512-26.875zm4.73-15.42c.634.318 1.21.78 1.668 1.337-2.378 3.276-3.986 8.17-4.468 14.13-.595-.24-1.25-.378-1.9-.398.023-.257.04-.514.065-.77.6-5.906 2.204-10.837 4.634-14.298zm8.517-5.534c.338-.034.677-.054 1-.054 4.412 0 6.28 3.15 6.54 5.848.116 1.184-.155 2.143-.8 2.85-1.06 1.155-2.82 1.214-3.163 1.214-.133 0-.218-.025-.242-.07-.024-.05.022-.13.038-.154.86-1.108 1.254-2.803.974-4.223-.374-1.904-1.648-3.042-3.41-3.042-2.927.004-5.523 1.52-7.573 4.21-.466-.55-1.044-1.01-1.677-1.334 2.308-3.142 5.103-4.907 8.312-5.243zm5.31-2.733c1.553 0 2.787.883 3.377 2.424.03.096.06.17.103.204l.052.022h.006l.054-.02c.044-.035.07-.107.1-.202.596-1.544 1.825-2.427 3.38-2.427 1.54 0 2.977.876 3.367 2.047-.162.023-.6.086-.915.15-.34.062-.747.2-.87.247-.278-.348-.904-.713-1.654-.713-.873 0-2.17.477-3.395 2.746-.008.017-.024.04-.06.053l-.01.002-.008-.002c-.037-.012-.054-.036-.064-.054-1.223-2.268-2.52-2.745-3.394-2.745-.75 0-1.375.365-1.654.714-.124-.047-.532-.184-.87-.247-.317-.063-.755-.126-.915-.15.393-1.17 1.826-2.046 3.37-2.046zm5.684-.235c-.894.33-1.58.925-2.033 1.772-.053.097-.093.13-.114.14-.02-.01-.065-.043-.115-.14-.452-.842-1.135-1.44-2.03-1.772.27-.207.567-.314.88-.314.626 0 1.097.413 1.152.583.012.04.026.08.058.104l.056.025.056-.026c.033-.025.045-.064.06-.103.052-.17.522-.582 1.148-.582.31 0 .61.107.884.314zM29.926 3.56c2.468.006 3.205 2.23 3.316 2.627-.06.004-.16.012-.273.032-.14.022-.306.06-.376.076-.115-.158-.67-.86-1.602-.86-.34 0-.696.098-1.052.29l-.014.008-.013-.008c-.358-.192-.713-.29-1.055-.29-.927 0-1.486.702-1.6.86-.072-.015-.235-.054-.375-.077-.114-.02-.212-.03-.273-.033.11-.396.848-2.62 3.316-2.627zm7.843 5.836c.324 0 .662.02 1.004.055 3.207.337 6.007 2.103 8.31 5.247-.632.323-1.213.783-1.68 1.328-2.05-2.687-4.646-4.203-7.573-4.207-1.76 0-3.033 1.138-3.408 3.043-.28 1.42.113 3.116.974 4.224.017.024.065.104.04.154-.023.045-.108.07-.238.07-.343 0-2.106-.06-3.167-1.215-.646-.706-.916-1.665-.8-2.85.26-2.698 2.128-5.847 6.54-5.847zm8.193 42.967c-.334-1.14-1.082-1.57-1.303-1.674-.416-.2-.823-.3-1.21-.3-.36 0-.668.09-.938.22.86-2.343 2.283-7.098 2.33-12.957l.008-.024c.267-.768 1.042-1.246 2.02-1.246 1.076 0 2.31.62 2.655 2.002v.004c-.398 5.35-1.572 10.766-3.43 15.626.058-.69-.01-1.235-.132-1.653zM10.345 38.386c.34-1.382 1.578-2.002 2.655-2.002.978 0 1.752.478 2.02 1.245l.005.015c.043 5.862 1.47 10.623 2.33 12.966-.27-.13-.582-.22-.943-.22-.387 0-.797.1-1.213.3-.22.102-.954.528-1.287 1.644-.13.436-.2 1.014-.127 1.756-1.868-4.862-3.054-10.28-3.458-15.637l.017-.067zm4.71-2.538c-.012.258-.02.515-.024.77-.476-.537-1.2-.84-2.03-.84-.97 0-2.092.446-2.755 1.402-.1-1.91-.1-3.807.007-5.66.917.473 2.733 1.224 5.094 1.39-.19 1.25-.264 2.302-.292 2.938zm.352 21.958c-.724-1.754-1.365-3.928-.884-5.37.195-.588.568-1.013 1.107-1.268.254-.12.51-.18.762-.18.816 0 1.363.61 1.493 1.046.165.554-.08 1.166-.586 1.45-.222.123-.43.188-.618.188-.453 0-.69-.355-.733-.525-.068-.278.025-.562.23-.692.16-.104.35-.046.434.106.07.123.25.128.342.017.052-.062.07-.148.047-.24-.077-.36-.582-.546-.898-.46-.545.144-.932.804-.81 1.384.056.27.412 1.035 1.293 1.035.185 0 .382-.035.592-.102.735-.242 1.084-.666 1.242-1.09.52 1.09 1.062 2.123 1.618 3.1-1.415 1.362-3.606 1.907-4.407 2.067-.078-.152-.15-.31-.226-.464zm-.786-40.638c.47 1.083 1.86 3.284 5.852 5.574-3.232 2.27-4.546 6.62-5.072 9.83-2.427-.17-4.27-.976-5.12-1.424.35-5.234 1.632-9.755 3.725-13.078.2-.316.406-.613.616-.902zM44.5 57.692c-.093.193-.186.39-.283.582-.785-.156-2.975-.696-4.402-2.052.56-.98 1.103-2.018 1.627-3.115.158.422.51.845 1.243 1.086.206.067.406.102.59.102.875 0 1.234-.766 1.29-1.034.122-.58-.265-1.24-.808-1.384-.316-.084-.82.1-.9.46-.02.093-.002.18.05.24.09.112.272.107.34-.015.086-.15.276-.21.434-.105.202.13.3.414.23.692-.043.17-.277.525-.73.525-.19 0-.396-.065-.614-.19-.506-.282-.754-.894-.588-1.448.13-.435.677-1.047 1.49-1.047.254 0 .51.06.764.18.536.256.908.68 1.1 1.268.473 1.412-.13 3.523-.832 5.257zm-.034-25.124c-.528-3.213-1.843-7.563-5.08-9.832 3.984-2.29 5.376-4.49 5.842-5.57.21.29.418.586.618.904 2.095 3.323 3.377 7.843 3.726 13.076-.846.447-2.684 1.25-5.106 1.422zm.37 4.06c-.006-.26-.014-.52-.024-.78-.027-.638-.103-1.693-.292-2.943 2.36-.17 4.168-.918 5.08-1.386.106 1.844.105 3.73.007 5.634-.67-.938-1.778-1.375-2.738-1.375-.833 0-1.554.3-2.034.847zm-22.11-20.72c-.05-.14-.218-.19-.372-.098-.444.264-.5 1.166-.304 1.885.142.516.393.823.665.823.192 0 .38-.093.547-.273.437-.46.732-1.462.686-2.332-.106-2.08-1.282-2.186-1.52-2.186-.79 0-1.638 1.27-1.638 3.16 0 1.833.703 3.285 1.635 3.374.372.038.775.057 1.16.057 1.485 0 3.506-.27 4.694-1.556.784-.85 1.114-2.06.97-3.586-.217-2.427-1.48-4.486-3.38-5.525.233-.197.497-.297.785-.297 1.336 0 2.91 2.12 3.04 2.78.027.133.095.225.175.257l.056.016.056-.016c.08-.032.146-.124.173-.256.134-.66 1.703-2.78 3.043-2.78.287 0 .55.1.783.295-1.9 1.038-3.163 3.097-3.383 5.524-.138 1.526.19 2.735.976 3.587 1.187 1.287 3.208 1.557 4.694 1.557.39 0 .78-.02 1.16-.056.93-.088 1.634-1.54 1.634-3.373 0-1.89-.848-3.16-1.64-3.16-.235 0-1.41.106-1.518 2.186-.045.87.25 1.873.686 2.332.17.18.355.273.548.273.274 0 .52-.307.664-.823.2-.72.14-1.62-.303-1.885-.153-.093-.32-.043-.374.097-.032.09-.014.227.127.346.13.11.186.675.062 1.017-.035.098-.095.21-.197.21-.142 0-.68-.24-.68-1.42 0-1.287.674-1.427.964-1.427.293 0 1.106.534 1.106 2.254 0 .66-.138 1.365-.348 1.794-.398.814-1.06 1.017-1.787.57-1.19-.868-1.59-2.856-1.29-4.273.135-.646.675-2.147 2.718-2.147h.055c2.693.035 5.136 1.413 7.132 4.005-.37.893-1.695 3.264-5.902 5.682-1.136-.717-2.568-1.182-3.94-1.273-.178-.012-.364-.017-.548-.017-1.293 0-2.39.295-3.272.53-.548.15-1.023.276-1.36.287h-.038c-.357-.01-.83-.138-1.383-.286-.88-.236-1.976-.53-3.27-.53-.184 0-.37.004-.548.016-1.372.09-2.808.556-3.943 1.273-4.254-2.43-5.56-4.787-5.918-5.677 1.997-2.596 4.442-3.975 7.137-4.01h.053c2.045 0 2.583 1.5 2.72 2.147.297 1.417-.102 3.405-1.287 4.272-.74.453-1.396.244-1.792-.57-.212-.428-.347-1.132-.347-1.793 0-1.72.81-2.254 1.107-2.254.288 0 .96.14.96 1.427 0 1.18-.532 1.42-.676 1.42-.1 0-.166-.112-.2-.21-.124-.342-.067-.908.063-1.017.144-.12.16-.257.126-.346zM15.8 58.583c.885-.182 2.986-.74 4.416-2.08 2.213 3.808 4.676 6.685 7.213 8.42l-.01.023c-.66 1.916-2.474 3.432-3.08 3.897-3.252-2.18-6.177-5.686-8.54-10.26zm14.122 10.56H29.87c-.557.012-1.885.26-2.082 1.286l-.01.058-.018.114-.06-.018c-1.046-.384-2.07-.902-3.06-1.54.685-.53 2.39-1.994 3.08-3.91l.003-.01c.545.356 1.094.66 1.644.904l.567.247.567-.25c.57-.253 1.14-.572 1.706-.942.662 1.9 2.333 3.366 3.053 3.93-1.01.653-2.046 1.182-3.11 1.57l-.06.02-.017-.118-.007-.055c-.2-1.025-1.528-1.274-2.093-1.285v-.002h-.05zm5.635-.33c-.657-.51-2.427-2.03-3.053-3.934 2.506-1.735 4.943-4.59 7.134-8.354 1.448 1.343 3.543 1.886 4.413 2.062-2.353 4.55-5.26 8.043-8.493 10.225zm16.368-39.53c.027.255.043.512.065.768-.654.017-1.3.154-1.9.398-.482-5.96-2.092-10.855-4.472-14.13.457-.554 1.037-1.018 1.67-1.334 2.432 3.46 4.036 8.392 4.637 14.3zm.663-.09c-.637-6.215-2.35-11.394-4.954-14.977-2.61-3.592-6.05-5.496-9.957-5.507-.69-2.144-3.27-2.47-3.61-2.505-.11-.356-1.087-3.162-4.085-3.203V3H29.87v.002c-3 .04-3.972 2.847-4.084 3.203-.342.035-2.922.36-3.617 2.505-3.903.01-7.343 1.915-9.95 5.507C9.612 17.8 7.9 22.98 7.26 29.195 6.31 38.47 7.98 48.893 11.84 57.79c4.106 9.465 9.952 15.33 16.904 16.963.09.146.657 1.005 1.126 1.078l.055.007h.003l.054-.006c.466-.072 1.032-.93 1.125-1.077 6.95-1.632 12.8-7.498 16.906-16.963 3.86-8.895 5.53-19.32 4.575-28.595z" fill="#FFF"/><path d="M44.178 35.875c-.095-2.255-.763-9.84-5.42-12.81-1.05-.67-2.38-1.102-3.655-1.186-.17-.01-.34-.017-.508-.017-1.21 0-2.26.283-3.11.51-.584.158-1.094.296-1.52.308h-.06c-.43-.01-.94-.15-1.526-.308-.848-.226-1.9-.51-3.11-.51-.167 0-.34.008-.505.017-1.275.083-2.608.515-3.658 1.185-4.655 2.97-5.32 10.555-5.417 12.81-.333 7.955 2.073 14.27 2.852 15.985 3.23 7.117 7.232 11.872 11.082 13.583l.31.14.308-.14c3.85-1.71 7.855-6.466 11.083-13.583.776-1.714 3.184-8.03 2.853-15.985" fill="#BC1E40"/><g transform="translate(15.447 21.62)"><mask id="c" fill="#fff"><use xlink:href="#b"/></mask><path d="M28.73 14.256c-.095-2.255-.762-9.84-5.418-12.81-1.05-.67-2.38-1.103-3.656-1.187-.17-.01-.34-.016-.508-.016-1.21 0-2.262.282-3.11.51-.583.158-1.095.295-1.52.308h-.06c-.43-.013-.94-.15-1.525-.31-.848-.226-1.9-.508-3.11-.508-.168 0-.34.006-.506.015C8.043.342 6.71.774 5.66 1.445 1.005 4.416.34 12 .243 14.256-.09 22.21 2.317 28.526 3.095 30.24c3.228 7.117 7.232 11.872 11.08 13.584l.31.138.31-.138c3.848-1.712 7.855-6.467 11.083-13.584.776-1.714 3.184-8.03 2.852-15.984" mask="url(#c)"/></g><path d="M36.877 29.867v1.553l.313-.048c.007-.002.065-.01.15-.01.17 0 .485.03.68.234.188.19.25.51.18.927l-3.713 16.12c-.682-3.26-4.396-21.055-4.396-21.055l-.015-.076h-.737l-.013.08-3.222 20.793-3.695-15.845c-.01-.082-.014-.162-.014-.232 0-.362.087-.633.257-.797.232-.215.575-.186.605-.184l.31.04v-1.5h-5.212v1.467l.23.037c.114.023.694.164.79.698 0 .008 6.104 26.21 6.363 27.325l.017.073h.915l.01-.08c.03-.18 2.513-16.445 2.978-19.49.59 3.035 3.75 19.313 3.786 19.492l.014.078h.82l6.055-27.414c.14-.57.637-.63.845-.63h.06l.303.026v-1.58h-4.66z" fill="#FFF"/></g></svg>