<svg width="277" height="111" viewBox="0 0 277 111" xmlns="http://www.w3.org/2000/svg"><title>Untitled</title><g fill="none" fill-rule="evenodd"><path d="M0 79h277v22H0z" fill="#898989" fill-opacity=".265"/><path d="M64.063 23.892c-.35-3.488-1.227-6.627-2.278-9.243 0-.088-.175-.35-.175-.437-.964-2.006-2.103-3.837-3.417-5.145-2.453-2.528-5.432-3.923-8.76-4.01h-.09c-.525-1.134-2.014-1.92-3.24-2.093 0 0-.79-2.965-3.943-2.965-3.154 0-3.943 2.965-3.943 2.965-1.314.174-2.716.96-3.24 2.092h-.09c-3.328 0-6.307 1.395-8.76 4.01-1.314 1.396-2.453 3.14-3.417 5.146 0 0-.175.35-.175.436-1.14 2.615-2.015 5.754-2.278 9.242-1.84 17.264 6.308 38.453 21.027 41.68.175.348.788.958 1.05.958.264 0 .79-.61 1.052-.96 14.37-3.312 22.517-24.414 20.677-41.678z" fill="#D8D8D8"/></g></svg>