<svg width="277" height="111" viewBox="0 0 277 111" xmlns="http://www.w3.org/2000/svg"><title>Untitled</title><g fill="none" fill-rule="evenodd"><path d="M0 79h277v22H0z" fill="#898989" fill-opacity=".265"/><path d="M64.063 23.892a34.04 34.04 0 0 0-2.278-9.243c0-.087-.175-.349-.175-.436-.964-2.006-2.103-3.837-3.417-5.145-2.453-2.528-5.432-3.923-8.761-4.01h-.088c-.526-1.134-2.015-1.919-3.242-2.093 0 0-.788-2.965-3.942-2.965s-3.943 2.965-3.943 2.965c-1.314.174-2.716.959-3.241 2.092h-.088c-3.33 0-6.308 1.395-8.761 4.011-1.314 1.395-2.453 3.14-3.417 5.145 0 0-.175.349-.175.436a28.642 28.642 0 0 0-2.278 9.243c-1.84 17.264 6.308 38.453 21.027 41.68.175.348.788.958 1.051.958.263 0 .789-.61 1.051-.959 14.369-3.313 22.517-24.415 20.677-41.68z" fill="#D8D8D8"/></g></svg>