<svg width="1440" height="246" viewBox="0 0 1440 246" xmlns="http://www.w3.org/2000/svg"><title>Group 6</title><defs><linearGradient x1="0%" y1="55.183%" y2="64.734%" id="a"><stop stop-color="#D02134" offset="0%"/><stop stop-color="#55ACEE" offset="100%"/></linearGradient></defs><g transform="translate(-21)" fill="none" fill-rule="evenodd"><path d="M510.77 103.882c4.861-5.74 12.12-9.382 20.23-9.382 14.636 0 26.5 11.864 26.5 26.5a26.75 26.75 0 0 1-.224 3.46c10.117 4.633 22.879 10.537 41.178 19.018 55.726 25.828 85.118 38.742 118.423 51.247 45.304 17.011 85.082 27.563 122.59 31.643 42.406 4.613 81.495.807 118.417-12.42 39.687-14.218 75.479-35.931 129.323-75.495 4.493-3.302 9.147-6.747 15.034-11.122 2.18-1.622 12.327-9.173 15.12-11.248 34.033-25.289 54.626-39.827 77.676-54.164 29.715-18.483 57.856-32.578 86.732-42.801 68.388-24.212 140.095-26.078 222.094-1.811l-4.832 16.3c-78.555-23.247-146.58-21.477-211.58 1.535-27.62 9.778-54.685 23.335-83.422 41.21-22.546 14.023-42.834 28.345-76.515 53.372-2.785 2.07-12.93 9.62-15.117 11.246a3359.305 3359.305 0 0 1-15.11 11.178c-55.074 40.468-92.033 62.89-133.66 77.802-39.472 14.14-81.14 18.198-126.001 13.318-39.096-4.253-80.198-15.156-126.734-32.63-33.825-12.7-63.5-25.738-119.598-51.738-18.546-8.596-31.383-14.534-41.536-19.182A26.417 26.417 0 0 1 531 147.5c-14.636 0-26.5-11.864-26.5-26.5 0-.435.01-.867.031-1.296-23.753-10.089-44.8-18.193-64.767-24.803-42.547-14.086-94.804-20.179-154.584-19.33-60.054.853-124.503 8.583-189.19 20.94-24.091 4.603-46.52 9.534-66.684 14.462a976.632 976.632 0 0 0-18.702 4.754c-1.882.5-3.52.943-6.546 1.78 0 0-4.414-16.419-2.876-16.845 1.432-.395 3.12-.85 5.05-1.364a993.561 993.561 0 0 1 19.031-4.838c20.435-4.994 43.143-9.987 67.532-14.646 65.586-12.529 130.978-20.372 192.144-21.24 61.526-.875 115.59 5.429 160.176 20.19 20.336 6.732 41.672 14.941 65.655 25.118zM531 136c8.284 0 15-6.716 15-15 0-8.284-6.716-15-15-15-8.284 0-15 6.716-15 15 0 8.284 6.716 15 15 15z" fill="url(#a)" fill-rule="nonzero" opacity=".186"/><circle fill="#D02034" opacity=".531" cx="531" cy="121" r="7"/></g></svg>