<svg width="1440" height="246" viewBox="0 0 1440 246" xmlns="http://www.w3.org/2000/svg"><title>Group 6</title><defs><linearGradient x1="0%" y1="55.183%" y2="64.734%" id="a"><stop stop-color="#D02134" offset="0%"/><stop stop-color="#55ACEE" offset="100%"/></linearGradient></defs><g transform="translate(-21)" fill="none" fill-rule="evenodd"><path d="M510.77 103.882c4.86-5.74 12.12-9.382 20.23-9.382 14.636 0 26.5 11.864 26.5 26.5 0 1.173-.076 2.328-.224 3.46 10.117 4.633 22.88 10.537 41.178 19.018 55.726 25.828 85.118 38.742 118.423 51.247 45.304 17.01 85.082 27.563 122.59 31.643 42.406 4.613 81.495.807 118.417-12.42 39.687-14.218 75.48-35.93 129.323-75.495 4.493-3.302 9.147-6.747 15.034-11.122 2.182-1.62 12.328-9.172 15.12-11.247 34.034-25.29 54.627-39.827 77.677-54.164 29.715-18.484 57.856-32.58 86.732-42.802 68.387-24.212 140.094-26.078 222.093-1.81l-4.832 16.3c-78.554-23.248-146.58-21.478-211.58 1.534-27.62 9.778-54.684 23.335-83.42 41.21-22.547 14.023-42.835 28.345-76.516 53.372-2.785 2.07-12.93 9.62-15.117 11.246-5.91 4.393-10.587 7.854-15.11 11.178-55.074 40.468-92.033 62.89-133.66 77.802-39.472 14.14-81.14 18.198-126 13.318-39.097-4.253-80.2-15.156-126.735-32.63-33.825-12.7-63.5-25.738-119.598-51.738-18.546-8.596-31.383-14.534-41.536-19.182-4.797 4.808-11.43 7.782-18.758 7.782-14.636 0-26.5-11.864-26.5-26.5 0-.435.01-.867.03-1.296-23.752-10.09-44.8-18.193-64.766-24.803-42.547-14.085-94.804-20.178-154.584-19.33-60.054.854-124.503 8.584-189.19 20.942-24.09 4.602-46.52 9.533-66.684 14.46-7.048 1.724-13.307 3.323-18.702 4.755-1.882.5-3.52.943-6.546 1.78 0 0-4.414-16.42-2.876-16.845 1.432-.395 3.12-.85 5.05-1.364 5.502-1.46 11.87-3.088 19.03-4.838 20.436-4.994 43.144-9.987 67.533-14.646 65.586-12.53 130.978-20.372 192.144-21.24 61.525-.875 115.59 5.43 160.175 20.19 20.336 6.732 41.672 14.94 65.655 25.118zM531 136c8.284 0 15-6.716 15-15 0-8.284-6.716-15-15-15-8.284 0-15 6.716-15 15 0 8.284 6.716 15 15 15z" fill="url(#a)" fill-rule="nonzero" opacity=".186"/><circle fill="#D02034" opacity=".531" cx="531" cy="121" r="7"/></g></svg>