<svg width="227" height="68" viewBox="0 0 227 68" xmlns="http://www.w3.org/2000/svg"><title>uw logo text + Wisconsin + UNIVERSITY OF WISCON</title><defs><linearGradient x1="49.649%" y1="100.101%" x2="49.649%" y2=".005%" id="a"><stop stop-color="#781B21" offset="0%"/><stop stop-color="#8A1E24" offset="4.82%"/><stop stop-color="#9D2228" offset="12.09%"/><stop stop-color="#AB252A" offset="20.52%"/><stop stop-color="#B3272C" offset="31.05%"/><stop stop-color="#B5272C" offset="50.21%"/><stop stop-color="#B2262C" offset="67.37%"/><stop stop-color="#AA252A" offset="78.31%"/><stop stop-color="#9B2227" offset="87.5%"/><stop stop-color="#861E24" offset="95.69%"/><stop stop-color="#781B21" offset="100%"/></linearGradient><linearGradient x1="49.775%" y1="100.101%" x2="49.775%" y2=".005%" id="b"><stop stop-color="#781B21" offset="0%"/><stop stop-color="#8A1E24" offset="4.82%"/><stop stop-color="#9D2228" offset="12.09%"/><stop stop-color="#AB252A" offset="20.52%"/><stop stop-color="#B3272C" offset="31.05%"/><stop stop-color="#B5272C" offset="50.21%"/><stop stop-color="#B2262C" offset="67.37%"/><stop stop-color="#AA252A" offset="78.31%"/><stop stop-color="#9B2227" offset="87.5%"/><stop stop-color="#861E24" offset="95.69%"/><stop stop-color="#781B21" offset="100%"/></linearGradient></defs><g fill="none" fill-rule="evenodd"><path d="M44.244 24.502a34.04 34.04 0 0 0-2.278-9.243c0-.087-.176-.349-.176-.436-.963-2.005-2.102-3.836-3.416-5.144-2.453-2.529-5.432-3.924-8.762-4.011h-.087c-.526-1.134-2.015-1.919-3.242-2.093 0 0-.788-2.965-3.942-2.965s-3.943 2.965-3.943 2.965c-1.314.174-2.716.96-3.241 2.093h-.088c-3.33 0-6.308 1.395-8.761 4.01-1.314 1.396-2.453 3.14-3.417 5.145 0 0-.175.35-.175.436a28.642 28.642 0 0 0-2.278 9.243c-1.84 17.265 6.308 38.453 21.027 41.68.175.348.788.959 1.05.959.264 0 .79-.61 1.052-.96 14.369-3.313 22.516-24.414 20.677-41.679z" fill="#DFCBA0"/><path d="M36.184 30.606c-.088-2.006-.701-8.981-5.17-11.685-.963-.61-2.19-1.046-3.504-1.046-2.19-.087-3.855.698-4.906.698-1.14 0-2.716-.872-4.906-.698-1.315.087-2.541.523-3.505 1.046-4.468 2.704-5.081 9.592-5.169 11.685-.263 7.237 2.103 12.905 2.804 14.474 3.066 6.453 6.833 10.9 10.513 12.47l.263.086.263-.087c3.68-1.57 7.447-6.016 10.513-12.469.7-1.57 3.066-7.237 2.804-14.474z" fill="url(#a)" transform="translate(-.263)"/><path d="M28.912 25.461v1.395h.35c.175 0 .438 0 .613.175.176.174.176.436.176.872 0 0-2.98 12.381-3.593 14.649-.613-2.965-4.205-19.184-4.205-19.184v-.087h-.613v.087S19.1 39.151 18.573 42.29c-.7-2.703-3.592-14.475-3.592-14.475v-.174c0-.349.088-.61.263-.697.175-.175.526-.175.526-.175h.263v-1.395h-4.907v1.308h.176c.087 0 .7.174.788.61 0 0 5.87 23.892 6.133 24.851v.087h.876v-.087c.088-.174 2.366-14.998 2.891-17.788.526 2.79 3.592 17.614 3.68 17.788v.087h.788l5.783-24.938c.087-.523.613-.61.788-.61h.263v-1.395l-4.38.174z" fill="#FFF"/><path d="M44.068 24.502a34.04 34.04 0 0 0-2.278-9.243c0-.087-.175-.349-.175-.436-.963-2.005-2.102-3.836-3.417-5.144-2.453-2.529-5.432-3.924-8.76-4.011h-.088c-.526-1.134-2.015-1.919-3.242-2.093 0 0-.788-2.965-3.943-2.965-3.154 0-3.942 2.965-3.942 2.965-1.314.174-2.716.96-3.242 2.093h-.087c-3.33 0-6.308 1.395-8.761 4.01-1.315 1.396-2.454 3.14-3.417 5.145 0 0-.176.35-.176.436a28.642 28.642 0 0 0-2.277 9.243c-1.84 17.265 6.308 38.453 21.026 41.68.176.348.789.959 1.052.959s.788-.61 1.051-.96c14.368-3.313 22.604-24.414 20.676-41.679zm-.613.087v.61c-.7 0-1.402.088-2.015.35-.438-5.32-2.015-9.767-4.293-12.818A4.232 4.232 0 0 1 38.9 11.51c2.366 3.139 4.03 7.586 4.556 13.08zM14.806 12.12c-.526.087-.526.96-.438 1.57.088.61.438 1.22.789 1.22.7-.087 1.314-1.569 1.226-2.615-.087-1.57-.964-1.919-1.49-1.919-.875 0-1.576 1.308-1.576 3.052s.613 3.052 1.577 3.052c.35 0 7.096.872 6.483-4.709-.263-2.615-1.927-4.534-3.504-5.406 1.489-.872 3.416.61 3.942 2.442.088.349.35.349.438 0 .613-1.919 2.278-3.226 3.767-2.442-1.577.872-3.066 2.79-3.329 5.406-.438 5.668 6.308 4.796 6.571 4.709.876 0 1.577-1.308 1.577-3.052s-.7-3.052-1.577-3.052c-.526 0-1.402.436-1.49 1.919 0 1.133.526 2.528 1.227 2.615.35 0 .701-.61.789-1.22.087-.61 0-1.395-.438-1.57-.176 0-.35 0-.35.175 0 .087.35.348.262 1.046 0 .96-1.051.523-.876-1.046.088-1.308.876-1.221.876-1.221.35 0 1.051.785 1.051 2.267 0 1.308-.7 2.79-2.015 2.005-1.051-.784-1.49-2.528-1.226-3.836.087-.61.7-2.267 2.54-2.267 2.541 0 4.994 1.22 6.922 3.662-.175.61-1.227 2.965-5.607 5.319-1.49-.872-3.154-1.22-4.644-1.22-2.365 0-3.154.697-4.205.697-1.051 0-1.84-.698-4.205-.698-1.577 0-3.242.349-4.644 1.22-4.293-2.353-5.344-4.62-5.607-5.318 1.927-2.442 4.38-3.75 7.009-3.75 1.84 0 2.365 1.657 2.453 2.268.263 1.308-.088 3.139-1.227 3.836-1.314.698-2.015-.697-2.015-2.005 0-1.483.614-2.267 1.052-2.267 0 0 .788-.088.876 1.308.087 1.482-.876 2.005-.876 1.046 0-.61.35-.872.263-1.046 0-.088-.176-.262-.35-.175zm22.078 1.221c2.19 2.965 3.768 7.324 4.03 12.905-.788.436-2.453 1.133-4.643 1.308-.526-2.878-1.752-6.801-4.819-8.981 3.855-2.18 5.082-4.273 5.432-5.232zm-24.093 5.145c-3.066 2.18-4.293 6.103-4.819 8.98-2.19-.174-3.855-.871-4.643-1.307.35-5.58 1.84-9.94 4.03-12.818.35.96 1.577 3.052 5.432 5.145zm-4.906 9.417c-.175 1.046-.175 1.918-.263 2.528v3.314a26.99 26.99 0 0 0 .788 5.232v.174c.701 3.052 1.665 5.319 2.103 6.104.701 1.395 1.402 2.703 2.103 3.836-1.402 1.221-3.417 1.657-4.118 1.831-3.767-6.975-5.607-16.044-5.169-24.24.788.436 2.366 1.046 4.556 1.22zm4.906 21.624c2.453 4.011 4.906 6.453 6.746 7.673-.7 1.657-2.278 2.878-2.803 3.314-3.242-2.006-5.958-5.32-8.06-9.243.788-.087 2.715-.61 4.117-1.744zm7.184 7.935c1.052.698 2.103 1.134 2.19 1.134.088 0 1.14-.436 2.103-1.134.701 1.57 2.103 2.79 2.804 3.313a14.615 14.615 0 0 1-2.891 1.396v-.088c-.176-1.046-1.665-1.22-2.103-1.22-.526 0-1.928.174-2.103 1.22v.088a21.149 21.149 0 0 1-2.891-1.308c.7-.61 2.103-1.831 2.891-3.401zm4.731-.262c1.84-1.307 4.293-3.749 6.746-7.673 1.314 1.134 3.154 1.657 4.118 1.831-2.103 3.924-4.819 7.15-7.973 9.243-.7-.523-2.277-1.744-2.89-3.4zm6.922-8.109a37.826 37.826 0 0 0 2.015-3.75c.35-.784 1.401-3.051 2.102-6.103v-.174c.35-1.744.614-3.488.789-5.232V30.519c0-.61-.088-1.483-.263-2.53 2.103-.174 3.767-.784 4.556-1.22.263 8.197-1.577 17.178-5.257 24.24-.7-.261-2.628-.784-3.942-1.918zM29.174 6.365c3.768 0 7.01 1.744 9.462 4.796-.613.262-1.226.698-1.752 1.22-2.015-2.44-4.468-3.836-7.272-3.836-1.752 0-2.89 1.22-3.241 2.79-.263 1.308 0 2.878.876 3.837.438.436.175.61.088.61-1.14 0-4.293-.61-4.03-4.098.175-2.267 1.401-3.75 2.628-4.621 1.314-.61 2.716-.698 3.241-.698zm-7.096-5.144c2.54 0 3.154 2.354 3.154 2.441-.175 0-.35 0-.526.087l-.438.088c-.876.261-1.664.872-2.103 1.656 0 0 0 .088-.087.088l-.088-.088c-.438-.784-1.226-1.308-2.102-1.656l-.438-.088c-.176 0-.35 0-.526-.087 0-.087.613-2.441 3.154-2.441zM18.66 4.01c1.49 0 2.716.872 3.154 2.18.088.349.263.349.438 0 .438-1.308 1.752-2.18 3.154-2.18 1.227 0 2.366.698 2.979 1.744-.438.087-.876.174-1.402.349-.876-.698-1.664-.698-2.19-.523-1.227.348-2.19 1.482-2.716 2.528-.526-.959-1.49-2.092-2.716-2.528-.526-.175-1.402-.175-2.19.523-.438-.175-.964-.262-1.402-.35.526-1.045 1.664-1.743 2.891-1.743zm-3.68 2.354c.526 0 1.928.087 3.154.785 1.315.872 2.453 2.354 2.629 4.621.263 3.401-3.417 4.011-4.118 4.011-.088 0-.175-.087.175-.436.876-1.046 1.14-2.615.876-3.836-.35-1.57-1.49-2.79-3.241-2.79-2.804 0-5.257 1.395-7.272 3.836a4.232 4.232 0 0 0-1.752-1.22c2.54-3.227 5.782-4.97 9.55-4.97zM.701 24.59c.613-5.493 2.19-9.94 4.555-13.08a4.853 4.853 0 0 1 1.753 1.309c-2.278 2.964-3.855 7.411-4.293 12.818-.614-.262-1.314-.35-2.015-.35v-.697zM4.818 50.05C1.402 42.64-.088 33.832.613 25.636c.7 0 1.402.087 2.015.348v.524c-.526 8.196 1.402 17.177 4.994 24.327-.7.175-1.402.436-2.015.872l-.789-1.657zm.964 1.919c.613-.436 1.314-.698 2.015-.872 2.103 4.01 4.906 7.411 8.148 9.591-.526.436-1.051 1.047-1.314 1.657-3.417-2.18-6.396-5.755-8.849-10.376zm9.2 10.725c.262-.698.788-1.221 1.314-1.657 1.138.698 2.365 1.308 3.592 1.744 0 .872.175 1.744.525 2.354-1.927-.523-3.68-1.308-5.432-2.441zm7.359 3.4s-.088.175-.263.175c-.088 0-.263-.175-.263-.175-.613-.697-1.577-2.18-1.227-3.923.088-.524.964-.698 1.49-.698s1.402.174 1.49.698c.35 1.744-.614 3.139-1.227 3.923zm1.401-.959c.35-.61.526-1.482.526-2.354a15.52 15.52 0 0 0 3.592-1.831c.526.436 1.052 1.046 1.314 1.657-1.664 1.22-3.504 2.005-5.432 2.528zm5.87-2.703c-.262-.61-.788-1.22-1.314-1.657 3.242-2.18 5.958-5.58 8.06-9.591.701.087 1.402.436 2.016.872-2.366 4.447-5.345 8.022-8.762 10.376zm9.725-12.382l-.788 1.57c-.613-.436-1.314-.698-2.015-.872 3.68-7.063 5.52-16.131 4.994-24.24v-.524c.613-.261 1.314-.348 2.015-.348.7 8.196-.789 17.003-4.206 24.414z" fill-opacity=".783" fill="#000"/><path d="M36.008 30.606c-.087-2.006-.7-8.981-5.169-11.685-.963-.61-2.19-1.046-3.504-1.046-2.19-.087-3.855.698-4.906.698-1.14 0-2.716-.872-4.907-.698-1.314.087-2.54.523-3.504 1.046-4.468 2.704-5.082 9.592-5.17 11.685-.262 7.237 2.103 12.905 2.804 14.474 3.067 6.453 6.834 10.9 10.514 12.47l.263.086.262-.087c3.68-1.57 7.447-6.016 10.514-12.469.7-1.57 3.154-7.237 2.803-14.474z" fill="url(#b)" transform="translate(-.263)"/><path d="M28.736 26.856h.351c.175 0 .438 0 .613.175.175.174.175.436.175.872 0 0-2.978 12.381-3.592 14.649-.613-2.965-4.205-19.184-4.205-19.184v-.087h-.701v.087s-2.54 15.783-3.066 18.922c-.701-2.703-3.593-14.475-3.593-14.475v-.174c0-.349.088-.61.263-.697.176-.175.526-.175.526-.175h.263v-1.395h-4.994v1.308h.175c.088 0 .701.174.789.61 0 0 5.87 23.892 6.133 24.851v.087h.876v-.087c0-.174 2.365-14.998 2.89-17.788.526 2.79 3.593 17.614 3.68 17.788v.087h.789l5.782-24.938c.088-.523.614-.61.789-.61h.263v-1.395l-4.206.174v1.395z" fill="#FFF"/><path d="M79.801 20.179l-6.75 21.947a33.982 33.982 0 0 0-1.151-.787c-.99-.666-1.635-1.195-1.938-1.589-.302-.394-.645-1.196-1.029-2.407l-3.602-11.352-4.965 16.135a39.705 39.705 0 0 0-1.483-1.029c-.848-.565-1.413-1.05-1.696-1.453-.282-.404-.605-1.17-.968-2.3L52.192 24.81c-.484-1.513-.883-2.548-1.195-3.103-.313-.555-.762-1.064-1.348-1.528h4.662c-.04.242-.06.373-.06.393 0 .323.11.828.333 1.514l4.965 15.439 3.965-12.715c.364-1.17.545-2.068.545-2.694 0-.726-.424-1.372-1.271-1.937h4.42c-.061.262-.091.464-.091.605 0 .525.151 1.261.454 2.21l4.632 14.44 3.874-12.29c.424-1.353.636-2.281.636-2.786 0-1.05-.575-1.776-1.725-2.18H79.8zm7.992 21.04h-6.055c.687-.364 1.12-.96 1.302-1.787.08-.363.121-1.13.121-2.3V24.264c0-1.17-.04-1.937-.12-2.3-.182-.828-.616-1.423-1.303-1.786h6.055c-.686.363-1.12.958-1.302 1.786-.08.363-.12 1.13-.12 2.3v12.866c0 1.17.04 1.938.12 2.301.182.828.616 1.423 1.302 1.786zm17.952-6.146c0 1.614-.656 3.057-1.968 4.329-1.635 1.574-3.865 2.361-6.69 2.361-1.918 0-3.794-.333-5.631-.999l-.969-3.966c2.16 1.696 4.5 2.543 7.024 2.543 1.352 0 2.487-.313 3.405-.938.919-.626 1.378-1.403 1.378-2.331 0-.888-.354-1.645-1.06-2.27-.605-.525-1.973-1.272-4.102-2.24-2.129-.97-3.597-1.817-4.405-2.544-1.11-1.009-1.665-2.24-1.665-3.693 0-1.715.722-3.088 2.165-4.117 1.443-1.03 3.375-1.544 5.797-1.544 1.595 0 3.22.232 4.874.696v3.633c-1.433-1.393-3.118-2.089-5.055-2.089-1.252 0-2.266.278-3.043.833-.777.555-1.165 1.276-1.165 2.164 0 .787.307 1.448.923 1.983.616.535 1.882 1.246 3.8 2.134 2.28 1.05 3.834 1.907 4.661 2.573 1.15.909 1.726 2.07 1.726 3.482zm21.07 1.998l-1.605 3.723c-1.554.626-3.209.939-4.965.939-3.653 0-6.584-1.004-8.794-3.012-2.21-2.008-3.315-4.667-3.315-7.977 0-3.189 1.07-5.833 3.21-7.932 2.138-2.099 4.843-3.148 8.112-3.148 1.595 0 3.512.272 5.752.817v3.663c-2.038-1.17-3.976-1.755-5.812-1.755-2.24 0-4.072.731-5.495 2.194-1.423 1.464-2.134 3.335-2.134 5.616 0 2.502.777 4.622 2.331 6.357 1.554 1.736 3.461 2.604 5.722 2.604 2.038 0 4.369-.697 6.993-2.09zm24.55-6.509c0 3.128-1.145 5.772-3.435 7.932s-5.08 3.239-8.37 3.239c-3.25 0-6.005-1.06-8.265-3.179-2.26-2.119-3.39-4.702-3.39-7.75 0-3.168 1.155-5.822 3.466-7.961 2.31-2.14 5.181-3.21 8.612-3.21 3.27 0 5.984 1.05 8.144 3.15 1.009.968 1.8 2.148 2.376 3.541.575 1.393.863 2.805.863 4.238zm-3.632.515c0-2.483-.727-4.602-2.18-6.357-1.533-1.857-3.541-2.786-6.024-2.786-2.341 0-4.263.772-5.767 2.316-1.503 1.544-2.255 3.557-2.255 6.04 0 2.623.858 4.884 2.573 6.78 1.433 1.595 3.3 2.392 5.6 2.392 2.382 0 4.32-.777 5.813-2.33 1.493-1.555 2.24-3.573 2.24-6.055zm27.518-10.898c-.686.444-1.14.913-1.362 1.407-.222.495-.333 1.277-.333 2.346v18.315c-1.554-.504-3.018-1.624-4.39-3.36l-11.2-14.198v12.775c0 1.05.115 1.832.347 2.346.232.515.671.984 1.317 1.408h-5.691c.686-.444 1.14-.913 1.362-1.408.222-.494.333-1.276.333-2.346V23.932c0-1.049-.116-1.831-.348-2.346-.232-.514-.671-.984-1.317-1.407h4.662c.04.12.293.514.757 1.18l11.837 15.076V23.932c0-1.049-.116-1.826-.348-2.33-.233-.505-.682-.98-1.348-1.423h5.722zm17.588 14.894c0 1.614-.656 3.057-1.967 4.329-1.635 1.574-3.865 2.361-6.69 2.361-1.918 0-3.795-.333-5.631-.999l-.97-3.966c2.16 1.696 4.501 2.543 7.024 2.543 1.352 0 2.488-.313 3.406-.938.918-.626 1.377-1.403 1.377-2.331 0-.888-.353-1.645-1.06-2.27-.605-.525-1.972-1.272-4.101-2.24-2.13-.97-3.598-1.817-4.405-2.544-1.11-1.009-1.665-2.24-1.665-3.693 0-1.715.722-3.088 2.165-4.117 1.443-1.03 3.375-1.544 5.797-1.544 1.594 0 3.219.232 4.874.696v3.633c-1.433-1.393-3.118-2.089-5.056-2.089-1.251 0-2.265.278-3.042.833-.777.555-1.166 1.276-1.166 2.164 0 .787.308 1.448.924 1.983.615.535 1.882 1.246 3.799 2.134 2.28 1.05 3.834 1.907 4.662 2.573 1.15.909 1.725 2.07 1.725 3.482zm8.81 6.145h-6.055c.686-.363 1.12-.958 1.302-1.786.08-.363.121-1.13.121-2.3V24.264c0-1.17-.04-1.937-.121-2.3-.182-.828-.616-1.423-1.302-1.786h6.055c-.686.363-1.12.958-1.302 1.786-.08.363-.121 1.13-.121 2.3v12.866c0 1.17.04 1.938.121 2.301.182.828.616 1.423 1.302 1.786zm24.218-21.04c-.686.445-1.14.914-1.362 1.408-.222.495-.333 1.277-.333 2.346v18.315c-1.554-.504-3.018-1.624-4.39-3.36l-11.2-14.198v12.775c0 1.05.115 1.832.347 2.346.232.515.671.984 1.317 1.408h-5.691c.686-.444 1.14-.913 1.362-1.408.222-.494.333-1.276.333-2.346V23.932c0-1.049-.116-1.831-.348-2.346-.232-.514-.671-.984-1.317-1.407h4.662c.04.12.293.514.757 1.18l11.837 15.076V23.932c0-1.049-.116-1.826-.348-2.33-.233-.505-.682-.98-1.348-1.423h5.722z" fill="#D21E1E"/><path d="M56.848 55.4h-1.34v-.657c-.45.54-1.078.81-1.882.81-.498 0-.933-.111-1.305-.333a1.752 1.752 0 0 1-.819-1.035c-.06-.216-.09-.57-.09-1.062V50.36c0-.348-.012-.576-.036-.684a.748.748 0 0 0-.387-.531h1.8a.773.773 0 0 0-.387.531c-.024.114-.036.342-.036.684v2.763c0 .546.111.951.333 1.215.294.348.696.522 1.206.522.606 0 1.068-.225 1.386-.675.12-.18.18-.426.18-.738V50.36c0-.342-.012-.57-.036-.684a.773.773 0 0 0-.387-.531h1.8a.773.773 0 0 0-.387.531c-.024.114-.036.342-.036.684v3.825c0 .342.012.57.036.684.054.24.183.417.387.531zm7.4-6.255c-.204.132-.339.271-.405.418-.066.148-.099.38-.099.698v5.445c-.462-.15-.897-.483-1.305-.999l-3.33-4.221v3.798c0 .312.035.544.104.697.069.154.2.293.391.419h-1.692c.204-.132.34-.271.405-.419.066-.147.1-.379.1-.697v-4.023c0-.312-.035-.544-.104-.698-.07-.153-.2-.292-.392-.418h1.386c.012.036.087.153.225.351l3.52 4.482v-3.717c0-.312-.035-.543-.104-.693-.07-.15-.203-.291-.4-.423h1.7zm2.828 6.255h-1.8a.748.748 0 0 0 .387-.531c.024-.108.036-.336.036-.684V50.36c0-.348-.012-.576-.036-.684a.748.748 0 0 0-.387-.531h1.8a.748.748 0 0 0-.387.531c-.024.108-.036.336-.036.684v3.825c0 .348.012.576.036.684a.748.748 0 0 0 .387.531zm6.5-6.255l-2.538 6.534c-.432-.282-.71-.498-.837-.648-.108-.132-.237-.399-.387-.801l-1.287-3.474c-.234-.636-.385-1.023-.454-1.161a1.619 1.619 0 0 0-.374-.45h1.386a.559.559 0 0 0-.009.108c0 .126.072.384.216.774l1.557 4.248 1.341-3.519c.192-.51.288-.867.288-1.071 0-.264-.114-.444-.342-.54h1.44zm5.132 5.013l-.44 1.242h-3.96a.748.748 0 0 0 .386-.531c.024-.114.036-.345.036-.693V50.36c0-.342-.012-.57-.036-.684a.748.748 0 0 0-.387-.531h3.16c.137 0 .257-.018.36-.054v1.107a1.202 1.202 0 0 0-.532-.315c-.138-.042-.348-.063-.63-.063-.396 0-.723.021-.98.063v1.773h1.268a.761.761 0 0 0 .324-.063v1.008c-.132-.174-.38-.261-.747-.261h-.846v2.259a7.22 7.22 0 0 0 1.17.099c.756 0 1.374-.18 1.854-.54zm6.365 1.242c-.468.036-.759.054-.873.054-.27 0-.502-.063-.697-.189-.195-.126-.452-.378-.77-.756a17.172 17.172 0 0 1-1.665-2.367c1.056-.18 1.584-.633 1.584-1.359a.983.983 0 0 0-.32-.76c-.212-.196-.49-.293-.832-.293-.186 0-.408.024-.666.072v4.383c0 .348.012.576.036.684a.748.748 0 0 0 .387.531h-1.8a.748.748 0 0 0 .387-.531c.024-.108.036-.336.036-.684V50.36c0-.348-.012-.576-.036-.684a.748.748 0 0 0-.387-.531h1.377c.096 0 .237-.003.423-.009.186-.006.327-.009.423-.009.606 0 1.074.123 1.404.369.42.312.63.717.63 1.215 0 .366-.144.7-.432 1.004a2.25 2.25 0 0 1-1.107.625c.708.954 1.274 1.653 1.697 2.097.423.444.823.765 1.201.963zm4.682-1.827c0 .48-.195.909-.585 1.287-.486.468-1.149.702-1.989.702-.57 0-1.128-.099-1.674-.297l-.288-1.179c.642.504 1.338.756 2.088.756.402 0 .74-.093 1.013-.279.273-.186.41-.417.41-.693a.87.87 0 0 0-.316-.675c-.18-.156-.586-.378-1.22-.666-.632-.288-1.069-.54-1.309-.756-.33-.3-.495-.666-.495-1.098 0-.51.215-.918.644-1.224.429-.306 1.003-.459 1.723-.459.474 0 .957.069 1.45.207v1.08a2.086 2.086 0 0 0-1.504-.621c-.372 0-.673.082-.904.248-.231.165-.347.379-.347.643 0 .234.092.43.275.59.183.159.56.37 1.13.634.677.312 1.14.567 1.385.765.342.27.513.615.513 1.035zm2.82 1.827h-1.8a.748.748 0 0 0 .386-.531c.024-.108.036-.336.036-.684V50.36c0-.348-.012-.576-.036-.684a.748.748 0 0 0-.387-.531h1.8a.748.748 0 0 0-.387.531c-.024.108-.036.336-.036.684v3.825c0 .348.012.576.036.684a.748.748 0 0 0 .387.531zm5.572-6.318l-.306 1.134a.597.597 0 0 0-.378-.315c-.102-.03-.273-.045-.513-.045-.048 0-.127.005-.238.014a5.487 5.487 0 0 1-.428.013h-.153v4.401c0 .312.033.541.1.688.065.148.2.29.404.428h-1.88a.748.748 0 0 0 .386-.531c.024-.114.036-.342.036-.684v-4.302a8.395 8.395 0 0 0-.765-.027c-.288 0-.504.018-.648.054a1.67 1.67 0 0 0-.585.306l.351-1.134c.126.042.288.063.486.063h3.573c.078 0 .16-.003.243-.009l.126-.009c.03-.006.093-.021.19-.045zm6.248.063l-2.33 3.519v1.62c0 .288.023.495.071.621.06.15.195.315.405.495h-1.836a.865.865 0 0 0 .37-.54c.023-.102.035-.327.035-.675v-1.521l-1.638-2.637a3.538 3.538 0 0 0-.396-.544 2.291 2.291 0 0 0-.45-.338l1.08-.036c.144 0 .243.021.297.063.054.042.147.171.28.387l1.43 2.34 1.197-1.818c.12-.18.18-.333.18-.459 0-.192-.114-.351-.342-.477h1.647zm10.12 3.087c0 .93-.34 1.716-1.021 2.358-.681.642-1.51.963-2.489.963-.966 0-1.785-.315-2.457-.945-.672-.63-1.008-1.398-1.008-2.304 0-.942.344-1.731 1.03-2.367.688-.636 1.541-.954 2.561-.954.972 0 1.78.312 2.421.936.3.288.536.639.707 1.053.17.414.256.834.256 1.26zm-1.08.153c0-.738-.216-1.368-.648-1.89-.456-.552-1.053-.828-1.79-.828-.697 0-1.268.23-1.715.688-.447.46-.67 1.058-.67 1.796 0 .78.254 1.452.764 2.016.426.474.981.711 1.665.711.708 0 1.284-.231 1.728-.693.444-.462.666-1.062.666-1.8zm5.636-2.196a1.339 1.339 0 0 0-.522-.315 2.77 2.77 0 0 0-.63-.054c-.39 0-.72.021-.99.063v1.773h1.27a.761.761 0 0 0 .323-.063v1.008c-.126-.174-.375-.261-.747-.261h-.846v1.845c0 .348.012.576.036.684a.748.748 0 0 0 .387.531h-1.8a.748.748 0 0 0 .387-.531c.024-.108.036-.336.036-.684V50.36c0-.348-.012-.576-.036-.684a.748.748 0 0 0-.387-.531h3.16c.137 0 .257-.018.36-.054v1.098zm11.893-1.044l-2.007 6.525a10.102 10.102 0 0 0-.342-.234c-.294-.198-.486-.355-.576-.472-.09-.118-.192-.356-.306-.716l-1.07-3.375-1.477 4.797a11.804 11.804 0 0 0-.44-.306c-.253-.168-.42-.312-.505-.432-.084-.12-.18-.348-.288-.684l-1.197-3.726c-.144-.45-.262-.757-.355-.922a1.568 1.568 0 0 0-.4-.455h1.385a2.098 2.098 0 0 0-.018.117c0 .096.033.246.1.45l1.475 4.59 1.18-3.78c.107-.348.161-.615.161-.801 0-.216-.126-.408-.378-.576h1.314a.867.867 0 0 0-.027.18c0 .156.045.375.135.657l1.377 4.293 1.152-3.654c.126-.402.19-.678.19-.828 0-.312-.172-.528-.514-.648h1.431zm2.576 6.255h-1.8a.748.748 0 0 0 .387-.531c.024-.108.036-.336.036-.684V50.36c0-.348-.012-.576-.036-.684a.748.748 0 0 0-.387-.531h1.8a.748.748 0 0 0-.387.531c-.024.108-.036.336-.036.684v3.825c0 .348.012.576.036.684a.748.748 0 0 0 .387.531zm5.537-1.827c0 .48-.195.909-.585 1.287-.486.468-1.149.702-1.989.702-.57 0-1.128-.099-1.674-.297l-.288-1.179c.642.504 1.338.756 2.088.756.402 0 .74-.093 1.013-.279.273-.186.41-.417.41-.693a.87.87 0 0 0-.316-.675c-.18-.156-.586-.378-1.22-.666-.632-.288-1.069-.54-1.309-.756-.33-.3-.495-.666-.495-1.098 0-.51.215-.918.644-1.224.429-.306 1.003-.459 1.723-.459.474 0 .957.069 1.45.207v1.08a2.086 2.086 0 0 0-1.504-.621c-.372 0-.673.082-.904.248-.231.165-.347.379-.347.643 0 .234.092.43.275.59.183.159.56.37 1.13.634.677.312 1.14.567 1.385.765.342.27.513.615.513 1.035zm6.464.594l-.477 1.107a3.915 3.915 0 0 1-1.476.279c-1.086 0-1.957-.298-2.614-.895-.657-.598-.986-1.388-.986-2.372 0-.948.318-1.734.954-2.358.636-.624 1.44-.936 2.412-.936.474 0 1.044.081 1.71.243v1.089c-.606-.348-1.182-.522-1.728-.522-.666 0-1.21.217-1.633.653-.423.435-.635.991-.635 1.669 0 .744.231 1.374.693 1.89.462.516 1.03.774 1.701.774.606 0 1.3-.207 2.08-.621zm7.5-1.935c0 .93-.341 1.716-1.022 2.358-.681.642-1.51.963-2.489.963-.966 0-1.785-.315-2.457-.945-.672-.63-1.008-1.398-1.008-2.304 0-.942.344-1.731 1.03-2.367.688-.636 1.541-.954 2.561-.954.972 0 1.78.312 2.421.936.3.288.536.639.707 1.053.17.414.256.834.256 1.26zm-1.08.153c0-.738-.217-1.368-.649-1.89-.456-.552-1.053-.828-1.79-.828-.697 0-1.268.23-1.715.688-.447.46-.67 1.058-.67 1.796 0 .78.254 1.452.764 2.016.426.474.981.711 1.665.711.708 0 1.284-.231 1.728-.693.444-.462.666-1.062.666-1.8zm8.38-3.24c-.204.132-.339.271-.405.418-.066.148-.099.38-.099.698v5.445c-.462-.15-.897-.483-1.305-.999l-3.33-4.221v3.798c0 .312.035.544.104.697.069.154.2.293.391.419h-1.692c.204-.132.34-.271.405-.419.066-.147.1-.379.1-.697v-4.023c0-.312-.035-.544-.104-.698-.07-.153-.2-.292-.392-.418h1.386c.012.036.087.153.225.351l3.52 4.482v-3.717c0-.312-.035-.543-.104-.693-.07-.15-.203-.291-.4-.423h1.7zm5.43 4.428c0 .48-.196.909-.586 1.287-.486.468-1.149.702-1.989.702-.57 0-1.128-.099-1.674-.297l-.288-1.179c.642.504 1.338.756 2.088.756.402 0 .74-.093 1.013-.279.273-.186.41-.417.41-.693a.87.87 0 0 0-.316-.675c-.18-.156-.586-.378-1.22-.666-.632-.288-1.069-.54-1.309-.756-.33-.3-.495-.666-.495-1.098 0-.51.215-.918.644-1.224.429-.306 1.003-.459 1.723-.459.474 0 .957.069 1.45.207v1.08a2.086 2.086 0 0 0-1.504-.621c-.372 0-.673.082-.904.248-.231.165-.347.379-.347.643 0 .234.092.43.275.59.183.159.56.37 1.13.634.677.312 1.14.567 1.385.765.342.27.513.615.513 1.035zm2.818 1.827h-1.8a.748.748 0 0 0 .387-.531c.024-.108.036-.336.036-.684V50.36c0-.348-.012-.576-.036-.684a.748.748 0 0 0-.387-.531h1.8a.748.748 0 0 0-.387.531c-.024.108-.036.336-.036.684v3.825c0 .348.012.576.036.684a.748.748 0 0 0 .387.531zm7.4-6.255c-.204.132-.339.271-.405.418-.066.148-.099.38-.099.698v5.445c-.462-.15-.897-.483-1.305-.999l-3.33-4.221v3.798c0 .312.035.544.104.697.069.154.2.293.391.419h-1.692c.204-.132.34-.271.405-.419.066-.147.1-.379.1-.697v-4.023c0-.312-.035-.544-.104-.698-.07-.153-.2-.292-.392-.418h1.386c.012.036.087.153.225.351l3.52 4.482v-3.717c0-.312-.035-.543-.104-.693-.07-.15-.203-.291-.4-.423h1.7zm3.791 3.393l-.513.684c-.084.114-.219.171-.405.171h-1.134c-.348 0-.636.039-.864.117l.54-.675c.084-.108.222-.162.414-.162h1.008c.408 0 .726-.045.954-.135zm9.29 2.862h-1.836c.264-.114.396-.354.396-.72a4.76 4.76 0 0 0-.045-.531l-.504-4.068-2.133 5.445a3.27 3.27 0 0 1-.481-.473 2.748 2.748 0 0 1-.302-.571l-1.863-4.401-.558 4.194c-.03.228-.045.393-.045.495 0 .24.126.45.378.63h-1.557c.264-.252.435-.669.513-1.251l.55-3.996c.035-.264.053-.426.053-.486 0-.192-.11-.366-.333-.522h1.665c0 .084.03.195.09.333l1.827 4.293 1.54-3.942c.12-.306.18-.534.18-.684h1.646c-.198.096-.297.294-.297.594 0 .096.01.21.027.342l.585 4.194c.048.336.1.573.158.711.057.138.172.276.346.414zm7.328 0h-1.97c.227-.138.341-.264.341-.378 0-.072-.054-.249-.162-.531l-.558-1.449h-2.403l-.54 1.449a1.436 1.436 0 0 0-.108.486c0 .162.114.303.342.423h-1.746a1.62 1.62 0 0 0 .477-.432c.102-.15.237-.432.405-.846l1.674-4.176c.072-.18.108-.324.108-.432 0-.15-.096-.273-.288-.369h1.512l1.998 4.977c.15.378.288.654.414.828.126.174.294.324.504.45zm-2.592-2.97l-.963-2.484-.972 2.484h1.935zm9.137-.225c0 .624-.165 1.198-.495 1.724-.33.525-.77.91-1.323 1.156-.468.21-1.305.315-2.51.315h-1.53c.191-.174.305-.315.341-.423.054-.168.081-.447.081-.837v-3.78c0-.348-.012-.576-.036-.684a.748.748 0 0 0-.387-.531h.954c.24 0 .452-.003.635-.009.183-.006.43-.009.742-.009 1.014 0 1.836.261 2.466.783.708.588 1.062 1.353 1.062 2.295zm-1.044.099c0-.732-.22-1.336-.661-1.814-.441-.477-1.076-.715-1.904-.715a4.62 4.62 0 0 0-.873.099v4.752c.222.042.456.063.702.063.792 0 1.395-.153 1.81-.459.617-.456.926-1.098.926-1.926zm3.872 3.096h-1.8a.748.748 0 0 0 .387-.531c.024-.108.036-.336.036-.684V50.36c0-.348-.012-.576-.036-.684a.748.748 0 0 0-.387-.531h1.8a.748.748 0 0 0-.387.531c-.024.108-.036.336-.036.684v3.825c0 .348.012.576.036.684a.748.748 0 0 0 .387.531zm5.537-1.827c0 .48-.195.909-.585 1.287-.486.468-1.149.702-1.989.702-.57 0-1.128-.099-1.674-.297l-.288-1.179c.642.504 1.338.756 2.088.756.402 0 .74-.093 1.013-.279.273-.186.41-.417.41-.693a.87.87 0 0 0-.316-.675c-.18-.156-.586-.378-1.22-.666-.632-.288-1.069-.54-1.309-.756-.33-.3-.495-.666-.495-1.098 0-.51.215-.918.644-1.224.429-.306 1.003-.459 1.723-.459.474 0 .957.069 1.45.207v1.08a2.086 2.086 0 0 0-1.504-.621c-.372 0-.673.082-.904.248-.231.165-.347.379-.347.643 0 .234.092.43.275.59.183.159.56.37 1.13.634.677.312 1.14.567 1.385.765.342.27.513.615.513 1.035zm7.886-1.341c0 .93-.34 1.716-1.021 2.358-.681.642-1.51.963-2.489.963-.966 0-1.785-.315-2.457-.945-.672-.63-1.008-1.398-1.008-2.304 0-.942.344-1.731 1.03-2.367.688-.636 1.541-.954 2.561-.954.972 0 1.78.312 2.421.936.3.288.536.639.707 1.053.17.414.256.834.256 1.26zm-1.08.153c0-.738-.216-1.368-.648-1.89-.456-.552-1.053-.828-1.79-.828-.697 0-1.268.23-1.715.688-.447.46-.67 1.058-.67 1.796 0 .78.254 1.452.764 2.016.426.474.981.711 1.665.711.708 0 1.284-.231 1.728-.693.444-.462.666-1.062.666-1.8zm8.381-3.24c-.204.132-.339.271-.405.418-.066.148-.099.38-.099.698v5.445c-.462-.15-.897-.483-1.305-.999l-3.33-4.221v3.798c0 .312.035.544.104.697.069.154.2.293.391.419h-1.692c.204-.132.34-.271.405-.419.066-.147.1-.379.1-.697v-4.023c0-.312-.035-.544-.104-.698-.07-.153-.2-.292-.392-.418h1.386c.012.036.087.153.225.351l3.52 4.482v-3.717c0-.312-.035-.543-.104-.693-.07-.15-.203-.291-.4-.423h1.7z" fill-opacity=".58" fill="#000"/></g></svg>