<?xml version="1.0" encoding="UTF-8" standalone="no"?>
<svg width="227px" height="68px" viewBox="0 0 227 68" version="1.1" xmlns="http://www.w3.org/2000/svg" xmlns:xlink="http://www.w3.org/1999/xlink" xmlns:sketch="http://www.bohemiancoding.com/sketch/ns">
    <!-- Generator: Sketch 3.5.1 (25234) - http://www.bohemiancoding.com/sketch -->
    <title>uw logo text + Wisconsin + UNIVERSITY OF WISCON</title>
    <desc>Created with Sketch.</desc>
    <defs>
        <linearGradient x1="49.6491768%" y1="100.100851%" x2="49.6491768%" y2="0.00463667711%" id="linearGradient-1">
            <stop stop-color="#781B21" offset="0%"></stop>
            <stop stop-color="#8A1E24" offset="4.82%"></stop>
            <stop stop-color="#9D2228" offset="12.09%"></stop>
            <stop stop-color="#AB252A" offset="20.52%"></stop>
            <stop stop-color="#B3272C" offset="31.05%"></stop>
            <stop stop-color="#B5272C" offset="50.21%"></stop>
            <stop stop-color="#B2262C" offset="67.37%"></stop>
            <stop stop-color="#AA252A" offset="78.31%"></stop>
            <stop stop-color="#9B2227" offset="87.5%"></stop>
            <stop stop-color="#861E24" offset="95.69%"></stop>
            <stop stop-color="#781B21" offset="100%"></stop>
        </linearGradient>
        <linearGradient x1="49.7749133%" y1="100.100851%" x2="49.7749133%" y2="0.00463667711%" id="linearGradient-2">
            <stop stop-color="#781B21" offset="0%"></stop>
            <stop stop-color="#8A1E24" offset="4.82%"></stop>
            <stop stop-color="#9D2228" offset="12.09%"></stop>
            <stop stop-color="#AB252A" offset="20.52%"></stop>
            <stop stop-color="#B3272C" offset="31.05%"></stop>
            <stop stop-color="#B5272C" offset="50.21%"></stop>
            <stop stop-color="#B2262C" offset="67.37%"></stop>
            <stop stop-color="#AA252A" offset="78.31%"></stop>
            <stop stop-color="#9B2227" offset="87.5%"></stop>
            <stop stop-color="#861E24" offset="95.69%"></stop>
            <stop stop-color="#781B21" offset="100%"></stop>
        </linearGradient>
    </defs>
    <g id="Home-page" stroke="none" stroke-width="1" fill="none" fill-rule="evenodd" sketch:type="MSPage">
        <g id="Desktop-HD-No-Hero-Image-Alt" sketch:type="MSArtboardGroup" transform="translate(-180.000000, -24.000000)">
            <g id="uw-logo-text-+-Wisconsin-+-UNIVERSITY-OF-WISCON" sketch:type="MSLayerGroup" transform="translate(179.000000, 24.000000)">
                <g id="uw-logo-text" transform="translate(0.736911, 0.000000)" sketch:type="MSShapeGroup">
                    <path d="M44.5067088,24.502021 C44.1562623,21.0141888 43.280146,17.8751399 42.2288064,15.2592657 C42.2288064,15.1720699 42.0535832,14.9104825 42.0535832,14.8232867 C41.0898552,12.8177832 39.950904,10.9866713 38.6367295,9.67873427 C36.1836038,7.15005594 33.2048084,5.75492308 29.8755664,5.66772727 L29.7879547,5.66772727 C29.2622849,4.53418182 27.7728872,3.74941958 26.5463244,3.57502797 C26.5463244,3.57502797 25.7578197,0.610370629 22.6038009,0.610370629 C19.4497822,0.610370629 18.6612775,3.57502797 18.6612775,3.57502797 C17.3471031,3.74941958 15.9453169,4.53418182 15.4196472,5.66772727 L15.3320355,5.66772727 C12.0027935,5.66772727 9.02399805,7.06286014 6.57087237,9.67873427 C5.25669789,11.0738671 4.11774668,12.8177832 3.15401874,14.8232867 C3.15401874,14.8232867 2.97879547,15.1720699 2.97879547,15.2592657 C1.83984426,17.8751399 0.963727947,21.0141888 0.700893053,24.502021 C-1.13895121,41.7667902 7.00893053,62.9553706 21.7276846,66.1816154 C21.9029079,66.5303986 22.5161893,67.1407692 22.7790242,67.1407692 C23.0418591,67.1407692 23.5675289,66.5303986 23.8303638,66.1816154 C38.1986714,62.8681748 46.3465531,41.7667902 44.5067088,24.502021 L44.5067088,24.502021 L44.5067088,24.502021 Z" id="Gold" fill="#DFCBA0"></path>
                    <path d="M36.1836038,30.6057273 C36.0959922,28.6002238 35.4827108,21.6245594 31.0145176,18.9214895 C30.0507896,18.3111189 28.8242268,17.8751399 27.5100523,17.8751399 C25.3197615,17.7879441 23.6551405,18.5727063 22.6038009,18.5727063 L22.6038009,18.5727063 C21.4648497,18.5727063 19.8878404,17.7007483 17.6975496,17.8751399 C16.3833751,17.9623357 15.1568123,18.3983147 14.1930843,18.9214895 C9.72489111,21.6245594 9.11160968,28.513028 9.02399805,30.6057273 C8.76116316,37.842979 11.1266772,43.5107063 11.8275703,45.0802308 C14.8939774,51.5327203 18.6612775,55.9797063 22.3409661,57.5492308 L22.6038009,57.6364266 L22.8666358,57.5492308 C26.5463244,55.9797063 30.3136245,51.5327203 33.3800316,45.0802308 C34.0809247,43.5107063 36.4464387,37.842979 36.1836038,30.6057273 L36.1836038,30.6057273 Z" id="Red" fill="url(#linearGradient-1)"></path>
                    <path d="M29.1746733,25.4611748 L29.1746733,26.8563077 L29.4375082,26.8563077 L29.5251198,26.8563077 C29.7003431,26.8563077 29.963178,26.8563077 30.1384013,27.0306993 C30.3136245,27.2050909 30.3136245,27.4666783 30.3136245,27.9026573 C30.3136245,27.9026573 27.3348291,40.2844615 26.7215476,42.5515524 C26.1082662,39.5868951 22.5161893,23.3684755 22.5161893,23.3684755 L22.5161893,23.2812797 L21.9029079,23.2812797 L21.9029079,23.3684755 C21.9029079,23.3684755 19.3621706,39.1509161 18.8365008,42.289965 C18.1356077,39.5868951 15.2444239,27.8154615 15.2444239,27.8154615 L15.2444239,27.6410699 C15.2444239,27.2922867 15.3320355,27.0306993 15.5072588,26.9435035 C15.6824821,26.7691119 16.0329286,26.7691119 16.0329286,26.7691119 L16.2957635,26.7691119 L16.2957635,25.373979 L11.3895121,25.373979 L11.3895121,26.6819161 L11.5647354,26.6819161 C11.652347,26.6819161 12.2656284,26.8563077 12.3532401,27.2922867 C12.3532401,27.2922867 18.2232194,51.1839371 18.4860543,52.1430909 L18.4860543,52.2302867 L19.3621706,52.2302867 L19.3621706,52.1430909 C19.4497822,51.9686993 21.7276846,37.1454126 22.2533544,34.3551469 C22.7790242,37.1454126 25.8454313,51.9686993 25.9330429,52.1430909 L25.9330429,52.2302867 L26.7215476,52.2302867 L32.5039153,27.2922867 C32.5915269,26.7691119 33.1171967,26.6819161 33.29242,26.6819161 L33.29242,26.6819161 L33.5552549,26.6819161 L33.5552549,25.2867832 L29.1746733,25.4611748 L29.1746733,25.4611748 Z" id="W" fill="#FFFFFF"></path>
                    <path d="M44.3314856,24.502021 C43.9810391,21.0141888 43.1049227,17.8751399 42.0535832,15.2592657 C42.0535832,15.1720699 41.8783599,14.9104825 41.8783599,14.8232867 C40.9146319,12.8177832 39.7756807,10.9866713 38.4615063,9.67873427 C36.0083806,7.15005594 33.0295851,5.75492308 29.7003431,5.66772727 L29.6127315,5.66772727 C29.0870617,4.53418182 27.5976639,3.74941958 26.3711011,3.57502797 C26.3711011,3.57502797 25.5825964,0.610370629 22.4285777,0.610370629 C19.2745589,0.610370629 18.4860543,3.57502797 18.4860543,3.57502797 C17.1718798,3.74941958 15.7700937,4.53418182 15.2444239,5.66772727 L15.1568123,5.66772727 C11.8275703,5.66772727 8.84877479,7.06286014 6.39564911,9.67873427 C5.08147463,11.0738671 3.94252342,12.8177832 2.97879547,14.8232867 C2.97879547,14.8232867 2.80357221,15.1720699 2.80357221,15.2592657 C1.664621,17.8751399 0.788504684,21.0141888 0.525669789,24.502021 C-1.31417447,41.7667902 6.83370726,62.9553706 21.5524614,66.1816154 C21.7276846,66.5303986 22.3409661,67.1407692 22.6038009,67.1407692 C22.8666358,67.1407692 23.3923056,66.5303986 23.6551405,66.1816154 C38.0234481,62.8681748 46.2589415,41.7667902 44.3314856,24.502021 L44.3314856,24.502021 L44.3314856,24.502021 Z M43.7182042,24.5892168 L43.7182042,25.1995874 C43.0173111,25.1995874 42.3164181,25.2867832 41.7031366,25.5483706 C41.2650785,20.2294266 39.6880691,15.7824406 37.4101667,12.7305874 C37.8482248,12.2074126 38.4615063,11.7714336 39.1623993,11.5098462 C41.5279134,14.6488951 43.1925344,19.0958811 43.7182042,24.5892168 L43.7182042,24.5892168 Z M15.0692006,12.1202168 C14.5435308,12.2074126 14.5435308,13.0793706 14.6311425,13.6897413 C14.7187541,14.3001119 15.0692006,14.9104825 15.4196472,14.9104825 C16.1205402,14.8232867 16.7338216,13.340958 16.64621,12.2946084 C16.5585984,10.7250839 15.6824821,10.3763007 15.1568123,10.3763007 C14.2806959,10.3763007 13.5798029,11.6842378 13.5798029,13.4281538 C13.5798029,15.1720699 14.1930843,16.480007 15.1568123,16.480007 C15.5072588,16.480007 22.2533544,17.351965 21.640073,11.7714336 C21.3772381,9.15555944 19.7126171,7.23725175 18.1356077,6.36529371 C19.6250055,5.49333566 21.5524614,6.97566434 22.0781312,8.80677622 C22.1657428,9.15555944 22.4285777,9.15555944 22.5161893,8.80677622 C23.1294707,6.88846853 24.7940917,5.58053147 26.2834895,6.36529371 C24.7064801,7.23725175 23.2170824,9.15555944 22.9542475,11.7714336 C22.5161893,17.4391608 29.2622849,16.5672028 29.5251198,16.480007 C30.4012362,16.480007 31.1021292,15.1720699 31.1021292,13.4281538 C31.1021292,11.6842378 30.4012362,10.3763007 29.5251198,10.3763007 C28.9994501,10.3763007 28.1233337,10.8122797 28.0357221,12.2946084 C28.0357221,13.4281538 28.5613919,14.8232867 29.2622849,14.9104825 C29.6127315,14.9104825 29.963178,14.3001119 30.0507896,13.6897413 C30.1384013,13.0793706 30.0507896,12.2946084 29.6127315,12.1202168 C29.4375082,12.1202168 29.2622849,12.1202168 29.2622849,12.2946084 C29.2622849,12.3818042 29.6127315,12.6433916 29.5251198,13.340958 C29.5251198,14.3001119 28.4737803,13.8641329 28.6490035,12.2946084 C28.7366152,10.9866713 29.5251198,11.0738671 29.5251198,11.0738671 C29.8755664,11.0738671 30.5764594,11.8586294 30.5764594,13.340958 C30.5764594,14.6488951 29.8755664,16.1312238 28.5613919,15.3464615 C27.5100523,14.5616993 27.0719942,12.8177832 27.3348291,11.5098462 C27.4224407,10.8994755 28.0357221,9.24275524 29.8755664,9.24275524 C32.4163037,9.24275524 34.8694294,10.4634965 36.7968853,12.904979 L36.7968853,12.904979 C36.621662,13.5153497 35.5703224,15.8696364 31.1897408,18.2239231 C29.7003431,17.351965 28.0357221,17.0031818 26.5463244,17.0031818 C24.1808103,17.0031818 23.3923056,17.7007483 22.3409661,17.7007483 L22.3409661,17.7007483 C21.2896265,17.7007483 20.5011218,17.0031818 18.1356077,17.0031818 C16.5585984,17.0031818 14.8939774,17.351965 13.4921913,18.2239231 C9.19922132,15.8696364 8.14788174,13.6025455 7.88504684,12.904979 C9.81250274,10.4634965 12.2656284,9.15555944 14.8939774,9.15555944 C16.7338216,9.15555944 17.2594914,10.8122797 17.3471031,11.4226503 C17.6099379,12.7305874 17.2594914,14.5616993 16.1205402,15.2592657 C14.8063657,15.9568322 14.1054727,14.5616993 14.1054727,13.2537622 C14.1054727,11.7714336 14.7187541,10.9866713 15.1568123,10.9866713 C15.1568123,10.9866713 15.9453169,10.8994755 16.0329286,12.2946084 C16.1205402,13.7769371 15.1568123,14.3001119 15.1568123,13.340958 C15.1568123,12.7305874 15.5072588,12.469 15.4196472,12.2946084 C15.4196472,12.2074126 15.2444239,12.033021 15.0692006,12.1202168 L15.0692006,12.1202168 L15.0692006,12.1202168 Z M37.1473318,13.340958 C39.3376226,16.3056154 40.9146319,20.6654056 41.1774668,26.2459371 C40.3889622,26.6819161 38.7243412,27.3794825 36.5340504,27.5538741 C36.0083806,24.6764126 34.7818177,20.7526014 31.7154106,18.5727063 C35.5703224,16.3928112 36.7968853,14.3001119 37.1473318,13.340958 L37.1473318,13.340958 Z M13.0541331,18.4855105 C9.987726,20.6654056 8.76116316,24.5892168 8.23549337,27.4666783 C6.04520258,27.2922867 4.38058158,26.5947203 3.59207689,26.1587413 C3.94252342,20.5782098 5.43192116,16.2184196 7.62221195,13.340958 C7.97265847,14.3001119 9.19922132,16.3928112 13.0541331,18.4855105 L13.0541331,18.4855105 L13.0541331,18.4855105 Z M8.14788174,27.9026573 C7.97265847,28.949007 7.97265847,29.820965 7.88504684,30.4313357 L7.88504684,33.1344056 L7.88504684,33.6575804 L7.88504684,33.7447762 C7.97265847,35.4886923 8.23549337,37.2326084 8.67355153,38.9765245 L8.67355153,39.1509161 C9.37444458,42.2027692 10.3381725,44.4698601 10.7762307,45.2546224 C11.4771237,46.6497552 12.1780168,47.9576923 12.8789098,49.0912378 C11.4771237,50.311979 9.46205621,50.747958 8.76116316,50.9223497 C4.993863,43.9466853 3.15401874,34.8783217 3.59207689,26.6819161 C4.38058158,27.1178951 5.95759095,27.7282657 8.14788174,27.9026573 L8.14788174,27.9026573 L8.14788174,27.9026573 Z M13.0541331,49.5272168 C15.5072588,53.5382238 17.9603845,55.9797063 19.8002287,57.2004476 C19.0993357,58.8571678 17.5223263,60.0779091 16.9966565,60.5138881 C13.7550262,58.5083846 11.0390656,55.1949441 8.93638642,51.2711329 C9.72489111,51.1839371 11.652347,50.6607622 13.0541331,49.5272168 L13.0541331,49.5272168 Z M20.2382869,57.462035 C21.2896265,58.1596014 22.3409661,58.5955804 22.4285777,58.5955804 C22.5161893,58.5955804 23.5675289,58.1596014 24.5312568,57.462035 L24.5312568,57.462035 C25.2321499,59.0315594 26.633936,60.2523007 27.3348291,60.7754755 C26.3711011,61.3858462 25.4073732,61.8218252 24.4436452,62.1706084 L24.4436452,62.0834126 C24.2684219,61.0370629 22.7790242,60.8626713 22.3409661,60.8626713 C21.8152963,60.8626713 20.4135102,61.0370629 20.2382869,62.0834126 L20.2382869,62.1706084 C19.2745589,61.8218252 18.310831,61.3858462 17.3471031,60.8626713 C18.0479961,60.2523007 19.4497822,59.0315594 20.2382869,57.462035 L20.2382869,57.462035 L20.2382869,57.462035 Z M24.969315,57.2004476 C26.8091593,55.8925105 29.2622849,53.451028 31.7154106,49.5272168 C33.0295851,50.6607622 34.8694294,51.1839371 35.8331573,51.3583287 C33.7304782,55.2821399 31.0145176,58.5083846 27.8604988,60.6010839 C27.1596058,60.0779091 25.5825964,58.8571678 24.969315,57.2004476 L24.969315,57.2004476 Z M31.8906339,49.0912378 C32.5915269,47.9576923 33.29242,46.6497552 33.9057014,45.3418182 C34.2561479,44.5570559 35.3074875,42.289965 36.0083806,39.2381119 L36.0083806,39.0637203 C36.3588271,37.3198042 36.621662,35.5758881 36.7968853,33.831972 L36.7968853,33.7447762 L36.7968853,33.2216014 L36.7968853,30.5185315 C36.7968853,29.9081608 36.7092736,29.0362028 36.5340504,27.9898531 C38.6367295,27.8154615 40.3013505,27.2050909 41.0898552,26.7691119 C41.3526901,34.9655175 39.5128458,43.9466853 35.8331573,51.0095455 C35.1322643,50.747958 33.2048084,50.2247832 31.8906339,49.0912378 L31.8906339,49.0912378 Z M29.4375082,6.36529371 C33.2048084,6.36529371 36.4464387,8.10920979 38.8995644,11.1610629 C38.286283,11.4226503 37.6730016,11.8586294 37.1473318,12.3818042 C35.1322643,9.94032168 32.6791386,8.54518881 29.8755664,8.54518881 C28.1233337,8.54518881 26.9843825,9.76593007 26.633936,11.3354545 C26.3711011,12.6433916 26.633936,14.2129161 27.5100523,15.1720699 C27.9481105,15.608049 27.6852756,15.7824406 27.5976639,15.7824406 C26.4587127,15.7824406 23.304694,15.1720699 23.5675289,11.6842378 C23.7427522,9.41714685 24.969315,7.93481818 26.1958778,7.06286014 C27.5100523,6.45248951 28.9118384,6.36529371 29.4375082,6.36529371 L29.4375082,6.36529371 L29.4375082,6.36529371 Z M22.3409661,1.22074126 C24.8817034,1.22074126 25.4949848,3.57502797 25.4949848,3.66222378 C25.3197615,3.66222378 25.1445383,3.66222378 24.969315,3.74941958 L24.5312568,3.83661538 C23.6551405,4.0982028 22.8666358,4.70857343 22.4285777,5.49333566 C22.4285777,5.49333566 22.4285777,5.58053147 22.3409661,5.58053147 L22.2533544,5.49333566 C21.8152963,4.70857343 21.0267916,4.1853986 20.1506753,3.83661538 L19.7126171,3.74941958 C19.5373938,3.74941958 19.3621706,3.74941958 19.1869473,3.66222378 C19.1869473,3.57502797 19.8002287,1.22074126 22.3409661,1.22074126 L22.3409661,1.22074126 Z M18.9241124,4.01100699 C20.4135102,4.01100699 21.640073,4.88296503 22.0781312,6.1909021 C22.1657428,6.53968531 22.3409661,6.53968531 22.5161893,6.1909021 C22.9542475,4.88296503 24.2684219,4.01100699 25.6702081,4.01100699 C26.8967709,4.01100699 28.0357221,4.70857343 28.6490035,5.75492308 C28.2109454,5.84211888 27.7728872,5.92931469 27.2472174,6.10370629 C26.3711011,5.40613986 25.5825964,5.40613986 25.0569266,5.58053147 C23.8303638,5.92931469 22.8666358,7.06286014 22.3409661,8.10920979 L22.3409661,8.10920979 C21.8152963,7.15005594 20.8515683,6.01651049 19.6250055,5.58053147 C19.0993357,5.40613986 18.2232194,5.40613986 17.4347147,6.10370629 C16.9966565,5.92931469 16.4709867,5.84211888 16.0329286,5.75492308 C16.5585984,4.70857343 17.6975496,4.01100699 18.9241124,4.01100699 L18.9241124,4.01100699 L18.9241124,4.01100699 Z M15.2444239,6.36529371 C15.7700937,6.36529371 17.1718798,6.45248951 18.3984426,7.15005594 C19.7126171,8.02201399 20.8515683,9.50434266 21.0267916,11.7714336 C21.2896265,15.1720699 17.6099379,15.7824406 16.9090449,15.7824406 C16.8214333,15.7824406 16.7338216,15.6952448 17.0842682,15.3464615 C17.9603845,14.3001119 18.2232194,12.7305874 17.9603845,11.5098462 C17.6099379,9.94032168 16.4709867,8.71958042 14.7187541,8.71958042 C11.9151819,8.71958042 9.46205621,10.1147133 7.44698868,12.5561958 C7.00893053,12.033021 6.39564911,11.597042 5.69475605,11.3354545 C8.23549337,8.10920979 11.4771237,6.36529371 15.2444239,6.36529371 L15.2444239,6.36529371 L15.2444239,6.36529371 Z M0.963727947,24.5892168 C1.57700937,19.0958811 3.15401874,14.6488951 5.51953279,11.5098462 C6.13281421,11.7714336 6.74609563,12.2074126 7.27176542,12.8177832 C4.993863,15.7824406 3.41685363,20.2294266 2.97879547,25.6355664 C2.36551405,25.373979 1.664621,25.2867832 0.963727947,25.2867832 L0.963727947,24.5892168 L0.963727947,24.5892168 Z M5.08147463,50.0503916 C1.664621,42.6387483 0.175223263,33.831972 0.876116316,25.6355664 C1.57700937,25.6355664 2.27790242,25.7227622 2.89118384,25.9843497 L2.89118384,26.5075245 C2.36551405,34.7039301 4.29296995,43.6850979 7.88504684,50.8351538 C7.18415379,51.0095455 6.48326074,51.2711329 5.86997932,51.7071119 L5.08147463,50.0503916 L5.08147463,50.0503916 Z M6.04520258,51.9686993 C6.658484,51.5327203 7.35937705,51.2711329 8.06027011,51.0967413 C10.1629493,55.1077483 12.9665215,58.5083846 16.2081518,60.6882797 C15.6824821,61.1242587 15.1568123,61.7346294 14.8939774,62.345 C11.4771237,60.1651049 8.49832826,56.5900769 6.04520258,51.9686993 L6.04520258,51.9686993 L6.04520258,51.9686993 Z M15.2444239,62.6937832 C15.5072588,61.9962168 16.0329286,61.473042 16.5585984,61.0370629 C17.6975496,61.7346294 18.9241124,62.345 20.1506753,62.780979 C20.1506753,63.6529371 20.3258985,64.5248951 20.6763451,65.1352657 C18.7488892,64.6120909 16.9966565,63.8273287 15.2444239,62.6937832 L15.2444239,62.6937832 Z M22.6038009,66.0944196 C22.6038009,66.0944196 22.5161893,66.2688112 22.3409661,66.2688112 C22.2533544,66.2688112 22.0781312,66.0944196 22.0781312,66.0944196 C21.4648497,65.3968531 20.5011218,63.9145245 20.8515683,62.1706084 C20.9391799,61.6474336 21.8152963,61.473042 22.3409661,61.473042 C22.8666358,61.473042 23.7427522,61.6474336 23.8303638,62.1706084 C24.1808103,63.9145245 23.2170824,65.3096573 22.6038009,66.0944196 L22.6038009,66.0944196 Z M24.0055871,65.1352657 C24.3560336,64.5248951 24.5312568,63.6529371 24.5312568,62.780979 C25.7578197,62.345 26.9843825,61.7346294 28.1233337,60.9498671 C28.6490035,61.3858462 29.1746733,61.9962168 29.4375082,62.6065874 C27.7728872,63.8273287 25.9330429,64.6120909 24.0055871,65.1352657 L24.0055871,65.1352657 L24.0055871,65.1352657 Z M29.8755664,62.4321958 C29.6127315,61.8218252 29.0870617,61.2114545 28.5613919,60.7754755 C31.8030223,58.5955804 34.5189828,55.1949441 36.621662,51.1839371 C37.3225551,51.2711329 38.0234481,51.6199161 38.6367295,52.0558951 C36.2712155,56.5028811 33.29242,60.0779091 29.8755664,62.4321958 L29.8755664,62.4321958 Z M39.6004575,50.0503916 C39.3376226,50.5735664 39.0747877,51.0967413 38.8119528,51.6199161 C38.1986714,51.1839371 37.4977783,50.9223497 36.7968853,50.747958 C40.4765738,43.6850979 42.3164181,34.6167343 41.7907483,26.5075245 L41.7907483,25.9843497 C42.4040297,25.7227622 43.1049227,25.6355664 43.8058158,25.6355664 C44.5067088,33.831972 43.0173111,42.6387483 39.6004575,50.0503916 L39.6004575,50.0503916 L39.6004575,50.0503916 Z" id="Crest_1_" fill-opacity="0.783401268" fill="#000000"></path>
                    <path d="M36.0083806,30.6057273 C35.9207689,28.6002238 35.3074875,21.6245594 30.8392943,18.9214895 C29.8755664,18.3111189 28.6490035,17.8751399 27.3348291,17.8751399 C25.1445383,17.7879441 23.4799173,18.5727063 22.4285777,18.5727063 L22.4285777,18.5727063 C21.2896265,18.5727063 19.7126171,17.7007483 17.5223263,17.8751399 C16.2081518,17.9623357 14.981589,18.3983147 14.0178611,18.9214895 C9.54966784,21.6245594 8.93638642,28.513028 8.84877479,30.6057273 C8.5859399,37.842979 10.9514539,43.5107063 11.652347,45.0802308 C14.7187541,51.5327203 18.4860543,55.9797063 22.1657428,57.5492308 L22.4285777,57.6364266 L22.6914126,57.5492308 C26.3711011,55.9797063 30.1384013,51.5327203 33.2048084,45.0802308 C33.9057014,43.5107063 36.3588271,37.842979 36.0083806,30.6057273 L36.0083806,30.6057273 Z" id="Red_1_" fill="url(#linearGradient-2)"></path>
                    <path d="M28.9994501,26.8563077 L29.2622849,26.8563077 L29.3498966,26.8563077 C29.5251198,26.8563077 29.7879547,26.8563077 29.963178,27.0306993 C30.1384013,27.2050909 30.1384013,27.4666783 30.1384013,27.9026573 C30.1384013,27.9026573 27.1596058,40.2844615 26.5463244,42.5515524 C25.9330429,39.5868951 22.3409661,23.3684755 22.3409661,23.3684755 L22.3409661,23.2812797 L21.640073,23.2812797 L21.640073,23.3684755 C21.640073,23.3684755 19.0993357,39.1509161 18.5736659,42.289965 C17.8727728,39.5868951 14.981589,27.8154615 14.981589,27.8154615 L14.981589,27.6410699 C14.981589,27.2922867 15.0692006,27.0306993 15.2444239,26.9435035 C15.4196472,26.7691119 15.7700937,26.7691119 15.7700937,26.7691119 L16.0329286,26.7691119 L16.0329286,25.373979 L11.0390656,25.373979 L11.0390656,26.6819161 L11.2142888,26.6819161 C11.3019005,26.6819161 11.9151819,26.8563077 12.0027935,27.2922867 C12.0027935,27.2922867 17.8727728,51.1839371 18.1356077,52.1430909 L18.1356077,52.2302867 L19.0117241,52.2302867 L19.0117241,52.1430909 C19.0117241,51.9686993 21.3772381,37.1454126 21.9029079,34.3551469 C22.4285777,37.1454126 25.4949848,51.9686993 25.5825964,52.1430909 L25.5825964,52.2302867 L26.3711011,52.2302867 L32.1534688,27.2922867 C32.2410804,26.7691119 32.7667502,26.6819161 32.9419735,26.6819161 L33.2048084,26.6819161 L33.2048084,25.2867832 L28.9994501,25.4611748 L28.9994501,26.8563077 Z" id="W_1_" fill="#FFFFFF"></path>
                </g>
                <path d="M80.8010345,20.1786364 L74.0502163,42.1263636 C73.8887609,42.0052721 73.5053102,41.7429111 72.8998527,41.3392727 C71.9109386,40.6732694 71.2651269,40.143502 70.9623981,39.7499545 C70.6596693,39.3564071 70.3165819,38.5541879 69.9331254,37.3432727 L66.3306708,25.991 L61.3659436,42.1263636 C60.9824871,41.8438168 60.4880375,41.5007293 59.8825799,41.0970909 C59.0349393,40.5319972 58.4698541,40.0476384 58.1873072,39.644 C57.9047603,39.2403616 57.5818545,38.4734602 57.2185799,37.3432727 L53.1923072,24.8103636 C52.7079412,23.2967197 52.3093542,22.2624119 51.9965345,21.7074091 C51.6837147,21.1524063 51.2346738,20.6428205 50.6493981,20.1786364 L55.3113981,20.1786364 C55.2710343,20.4208194 55.2508527,20.5519999 55.2508527,20.5721818 C55.2508527,20.8950925 55.3618516,21.3996329 55.5838527,22.0858182 L60.5485799,37.5249091 L64.5143072,24.8103636 C64.8775818,23.6398123 65.0592163,22.7417304 65.0592163,22.1160909 C65.0592163,21.3895418 64.6354024,20.7437301 63.7877618,20.1786364 L68.2075799,20.1786364 C68.1470342,20.4410013 68.1167618,20.6428175 68.1167618,20.7840909 C68.1167618,21.3088208 68.2681239,22.0454498 68.5708527,22.994 L73.2025799,37.4340909 L77.077489,25.1433636 C77.5013093,23.7911751 77.7132163,22.8628207 77.7132163,22.3582727 C77.7132163,21.3088129 77.1380402,20.5822747 75.9876708,20.1786364 L80.8010345,20.1786364 Z M88.7930345,41.2181818 L82.738489,41.2181818 C83.4246743,40.8549073 83.858579,40.2595496 84.0402163,39.4320909 C84.120944,39.0688164 84.1613072,38.3019149 84.1613072,37.1313636 L84.1613072,24.2654545 C84.1613072,23.0949032 84.120944,22.3280018 84.0402163,21.9647273 C83.858579,21.1372686 83.4246743,20.5419109 82.738489,20.1786364 L88.7930345,20.1786364 C88.1068492,20.5419109 87.6729445,21.1372686 87.4913072,21.9647273 C87.4105795,22.3280018 87.3702163,23.0949032 87.3702163,24.2654545 L87.3702163,37.1313636 C87.3702163,38.3019149 87.4105795,39.0688164 87.4913072,39.4320909 C87.6729445,40.2595496 88.1068492,40.8549073 88.7930345,41.2181818 L88.7930345,41.2181818 Z M106.744762,35.0728182 C106.744762,36.6873717 106.088859,38.1303573 104.777034,39.4018182 C103.142299,40.9760079 100.91223,41.7630909 98.0867618,41.7630909 C96.1694794,41.7630909 94.2925891,41.4300942 92.4560345,40.7640909 L91.4873072,36.7983636 C93.6467726,38.4936448 95.9878401,39.3412727 98.5105799,39.3412727 C99.8627685,39.3412727 100.997984,39.0284577 101.916262,38.4028182 C102.834539,37.7771787 103.293671,37.0001865 103.293671,36.0718182 C103.293671,35.1838137 102.940493,34.4270031 102.234125,33.8013636 C101.628668,33.2766337 100.261363,32.5299139 98.1321708,31.5611818 C96.0029784,30.5924497 94.5347658,29.7448218 93.727489,29.0182727 C92.6174835,28.0091768 92.062489,26.7780982 92.062489,25.325 C92.062489,23.6095369 92.7839818,22.237187 94.226989,21.2079091 C95.6699962,20.1786312 97.602386,19.664 100.024216,19.664 C101.618588,19.664 103.243208,19.8960886 104.898125,20.3602727 L104.898125,23.993 C103.465209,22.6004476 101.780044,21.9041818 99.8425799,21.9041818 C98.591301,21.9041818 97.5771747,22.181679 96.8001708,22.7366818 C96.023167,23.2916846 95.6346708,24.0131774 95.6346708,24.9011818 C95.6346708,25.6882767 95.9424405,26.3492246 96.557989,26.8840455 C97.1735376,27.4188663 98.439934,28.1302683 100.357216,29.0182727 C102.637773,30.0677325 104.191758,30.9254512 105.019216,31.5914545 C106.169586,32.4996409 106.744762,33.6600838 106.744762,35.0728182 L106.744762,35.0728182 Z M127.81458,37.0708182 L126.210125,40.7943636 C124.656118,41.4200031 123.001225,41.7328182 121.245398,41.7328182 C117.592471,41.7328182 114.661091,40.7287828 112.451171,38.7206818 C110.241251,36.7125809 109.136307,34.0536529 109.136307,30.7438182 C109.136307,27.555075 110.205933,24.9112832 112.345216,22.8123636 C114.4845,20.7134441 117.188836,19.664 120.458307,19.664 C122.052679,19.664 123.969932,19.9364518 126.210125,20.4813636 L126.210125,24.1443636 C124.171752,22.9738123 122.234316,22.3885455 120.397762,22.3885455 C118.157569,22.3885455 116.326087,23.120129 114.903262,24.5833182 C113.480436,26.0465073 112.769034,27.9183522 112.769034,30.1989091 C112.769034,32.7014671 113.546027,34.8205368 115.100034,36.5561818 C116.654042,38.2918269 118.561205,39.1596364 120.82158,39.1596364 C122.859954,39.1596364 125.19093,38.4633706 127.81458,37.0708182 L127.81458,37.0708182 Z M152.365762,30.5621818 C152.365762,33.6903793 151.220455,36.334171 148.929807,38.4936364 C146.639159,40.6531017 143.849051,41.7328182 140.559398,41.7328182 C137.310109,41.7328182 134.555319,40.6732833 132.294944,38.5541818 C130.034569,36.4350803 128.904398,33.8518334 128.904398,30.8043636 C128.904398,27.6358023 130.059796,24.9819198 132.370625,22.8426364 C134.681455,20.7033529 137.55229,19.6337273 140.983216,19.6337273 C144.252687,19.6337273 146.967115,20.6831713 149.12658,22.7820909 C150.135676,23.750823 150.927804,24.9314476 151.502989,26.324 C152.078174,27.7165524 152.365762,29.1292656 152.365762,30.5621818 L152.365762,30.5621818 Z M148.733034,31.0768182 C148.733034,28.5944421 148.006496,26.4753724 146.553398,24.7195455 C145.019572,22.8628089 143.011501,21.9344545 140.529125,21.9344545 C138.188023,21.9344545 136.265724,22.7064014 134.762171,24.2503182 C133.258618,25.794235 132.506853,27.8073512 132.506853,30.2897273 C132.506853,32.9133768 133.364571,35.1737178 135.080034,37.0708182 C136.512951,38.6651898 138.37975,39.4623636 140.680489,39.4623636 C143.061955,39.4623636 144.999391,38.6853714 146.492853,37.1313636 C147.986315,35.5773559 148.733034,33.5591942 148.733034,31.0768182 L148.733034,31.0768182 Z M176.250944,20.1786364 C175.564758,20.6226386 175.110672,21.0918612 174.888671,21.5863182 C174.66667,22.0807752 174.555671,22.8628128 174.555671,23.9324545 L174.555671,42.2474545 C173.001663,41.7429066 171.538496,40.6228269 170.166125,38.8871818 L158.965216,24.6892727 L158.965216,37.4643636 C158.965216,38.5138234 159.081261,39.2958611 159.313353,39.8105 C159.545445,40.3251389 159.984395,40.7943615 160.630216,41.2181818 L154.938944,41.2181818 C155.625129,40.7741796 156.079215,40.304957 156.301216,39.8105 C156.523217,39.316043 156.634216,38.5340053 156.634216,37.4643636 L156.634216,23.9324545 C156.634216,22.8829948 156.518172,22.1009571 156.28608,21.5863182 C156.053988,21.0716792 155.615038,20.6024567 154.969216,20.1786364 L159.631216,20.1786364 C159.67158,20.2997279 159.92385,20.6932694 160.388034,21.3592727 L172.224671,36.4350909 L172.224671,23.9324545 C172.224671,22.8829948 172.108627,22.1060025 171.876534,21.6014545 C171.644442,21.0969066 171.195401,20.6226386 170.529398,20.1786364 L176.250944,20.1786364 Z M193.839398,35.0728182 C193.839398,36.6873717 193.183496,38.1303573 191.871671,39.4018182 C190.236935,40.9760079 188.006867,41.7630909 185.181398,41.7630909 C183.264116,41.7630909 181.387225,41.4300942 179.550671,40.7640909 L178.581944,36.7983636 C180.741409,38.4936448 183.082476,39.3412727 185.605216,39.3412727 C186.957405,39.3412727 188.092621,39.0284577 189.010898,38.4028182 C189.929175,37.7771787 190.388307,37.0001865 190.388307,36.0718182 C190.388307,35.1838137 190.035129,34.4270031 189.328762,33.8013636 C188.723304,33.2766337 187.356,32.5299139 185.226807,31.5611818 C183.097615,30.5924497 181.629402,29.7448218 180.822125,29.0182727 C179.71212,28.0091768 179.157125,26.7780982 179.157125,25.325 C179.157125,23.6095369 179.878618,22.237187 181.321625,21.2079091 C182.764633,20.1786312 184.697022,19.664 187.118853,19.664 C188.713224,19.664 190.337844,19.8960886 191.992762,20.3602727 L191.992762,23.993 C190.559846,22.6004476 188.874681,21.9041818 186.937216,21.9041818 C185.685937,21.9041818 184.671811,22.181679 183.894807,22.7366818 C183.117803,23.2916846 182.729307,24.0131774 182.729307,24.9011818 C182.729307,25.6882767 183.037077,26.3492246 183.652625,26.8840455 C184.268174,27.4188663 185.53457,28.1302683 187.451853,29.0182727 C189.73241,30.0677325 191.286394,30.9254512 192.113853,31.5914545 C193.264222,32.4996409 193.839398,33.6600838 193.839398,35.0728182 L193.839398,35.0728182 Z M202.648762,41.2181818 L196.594216,41.2181818 C197.280402,40.8549073 197.714306,40.2595496 197.895944,39.4320909 C197.976671,39.0688164 198.017034,38.3019149 198.017034,37.1313636 L198.017034,24.2654545 C198.017034,23.0949032 197.976671,22.3280018 197.895944,21.9647273 C197.714306,21.1372686 197.280402,20.5419109 196.594216,20.1786364 L202.648762,20.1786364 C201.962577,20.5419109 201.528672,21.1372686 201.347034,21.9647273 C201.266307,22.3280018 201.225944,23.0949032 201.225944,24.2654545 L201.225944,37.1313636 C201.225944,38.3019149 201.266307,39.0688164 201.347034,39.4320909 C201.528672,40.2595496 201.962577,40.8549073 202.648762,41.2181818 L202.648762,41.2181818 Z M226.866944,20.1786364 C226.180758,20.6226386 225.726672,21.0918612 225.504671,21.5863182 C225.28267,22.0807752 225.171671,22.8628128 225.171671,23.9324545 L225.171671,42.2474545 C223.617663,41.7429066 222.154496,40.6228269 220.782125,38.8871818 L209.581216,24.6892727 L209.581216,37.4643636 C209.581216,38.5138234 209.697261,39.2958611 209.929353,39.8105 C210.161445,40.3251389 210.600395,40.7943615 211.246216,41.2181818 L205.554944,41.2181818 C206.241129,40.7741796 206.695215,40.304957 206.917216,39.8105 C207.139217,39.316043 207.250216,38.5340053 207.250216,37.4643636 L207.250216,23.9324545 C207.250216,22.8829948 207.134172,22.1009571 206.90208,21.5863182 C206.669988,21.0716792 206.231038,20.6024567 205.585216,20.1786364 L210.247216,20.1786364 C210.28758,20.2997279 210.53985,20.6932694 211.004034,21.3592727 L222.840671,36.4350909 L222.840671,23.9324545 C222.840671,22.8829948 222.724627,22.1060025 222.492534,21.6014545 C222.260442,21.0969066 221.811401,20.6226386 221.145398,20.1786364 L226.866944,20.1786364 Z" id="WISCONSIN" fill="#FFFFFF" sketch:type="MSShapeGroup"></path>
                <path d="M57.8482759,55.4 L56.5072759,55.4 L56.5072759,54.743 C56.0572736,55.2830027 55.4302799,55.553 54.6262759,55.553 C54.1282734,55.553 53.6932777,55.4420011 53.3212759,55.22 C52.9072738,54.9739988 52.6342765,54.6290022 52.5022759,54.185 C52.4422756,53.9689989 52.4122759,53.6150025 52.4122759,53.123 L52.4122759,50.36 C52.4122759,50.0119983 52.400276,49.7840005 52.3762759,49.676 C52.3222756,49.4299988 52.1932769,49.2530005 51.9892759,49.145 L53.7892759,49.145 C53.5852748,49.2590006 53.4562761,49.4359988 53.4022759,49.676 C53.3782757,49.7900006 53.3662759,50.0179983 53.3662759,50.36 L53.3662759,53.123 C53.3662759,53.6690027 53.4772748,54.0739987 53.6992759,54.338 C53.9932773,54.6860017 54.3952733,54.86 54.9052759,54.86 C55.5112789,54.86 55.9732743,54.6350023 56.2912759,54.185 C56.4112765,54.0049991 56.4712759,53.7590016 56.4712759,53.447 L56.4712759,50.36 C56.4712759,50.0179983 56.459276,49.7900006 56.4352759,49.676 C56.3812756,49.4359988 56.2522769,49.2590006 56.0482759,49.145 L57.8482759,49.145 C57.6442748,49.2590006 57.5152761,49.4359988 57.4612759,49.676 C57.4372757,49.7900006 57.4252759,50.0179983 57.4252759,50.36 L57.4252759,54.185 C57.4252759,54.5270017 57.4372757,54.7549994 57.4612759,54.869 C57.5152761,55.1090012 57.6442748,55.2859994 57.8482759,55.4 L57.8482759,55.4 Z M65.2482759,49.145 C65.0442749,49.2770007 64.9092762,49.4164993 64.8432759,49.5635 C64.7772755,49.7105007 64.7442759,49.9429984 64.7442759,50.261 L64.7442759,55.706 C64.2822736,55.5559993 63.8472779,55.2230026 63.4392759,54.707 L60.1092759,50.486 L60.1092759,54.284 C60.1092759,54.5960016 60.1437755,54.8284992 60.2127759,54.9815 C60.2817762,55.1345008 60.4122749,55.2739994 60.6042759,55.4 L58.9122759,55.4 C59.1162769,55.2679993 59.2512755,55.1285007 59.3172759,54.9815 C59.3832762,54.8344993 59.4162759,54.6020016 59.4162759,54.284 L59.4162759,50.261 C59.4162759,49.9489984 59.3817762,49.7165008 59.3127759,49.5635 C59.2437755,49.4104992 59.1132768,49.2710006 58.9212759,49.145 L60.3072759,49.145 C60.3192759,49.1810002 60.3942752,49.297999 60.5322759,49.496 L64.0512759,53.978 L64.0512759,50.261 C64.0512759,49.9489984 64.0167762,49.7180008 63.9477759,49.568 C63.8787755,49.4179993 63.7452769,49.2770007 63.5472759,49.145 L65.2482759,49.145 Z M68.0762759,55.4 L66.2762759,55.4 C66.4802769,55.2919995 66.6092756,55.1150012 66.6632759,54.869 C66.687276,54.7609995 66.6992759,54.5330017 66.6992759,54.185 L66.6992759,50.36 C66.6992759,50.0119983 66.687276,49.7840005 66.6632759,49.676 C66.6092756,49.4299988 66.4802769,49.2530005 66.2762759,49.145 L68.0762759,49.145 C67.8722749,49.2530005 67.7432762,49.4299988 67.6892759,49.676 C67.6652758,49.7840005 67.6532759,50.0119983 67.6532759,50.36 L67.6532759,54.185 C67.6532759,54.5330017 67.6652758,54.7609995 67.6892759,54.869 C67.7432762,55.1150012 67.8722749,55.2919995 68.0762759,55.4 L68.0762759,55.4 Z M74.5762759,49.145 L72.0382759,55.679 C71.6062738,55.3969986 71.3272765,55.1810008 71.2012759,55.031 C71.0932754,54.8989993 70.9642767,54.632002 70.8142759,54.23 L69.5272759,50.756 C69.2932747,50.1199968 69.1417763,49.7330007 69.0727759,49.595 C69.0037756,49.4569993 68.8792768,49.3070008 68.6992759,49.145 L70.0852759,49.145 C70.0792759,49.1750002 70.0762759,49.2109998 70.0762759,49.253 C70.0762759,49.3790006 70.1482752,49.6369981 70.2922759,50.027 L71.8492759,54.275 L73.1902759,50.756 C73.3822769,50.2459975 73.4782759,49.889001 73.4782759,49.685 C73.4782759,49.4209987 73.3642771,49.2410005 73.1362759,49.145 L74.5762759,49.145 Z M79.7082759,54.158 L79.2672759,55.4 L75.3072759,55.4 C75.511277,55.2919995 75.6402757,55.1150012 75.6942759,54.869 C75.7182761,54.7549994 75.7302759,54.5240017 75.7302759,54.176 L75.7302759,50.36 C75.7302759,50.0179983 75.7182761,49.7900006 75.6942759,49.676 C75.6402757,49.4299988 75.511277,49.2530005 75.3072759,49.145 L78.4662759,49.145 C78.6042766,49.145 78.7242754,49.1270002 78.8262759,49.091 L78.8262759,50.198 C78.6582751,50.0359992 78.4812769,49.9310002 78.2952759,49.883 C78.1572752,49.8409998 77.9472773,49.82 77.6652759,49.82 C77.269274,49.82 76.9422772,49.8409998 76.6842759,49.883 L76.6842759,51.656 L77.9532759,51.656 C78.0792766,51.656 78.1872755,51.6350002 78.2772759,51.593 L78.2772759,52.601 C78.1452753,52.4269991 77.8962778,52.34 77.5302759,52.34 L76.6842759,52.34 L76.6842759,54.599 C77.0862779,54.6650003 77.476274,54.698 77.8542759,54.698 C78.6102797,54.698 79.2282735,54.5180018 79.7082759,54.158 L79.7082759,54.158 Z M86.073276,55.4 C85.6052736,55.4360002 85.3142765,55.454 85.200276,55.454 C84.9302746,55.454 84.6977769,55.3910006 84.502776,55.265 C84.307775,55.1389994 84.0512775,54.8870019 83.733276,54.509 C83.1272729,53.7889964 82.5722785,53.0000043 82.068276,52.142 C83.1242812,51.9619991 83.652276,51.5090036 83.652276,50.783 C83.652276,50.4709984 83.545777,50.217501 83.332776,50.0225 C83.1197749,49.827499 82.8422777,49.73 82.500276,49.73 C82.314275,49.73 82.0922772,49.7539998 81.834276,49.802 L81.834276,54.185 C81.834276,54.5330017 81.8462758,54.7609995 81.870276,54.869 C81.9242762,55.1150012 82.0532749,55.2919995 82.257276,55.4 L80.457276,55.4 C80.661277,55.2919995 80.7902757,55.1150012 80.844276,54.869 C80.8682761,54.7609995 80.880276,54.5330017 80.880276,54.185 L80.880276,50.36 C80.880276,50.0119983 80.8682761,49.7840005 80.844276,49.676 C80.7902757,49.4299988 80.661277,49.2530005 80.457276,49.145 L81.834276,49.145 C81.9302764,49.145 82.071275,49.142 82.257276,49.136 C82.4432769,49.13 82.5842755,49.127 82.680276,49.127 C83.286279,49.127 83.7542743,49.2499988 84.084276,49.496 C84.5042781,49.8080016 84.714276,50.2129975 84.714276,50.711 C84.714276,51.0770018 84.5702774,51.4114985 84.282276,51.7145 C83.9942745,52.0175015 83.6252782,52.2259994 83.175276,52.34 C83.8832795,53.2940048 84.4487738,53.9929978 84.871776,54.437 C85.2947781,54.8810022 85.6952741,55.201999 86.073276,55.4 L86.073276,55.4 Z M90.755276,53.573 C90.755276,54.0530024 90.5602779,54.4819981 90.170276,54.86 C89.6842735,55.3280023 89.0212802,55.562 88.181276,55.562 C87.6112731,55.562 87.0532787,55.463001 86.507276,55.265 L86.219276,54.086 C86.8612792,54.5900025 87.5572722,54.842 88.307276,54.842 C88.709278,54.842 89.0467746,54.7490009 89.319776,54.563 C89.5927773,54.3769991 89.729276,54.1460014 89.729276,53.87 C89.729276,53.6059987 89.624277,53.3810009 89.414276,53.195 C89.2342751,53.0389992 88.8277791,52.8170014 88.194776,52.529 C87.5617728,52.2409986 87.1252772,51.9890011 86.885276,51.773 C86.5552743,51.4729985 86.390276,51.1070022 86.390276,50.675 C86.390276,50.1649975 86.6047738,49.7570015 87.033776,49.451 C87.4627781,49.1449985 88.0372724,48.992 88.757276,48.992 C89.2312783,48.992 89.7142735,49.0609993 90.206276,49.199 L90.206276,50.279 C89.7802738,49.8649979 89.2792788,49.658 88.703276,49.658 C88.3312741,49.658 88.0297771,49.7404992 87.798776,49.9055 C87.5677748,50.0705008 87.452276,50.2849987 87.452276,50.549 C87.452276,50.7830012 87.5437751,50.9794992 87.726776,51.1385 C87.9097769,51.2975008 88.2862731,51.5089987 88.856276,51.773 C89.5342794,52.0850016 89.9962747,52.339999 90.242276,52.538 C90.5842777,52.8080014 90.755276,53.1529979 90.755276,53.573 L90.755276,53.573 Z M93.574276,55.4 L91.774276,55.4 C91.978277,55.2919995 92.1072757,55.1150012 92.161276,54.869 C92.1852761,54.7609995 92.197276,54.5330017 92.197276,54.185 L92.197276,50.36 C92.197276,50.0119983 92.1852761,49.7840005 92.161276,49.676 C92.1072757,49.4299988 91.978277,49.2530005 91.774276,49.145 L93.574276,49.145 C93.370275,49.2530005 93.2412763,49.4299988 93.187276,49.676 C93.1632759,49.7840005 93.151276,50.0119983 93.151276,50.36 L93.151276,54.185 C93.151276,54.5330017 93.1632759,54.7609995 93.187276,54.869 C93.2412763,55.1150012 93.370275,55.2919995 93.574276,55.4 L93.574276,55.4 Z M99.147276,49.082 L98.841276,50.216 C98.7572756,50.0539992 98.6312768,49.9490002 98.463276,49.901 C98.3612755,49.8709999 98.1902772,49.856 97.950276,49.856 C97.9022758,49.856 97.8227766,49.8605 97.711776,49.8695 C97.6007755,49.8785 97.4582769,49.883 97.284276,49.883 L97.131276,49.883 L97.131276,54.284 C97.131276,54.5960016 97.1642757,54.8254993 97.230276,54.9725 C97.2962763,55.1195007 97.431275,55.2619993 97.635276,55.4 L95.754276,55.4 C95.958277,55.2919995 96.0872757,55.1150012 96.141276,54.869 C96.1652761,54.7549994 96.177276,54.5270017 96.177276,54.185 L96.177276,49.883 C95.9912751,49.8649999 95.7362776,49.856 95.412276,49.856 C95.1242746,49.856 94.9082767,49.8739998 94.764276,49.91 C94.5782751,49.9580002 94.383277,50.0599992 94.179276,50.216 L94.530276,49.082 C94.6562766,49.1240002 94.818275,49.145 95.016276,49.145 L98.589276,49.145 C98.6672764,49.145 98.7482756,49.142 98.832276,49.136 C98.9162764,49.13 98.958276,49.127 98.958276,49.127 C98.9882762,49.121 99.0512755,49.1060001 99.147276,49.082 L99.147276,49.082 Z M105.395276,49.145 L103.064276,52.664 L103.064276,54.284 C103.064276,54.5720014 103.088276,54.7789994 103.136276,54.905 C103.196276,55.0550008 103.331275,55.2199991 103.541276,55.4 L101.705276,55.4 C101.903277,55.2619993 102.026276,55.0820011 102.074276,54.86 C102.098276,54.7579995 102.110276,54.5330017 102.110276,54.185 L102.110276,52.664 L100.472276,50.027 C100.310275,49.7689987 100.178277,49.5875005 100.076276,49.4825 C99.9742755,49.3774995 99.824277,49.2650006 99.626276,49.145 L100.706276,49.109 C100.850277,49.109 100.949276,49.1299998 101.003276,49.172 C101.057276,49.2140002 101.150275,49.3429989 101.282276,49.559 L102.713276,51.899 L103.910276,50.081 C104.030277,49.9009991 104.090276,49.7480006 104.090276,49.622 C104.090276,49.429999 103.976277,49.2710006 103.748276,49.145 L105.395276,49.145 Z M115.515276,52.232 C115.515276,53.1620047 115.174779,53.9479968 114.493776,54.59 C113.812773,55.2320032 112.983281,55.553 112.005276,55.553 C111.039271,55.553 110.220279,55.2380032 109.548276,54.608 C108.876273,53.9779969 108.540276,53.2100045 108.540276,52.304 C108.540276,51.3619953 108.883773,50.5730032 109.570776,49.937 C110.257779,49.3009968 111.111271,48.983 112.131276,48.983 C113.103281,48.983 113.910273,49.2949969 114.552276,49.919 C114.852278,50.2070014 115.087775,50.5579979 115.258776,50.972 C115.429777,51.3860021 115.515276,51.8059979 115.515276,52.232 L115.515276,52.232 Z M114.435276,52.385 C114.435276,51.6469963 114.219278,51.0170026 113.787276,50.495 C113.331274,49.9429972 112.73428,49.667 111.996276,49.667 C111.300273,49.667 110.728778,49.8964977 110.281776,50.3555 C109.834774,50.8145023 109.611276,51.4129963 109.611276,52.151 C109.611276,52.9310039 109.866274,53.6029972 110.376276,54.167 C110.802278,54.6410024 111.357273,54.878 112.041276,54.878 C112.74928,54.878 113.325274,54.6470023 113.769276,54.185 C114.213278,53.7229977 114.435276,53.1230037 114.435276,52.385 L114.435276,52.385 Z M120.071276,50.189 C119.903275,50.0329992 119.729277,49.9280003 119.549276,49.874 C119.405275,49.8379998 119.195277,49.82 118.919276,49.82 C118.529274,49.82 118.199277,49.8409998 117.929276,49.883 L117.929276,51.656 L119.198276,51.656 C119.324277,51.656 119.432276,51.6350002 119.522276,51.593 L119.522276,52.601 C119.396275,52.4269991 119.147278,52.34 118.775276,52.34 L117.929276,52.34 L117.929276,54.185 C117.929276,54.5330017 117.941276,54.7609995 117.965276,54.869 C118.019276,55.1150012 118.148275,55.2919995 118.352276,55.4 L116.552276,55.4 C116.756277,55.2919995 116.885276,55.1150012 116.939276,54.869 C116.963276,54.7609995 116.975276,54.5330017 116.975276,54.185 L116.975276,50.36 C116.975276,50.0119983 116.963276,49.7840005 116.939276,49.676 C116.885276,49.4299988 116.756277,49.2530005 116.552276,49.145 L119.711276,49.145 C119.849277,49.145 119.969276,49.1270002 120.071276,49.091 L120.071276,50.189 Z M131.964276,49.145 L129.957276,55.67 C129.909276,55.6339998 129.795277,55.5560006 129.615276,55.436 C129.321275,55.237999 129.129277,55.0805006 129.039276,54.9635 C128.949276,54.8464994 128.847277,54.6080018 128.733276,54.248 L127.662276,50.873 L126.186276,55.67 C126.072276,55.5859996 125.925277,55.4840006 125.745276,55.364 C125.493275,55.1959992 125.325277,55.0520006 125.241276,54.932 C125.157276,54.8119994 125.061277,54.5840017 124.953276,54.248 L123.756276,50.522 C123.612275,50.0719978 123.493777,49.7645008 123.400776,49.5995 C123.307776,49.4344992 123.174277,49.2830007 123.000276,49.145 L124.386276,49.145 C124.374276,49.2170004 124.368276,49.256 124.368276,49.262 C124.368276,49.3580005 124.401276,49.507999 124.467276,49.712 L125.943276,54.302 L127.122276,50.522 C127.230277,50.1739983 127.284276,49.9070009 127.284276,49.721 C127.284276,49.5049989 127.158277,49.3130008 126.906276,49.145 L128.220276,49.145 C128.202276,49.2230004 128.193276,49.2829998 128.193276,49.325 C128.193276,49.4810008 128.238276,49.6999986 128.328276,49.982 L129.705276,54.275 L130.857276,50.621 C130.983277,50.218998 131.046276,49.9430008 131.046276,49.793 C131.046276,49.4809984 130.875278,49.2650006 130.533276,49.145 L131.964276,49.145 Z M134.540276,55.4 L132.740276,55.4 C132.944277,55.2919995 133.073276,55.1150012 133.127276,54.869 C133.151276,54.7609995 133.163276,54.5330017 133.163276,54.185 L133.163276,50.36 C133.163276,50.0119983 133.151276,49.7840005 133.127276,49.676 C133.073276,49.4299988 132.944277,49.2530005 132.740276,49.145 L134.540276,49.145 C134.336275,49.2530005 134.207276,49.4299988 134.153276,49.676 C134.129276,49.7840005 134.117276,50.0119983 134.117276,50.36 L134.117276,54.185 C134.117276,54.5330017 134.129276,54.7609995 134.153276,54.869 C134.207276,55.1150012 134.336275,55.2919995 134.540276,55.4 L134.540276,55.4 Z M140.077276,53.573 C140.077276,54.0530024 139.882278,54.4819981 139.492276,54.86 C139.006274,55.3280023 138.34328,55.562 137.503276,55.562 C136.933273,55.562 136.375279,55.463001 135.829276,55.265 L135.541276,54.086 C136.183279,54.5900025 136.879272,54.842 137.629276,54.842 C138.031278,54.842 138.368775,54.7490009 138.641776,54.563 C138.914778,54.3769991 139.051276,54.1460014 139.051276,53.87 C139.051276,53.6059987 138.946277,53.3810009 138.736276,53.195 C138.556275,53.0389992 138.149779,52.8170014 137.516776,52.529 C136.883773,52.2409986 136.447277,51.9890011 136.207276,51.773 C135.877274,51.4729985 135.712276,51.1070022 135.712276,50.675 C135.712276,50.1649975 135.926774,49.7570015 136.355776,49.451 C136.784778,49.1449985 137.359273,48.992 138.079276,48.992 C138.553279,48.992 139.036274,49.0609993 139.528276,49.199 L139.528276,50.279 C139.102274,49.8649979 138.601279,49.658 138.025276,49.658 C137.653274,49.658 137.351777,49.7404992 137.120776,49.9055 C136.889775,50.0705008 136.774276,50.2849987 136.774276,50.549 C136.774276,50.7830012 136.865775,50.9794992 137.048776,51.1385 C137.231777,51.2975008 137.608273,51.5089987 138.178276,51.773 C138.85628,52.0850016 139.318275,52.339999 139.564276,52.538 C139.906278,52.8080014 140.077276,53.1529979 140.077276,53.573 L140.077276,53.573 Z M146.541276,54.167 L146.064276,55.274 C145.602274,55.4600009 145.110279,55.553 144.588276,55.553 C143.502271,55.553 142.630779,55.254503 141.973776,54.6575 C141.316773,54.060497 140.988276,53.2700049 140.988276,52.286 C140.988276,51.3379953 141.306273,50.5520031 141.942276,49.928 C142.578279,49.3039969 143.382271,48.992 144.354276,48.992 C144.828279,48.992 145.398273,49.0729992 146.064276,49.235 L146.064276,50.324 C145.458273,49.9759983 144.882279,49.802 144.336276,49.802 C143.670273,49.802 143.125778,50.0194978 142.702776,50.4545 C142.279774,50.8895022 142.068276,51.4459966 142.068276,52.124 C142.068276,52.8680037 142.299274,53.4979974 142.761276,54.014 C143.223278,54.5300026 143.790273,54.788 144.462276,54.788 C145.068279,54.788 145.761272,54.5810021 146.541276,54.167 L146.541276,54.167 Z M154.040276,52.232 C154.040276,53.1620047 153.69978,53.9479968 153.018776,54.59 C152.337773,55.2320032 151.508281,55.553 150.530276,55.553 C149.564271,55.553 148.74528,55.2380032 148.073276,54.608 C147.401273,53.9779969 147.065276,53.2100045 147.065276,52.304 C147.065276,51.3619953 147.408773,50.5730032 148.095776,49.937 C148.78278,49.3009968 149.636271,48.983 150.656276,48.983 C151.628281,48.983 152.435273,49.2949969 153.077276,49.919 C153.377278,50.2070014 153.612775,50.5579979 153.783776,50.972 C153.954777,51.3860021 154.040276,51.8059979 154.040276,52.232 L154.040276,52.232 Z M152.960276,52.385 C152.960276,51.6469963 152.744278,51.0170026 152.312276,50.495 C151.856274,49.9429972 151.25928,49.667 150.521276,49.667 C149.825273,49.667 149.253778,49.8964977 148.806776,50.3555 C148.359774,50.8145023 148.136276,51.4129963 148.136276,52.151 C148.136276,52.9310039 148.391274,53.6029972 148.901276,54.167 C149.327278,54.6410024 149.882273,54.878 150.566276,54.878 C151.27428,54.878 151.850274,54.6470023 152.294276,54.185 C152.738278,53.7229977 152.960276,53.1230037 152.960276,52.385 L152.960276,52.385 Z M161.341276,49.145 C161.137275,49.2770007 161.002277,49.4164993 160.936276,49.5635 C160.870276,49.7105007 160.837276,49.9429984 160.837276,50.261 L160.837276,55.706 C160.375274,55.5559993 159.940278,55.2230026 159.532276,54.707 L156.202276,50.486 L156.202276,54.284 C156.202276,54.5960016 156.236776,54.8284992 156.305776,54.9815 C156.374777,55.1345008 156.505275,55.2739994 156.697276,55.4 L155.005276,55.4 C155.209277,55.2679993 155.344276,55.1285007 155.410276,54.9815 C155.476277,54.8344993 155.509276,54.6020016 155.509276,54.284 L155.509276,50.261 C155.509276,49.9489984 155.474777,49.7165008 155.405776,49.5635 C155.336776,49.4104992 155.206277,49.2710006 155.014276,49.145 L156.400276,49.145 C156.412276,49.1810002 156.487276,49.297999 156.625276,49.496 L160.144276,53.978 L160.144276,50.261 C160.144276,49.9489984 160.109777,49.7180008 160.040776,49.568 C159.971776,49.4179993 159.838277,49.2770007 159.640276,49.145 L161.341276,49.145 Z M166.770276,53.573 C166.770276,54.0530024 166.575278,54.4819981 166.185276,54.86 C165.699274,55.3280023 165.03628,55.562 164.196276,55.562 C163.626273,55.562 163.068279,55.463001 162.522276,55.265 L162.234276,54.086 C162.876279,54.5900025 163.572272,54.842 164.322276,54.842 C164.724278,54.842 165.061775,54.7490009 165.334776,54.563 C165.607778,54.3769991 165.744276,54.1460014 165.744276,53.87 C165.744276,53.6059987 165.639277,53.3810009 165.429276,53.195 C165.249275,53.0389992 164.842779,52.8170014 164.209776,52.529 C163.576773,52.2409986 163.140277,51.9890011 162.900276,51.773 C162.570275,51.4729985 162.405276,51.1070022 162.405276,50.675 C162.405276,50.1649975 162.619774,49.7570015 163.048776,49.451 C163.477778,49.1449985 164.052273,48.992 164.772276,48.992 C165.246279,48.992 165.729274,49.0609993 166.221276,49.199 L166.221276,50.279 C165.795274,49.8649979 165.294279,49.658 164.718276,49.658 C164.346274,49.658 164.044777,49.7404992 163.813776,49.9055 C163.582775,50.0705008 163.467276,50.2849987 163.467276,50.549 C163.467276,50.7830012 163.558775,50.9794992 163.741776,51.1385 C163.924777,51.2975008 164.301273,51.5089987 164.871276,51.773 C165.54928,52.0850016 166.011275,52.339999 166.257276,52.538 C166.599278,52.8080014 166.770276,53.1529979 166.770276,53.573 L166.770276,53.573 Z M169.589276,55.4 L167.789276,55.4 C167.993277,55.2919995 168.122276,55.1150012 168.176276,54.869 C168.200276,54.7609995 168.212276,54.5330017 168.212276,54.185 L168.212276,50.36 C168.212276,50.0119983 168.200276,49.7840005 168.176276,49.676 C168.122276,49.4299988 167.993277,49.2530005 167.789276,49.145 L169.589276,49.145 C169.385275,49.2530005 169.256277,49.4299988 169.202276,49.676 C169.178276,49.7840005 169.166276,50.0119983 169.166276,50.36 L169.166276,54.185 C169.166276,54.5330017 169.178276,54.7609995 169.202276,54.869 C169.256277,55.1150012 169.385275,55.2919995 169.589276,55.4 L169.589276,55.4 Z M176.989276,49.145 C176.785275,49.2770007 176.650277,49.4164993 176.584276,49.5635 C176.518276,49.7105007 176.485276,49.9429984 176.485276,50.261 L176.485276,55.706 C176.023274,55.5559993 175.588278,55.2230026 175.180276,54.707 L171.850276,50.486 L171.850276,54.284 C171.850276,54.5960016 171.884776,54.8284992 171.953776,54.9815 C172.022777,55.1345008 172.153275,55.2739994 172.345276,55.4 L170.653276,55.4 C170.857277,55.2679993 170.992276,55.1285007 171.058276,54.9815 C171.124277,54.8344993 171.157276,54.6020016 171.157276,54.284 L171.157276,50.261 C171.157276,49.9489984 171.122777,49.7165008 171.053776,49.5635 C170.984776,49.4104992 170.854277,49.2710006 170.662276,49.145 L172.048276,49.145 C172.060276,49.1810002 172.135276,49.297999 172.273276,49.496 L175.792276,53.978 L175.792276,50.261 C175.792276,49.9489984 175.757777,49.7180008 175.688776,49.568 C175.619776,49.4179993 175.486277,49.2770007 175.288276,49.145 L176.989276,49.145 Z M180.780276,52.538 L180.267276,53.222 C180.183276,53.3360006 180.048277,53.393 179.862276,53.393 L178.728276,53.393 C178.380275,53.393 178.092277,53.4319996 177.864276,53.51 L178.404276,52.835 C178.488277,52.7269995 178.626275,52.673 178.818276,52.673 L179.826276,52.673 C180.234278,52.673 180.552275,52.6280005 180.780276,52.538 L180.780276,52.538 Z M190.070276,55.4 L188.234276,55.4 C188.498278,55.2859994 188.630276,55.0460018 188.630276,54.68 C188.630276,54.5659994 188.615276,54.3890012 188.585276,54.149 L188.081276,50.081 L185.948276,55.526 C185.720275,55.333999 185.559777,55.1765006 185.466776,55.0535 C185.373776,54.9304994 185.273277,54.7400013 185.165276,54.482 L183.302276,50.081 L182.744276,54.275 C182.714276,54.5030011 182.699276,54.6679995 182.699276,54.77 C182.699276,55.0100012 182.825275,55.2199991 183.077276,55.4 L181.520276,55.4 C181.784278,55.1479987 181.955276,54.7310029 182.033276,54.149 L182.582276,50.153 C182.618276,49.8889987 182.636276,49.7270003 182.636276,49.667 C182.636276,49.474999 182.525277,49.3010008 182.303276,49.145 L183.968276,49.145 C183.968276,49.2290004 183.998276,49.3399993 184.058276,49.478 L185.885276,53.771 L187.424276,49.829 C187.544277,49.5229985 187.604276,49.2950008 187.604276,49.145 L189.251276,49.145 C189.053275,49.2410005 188.954276,49.4389985 188.954276,49.739 C188.954276,49.8350005 188.963276,49.9489993 188.981276,50.081 L189.566276,54.275 C189.614277,54.6110017 189.666776,54.8479993 189.723776,54.986 C189.780777,55.1240007 189.896275,55.2619993 190.070276,55.4 L190.070276,55.4 Z M197.398276,55.4 L195.427276,55.4 C195.655277,55.2619993 195.769276,55.1360006 195.769276,55.022 C195.769276,54.9499996 195.715277,54.7730014 195.607276,54.491 L195.049276,53.042 L192.646276,53.042 L192.106276,54.491 C192.034276,54.683001 191.998276,54.8449993 191.998276,54.977 C191.998276,55.1390008 192.112275,55.2799994 192.340276,55.4 L190.594276,55.4 C190.810277,55.2619993 190.969276,55.1180008 191.071276,54.968 C191.173277,54.8179993 191.308275,54.5360021 191.476276,54.122 L193.150276,49.946 C193.222277,49.7659991 193.258276,49.6220005 193.258276,49.514 C193.258276,49.3639993 193.162277,49.2410005 192.970276,49.145 L194.482276,49.145 L196.480276,54.122 C196.630277,54.5000019 196.768276,54.7759991 196.894276,54.95 C197.020277,55.1240009 197.188275,55.2739994 197.398276,55.4 L197.398276,55.4 Z M194.806276,52.43 L193.843276,49.946 L192.871276,52.43 L194.806276,52.43 Z M203.943276,52.205 C203.943276,52.8290031 203.778278,53.4034974 203.448276,53.9285 C203.118275,54.4535026 202.677279,54.8389988 202.125276,55.085 C201.657274,55.2950011 200.820282,55.4 199.614276,55.4 L198.084276,55.4 C198.276277,55.2259991 198.390276,55.0850005 198.426276,54.977 C198.480277,54.8089992 198.507276,54.530002 198.507276,54.14 L198.507276,50.36 C198.507276,50.0119983 198.495276,49.7840005 198.471276,49.676 C198.417276,49.4299988 198.288277,49.2530005 198.084276,49.145 L199.038276,49.145 C199.278278,49.145 199.489775,49.142 199.672776,49.136 C199.855777,49.13 200.103275,49.127 200.415276,49.127 C201.429281,49.127 202.251273,49.3879974 202.881276,49.91 C203.58928,50.4980029 203.943276,51.2629953 203.943276,52.205 L203.943276,52.205 Z M202.899276,52.304 C202.899276,51.5719963 202.678779,50.9675024 202.237776,50.4905 C201.796774,50.0134976 201.16228,49.775 200.334276,49.775 C200.088275,49.775 199.797278,49.8079997 199.461276,49.874 L199.461276,54.626 C199.683277,54.6680002 199.917275,54.689 200.163276,54.689 C200.95528,54.689 201.558274,54.5360015 201.972276,54.23 C202.590279,53.7739977 202.899276,53.1320041 202.899276,52.304 L202.899276,52.304 Z M206.771276,55.4 L204.971276,55.4 C205.175277,55.2919995 205.304276,55.1150012 205.358276,54.869 C205.382276,54.7609995 205.394276,54.5330017 205.394276,54.185 L205.394276,50.36 C205.394276,50.0119983 205.382276,49.7840005 205.358276,49.676 C205.304276,49.4299988 205.175277,49.2530005 204.971276,49.145 L206.771276,49.145 C206.567275,49.2530005 206.438277,49.4299988 206.384276,49.676 C206.360276,49.7840005 206.348276,50.0119983 206.348276,50.36 L206.348276,54.185 C206.348276,54.5330017 206.360276,54.7609995 206.384276,54.869 C206.438277,55.1150012 206.567275,55.2919995 206.771276,55.4 L206.771276,55.4 Z M212.308276,53.573 C212.308276,54.0530024 212.113278,54.4819981 211.723276,54.86 C211.237274,55.3280023 210.574281,55.562 209.734276,55.562 C209.164274,55.562 208.606279,55.463001 208.060276,55.265 L207.772276,54.086 C208.41428,54.5900025 209.110273,54.842 209.860276,54.842 C210.262278,54.842 210.599775,54.7490009 210.872776,54.563 C211.145778,54.3769991 211.282276,54.1460014 211.282276,53.87 C211.282276,53.6059987 211.177277,53.3810009 210.967276,53.195 C210.787275,53.0389992 210.38078,52.8170014 209.747776,52.529 C209.114773,52.2409986 208.678278,51.9890011 208.438276,51.773 C208.108275,51.4729985 207.943276,51.1070022 207.943276,50.675 C207.943276,50.1649975 208.157774,49.7570015 208.586776,49.451 C209.015779,49.1449985 209.590273,48.992 210.310276,48.992 C210.784279,48.992 211.267274,49.0609993 211.759276,49.199 L211.759276,50.279 C211.333274,49.8649979 210.832279,49.658 210.256276,49.658 C209.884275,49.658 209.582778,49.7404992 209.351776,49.9055 C209.120775,50.0705008 209.005276,50.2849987 209.005276,50.549 C209.005276,50.7830012 209.096775,50.9794992 209.279776,51.1385 C209.462777,51.2975008 209.839274,51.5089987 210.409276,51.773 C211.08728,52.0850016 211.549275,52.339999 211.795276,52.538 C212.137278,52.8080014 212.308276,53.1529979 212.308276,53.573 L212.308276,53.573 Z M220.194276,52.232 C220.194276,53.1620047 219.85378,53.9479968 219.172776,54.59 C218.491773,55.2320032 217.662281,55.553 216.684276,55.553 C215.718272,55.553 214.89928,55.2380032 214.227276,54.608 C213.555273,53.9779969 213.219276,53.2100045 213.219276,52.304 C213.219276,51.3619953 213.562773,50.5730032 214.249776,49.937 C214.93678,49.3009968 215.790271,48.983 216.810276,48.983 C217.782281,48.983 218.589273,49.2949969 219.231276,49.919 C219.531278,50.2070014 219.766776,50.5579979 219.937776,50.972 C220.108777,51.3860021 220.194276,51.8059979 220.194276,52.232 L220.194276,52.232 Z M219.114276,52.385 C219.114276,51.6469963 218.898279,51.0170026 218.466276,50.495 C218.010274,49.9429972 217.41328,49.667 216.675276,49.667 C215.979273,49.667 215.407779,49.8964977 214.960776,50.3555 C214.513774,50.8145023 214.290276,51.4129963 214.290276,52.151 C214.290276,52.9310039 214.545274,53.6029972 215.055276,54.167 C215.481279,54.6410024 216.036273,54.878 216.720276,54.878 C217.42828,54.878 218.004274,54.6470023 218.448276,54.185 C218.892279,53.7229977 219.114276,53.1230037 219.114276,52.385 L219.114276,52.385 Z M227.495276,49.145 C227.291275,49.2770007 227.156277,49.4164993 227.090276,49.5635 C227.024276,49.7105007 226.991276,49.9429984 226.991276,50.261 L226.991276,55.706 C226.529274,55.5559993 226.094278,55.2230026 225.686276,54.707 L222.356276,50.486 L222.356276,54.284 C222.356276,54.5960016 222.390776,54.8284992 222.459776,54.9815 C222.528777,55.1345008 222.659275,55.2739994 222.851276,55.4 L221.159276,55.4 C221.363277,55.2679993 221.498276,55.1285007 221.564276,54.9815 C221.630277,54.8344993 221.663276,54.6020016 221.663276,54.284 L221.663276,50.261 C221.663276,49.9489984 221.628777,49.7165008 221.559776,49.5635 C221.490776,49.4104992 221.360277,49.2710006 221.168276,49.145 L222.554276,49.145 C222.566276,49.1810002 222.641276,49.297999 222.779276,49.496 L226.298276,53.978 L226.298276,50.261 C226.298276,49.9489984 226.263777,49.7180008 226.194776,49.568 C226.125776,49.4179993 225.992277,49.2770007 225.794276,49.145 L227.495276,49.145 Z" id="UNIVERSITY-OF-WISCON" fill-opacity="0.579879982" fill="#FFFFFF" sketch:type="MSShapeGroup"></path>
            </g>
        </g>
    </g>
</svg>