<?xml version="1.0" encoding="UTF-8" standalone="no"?>
<svg width="42px" height="66px" viewBox="0 0 42 66" version="1.1" xmlns="http://www.w3.org/2000/svg" xmlns:xlink="http://www.w3.org/1999/xlink" xmlns:sketch="http://www.bohemiancoding.com/sketch/ns">
    <!-- Generator: Sketch 3.4 (15575) - http://www.bohemiancoding.com/sketch -->
    <title>bw_logo</title>
    <desc>Created with Sketch.</desc>
    <defs></defs>
    <g id="Home-page" stroke="none" stroke-width="1" fill="none" fill-rule="evenodd" sketch:type="MSPage">
        <g id="Desktop-HD-Alt-Copy" sketch:type="MSArtboardGroup" transform="translate(-181.000000, -7.000000)" fill="#FFFFFF">
            <g id="uw-logo-text-+-Wisconsin-+-UNIVERSITY-OF-WISCON" sketch:type="MSLayerGroup" transform="translate(179.000000, 7.000000)">
                <g id="bw_logo" transform="translate(1.000000, 0.000000)" sketch:type="MSShapeGroup">
                    <path d="M35.224,38.053 L35.234,38.047 C35.326,38.015 35.578,37.932 35.951,37.932 C36.088,37.932 36.227,37.943 36.366,37.965 C36.993,38.059 37.301,38.483 37.357,38.568 L37.421,39.261 L37.514,39.269 L37.764,38.264 L37.758,38.25 C37.386,37.32 36.419,37.219 36.018,37.219 C35.604,37.219 35.125,37.33 35.036,37.524 L34.709,38.543 L34.791,38.589 L35.224,38.053" id="Fill-1"></path>
                    <path d="M36.708,41.367 L36.727,42.067 L36.819,42.077 L37.135,41.096 L37.131,41.083 C36.849,40.222 35.982,39.916 35.262,39.916 C34.925,39.916 34.542,39.99 34.449,40.154 L34.057,41.147 L34.134,41.196 L34.605,40.696 L34.616,40.695 C34.686,40.672 34.871,40.621 35.158,40.621 C35.349,40.621 35.551,40.644 35.755,40.691 C36.379,40.835 36.658,41.281 36.708,41.367" id="Fill-2"></path>
                    <path d="M35.894,32.916 L35.908,32.911 C36.014,32.861 36.43,32.683 37.081,32.717 C37.786,32.755 38.155,33.194 38.189,33.235 L38.369,33.912 L38.369,34.008 L38.465,34.008 L38.575,32.879 L38.569,32.867 C38.16,32.107 37.353,31.992 36.907,31.992 C36.339,31.992 35.729,32.19 35.647,32.408 L35.456,33.458 L35.545,33.49 L35.894,32.916" id="Fill-3"></path>
                    <path d="M35.662,35.497 L35.674,35.489 C35.764,35.444 36.136,35.279 36.776,35.335 C37.355,35.387 37.689,35.712 37.842,35.862 C37.863,35.882 37.875,35.895 37.886,35.902 L37.899,35.915 L38.049,36.587 L38.142,36.582 L38.285,35.556 L38.28,35.542 C37.972,34.948 37.341,34.606 36.545,34.606 C36.052,34.606 35.489,34.757 35.436,34.982 L35.212,36.024 L35.302,36.059 L35.662,35.497" id="Fill-4"></path>
                    <path d="M7.256,37.932 C7.631,37.932 7.883,38.015 7.974,38.047 L8.423,38.595 L8.505,38.552 L8.166,37.509 C8.083,37.329 7.594,37.219 7.19,37.219 C6.792,37.219 5.823,37.32 5.451,38.244 L5.444,38.257 L5.694,39.264 L5.787,39.257 L5.845,38.578 L5.851,38.568 C5.908,38.483 6.216,38.059 6.844,37.965 C6.981,37.943 7.123,37.932 7.256,37.932" id="Fill-5"></path>
                    <path d="M8.053,40.621 C8.347,40.621 8.541,40.679 8.592,40.695 L9.078,41.206 L9.157,41.157 L8.752,40.138 C8.668,39.985 8.275,39.916 7.947,39.916 C7.228,39.916 6.361,40.222 6.079,41.076 L6.074,41.091 L6.387,42.072 L6.48,42.059 L6.496,41.379 L6.504,41.367 C6.549,41.281 6.829,40.835 7.454,40.691 C7.658,40.644 7.86,40.621 8.053,40.621" id="Fill-6"></path>
                    <path d="M6.13,32.717 C6.773,32.684 7.196,32.861 7.301,32.911 L7.662,33.497 L7.751,33.466 L7.555,32.382 C7.48,32.186 6.859,31.992 6.302,31.992 C5.858,31.992 5.05,32.105 4.641,32.859 L4.635,32.871 L4.744,33.916 L4.838,33.922 L5.015,33.244 C5.03,33.225 5.402,32.756 6.13,32.717" id="Fill-7"></path>
                    <path d="M7.534,35.489 L7.909,36.066 L7.995,36.032 L7.77,34.98 C7.721,34.755 7.158,34.606 6.662,34.606 C5.872,34.606 5.239,34.946 4.931,35.535 L4.925,35.548 L5.066,36.583 L5.159,36.592 L5.31,35.915 L5.323,35.902 C5.335,35.895 5.346,35.882 5.367,35.862 C5.524,35.709 5.855,35.387 6.435,35.335 C7.075,35.281 7.447,35.444 7.534,35.489" id="Fill-8"></path>
                    <path d="M41.946,23.775 C41.374,18.197 39.837,13.55 37.497,10.335 C35.152,7.112 32.062,5.404 28.554,5.394 C27.934,3.471 25.616,3.178 25.31,3.147 C25.211,2.827 24.335,0.309 21.642,0.273 L21.642,0.271 L21.541,0.271 L21.541,0.273 C18.848,0.309 17.974,2.827 17.873,3.147 C17.566,3.178 15.248,3.471 14.626,5.394 C11.12,5.404 8.029,7.112 5.688,10.335 C3.346,13.55 1.808,18.197 1.235,23.775 C0.38,32.097 1.879,41.45 5.347,49.433 C9.036,57.925 14.286,63.189 20.53,64.652 C20.612,64.783 21.121,65.554 21.541,65.62 L21.59,65.625 L21.592,65.625 L21.594,65.625 L21.642,65.62 C22.061,65.554 22.569,64.783 22.653,64.652 C28.896,63.189 34.149,57.925 37.836,49.433 C41.304,41.45 42.803,32.097 41.946,23.775 L41.946,23.775 Z M41.351,23.855 C41.375,24.083 41.389,24.315 41.409,24.544 C40.821,24.559 40.241,24.682 39.703,24.901 C39.27,19.554 37.824,15.161 35.687,12.222 C36.096,11.725 36.618,11.309 37.186,11.026 C39.371,14.131 40.811,18.555 41.351,23.855 L41.351,23.855 Z M35.996,44.562 C35.695,43.54 35.024,43.154 34.825,43.061 C34.452,42.883 34.087,42.791 33.738,42.791 C33.416,42.791 33.138,42.872 32.896,42.99 C33.668,40.887 34.946,36.62 34.988,31.365 L34.996,31.343 C35.236,30.654 35.932,30.226 36.81,30.226 C37.777,30.226 38.887,30.782 39.195,32.022 L39.196,32.026 C38.838,36.825 37.784,41.685 36.115,46.046 C36.167,45.427 36.106,44.938 35.996,44.562 L35.996,44.562 Z M21.588,59.619 L21.573,59.619 L21.541,59.619 L21.541,59.62 C21.042,59.632 19.848,59.854 19.671,60.773 C19.668,60.794 19.665,60.808 19.663,60.826 L19.647,60.928 L19.592,60.911 C18.652,60.568 17.735,60.103 16.843,59.532 C17.459,59.055 18.991,57.741 19.609,56.022 L19.612,56.014 C20.103,56.331 20.596,56.605 21.09,56.824 L21.599,57.046 L22.108,56.822 C22.621,56.594 23.132,56.308 23.64,55.975 C24.234,57.681 25.735,58.996 26.382,59.503 C25.476,60.087 24.545,60.562 23.59,60.911 L23.536,60.928 L23.519,60.823 C23.518,60.808 23.516,60.794 23.514,60.773 C23.333,59.854 22.141,59.632 21.634,59.62 L21.634,59.619 L21.588,59.619 L21.588,59.619 Z M7.095,46.112 C5.417,41.75 4.352,36.888 3.989,32.081 L4.003,32.022 C4.311,30.782 5.422,30.226 6.388,30.226 C7.267,30.226 7.962,30.654 8.204,31.343 L8.207,31.357 C8.247,36.617 9.528,40.888 10.3,42.991 C10.057,42.872 9.777,42.791 9.454,42.791 C9.107,42.791 8.737,42.883 8.364,43.061 C8.168,43.152 7.508,43.535 7.209,44.536 C7.092,44.927 7.029,45.446 7.095,46.112 L7.095,46.112 Z M15.125,11.852 C15.08,11.726 14.929,11.681 14.79,11.765 C14.392,12.002 14.34,12.811 14.518,13.456 C14.645,13.919 14.87,14.195 15.115,14.195 C15.287,14.195 15.455,14.111 15.607,13.95 C15.999,13.538 16.264,12.637 16.222,11.857 C16.127,9.991 15.071,9.896 14.859,9.896 C14.147,9.896 13.386,11.036 13.386,12.731 C13.386,14.376 14.017,15.678 14.855,15.758 C15.189,15.792 15.55,15.81 15.896,15.81 C17.231,15.81 19.046,15.567 20.113,14.412 C20.818,13.649 21.114,12.564 20.986,11.194 C20.79,9.017 19.655,7.169 17.949,6.237 C18.158,6.061 18.395,5.971 18.653,5.971 C19.854,5.971 21.267,7.874 21.385,8.467 C21.409,8.585 21.469,8.668 21.541,8.698 L21.592,8.711 L21.642,8.698 C21.715,8.668 21.773,8.585 21.798,8.467 C21.917,7.874 23.327,5.971 24.53,5.971 C24.788,5.971 25.024,6.061 25.233,6.237 C23.528,7.169 22.392,9.017 22.195,11.194 C22.07,12.564 22.364,13.649 23.071,14.412 C24.137,15.567 25.953,15.81 27.287,15.81 C27.636,15.81 27.987,15.792 28.328,15.758 C29.165,15.678 29.797,14.376 29.797,12.731 C29.797,11.036 29.035,9.896 28.322,9.896 C28.112,9.896 27.056,9.991 26.96,11.857 C26.919,12.637 27.185,13.538 27.576,13.95 C27.729,14.111 27.895,14.195 28.067,14.195 C28.314,14.195 28.536,13.919 28.664,13.456 C28.843,12.811 28.789,12.002 28.392,11.765 C28.254,11.681 28.103,11.726 28.057,11.852 C28.027,11.932 28.043,12.056 28.17,12.163 C28.286,12.26 28.337,12.767 28.227,13.075 C28.194,13.162 28.14,13.264 28.048,13.264 C27.921,13.264 27.439,13.048 27.439,11.989 C27.439,10.835 28.043,10.708 28.305,10.708 C28.568,10.708 29.297,11.188 29.297,12.731 C29.297,13.324 29.174,13.957 28.986,14.341 C28.628,15.07 28.033,15.252 27.38,14.852 C26.31,14.073 25.951,12.289 26.221,11.018 C26.343,10.438 26.827,9.091 28.662,9.091 L28.712,9.091 C31.13,9.122 33.325,10.358 35.118,12.685 C34.786,13.486 33.595,15.613 29.816,17.783 C28.796,17.139 27.509,16.722 26.277,16.64 C26.117,16.631 25.95,16.624 25.785,16.624 C24.624,16.624 23.639,16.89 22.847,17.102 C22.354,17.235 21.928,17.349 21.626,17.358 L21.59,17.358 C21.27,17.349 20.845,17.235 20.348,17.102 C19.558,16.89 18.574,16.624 17.41,16.624 C17.246,16.624 17.08,16.631 16.919,16.64 C15.688,16.722 14.397,17.14 13.378,17.783 C9.555,15.603 8.383,13.487 8.061,12.69 C9.855,10.36 12.051,9.122 14.472,9.091 L14.52,9.091 C16.357,9.091 16.84,10.438 16.963,11.018 C17.231,12.289 16.871,14.073 15.807,14.851 C15.143,15.258 14.553,15.07 14.198,14.341 C14.007,13.957 13.886,13.324 13.886,12.731 C13.886,11.188 14.614,10.708 14.88,10.708 C15.139,10.708 15.743,10.835 15.743,11.989 C15.743,13.048 15.265,13.264 15.135,13.264 C15.045,13.264 14.987,13.162 14.957,13.075 C14.844,12.767 14.896,12.26 15.013,12.163 C15.141,12.056 15.156,11.932 15.125,11.852 L15.125,11.852 Z M14.839,26.776 C14.839,26.776 17.528,38.299 18.158,40.993 C18.64,37.882 21.052,22.337 21.052,22.337 L21.063,22.265 L21.726,22.265 L21.74,22.333 C21.74,22.333 25.076,38.301 25.688,41.225 C26.221,38.914 29.021,26.775 29.024,26.761 C29.085,26.386 29.03,26.098 28.863,25.929 C28.687,25.748 28.404,25.72 28.25,25.72 C28.174,25.72 28.123,25.727 28.115,25.728 L27.835,25.771 L27.835,24.378 L32.021,24.378 L32.021,25.796 L31.75,25.775 C31.742,25.773 31.725,25.773 31.696,25.773 C31.509,25.773 31.062,25.827 30.938,26.338 L25.497,50.936 L24.763,50.936 L24.75,50.866 C24.718,50.705 21.88,36.099 21.349,33.376 C20.931,36.109 18.701,50.702 18.675,50.863 L18.666,50.936 L17.843,50.936 L17.828,50.871 C17.595,49.868 12.113,26.36 12.113,26.353 C12.027,25.874 11.506,25.748 11.402,25.727 L11.197,25.694 L11.197,24.378 L15.879,24.378 L15.879,25.724 L15.6,25.686 C15.573,25.685 15.265,25.659 15.058,25.853 C14.905,26.001 14.827,26.243 14.827,26.568 C14.827,26.632 14.832,26.701 14.839,26.776 L14.839,26.776 Z M30.087,17.979 C33.667,15.925 34.917,13.951 35.336,12.981 C35.525,13.24 35.711,13.508 35.89,13.793 C37.772,16.775 38.924,20.831 39.237,25.526 C38.478,25.925 36.827,26.647 34.652,26.802 C34.177,23.918 32.996,20.015 30.087,17.979 L30.087,17.979 Z M13.1,17.985 C10.197,20.022 9.018,23.925 8.544,26.806 C6.366,26.652 4.709,25.929 3.946,25.527 C4.26,20.831 5.412,16.775 7.292,13.793 C7.471,13.509 7.656,13.243 7.844,12.983 C8.265,13.954 9.515,15.93 13.1,17.985 L13.1,17.985 Z M8.497,27.109 C8.327,28.229 8.259,29.174 8.234,29.744 C8.224,29.976 8.217,30.207 8.213,30.435 C7.785,29.953 7.136,29.682 6.389,29.682 C5.518,29.682 4.511,30.082 3.914,30.939 C3.824,29.225 3.824,27.524 3.921,25.862 C4.745,26.285 6.376,26.959 8.497,27.109 L8.497,27.109 Z M7.756,44.628 C7.932,44.101 8.268,43.719 8.752,43.491 C8.979,43.383 9.209,43.328 9.436,43.328 C10.168,43.328 10.66,43.877 10.776,44.268 C10.925,44.765 10.704,45.314 10.25,45.568 C10.052,45.679 9.864,45.737 9.696,45.737 C9.289,45.737 9.077,45.419 9.038,45.266 C8.977,45.017 9.061,44.762 9.245,44.645 C9.389,44.552 9.561,44.604 9.635,44.741 C9.697,44.851 9.861,44.855 9.942,44.754 C9.989,44.698 10.004,44.622 9.985,44.539 C9.915,44.216 9.462,44.05 9.178,44.126 C8.689,44.256 8.341,44.848 8.451,45.369 C8.501,45.609 8.821,46.297 9.612,46.297 C9.778,46.297 9.955,46.265 10.143,46.204 C10.804,45.987 11.118,45.606 11.259,45.226 C11.728,46.204 12.212,47.132 12.712,48.007 C11.441,49.23 9.473,49.719 8.754,49.863 C8.684,49.727 8.618,49.585 8.55,49.446 C7.9,47.872 7.324,45.923 7.756,44.628 L7.756,44.628 Z M12.871,48.279 C14.859,51.695 17.071,54.277 19.348,55.834 L19.341,55.854 C18.749,57.573 17.119,58.933 16.575,59.35 C13.653,57.395 11.026,54.249 8.902,50.145 C9.699,49.981 11.586,49.48 12.871,48.279 L12.871,48.279 Z M23.907,55.794 C26.159,54.237 28.347,51.676 30.315,48.299 C31.616,49.503 33.497,49.99 34.279,50.149 C32.165,54.232 29.554,57.365 26.649,59.322 C26.059,58.865 24.469,57.503 23.907,55.794 L23.907,55.794 Z M30.474,48.025 C30.977,47.146 31.465,46.214 31.935,45.231 C32.078,45.61 32.392,45.988 33.051,46.204 C33.237,46.265 33.416,46.297 33.582,46.297 C34.367,46.297 34.691,45.609 34.74,45.369 C34.85,44.848 34.503,44.256 34.014,44.126 C33.73,44.05 33.276,44.216 33.207,44.539 C33.189,44.622 33.205,44.698 33.251,44.754 C33.331,44.855 33.495,44.851 33.557,44.741 C33.633,44.604 33.804,44.552 33.947,44.645 C34.127,44.762 34.214,45.017 34.152,45.266 C34.113,45.419 33.903,45.737 33.496,45.737 C33.326,45.737 33.141,45.679 32.944,45.568 C32.491,45.314 32.268,44.765 32.416,44.268 C32.533,43.877 33.025,43.328 33.756,43.328 C33.983,43.328 34.214,43.383 34.441,43.491 C34.922,43.719 35.257,44.101 35.431,44.628 C35.854,45.894 35.314,47.788 34.682,49.344 C34.598,49.518 34.515,49.695 34.428,49.865 C33.723,49.726 31.754,49.242 30.474,48.025 L30.474,48.025 Z M36.81,29.682 C36.062,29.682 35.415,29.953 34.983,30.443 C34.979,30.211 34.972,29.979 34.962,29.744 C34.938,29.173 34.87,28.226 34.699,27.103 C36.821,26.951 38.443,26.28 39.263,25.86 C39.358,27.515 39.356,29.209 39.268,30.917 C38.669,30.074 37.671,29.682 36.81,29.682 L36.81,29.682 Z M28.636,6.011 C28.928,6.011 29.232,6.027 29.538,6.059 C32.419,6.362 34.934,7.946 37.003,10.766 C36.435,11.056 35.913,11.468 35.494,11.958 C33.652,9.547 31.32,8.186 28.693,8.183 C27.111,8.183 25.967,9.204 25.629,10.913 C25.38,12.187 25.731,13.709 26.505,14.703 C26.52,14.724 26.562,14.796 26.54,14.84 C26.52,14.882 26.444,14.904 26.327,14.904 C26.019,14.904 24.435,14.851 23.483,13.814 C22.901,13.179 22.659,12.319 22.761,11.257 C22.996,8.835 24.674,6.011 28.636,6.011 L28.636,6.011 Z M21.592,0.773 C23.809,0.779 24.47,2.776 24.57,3.13 C24.515,3.134 24.427,3.142 24.324,3.159 C24.199,3.18 24.051,3.215 23.988,3.229 C23.885,3.087 23.386,2.457 22.549,2.457 C22.243,2.457 21.924,2.545 21.604,2.717 L21.592,2.724 L21.58,2.717 C21.26,2.545 20.94,2.457 20.632,2.457 C19.8,2.457 19.298,3.087 19.196,3.229 C19.131,3.215 18.984,3.18 18.858,3.159 C18.756,3.142 18.668,3.134 18.613,3.13 C18.712,2.774 19.375,0.779 21.592,0.773 L21.592,0.773 Z M23.52,3.395 C22.718,3.691 22.103,4.225 21.695,4.986 C21.647,5.072 21.611,5.104 21.592,5.111 C21.572,5.104 21.534,5.072 21.488,4.986 C21.081,4.23 20.468,3.693 19.663,3.395 C19.906,3.209 20.174,3.114 20.456,3.114 C21.017,3.114 21.44,3.484 21.489,3.637 C21.5,3.671 21.513,3.706 21.541,3.729 L21.592,3.751 L21.642,3.729 C21.672,3.706 21.683,3.671 21.695,3.637 C21.742,3.484 22.165,3.114 22.727,3.114 C23.006,3.114 23.276,3.209 23.52,3.395 L23.52,3.395 Z M18.416,3.605 C19.811,3.605 20.918,4.399 21.448,5.78 C21.476,5.867 21.503,5.934 21.541,5.963 L21.588,5.982 L21.592,5.982 L21.594,5.982 L21.642,5.964 C21.681,5.934 21.706,5.868 21.732,5.783 C22.267,4.399 23.371,3.605 24.767,3.605 C26.153,3.605 27.441,4.392 27.792,5.443 C27.647,5.463 27.255,5.521 26.971,5.576 C26.666,5.633 26.3,5.756 26.189,5.798 C25.94,5.485 25.378,5.159 24.704,5.159 C23.92,5.159 22.755,5.587 21.653,7.623 C21.647,7.637 21.632,7.659 21.6,7.669 L21.592,7.672 L21.583,7.669 C21.55,7.659 21.536,7.637 21.526,7.621 C20.428,5.587 19.263,5.159 18.477,5.159 C17.804,5.159 17.243,5.485 16.993,5.798 C16.882,5.756 16.515,5.633 16.211,5.576 C15.927,5.521 15.534,5.463 15.39,5.443 C15.742,4.392 17.029,3.605 18.416,3.605 L18.416,3.605 Z M13.646,6.059 C13.95,6.027 14.254,6.011 14.546,6.011 C18.508,6.011 20.186,8.835 20.419,11.257 C20.523,12.319 20.28,13.179 19.7,13.814 C18.748,14.851 17.166,14.904 16.858,14.904 C16.739,14.904 16.663,14.882 16.641,14.84 C16.621,14.796 16.661,14.724 16.677,14.703 C17.45,13.709 17.802,12.187 17.551,10.913 C17.215,9.204 16.071,8.183 14.488,8.183 C11.859,8.186 9.528,9.548 7.685,11.961 C7.267,11.467 6.749,11.053 6.18,10.763 C8.253,7.944 10.763,6.361 13.646,6.059 L13.646,6.059 Z M1.833,23.855 C2.371,18.555 3.812,14.131 5.995,11.026 C6.565,11.309 7.083,11.724 7.494,12.224 C5.357,15.164 3.914,19.556 3.481,24.902 C2.947,24.687 2.357,24.564 1.775,24.545 C1.794,24.315 1.809,24.084 1.833,23.855 L1.833,23.855 Z M5.8,48.974 C2.575,41.566 1.118,32.839 1.748,24.86 C2.336,24.876 2.93,25.005 3.457,25.229 C3.444,25.406 3.43,25.582 3.419,25.76 C2.988,33.001 4.359,40.971 7.181,47.619 C7.484,48.333 7.804,49.017 8.134,49.685 C7.543,49.805 6.958,50.047 6.442,50.379 C6.223,49.92 6.008,49.453 5.8,48.974 L5.8,48.974 Z M6.582,50.665 C7.097,50.328 7.686,50.084 8.276,49.976 C10.377,54.147 12.99,57.393 15.913,59.485 C15.401,59.924 14.97,60.483 14.677,61.093 C11.555,58.78 8.818,55.267 6.582,50.665 L6.582,50.665 Z M14.936,61.288 C15.22,60.671 15.655,60.1 16.18,59.668 C17.28,60.424 18.421,61.023 19.596,61.443 C19.596,61.58 19.607,62.097 19.711,62.625 C19.804,63.099 20,63.586 20.089,63.784 C18.279,63.285 16.557,62.446 14.936,61.288 L14.936,61.288 Z M21.869,64.794 C21.826,64.843 21.714,64.964 21.592,64.971 C21.469,64.964 21.359,64.843 21.313,64.794 C20.739,64.076 19.828,62.613 20.166,60.871 C20.263,60.369 21.074,60.131 21.592,60.129 C22.108,60.131 22.919,60.369 23.015,60.871 C23.354,62.613 22.441,64.076 21.869,64.794 L21.869,64.794 Z M23.095,63.784 C23.182,63.586 23.381,63.099 23.472,62.625 C23.574,62.097 23.585,61.58 23.586,61.443 C24.77,61.02 25.92,60.414 27.029,59.65 C27.556,60.078 27.994,60.648 28.282,61.264 C26.651,62.436 24.917,63.281 23.095,63.784 L23.095,63.784 Z M28.538,61.068 C28.242,60.459 27.809,59.902 27.293,59.466 C30.2,57.379 32.798,54.151 34.892,50.006 C35.488,50.135 36.063,50.387 36.564,50.739 C34.341,55.287 31.629,58.767 28.538,61.068 L28.538,61.068 Z M37.383,48.974 C37.163,49.478 36.938,49.972 36.707,50.454 C36.203,50.107 35.63,49.855 35.033,49.717 C35.369,49.04 35.694,48.344 36.001,47.619 C38.825,40.971 40.196,33.001 39.764,25.76 C39.754,25.581 39.739,25.406 39.726,25.229 C40.263,24.998 40.847,24.873 41.436,24.86 C42.064,32.839 40.609,41.566 37.383,48.974 L37.383,48.974 Z" id="Fill-9"></path>
                </g>
            </g>
        </g>
    </g>
</svg>