<?xml version="1.0" encoding="utf-8"?>
<!-- Generator: Adobe Illustrator 18.1.1, SVG Export Plug-In . SVG Version: 6.00 Build 0)  -->
<svg version="1.1" id="Layer_1" xmlns="http://www.w3.org/2000/svg" xmlns:xlink="http://www.w3.org/1999/xlink" x="0px" y="0px"
	 viewBox="-250 342 110 110" enable-background="new -250 342 110 110" xml:space="preserve">
<g id="Artboard">
</g>
<g id="Multicolor">
	<circle fill="#C2242A" cx="-195" cy="397" r="55"/>
	<rect x="-250" y="342" fill="#C2242A" width="110" height="110"/>
	<g>
		<path fill="#D6434E" d="M-211,413c0,2.2,1.8,4,4,4h24l12,12v-12h4c2.2,0,4-1.8,4-4v-32c0-2.2-1.8-4-4-4h-40c-2.2,0-4,1.8-4,4V413z
			"/>
		<path fill="#F0F1F1" d="M-179,405c0,2.2-1.8,4-4,4h-24l-12,12v-12h-4c-2.2,0-4-1.8-4-4v-32c0-2.2,1.8-4,4-4h40c2.2,0,4,1.8,4,4
			V405z"/>
		<path fill="#FFFFFF" d="M-179.7,370.8c-0.7-1.1-1.9-1.8-3.3-1.8h-40c-2.2,0-4,1.8-4,4v32c0,2.2,1.8,4,4,4h4v1.1L-179.7,370.8z"/>
		<circle fill="#C2242A" cx="-215" cy="389" r="4"/>
		<circle fill="#C2242A" cx="-203" cy="389" r="4"/>
		<circle fill="#C2242A" cx="-191" cy="389" r="4"/>
	</g>
</g>
</svg>
